<?xml version="1.0" encoding="utf-8"?>
<!-- Generator: Adobe Illustrator 25.3.1, SVG Export Plug-In . SVG Version: 6.00 Build 0)  -->
<svg version="1.1" id="Layer_1" xmlns="http://www.w3.org/2000/svg" xmlns:xlink="http://www.w3.org/1999/xlink" x="0px" y="0px"
	 viewBox="0 0 1000 720" style="enable-background:new 0 0 1000 720;" xml:space="preserve">
<style type="text/css">
	.st0{fill:#FFFFFF;stroke:#000000;stroke-miterlimit:10;}
	.st1{fill:#CA8038;}
	.st2{fill:#7BB33A;}
	.st3{fill:#86C440;}
	.st4{fill:#CC9200;}
	.st5{fill:#EFBC30;}
	.st6{fill:#FFD652;}
	.st7{font-family:'MyriadPro-Regular';}
	.st8{font-size:147.32px;}
	.st9{letter-spacing:10;}
	.st10{letter-spacing:9;}
	.st11{font-family:'MyriadPro-Light';}
	.st12{font-size:59.255px;}
	.st13{letter-spacing:23;}
	.st14{letter-spacing:24;}
	.st15{letter-spacing:19;}
</style>
<rect class="st0" width="1000" height="720"/>
<g id="Layer_8">
	<path class="st1" d="M145.5,301.2c0,0,5.6,7.9,9.6,9.6s7.5-0.5,9.4,0.9s0.7,7.2,6.5,11.4s6.1,7.7,5.9,13.1s3.9,63.4-2.3,68
		c-5.7,4.4-12.7,6.8-19.9,6.6c-7.7,0-16.1,7-16.1,7h105c0,0-3-6.3-17.5-6.8s-18.9-11-18.4-29s-2.1-45.6-0.4-51.5s7.9-10.7,11.9-11.4
		s8,1,11-3.7s3.3-8.2,5.6-10.3l-0.5-2.5c0,0-3.5,3.5-4.7,6s-4-4.7-1.4-10.1l-6.5,0.9c0,0,2.3,1,3,7s-7,7-10.5,6.5s-7.7,3.3-9.8,3.1
		s-7.2-4.5-5.8-13.8s12.4-6.6,12.4-6.6l-2.3-3.9c-2.4-0.5-5,0-7,1.4c-3.7,2.4-2.8,5.2-7,4.9s-3.7-5.6-9.1-5.6l-1.8,2.4
		c4.8,0.8,8.7,4.1,10.3,8.7c2.8,7.9-5.2,11.5-8.4,8.6s-7.2-10-6.1-15.9l-8.7-1.3c0,0,5.2,4.6,7.9,9.9s1.8,11-2.6,12
		s-8.9-4.7-9.1-9.8s0.9-6.5-0.5-11.2l-7.3,1.6c0,0,4.2,2.3,5.2,6.5s-6.5,6.5-8.2-3.8l-4.7-2.1c0,0,1.9,6.3,6.8,10.1
		c1.4,1.6-8.4-0.2-10.8-8.2L145.5,301.2z"/>
	<path class="st2" d="M192,291.4c-2.5,0.3-2.4,4.4-4.4,5.2s-2.8,2.1-6.3,1.2s-5.4-0.5-7.2,1.6s-5.8,1.4-8,0s-2.8,3.5-7.2,2.3
		s-8-0.9-9.4,1.8s-2.6,4.5-6.5,4.7s-5.2-3-8.2-3.7s-5.6,5.1-10,3.7s-8.6-1.2-8.4-5.6s4-3.5,2.8-7.2s-6.1,0.4-7.5-4
		s-0.3-10.1,3.1-9.3s5.1-4.9,9.4-2.3c4.3,2.6,6.6-5.6,10.1-5.6s6.1-4,9.8-1.2s4.3-7.3,7.3-6.3s6.9-5.1,10.4-1.8s5.1-0.1,8.6-1
		c3.2-0.8,6.5,0.7,8,3.6c1.2,2.6,6.5-5.4,10.1-2.8s5.4-3.8,10.7-3s6.6,4.4,11,3s6.3-4.9,10-3s5.2,8.1,8.7,6.7s6.3-3.8,7.9,0.4
		s0.4,8,5.1,8.6s8-2.3,11,0.5s4.7,4.7,7.3,1.7s8.4-0.2,8.9,3.5s1.9,7.2,5.4,8s4,7.5,1,9.4c-3.5,2.3-7.9,2.8-11.9,1.4
		c-4.7-1.6-7.2,7.6-12.4,6.3s-7.3-3.9-10-2s-8.9,1.8-8.6-3.1s-3.9,0-9.4-0.9s-8.4,4-13.6,0s-2.4-7.2-7.7-6.5S199.2,290.5,192,291.4z
		"/>
	<path class="st3" d="M274.3,301.4c-0.3-1.8-1.3-3.4-2.9-3.7c-3.5-0.9-4.9-4.4-5.4-8s-6.3-6.5-8.9-3.5s-4.4,1-7.3-1.8s-6.3,0-11-0.5
		s-3.5-4.4-5.1-8.6s-4.4-1.7-7.9-0.4s-5.1-4.9-8.7-6.7s-5.6,1.7-10,3.1s-5.8-2.1-11-3s-7,5.6-10.7,3s-8.9,5.4-10.1,2.8
		c-1.5-2.9-4.8-4.4-8-3.6c-3.5,0.9-5.1,4.3-8.6,1s-7.3,2.8-10.3,1.8s-3.6,9.1-7.3,6.3s-6.3,1.2-9.8,1.2s-5.8,8.2-10.1,5.6
		s-6,3.1-9.4,2.3c-0.2,0-0.3-0.1-0.5-0.1c0.1,1,0.3,1.9,0.6,2.9c1.4,4.4,6.3,0.4,7.5,4s-2.6,2.8-2.8,7.2s4,4.2,8.4,5.6
		c4.4,1.4,7-4.4,10-3.7s4.4,3.8,8.2,3.7s5.1-2.1,6.5-4.7s5.1-3,9.4-1.8s4.9-3.7,7.2-2.3s6.3,2.1,8,0s3.7-2.5,7.2-1.6
		s4.4-0.4,6.3-1.2s1.8-4.9,4.4-5.2c7.2-0.9,4.9,5.2,10.1,4.5s2.4,2.5,7.7,6.5s8-0.9,13.6,0s9.8-4,9.4,0.9s5.9,5.1,8.6,3.1
		s4.7,0.7,10,2c5.3,1.3,7.7-7.9,12.4-6.3C267.3,303.3,271.1,303,274.3,301.4z"/>
	<path class="st4" d="M126.9,433.5h59.3c1.3,0,2.3-1.6,2.3-3.6v-9.1c0-2-1-3.6-2.3-3.6h-59.3c-1.3,0-2.3,1.6-2.3,3.6v9.1
		C124.6,431.9,125.6,433.5,126.9,433.5z"/>
	<path class="st5" d="M126.9,433h59.3c1.1,0,2.1-1.3,2.1-3v-9.3c0-1.7-0.9-3-2.1-3h-59.3c-1.1,0-2.1,1.3-2.1,3v9.3
		C124.8,431.6,125.8,433,126.9,433z"/>
	<path class="st6" d="M187.7,431h0.3c0.1,0,0.1-0.1,0.1-0.2V420c0-0.1-0.1-0.2-0.1-0.2h-0.3c-0.1,0-0.1,0.1-0.1,0.2v10.8
		C187.6,430.9,187.6,431,187.7,431z"/>
	<rect x="183.7" y="417.7" class="st6" width="0.6" height="15.3"/>
	<rect x="179.8" y="417.7" class="st6" width="0.6" height="15.3"/>
	<rect x="175.9" y="417.7" class="st6" width="0.6" height="15.3"/>
	<rect x="171.9" y="417.7" class="st6" width="0.6" height="15.3"/>
	<rect x="168" y="417.7" class="st6" width="0.6" height="15.3"/>
	<rect x="164.1" y="417.7" class="st6" width="0.6" height="15.3"/>
	<rect x="160.2" y="417.7" class="st6" width="0.6" height="15.3"/>
	<rect x="156.3" y="417.7" class="st6" width="0.6" height="15.3"/>
	<rect x="152.4" y="417.7" class="st6" width="0.6" height="15.3"/>
	<rect x="148.5" y="417.7" class="st6" width="0.6" height="15.3"/>
	<rect x="144.6" y="417.7" class="st6" width="0.6" height="15.3"/>
	<rect x="140.7" y="417.7" class="st6" width="0.6" height="15.3"/>
	<rect x="136.8" y="417.7" class="st6" width="0.6" height="15.3"/>
	<rect x="132.9" y="417.7" class="st6" width="0.6" height="15.3"/>
	<rect x="128.9" y="417.7" class="st6" width="0.6" height="15.3"/>
	<rect x="125" y="419.4" class="st6" width="0.6" height="11.9"/>
	<path class="st4" d="M192.8,433.5h59.3c1.3,0,2.3-1.6,2.3-3.6v-9.1c0-2-1.1-3.6-2.3-3.6h-59.3c-1.3,0-2.3,1.6-2.3,3.6v9.1
		C190.5,431.9,191.5,433.5,192.8,433.5z"/>
	<path class="st5" d="M192.8,433h59.3c1.1,0,2.1-1.3,2.1-3v-9.3c0-1.7-0.9-3-2.1-3h-59.3c-1.1,0-2.1,1.3-2.1,3v9.3
		C190.7,431.6,191.6,433,192.8,433z"/>
	<path class="st6" d="M253.6,431h0.3c0.1,0,0.1-0.1,0.1-0.2V420c0-0.1-0.1-0.2-0.1-0.2h-0.3c-0.1,0-0.1,0.1-0.1,0.2v10.8
		C253.5,430.9,253.6,431,253.6,431z"/>
	<rect x="249.6" y="417.7" class="st6" width="0.6" height="15.3"/>
	<rect x="245.7" y="417.7" class="st6" width="0.6" height="15.3"/>
	<rect x="241.8" y="417.7" class="st6" width="0.6" height="15.3"/>
	<rect x="237.9" y="417.7" class="st6" width="0.6" height="15.3"/>
	<rect x="233.9" y="417.7" class="st6" width="0.6" height="15.3"/>
	<rect x="230" y="417.7" class="st6" width="0.6" height="15.3"/>
	<rect x="226.1" y="417.7" class="st6" width="0.6" height="15.3"/>
	<rect x="222.2" y="417.7" class="st6" width="0.6" height="15.3"/>
	<rect x="218.3" y="417.7" class="st6" width="0.6" height="15.3"/>
	<rect x="214.4" y="417.7" class="st6" width="0.6" height="15.3"/>
	<rect x="210.5" y="417.7" class="st6" width="0.6" height="15.3"/>
	<rect x="206.6" y="417.7" class="st6" width="0.6" height="15.3"/>
	<rect x="202.7" y="417.7" class="st6" width="0.6" height="15.3"/>
	<rect x="198.8" y="417.7" class="st6" width="0.6" height="15.3"/>
	<rect x="194.8" y="417.7" class="st6" width="0.6" height="15.3"/>
	<rect x="190.9" y="419.4" class="st6" width="0.6" height="11.9"/>
	<path class="st4" d="M225.4,450.1h59.3c1.3,0,2.3-1.6,2.3-3.6v-9.1c0-2-1-3.6-2.3-3.6h-59.3c-1.3,0-2.3,1.6-2.3,3.6v9.1
		C223,448.5,224.1,450.1,225.4,450.1z"/>
	<path class="st5" d="M225.4,449.6h59.3c1.1,0,2.1-1.3,2.1-3v-9.3c0-1.7-0.9-3-2.1-3h-59.3c-1.1,0-2.1,1.3-2.1,3v9.3
		C223.3,448.2,224.2,449.6,225.4,449.6z"/>
	<path class="st6" d="M286.2,447.6h0.3c0.1,0,0.1-0.1,0.1-0.2v-10.8c0-0.1-0.1-0.2-0.1-0.2h-0.3c-0.1,0-0.1,0.1-0.1,0.2v10.8
		C286.1,447.5,286.1,447.6,286.2,447.6z"/>
	<rect x="282.1" y="434.3" class="st6" width="0.6" height="15.3"/>
	<rect x="278.2" y="434.3" class="st6" width="0.6" height="15.3"/>
	<rect x="274.3" y="434.3" class="st6" width="0.6" height="15.3"/>
	<rect x="270.4" y="434.3" class="st6" width="0.6" height="15.3"/>
	<rect x="266.5" y="434.3" class="st6" width="0.6" height="15.3"/>
	<rect x="262.6" y="434.3" class="st6" width="0.6" height="15.3"/>
	<rect x="258.7" y="434.3" class="st6" width="0.6" height="15.3"/>
	<rect x="254.8" y="434.3" class="st6" width="0.6" height="15.3"/>
	<rect x="250.9" y="434.3" class="st6" width="0.6" height="15.3"/>
	<rect x="247" y="434.3" class="st6" width="0.6" height="15.3"/>
	<rect x="243.1" y="434.3" class="st6" width="0.6" height="15.3"/>
	<rect x="239.1" y="434.3" class="st6" width="0.6" height="15.3"/>
	<rect x="235.2" y="434.3" class="st6" width="0.6" height="15.3"/>
	<rect x="231.3" y="434.3" class="st6" width="0.6" height="15.3"/>
	<rect x="227.4" y="434.3" class="st6" width="0.6" height="15.3"/>
	<rect x="223.5" y="436" class="st6" width="0.6" height="11.9"/>
	<path class="st4" d="M159.9,450.1h59.3c1.3,0,2.3-1.6,2.3-3.6v-9.1c0-2-1-3.6-2.3-3.6h-59.3c-1.3,0-2.3,1.6-2.3,3.6v9.1
		C157.5,448.5,158.6,450.1,159.9,450.1z"/>
	<path class="st5" d="M159.8,449.6h59.3c1.1,0,2.1-1.3,2.1-3v-9.3c0-1.7-0.9-3-2.1-3h-59.3c-1.1,0-2.1,1.3-2.1,3v9.3
		C157.8,448.2,158.7,449.6,159.8,449.6z"/>
	<path class="st6" d="M220.7,447.6h0.3c0.1,0,0.1-0.1,0.1-0.2v-10.8c0-0.1-0.1-0.2-0.1-0.2h-0.3c-0.1,0-0.1,0.1-0.1,0.2v10.8
		C220.5,447.5,220.6,447.6,220.7,447.6z"/>
	<rect x="216.6" y="434.3" class="st6" width="0.6" height="15.3"/>
	<rect x="212.7" y="434.3" class="st6" width="0.6" height="15.3"/>
	<rect x="208.8" y="434.3" class="st6" width="0.6" height="15.3"/>
	<rect x="204.9" y="434.3" class="st6" width="0.6" height="15.3"/>
	<rect x="201" y="434.3" class="st6" width="0.6" height="15.3"/>
	<rect x="197.1" y="434.3" class="st6" width="0.6" height="15.3"/>
	<rect x="193.2" y="434.3" class="st6" width="0.6" height="15.3"/>
	<rect x="189.3" y="434.3" class="st6" width="0.6" height="15.3"/>
	<rect x="185.4" y="434.3" class="st6" width="0.6" height="15.3"/>
	<rect x="181.4" y="434.3" class="st6" width="0.6" height="15.3"/>
	<rect x="177.5" y="434.3" class="st6" width="0.6" height="15.3"/>
	<rect x="173.6" y="434.3" class="st6" width="0.6" height="15.3"/>
	<rect x="169.7" y="434.3" class="st6" width="0.6" height="15.3"/>
	<rect x="165.8" y="434.3" class="st6" width="0.6" height="15.3"/>
	<rect x="161.9" y="434.3" class="st6" width="0.6" height="15.3"/>
	<rect x="158" y="436" class="st6" width="0.6" height="11.9"/>
	<path class="st4" d="M94.3,450.1h59.3c1.3,0,2.3-1.6,2.3-3.6v-9.1c0-2-1.1-3.6-2.3-3.6H94.3c-1.3,0-2.3,1.6-2.3,3.6v9.1
		C92,448.5,93,450.1,94.3,450.1z"/>
	<path class="st5" d="M94.3,449.6h59.3c1.1,0,2.1-1.3,2.1-3v-9.3c0-1.7-0.9-3-2.1-3H94.3c-1.1,0-2.1,1.3-2.1,3v9.3
		C92.3,448.2,93.2,449.6,94.3,449.6z"/>
	<path class="st6" d="M155.2,447.6h0.3c0.1,0,0.1-0.1,0.1-0.2v-10.8c0-0.1-0.1-0.2-0.1-0.2h-0.3c-0.1,0-0.1,0.1-0.1,0.2v10.8
		C155,447.5,155.1,447.6,155.2,447.6z"/>
	<rect x="151.1" y="434.3" class="st6" width="0.6" height="15.3"/>
	<rect x="147.2" y="434.3" class="st6" width="0.6" height="15.3"/>
	<rect x="143.3" y="434.3" class="st6" width="0.6" height="15.3"/>
	<rect x="139.4" y="434.3" class="st6" width="0.6" height="15.3"/>
	<rect x="135.5" y="434.3" class="st6" width="0.6" height="15.3"/>
	<rect x="131.6" y="434.3" class="st6" width="0.6" height="15.3"/>
	<rect x="127.7" y="434.3" class="st6" width="0.6" height="15.3"/>
	<rect x="123.7" y="434.3" class="st6" width="0.6" height="15.3"/>
	<rect x="119.8" y="434.3" class="st6" width="0.6" height="15.3"/>
	<rect x="115.9" y="434.3" class="st6" width="0.6" height="15.3"/>
	<rect x="112" y="434.3" class="st6" width="0.6" height="15.3"/>
	<rect x="108.1" y="434.3" class="st6" width="0.6" height="15.3"/>
	<rect x="104.2" y="434.3" class="st6" width="0.6" height="15.3"/>
	<rect x="100.3" y="434.3" class="st6" width="0.6" height="15.3"/>
	<rect x="96.4" y="434.3" class="st6" width="0.6" height="15.3"/>
	<rect x="92.5" y="436" class="st6" width="0.6" height="11.9"/>
	<g>
		<text transform="matrix(1 0 0 1 310.15 386.06)" class="st2 st7 st8 st9">S</text>
		<text transform="matrix(1 0 0 1 395.01 386.06)" class="st2 st7 st8 st10">a</text>
		<text transform="matrix(1 0 0 1 476.62 386.06)" class="st2 st7 st8 st9">v</text>
		<text transform="matrix(1 0 0 1 558.68 386.06)" class="st2 st7 st8 st9">anna</text>
	</g>
	<g>
		<text transform="matrix(1 0 0 1 313.27 450.25)" class="st1 st11 st12 st13">A</text>
		<text transform="matrix(1 0 0 1 372.5879 450.25)" class="st1 st11 st12 st14">GRICU</text>
		<text transform="matrix(1 0 0 1 648.7871 450.25)" class="st1 st11 st12 st15">L</text>
		<text transform="matrix(1 0 0 1 695.897 450.25)" class="st1 st11 st12 st14">TURE</text>
	</g>
</g>
</svg>
