<svg id="Layer_1" data-name="Layer 1" xmlns="http://www.w3.org/2000/svg" xmlns:xlink="http://www.w3.org/1999/xlink" viewBox="0 0 1000 1000"><defs><style>.cls-1{fill:url(#Gold1_2);}.cls-2,.cls-3{font-size:109.71px;font-family:Herculanum;}.cls-3{fill:#fff;}</style><linearGradient id="Gold1_2" x1="372.08" y1="434.99" x2="624.35" y2="434.99" gradientUnits="userSpaceOnUse"><stop offset="0" stop-color="#8b6a29"/><stop offset="0.46" stop-color="#fdca0b"/><stop offset="0.78" stop-color="#e0af0c"/><stop offset="1" stop-color="#5a3312"/></linearGradient></defs><rect width="1000" height="1000"/><path class="cls-1" d="M495.07,303.71c-16.44,2.23-28.91,11.74-38.1,29.07-3.55,6.69-5.09,13.21-4.57,19.38s3.16,12.34,7.84,18.14c5.56,6.87,10.57,12.73,15.33,17.91,2.58,2.79,2.67,5.06.34,7.81-6.11,7.18-12.36,14.73-18.59,22.43a5.29,5.29,0,0,1-3.95,2.33,6,6,0,0,1-3.47-1.37l-2-1.43A79.49,79.49,0,0,0,436,410.33l-1-.5c-6.32-3.05-12.86-6.2-19.52-7.32a22.19,22.19,0,0,0-3.7-.32c-7.23,0-14,3.47-22.1,11.25A57.79,57.79,0,0,0,373.86,439a44.64,44.64,0,0,0,2.42,31.4,46.81,46.81,0,0,0,14.26,17.9,35.43,35.43,0,0,0,21.25,7.39c8.32,0,16.55-3.1,24.48-9.21,4.17-3.22,7.52-7.3,11.07-11.61a110.74,110.74,0,0,1,7.41-8.44c1.59-1.58,3.18-3.21,5-5.13l1.16-1.21,1.18,1.18c3,2.95,6.05,6,9,8.91,2.69,2.64,5.24,5.14,7.44,7.33l.91.91-.67,1.1c-1.57,2.57-3.16,5.05-4.69,7.45a162.38,162.38,0,0,0-8.89,15,44.61,44.61,0,0,0-2.43,33.6,43,43,0,0,0,21.46,25.51c8.42,4.26,16.6,6.42,24.32,6.42a41.07,41.07,0,0,0,23.74-7.67c7.55-5.24,13.31-14.6,15.78-25.67s1.46-22.58-2.73-31.75c-5.71-12.5-15.57-21.19-23.53-27.37-.92-.71-1.78-1.46-2.78-2.32l-1.57-1.34-1.25-1.06,1.06-1.24,11.84-14,7.65-9.05,1.06-1.25,1.24,1.06c.8.67,1.57,1.34,2.33,2,1.62,1.41,3.15,2.73,4.76,4,11.28,8.58,21.77,13,33,13.87,1.16.1,2.32.14,3.47.14a41.72,41.72,0,0,0,34.56-18.29,40.71,40.71,0,0,0,4.14-38.45A54.33,54.33,0,0,0,598.28,382a33.75,33.75,0,0,0-17.42-5.25c-8.65,0-16.84,4.08-23.67,11.81-3.6,4.07-7.27,8-11.15,12.11-1.76,1.88-3.58,3.82-5.41,5.79l-1,1.05-1.17-.83-18.7-13.35-1.3-.93.9-1.32c1.93-2.85,3.87-5.57,5.74-8.21A172.68,172.68,0,0,0,536,366.28c4.21-7.65,6.43-15,6.61-22a36.34,36.34,0,0,0-6.73-21.71c-8.77-12.84-20.32-19.35-34.33-19.35v-.82h0v.82A48.59,48.59,0,0,0,495.07,303.71ZM459.72,424.1l10.89-12.88,11.58-13.7,1.13-1.34,1.26,1.23,10.36,10.1,1.09,1.06-1,1.16c-.86,1-1.73,2-2.6,3-1.9,2.21-3.86,4.49-5.67,6.8-3.24,4.13-6.35,8.4-9.22,12.4-.52.72-2.1,2.92-4.59,2.92a6,6,0,0,1-3.76-1.56c-1.94-1.56-4-3-6.14-4.62-1-.72-2-1.46-3.07-2.25l-1.4-1Zm37.09-7,2.67-3.17,1.06-1.25,1.25,1.06,15.42,13,2.41,2.05,1.25,1.05-1,1.25L508,445.06l-9,10.64L498,457l-1.24-1.06-17.84-15.08-1.25-1.05,1.06-1.25ZM477.9,472.22c-2.15-2.12-4.19-4.12-6.32-6.08-2.48-2.26-5-4.59-7.37-6.84-11.07-10.34-22.51-21-35.88-28.77a23.93,23.93,0,0,0-11.87-3.65c-5.58,0-10.77,2.82-15.43,8.39-7.38,8.82-7.8,20.06-1.08,28.64,3.6,4.6,8.43,7.13,13.59,7.13a17.69,17.69,0,0,0,12.07-5.1c4.15-3.85,7.91-8.08,11.89-12.55,1.8-2,3.66-4.12,5.59-6.2l1-1.08,1.18.87,9.44,7,1.87,1.37,1.41,1-1.13,1.33c-1.51,1.78-2.93,3.59-4.31,5.34A80,80,0,0,1,442.78,474c-7.09,6.2-13.19,10.28-19.18,12.87a35.11,35.11,0,0,1-13.93,2.93,34.11,34.11,0,0,1-33.75-38c1.76-17.25,10.63-30.81,26.34-40.32a25.51,25.51,0,0,1,13.29-3.88c6.13,0,12.56,2.28,20.22,7.17,10.31,6.58,20,13.73,27.37,19.22,6.89,5.16,13.7,10.65,20.29,16l7,5.64A29.58,29.58,0,0,1,493,458c.46.46.94.94,1.49,1.47l1.1,1.06-1,1.17-5.16,6.11-6.17,7.29-1.13,1.34-1.26-1.22Zm-38.42-30.06-1.28,1.52c-1.47,1.74-2.88,3.45-4.24,5.11a146.33,146.33,0,0,1-9.66,11c-2.75,2.74-6.72,4.27-9.57,5.08a14.41,14.41,0,0,1-3.8.54c-4.16,0-7.91-2-10.85-5.66-3.85-4.85-1.92-10.08-.13-13.6,4-7.86,10.85-12.37,18.76-12.37a23.35,23.35,0,0,1,10.28,2.5c1.88.91,3.63,1.92,5.66,3.09,1,.57,2,1.16,3.1,1.77ZM562.68,391a24.7,24.7,0,0,1,14.62-7c1.61-.14,3.2-.21,4.75-.21,14,0,25.41,5.92,32.88,17.14,8.16,12.26,8.33,25.87.47,39.37-7.48,12.85-19,19.64-33.4,19.64h-.37c-14-.11-27-5.53-40.66-17.06l-1.26-1.05,1.06-1.25.72-.85,11.94-14.12.91-1.08,1.21.75c2,1.29,4,2.61,5.94,3.89a113.27,113.27,0,0,0,12.59,7.63,21.93,21.93,0,0,0,9.65,2.43,15.83,15.83,0,0,0,14.06-8.34,23.56,23.56,0,0,0,3.15-15.67A19,19,0,0,0,593,402.81a17.55,17.55,0,0,0-10.31-3.31A25.1,25.1,0,0,0,572.44,402c-9.88,4.44-17,12.15-23.2,19.81-20,24.69-35.15,43.65-49.11,61.49A177.8,177.8,0,0,0,484.79,506c-3.77,6.78-3.69,15.4.2,23.08,4.05,8,11.28,13.33,19.35,14.34a17.62,17.62,0,0,0,2.16.13c6.7,0,12.43-4.12,15.7-11.32,5-11.07,3.06-22.28-5.44-30.75a115.27,115.27,0,0,0-8.89-7.71c-1.46-1.19-3-2.41-4.48-3.69l-1.17-1,.92-1.23,3.81-5.1,5.2-6.95.81-1.08,1.21.59c9.12,4.45,15.47,11.34,21.19,18,7,8.17,10.84,16.55,11.43,24.9s-2.13,17.24-8.11,26.07A38.21,38.21,0,0,1,523.41,557a43.89,43.89,0,0,1-18.25,4c-8.62,0-17.36-2.58-26-7.66a31.06,31.06,0,0,1-14-19.21,42.81,42.81,0,0,1,1.55-25.45c3.23-8.72,8.95-15.6,14.49-22.25,1.31-1.58,2.68-3.22,4-4.84,13.06-16.37,26.44-32.19,37.81-45.5C536.81,419.88,549.36,405.29,562.68,391Zm-5.07,30.54,1.21-1.35c7.06-7.87,13.68-12.24,21.44-14.15a23.52,23.52,0,0,1,5.7-.81,11,11,0,0,1,9.26,4.46c3.33,4.43,3.32,9.63,0,15.91-2.75,5.19-7,7.93-12.33,7.93-.48,0-1,0-1.47-.07-8.55-.77-15.06-5.53-21.95-10.57l-.39-.29Zm-38.23,88.28c4.4,6.74,2.81,16.13-3.78,22.35a18.13,18.13,0,0,1-12.41,5.09,16.32,16.32,0,0,1-8.71-2.51c-8.65-5.47-11.23-12.49-7.68-20.85a115.53,115.53,0,0,1,7.31-13.7c1.18-2,2.4-4,3.56-6.14l.79-1.41,1.42.78C509.44,498.65,515.27,503.55,519.38,509.83Zm-16.2-201c12.27,0,23.11,5.67,31.34,16.39,7.36,9.58,7.32,21.11-.12,34.26a187.53,187.53,0,0,1-12.95,19c-2,2.75-4.14,5.6-6.18,8.48l-1,1.46-1.36-1.15-11.46-9.69-1.17-1,.92-1.23c1.47-2,3-3.92,4.43-5.8a150.07,150.07,0,0,0,9.06-12.52c6-9.68,4.26-20.41-4.51-27.33a16.33,16.33,0,0,0-10.2-3.54c-5.47,0-11.1,2.66-15.42,7.3-10.13,10.83-9.31,23.77,2.17,34.6,9.73,9.17,20.26,17.88,30.44,26.29,4.44,3.67,9,7.47,13.51,11.26l3.12,2.64,1.74,1.47,1.25,1.06-1.06,1.24L531,417.62l-6.5,7.68-1.06,1.25-1.24-1.05c-1.18-1-2.38-2-3.54-2.94-2.5-2.07-5.08-4.2-7.5-6.44l-2.4-2.22c-12.48-11.54-25.38-23.48-37.87-35.43a69.81,69.81,0,0,1-6.87-8.07c-1-1.31-2.05-2.67-3.11-3.95-6.73-8.15-7.48-17.27-2.21-27.11C467.6,322.77,479,313.17,493.49,310A45,45,0,0,1,503.18,308.87Zm-6.87,61.95-1.18,1.4-1.26-1.34c-.95-1-1.81-2-2.63-2.86-1.64-1.8-3.05-3.35-4.55-4.82-4-3.92-6-8-5.82-12.21.2-5.06,3.39-10.11,9.76-15.44A17.52,17.52,0,0,1,498.3,332a15.74,15.74,0,0,1,3.1-.31c4.77,0,9,2.21,12.11,6.4,3,4,2.58,8.84-1.17,13.65-3.54,4.54-7.23,8.83-11.13,13.37C499.61,367,498,368.87,496.31,370.82Z"/><text class="cls-2" transform="translate(206.35 682.03)">AFRODISIAC</text><text class="cls-3" transform="translate(206.35 682.03)">AFRODISIAC</text></svg>