<svg xmlns="http://www.w3.org/2000/svg" xmlns:xlink="http://www.w3.org/1999/xlink" viewBox="0 0 1000 1000"><defs><style>.cls-1{fill:none;stroke-miterlimit:10;stroke-width:3.78px;stroke:url(#Gold1_2);}.cls-2{fill:#231f20;}.cls-3{fill:url(#Gold1_2-2);}</style><linearGradient id="Gold1_2" x1="433.47" y1="583.73" x2="433.47" y2="410.4" gradientUnits="userSpaceOnUse"><stop offset="0" stop-color="#8b6a29"/><stop offset="0.46" stop-color="#fdca0b"/><stop offset="0.78" stop-color="#e0af0c"/><stop offset="1" stop-color="#5a3312"/></linearGradient><linearGradient id="Gold1_2-2" x1="92.06" y1="492.22" x2="904.47" y2="492.22" xlink:href="#Gold1_2"/></defs><g id="Layer_1" data-name="Layer 1"><rect width="1000" height="1000"/></g><g id="Layer_2" data-name="Layer 2"><path class="cls-1" d="M433.47,546.93h0A48.43,48.43,0,0,1,385,498.5v-2.87a48.43,48.43,0,0,1,48.44-48.43h0a48.43,48.43,0,0,1,48.43,48.43v2.87A48.43,48.43,0,0,1,433.47,546.93Zm11-103.55-10.4-1.17h-.61c-29.43,0-53.28,24.56-53.28,54.86h0c0,.55,0,1.11,0,1.66m0,0,1,9.16c4.88,25.11,26.42,44,52.25,44h0l1.43,0m0,0,9.52-1.14c20.78-4.47,37.11-21.4,41.29-42.86m0,0,1-8.84c0-.66,0-1.33,0-2h0c0-26.41-18.12-48.46-42.26-53.69m-8.38-1.46a12.4,12.4,0,0,0,9.47-12.18h0a12.29,12.29,0,0,0-12.1-12.46h0a12.29,12.29,0,0,0-12.11,12.46h0a12.29,12.29,0,0,0,12.11,12.47h0a12,12,0,0,0,2.63-.29m8,1.39a17.61,17.61,0,0,0,6.29-13.57h0a17.2,17.2,0,0,0-16.95-17.45h0a17.21,17.21,0,0,0-17,17.45h0a17.59,17.59,0,0,0,6.38,13.64m9.71,3.8.87,0h0a16.57,16.57,0,0,0,10.66-3.89m1.44,121.44V564a12.11,12.11,0,0,0-12.1-12.11h0A12.11,12.11,0,0,0,421.36,564v.72a12.11,12.11,0,0,0,12.11,12.11h0A12.11,12.11,0,0,0,445.57,564.75ZM423,550.69a17.59,17.59,0,0,0-6.45,13.7h0a17.21,17.21,0,0,0,17,17.45h0a17.2,17.2,0,0,0,16.95-17.45h0a17.21,17.21,0,0,0-16.95-17.46h0q-.47,0-.9,0M511,497.42v-.71a12.11,12.11,0,0,0-12.11-12.11h0a12.11,12.11,0,0,0-12.11,12.11v.71a12.11,12.11,0,0,0,12.11,12.11h0A12.11,12.11,0,0,0,511,497.42Zm-29-2.23a16.66,16.66,0,0,0-.1,1.88h0a17.2,17.2,0,0,0,17,17.45h0a17.21,17.21,0,0,0,17-17.45h0a17.22,17.22,0,0,0-17-17.46h0a16.76,16.76,0,0,0-13.22,6.53M380.19,497.42v-.71a12.11,12.11,0,0,0-12.11-12.11h0A12.11,12.11,0,0,0,356,496.71v.71a12.11,12.11,0,0,0,12.11,12.11h0A12.11,12.11,0,0,0,380.19,497.42Zm4.71-2.54-3.55-8.67a16.76,16.76,0,0,0-13.27-6.6h0a17.22,17.22,0,0,0-17,17.46h0a17.21,17.21,0,0,0,17,17.45h0A17.2,17.2,0,0,0,385,497.07h0a19.81,19.81,0,0,0-.13-2.19"/><path d="M178.52,533.79l-7.69,3.71q-1.23-2.64-5-11.07T155.59,504.2H114.2q-6.49,13.94-10.51,22.72t-4.81,10.52l-6.82-3.39q2-3.94,15.44-32.32t25-53.23h6.32q10,21.94,24,51.61T178.52,533.79Zm-25.79-35.85q-3.82-8.65-8.61-19t-9.06-19.63l-.2,0q-4,8.58-9.15,19.83t-8.63,18.74l0,.06h35.7Z"/><path d="M246,456.31l-8.35-.06q-7.23-.06-17.74-.07c-3.2,0-6.48,0-9.85,0l-7.86,0q0,7.28-.1,17.49c-.06,6.8-.1,12.36-.1,16.65l5.46,0,7.92,0q10.46,0,19.7-.06l10.25-.07V497l-11.71-.06q-10.51-.07-18.84-.07l-7.25,0-5.53,0q0,11.41.1,22.1t.1,16.88H194q.06-3.87.17-13.78t.1-28.49q0-7.31-.07-19.24t-.2-24.71q4.66,0,11.32.06t14.11.07q11.12,0,18.33-.07l8.29-.06Z"/><path d="M334.66,532.4l-6.22,5q-1.53-1.61-10.31-11.74t-25.41-29.56l.07-.58a34.86,34.86,0,0,0,7-2.84,31.93,31.93,0,0,0,6.89-4.84,20.88,20.88,0,0,0,4.17-5.58,18.45,18.45,0,0,0,1.69-8.49,15.92,15.92,0,0,0-2.82-9.46,17.42,17.42,0,0,0-7.63-6,30.21,30.21,0,0,0-8.38-2.13,82,82,0,0,0-9.05-.51c-1.65,0-3.21,0-4.7.06s-2.45.07-2.89.07q-.13,12.13-.17,22.65t0,14.39q0,8.85.1,24t.1,19h-8.26q.08-3.87.17-15t.1-27.72q0-3.23,0-11.9t-.24-31.79q.68,0,6.43-.13c3.83-.08,7.4-.13,10.68-.13a81.07,81.07,0,0,1,11.05.75,39.64,39.64,0,0,1,10.18,2.74,23.28,23.28,0,0,1,10,8A20.57,20.57,0,0,1,321,473q0,9.36-5.56,15.36a38.29,38.29,0,0,1-11.82,8.91v.32q8.66,10.4,19.4,22.17T334.66,532.4Z"/><path d="M603.4,491.59a37.12,37.12,0,0,1-5.26,19.69A41.63,41.63,0,0,1,584,525.35a60.64,60.64,0,0,1-16.72,7,83.08,83.08,0,0,1-20.65,2.33c-2.41,0-5-.05-7.71-.13s-4.46-.13-5.2-.13q0-1.62.13-14.23t.13-28.63q0-9.42-.06-21t-.2-22.72l5.17-.06c2.71,0,4.56-.07,5.55-.07a98.62,98.62,0,0,1,23.13,2.46,56.4,56.4,0,0,1,17.85,7.48A38.28,38.28,0,0,1,599,472.1,41.45,41.45,0,0,1,603.4,491.59Zm-8.19-.06a35.49,35.49,0,0,0-3.74-16.36,32.28,32.28,0,0,0-11.94-12.49,50.2,50.2,0,0,0-16-6.48,81.37,81.37,0,0,0-17.91-2h-3.93q-.08,7.8-.1,15.75t0,14.64q0,9.5,0,19.85t.1,23.78h3.87a83,83,0,0,0,17.88-1.87,48,48,0,0,0,14.77-5.68,37.06,37.06,0,0,0,12.53-12.29A31.94,31.94,0,0,0,595.21,491.53Z"/><path d="M634.12,534.32h-8q0-3.87.1-13.81t.09-28.53q0-7.35-.06-19.29t-.13-24.79h8q-.06,9.24-.16,21.46t-.09,20q0,19.62.09,30.36T634.12,534.32Z"/><path d="M705.37,510.89a20.18,20.18,0,0,1-3.07,11.33,24.19,24.19,0,0,1-8.3,7.71,37.54,37.54,0,0,1-11,4.19,60.3,60.3,0,0,1-13.12,1.36q-4,0-8.17-.26l-5.07-.32-.39-7c.65.09,2.25.25,4.81.48s5.67.36,9.32.36a54.32,54.32,0,0,0,9.75-1,29.6,29.6,0,0,0,8.58-2.78,17.55,17.55,0,0,0,6.33-5.35,13.26,13.26,0,0,0,2.13-7.68,14.81,14.81,0,0,0-2.36-8.1q-2.36-3.7-8.68-7.13a68.43,68.43,0,0,0-6.65-3.26,74.64,74.64,0,0,1-7.1-3.52q-7.29-3.93-10.68-8.65a18.5,18.5,0,0,1-3.39-11.1,19,19,0,0,1,2.53-9.9,24.34,24.34,0,0,1,6.52-7.2,29.91,29.91,0,0,1,10-4.61,47.51,47.51,0,0,1,12.5-1.58q3.89,0,7.89.22c2.67.15,4.18.25,4.52.29l.65,7c-.56-.09-2.11-.25-4.65-.49s-5.56-.35-9.06-.35a36.44,36.44,0,0,0-8.47,1,24.88,24.88,0,0,0-7.75,3.23,15.62,15.62,0,0,0-4.63,4.64,13.11,13.11,0,0,0,.29,14.27q2.26,3.29,8.67,6.71,2.38,1.29,6.14,3t7.17,3.58a30.9,30.9,0,0,1,11,9.13A19.79,19.79,0,0,1,705.37,510.89Z"/><path d="M735.77,534.32h-8q0-3.87.09-13.81T728,492q0-7.35-.06-19.29t-.13-24.79h8q-.06,9.24-.16,21.46t-.1,20q0,19.62.1,30.36T735.77,534.32Z"/><path d="M834.77,532.22l-7.46,3.71q-1.18-2.64-4.86-11.07t-9.91-22.23H772.4q-6.28,13.94-10.18,22.72t-4.67,10.52l-6.61-3.39q1.93-3.94,15-32.32t24.2-53.22h6.13q9.75,21.93,23.23,51.61T834.77,532.22Zm-25-35.85q-3.71-8.65-8.34-19t-8.79-19.63l-.2,0q-3.9,8.58-8.87,19.83t-8.36,18.74l0,.07h34.62Z"/><path d="M904.47,528.83c0,.35-.14,1.15-.29,2.42s-.29,2.7-.42,4.29h-2.33a85.41,85.41,0,0,1-27.16-4A49.42,49.42,0,0,1,854.77,520a38.55,38.55,0,0,1-8.38-12.52,42.25,42.25,0,0,1-3.1-16.67,37.66,37.66,0,0,1,3.06-15.34,42.45,42.45,0,0,1,8-12.11q7.23-7.48,19.36-11.88a75.62,75.62,0,0,1,26-4.39h2.84c0,.6,0,1.56.13,2.87s.19,2.64.32,4h-2.13a74.63,74.63,0,0,0-17.52,2,52.9,52.9,0,0,0-14.56,5.66,35,35,0,0,0-12.61,12.27,32.38,32.38,0,0,0-4.62,17.12,34.34,34.34,0,0,0,4.26,17.34,33.05,33.05,0,0,0,12.07,12.11,52.12,52.12,0,0,0,16.1,6.49,81.57,81.57,0,0,0,17.65,1.91h1.2C903.3,528.9,903.86,528.88,904.47,528.83Z"/><path class="cls-2" d="M603.4,491.59a37.12,37.12,0,0,1-5.26,19.69A41.63,41.63,0,0,1,584,525.35a60.64,60.64,0,0,1-16.72,7,83.08,83.08,0,0,1-20.65,2.33c-2.41,0-5-.05-7.71-.13s-4.46-.13-5.2-.13q0-1.62.13-14.23t.13-28.63q0-9.42-.06-21t-.2-22.72l5.17-.06c2.71,0,4.56-.07,5.55-.07a98.62,98.62,0,0,1,23.13,2.46,56.4,56.4,0,0,1,17.85,7.48A38.28,38.28,0,0,1,599,472.1,41.45,41.45,0,0,1,603.4,491.59Zm-8.19-.06a35.49,35.49,0,0,0-3.74-16.36,32.28,32.28,0,0,0-11.94-12.49,50.2,50.2,0,0,0-16-6.48,81.37,81.37,0,0,0-17.91-2h-3.93q-.08,7.8-.1,15.75t0,14.64q0,9.5,0,19.85t.1,23.78h3.87a83,83,0,0,0,17.88-1.87,48,48,0,0,0,14.77-5.68,37.06,37.06,0,0,0,12.53-12.29A31.94,31.94,0,0,0,595.21,491.53Z"/><path class="cls-2" d="M634.12,534.32h-8q0-3.87.1-13.81t.09-28.53q0-7.35-.06-19.29t-.13-24.79h8q-.06,9.24-.16,21.46t-.09,20q0,19.62.09,30.36T634.12,534.32Z"/><path class="cls-2" d="M705.37,510.89a20.18,20.18,0,0,1-3.07,11.33,24.19,24.19,0,0,1-8.3,7.71,37.54,37.54,0,0,1-11,4.19,60.3,60.3,0,0,1-13.12,1.36q-4,0-8.17-.26l-5.07-.32-.39-7c.65.09,2.25.25,4.81.48s5.67.36,9.32.36a54.32,54.32,0,0,0,9.75-1,29.6,29.6,0,0,0,8.58-2.78,17.55,17.55,0,0,0,6.33-5.35,13.26,13.26,0,0,0,2.13-7.68,14.81,14.81,0,0,0-2.36-8.1q-2.36-3.7-8.68-7.13a68.43,68.43,0,0,0-6.65-3.26,74.64,74.64,0,0,1-7.1-3.52q-7.29-3.93-10.68-8.65a18.5,18.5,0,0,1-3.39-11.1,19,19,0,0,1,2.53-9.9,24.34,24.34,0,0,1,6.52-7.2,29.91,29.91,0,0,1,10-4.61,47.51,47.51,0,0,1,12.5-1.58q3.89,0,7.89.22c2.67.15,4.18.25,4.52.29l.65,7c-.56-.09-2.11-.25-4.65-.49s-5.56-.35-9.06-.35a36.44,36.44,0,0,0-8.47,1,24.88,24.88,0,0,0-7.75,3.23,15.62,15.62,0,0,0-4.63,4.64,13.11,13.11,0,0,0,.29,14.27q2.26,3.29,8.67,6.71,2.38,1.29,6.14,3t7.17,3.58a30.9,30.9,0,0,1,11,9.13A19.79,19.79,0,0,1,705.37,510.89Z"/><path class="cls-2" d="M735.77,534.32h-8q0-3.87.09-13.81T728,492q0-7.35-.06-19.29t-.13-24.79h8q-.06,9.24-.16,21.46t-.1,20q0,19.62.1,30.36T735.77,534.32Z"/><path class="cls-2" d="M834.77,532.22l-7.46,3.71q-1.18-2.64-4.86-11.07t-9.91-22.23H772.4q-6.28,13.94-10.18,22.72t-4.67,10.52l-6.61-3.39q1.93-3.94,15-32.32t24.2-53.22h6.13q9.75,21.93,23.23,51.61T834.77,532.22Zm-25-35.85q-3.71-8.65-8.34-19t-8.79-19.63l-.2,0q-3.9,8.58-8.87,19.83t-8.36,18.74l0,.07h34.62Z"/><path class="cls-2" d="M904.47,528.83c0,.35-.14,1.15-.29,2.42s-.29,2.7-.42,4.29h-2.33a85.41,85.41,0,0,1-27.16-4A49.42,49.42,0,0,1,854.77,520a38.55,38.55,0,0,1-8.38-12.52,42.25,42.25,0,0,1-3.1-16.67,37.66,37.66,0,0,1,3.06-15.34,42.45,42.45,0,0,1,8-12.11q7.23-7.48,19.36-11.88a75.62,75.62,0,0,1,26-4.39h2.84c0,.6,0,1.56.13,2.87s.19,2.64.32,4h-2.13a74.63,74.63,0,0,0-17.52,2,52.9,52.9,0,0,0-14.56,5.66,35,35,0,0,0-12.61,12.27,32.38,32.38,0,0,0-4.62,17.12,34.34,34.34,0,0,0,4.26,17.34,33.05,33.05,0,0,0,12.07,12.11,52.12,52.12,0,0,0,16.1,6.49,81.57,81.57,0,0,0,17.65,1.91h1.2C903.3,528.9,903.86,528.88,904.47,528.83Z"/><path class="cls-3" d="M178.52,533.79l-7.69,3.71q-1.23-2.64-5-11.07T155.59,504.2H114.2q-6.49,13.94-10.51,22.72t-4.81,10.52l-6.82-3.39q2-3.94,15.44-32.32t25-53.23h6.32q10,21.94,24,51.61T178.52,533.79Zm-25.79-35.85q-3.82-8.65-8.61-19t-9.06-19.63l-.2,0q-4,8.58-9.15,19.83t-8.63,18.74l0,.06h35.7Z"/><path class="cls-3" d="M246,456.31l-8.35-.06q-7.23-.06-17.74-.07c-3.2,0-6.48,0-9.85,0l-7.86,0q0,7.28-.1,17.49c-.06,6.8-.1,12.36-.1,16.65l5.46,0,7.92,0q10.46,0,19.7-.06l10.25-.07V497l-11.71-.06q-10.51-.07-18.84-.07l-7.25,0-5.53,0q0,11.41.1,22.1t.1,16.88H194q.06-3.87.17-13.78t.1-28.49q0-7.31-.07-19.24t-.2-24.71q4.66,0,11.32.06t14.11.07q11.12,0,18.33-.07l8.29-.06Z"/><path class="cls-3" d="M334.66,532.4l-6.22,5q-1.53-1.61-10.31-11.74t-25.41-29.56l.07-.58a34.86,34.86,0,0,0,7-2.84,31.93,31.93,0,0,0,6.89-4.84,20.88,20.88,0,0,0,4.17-5.58,18.45,18.45,0,0,0,1.69-8.49,15.92,15.92,0,0,0-2.82-9.46,17.42,17.42,0,0,0-7.63-6,30.21,30.21,0,0,0-8.38-2.13,82,82,0,0,0-9.05-.51c-1.65,0-3.21,0-4.7.06s-2.45.07-2.89.07q-.13,12.13-.17,22.65t0,14.39q0,8.85.1,24t.1,19h-8.26q.08-3.87.17-15t.1-27.72q0-3.23,0-11.9t-.24-31.79q.68,0,6.43-.13c3.83-.08,7.4-.13,10.68-.13a81.07,81.07,0,0,1,11.05.75,39.64,39.64,0,0,1,10.18,2.74,23.28,23.28,0,0,1,10,8A20.57,20.57,0,0,1,321,473q0,9.36-5.56,15.36a38.29,38.29,0,0,1-11.82,8.91v.32q8.66,10.4,19.4,22.17T334.66,532.4Z"/><path class="cls-3" d="M603.4,491.59a37.12,37.12,0,0,1-5.26,19.69A41.63,41.63,0,0,1,584,525.35a60.64,60.64,0,0,1-16.72,7,83.08,83.08,0,0,1-20.65,2.33c-2.41,0-5-.05-7.71-.13s-4.46-.13-5.2-.13q0-1.62.13-14.23t.13-28.63q0-9.42-.06-21t-.2-22.72l5.17-.06c2.71,0,4.56-.07,5.55-.07a98.62,98.62,0,0,1,23.13,2.46,56.4,56.4,0,0,1,17.85,7.48A38.28,38.28,0,0,1,599,472.1,41.45,41.45,0,0,1,603.4,491.59Zm-8.19-.06a35.49,35.49,0,0,0-3.74-16.36,32.28,32.28,0,0,0-11.94-12.49,50.2,50.2,0,0,0-16-6.48,81.37,81.37,0,0,0-17.91-2h-3.93q-.08,7.8-.1,15.75t0,14.64q0,9.5,0,19.85t.1,23.78h3.87a83,83,0,0,0,17.88-1.87,48,48,0,0,0,14.77-5.68,37.06,37.06,0,0,0,12.53-12.29A31.94,31.94,0,0,0,595.21,491.53Z"/><path class="cls-3" d="M634.12,534.32h-8q0-3.87.1-13.81t.09-28.53q0-7.35-.06-19.29t-.13-24.79h8q-.06,9.24-.16,21.46t-.09,20q0,19.62.09,30.36T634.12,534.32Z"/><path class="cls-3" d="M705.37,510.89a20.18,20.18,0,0,1-3.07,11.33,24.19,24.19,0,0,1-8.3,7.71,37.54,37.54,0,0,1-11,4.19,60.3,60.3,0,0,1-13.12,1.36q-4,0-8.17-.26l-5.07-.32-.39-7c.65.09,2.25.25,4.81.48s5.67.36,9.32.36a54.32,54.32,0,0,0,9.75-1,29.6,29.6,0,0,0,8.58-2.78,17.55,17.55,0,0,0,6.33-5.35,13.26,13.26,0,0,0,2.13-7.68,14.81,14.81,0,0,0-2.36-8.1q-2.36-3.7-8.68-7.13a68.43,68.43,0,0,0-6.65-3.26,74.64,74.64,0,0,1-7.1-3.52q-7.29-3.93-10.68-8.65a18.5,18.5,0,0,1-3.39-11.1,19,19,0,0,1,2.53-9.9,24.34,24.34,0,0,1,6.52-7.2,29.91,29.91,0,0,1,10-4.61,47.51,47.51,0,0,1,12.5-1.58q3.89,0,7.89.22c2.67.15,4.18.25,4.52.29l.65,7c-.56-.09-2.11-.25-4.65-.49s-5.56-.35-9.06-.35a36.44,36.44,0,0,0-8.47,1,24.88,24.88,0,0,0-7.75,3.23,15.62,15.62,0,0,0-4.63,4.64,13.11,13.11,0,0,0,.29,14.27q2.26,3.29,8.67,6.71,2.38,1.29,6.14,3t7.17,3.58a30.9,30.9,0,0,1,11,9.13A19.79,19.79,0,0,1,705.37,510.89Z"/><path class="cls-3" d="M735.77,534.32h-8q0-3.87.09-13.81T728,492q0-7.35-.06-19.29t-.13-24.79h8q-.06,9.24-.16,21.46t-.1,20q0,19.62.1,30.36T735.77,534.32Z"/><path class="cls-3" d="M834.77,532.22l-7.46,3.71q-1.18-2.64-4.86-11.07t-9.91-22.23H772.4q-6.28,13.94-10.18,22.72t-4.67,10.52l-6.61-3.39q1.93-3.94,15-32.32t24.2-53.22h6.13q9.75,21.93,23.23,51.61T834.77,532.22Zm-25-35.85q-3.71-8.65-8.34-19t-8.79-19.63l-.2,0q-3.9,8.58-8.87,19.83t-8.36,18.74l0,.07h34.62Z"/><path class="cls-3" d="M904.47,528.83c0,.35-.14,1.15-.29,2.42s-.29,2.7-.42,4.29h-2.33a85.41,85.41,0,0,1-27.16-4A49.42,49.42,0,0,1,854.77,520a38.55,38.55,0,0,1-8.38-12.52,42.25,42.25,0,0,1-3.1-16.67,37.66,37.66,0,0,1,3.06-15.34,42.45,42.45,0,0,1,8-12.11q7.23-7.48,19.36-11.88a75.62,75.62,0,0,1,26-4.39h2.84c0,.6,0,1.56.13,2.87s.19,2.64.32,4h-2.13a74.63,74.63,0,0,0-17.52,2,52.9,52.9,0,0,0-14.56,5.66,35,35,0,0,0-12.61,12.27,32.38,32.38,0,0,0-4.62,17.12,34.34,34.34,0,0,0,4.26,17.34,33.05,33.05,0,0,0,12.07,12.11,52.12,52.12,0,0,0,16.1,6.49,81.57,81.57,0,0,0,17.65,1.91h1.2C903.3,528.9,903.86,528.88,904.47,528.83Z"/><path class="cls-3" d="M603.4,491.59a37.12,37.12,0,0,1-5.26,19.69A41.63,41.63,0,0,1,584,525.35a60.64,60.64,0,0,1-16.72,7,83.08,83.08,0,0,1-20.65,2.33c-2.41,0-5-.05-7.71-.13s-4.46-.13-5.2-.13q0-1.62.13-14.23t.13-28.63q0-9.42-.06-21t-.2-22.72l5.17-.06c2.71,0,4.56-.07,5.55-.07a98.62,98.62,0,0,1,23.13,2.46,56.4,56.4,0,0,1,17.85,7.48A38.28,38.28,0,0,1,599,472.1,41.45,41.45,0,0,1,603.4,491.59Zm-8.19-.06a35.49,35.49,0,0,0-3.74-16.36,32.28,32.28,0,0,0-11.94-12.49,50.2,50.2,0,0,0-16-6.48,81.37,81.37,0,0,0-17.91-2h-3.93q-.08,7.8-.1,15.75t0,14.64q0,9.5,0,19.85t.1,23.78h3.87a83,83,0,0,0,17.88-1.87,48,48,0,0,0,14.77-5.68,37.06,37.06,0,0,0,12.53-12.29A31.94,31.94,0,0,0,595.21,491.53Z"/><path class="cls-3" d="M634.12,534.32h-8q0-3.87.1-13.81t.09-28.53q0-7.35-.06-19.29t-.13-24.79h8q-.06,9.24-.16,21.46t-.09,20q0,19.62.09,30.36T634.12,534.32Z"/><path class="cls-3" d="M705.37,510.89a20.18,20.18,0,0,1-3.07,11.33,24.19,24.19,0,0,1-8.3,7.71,37.54,37.54,0,0,1-11,4.19,60.3,60.3,0,0,1-13.12,1.36q-4,0-8.17-.26l-5.07-.32-.39-7c.65.09,2.25.25,4.81.48s5.67.36,9.32.36a54.32,54.32,0,0,0,9.75-1,29.6,29.6,0,0,0,8.58-2.78,17.55,17.55,0,0,0,6.33-5.35,13.26,13.26,0,0,0,2.13-7.68,14.81,14.81,0,0,0-2.36-8.1q-2.36-3.7-8.68-7.13a68.43,68.43,0,0,0-6.65-3.26,74.64,74.64,0,0,1-7.1-3.52q-7.29-3.93-10.68-8.65a18.5,18.5,0,0,1-3.39-11.1,19,19,0,0,1,2.53-9.9,24.34,24.34,0,0,1,6.52-7.2,29.91,29.91,0,0,1,10-4.61,47.51,47.51,0,0,1,12.5-1.58q3.89,0,7.89.22c2.67.15,4.18.25,4.52.29l.65,7c-.56-.09-2.11-.25-4.65-.49s-5.56-.35-9.06-.35a36.44,36.44,0,0,0-8.47,1,24.88,24.88,0,0,0-7.75,3.23,15.62,15.62,0,0,0-4.63,4.64,13.11,13.11,0,0,0,.29,14.27q2.26,3.29,8.67,6.71,2.38,1.29,6.14,3t7.17,3.58a30.9,30.9,0,0,1,11,9.13A19.79,19.79,0,0,1,705.37,510.89Z"/><path class="cls-3" d="M735.77,534.32h-8q0-3.87.09-13.81T728,492q0-7.35-.06-19.29t-.13-24.79h8q-.06,9.24-.16,21.46t-.1,20q0,19.62.1,30.36T735.77,534.32Z"/><path class="cls-3" d="M834.77,532.22l-7.46,3.71q-1.18-2.64-4.86-11.07t-9.91-22.23H772.4q-6.28,13.94-10.18,22.72t-4.67,10.52l-6.61-3.39q1.93-3.94,15-32.32t24.2-53.22h6.13q9.75,21.93,23.23,51.61T834.77,532.22Zm-25-35.85q-3.71-8.65-8.34-19t-8.79-19.63l-.2,0q-3.9,8.58-8.87,19.83t-8.36,18.74l0,.07h34.62Z"/><path class="cls-3" d="M904.47,528.83c0,.35-.14,1.15-.29,2.42s-.29,2.7-.42,4.29h-2.33a85.41,85.41,0,0,1-27.16-4A49.42,49.42,0,0,1,854.77,520a38.55,38.55,0,0,1-8.38-12.52,42.25,42.25,0,0,1-3.1-16.67,37.66,37.66,0,0,1,3.06-15.34,42.45,42.45,0,0,1,8-12.11q7.23-7.48,19.36-11.88a75.62,75.62,0,0,1,26-4.39h2.84c0,.6,0,1.56.13,2.87s.19,2.64.32,4h-2.13a74.63,74.63,0,0,0-17.52,2,52.9,52.9,0,0,0-14.56,5.66,35,35,0,0,0-12.61,12.27,32.38,32.38,0,0,0-4.62,17.12,34.34,34.34,0,0,0,4.26,17.34,33.05,33.05,0,0,0,12.07,12.11,52.12,52.12,0,0,0,16.1,6.49,81.57,81.57,0,0,0,17.65,1.91h1.2C903.3,528.9,903.86,528.88,904.47,528.83Z"/><path class="cls-3" d="M603.4,491.59a37.12,37.12,0,0,1-5.26,19.69A41.63,41.63,0,0,1,584,525.35a60.64,60.64,0,0,1-16.72,7,83.08,83.08,0,0,1-20.65,2.33c-2.41,0-5-.05-7.71-.13s-4.46-.13-5.2-.13q0-1.62.13-14.23t.13-28.63q0-9.42-.06-21t-.2-22.72l5.17-.06c2.71,0,4.56-.07,5.55-.07a98.62,98.62,0,0,1,23.13,2.46,56.4,56.4,0,0,1,17.85,7.48A38.28,38.28,0,0,1,599,472.1,41.45,41.45,0,0,1,603.4,491.59Zm-8.19-.06a35.49,35.49,0,0,0-3.74-16.36,32.28,32.28,0,0,0-11.94-12.49,50.2,50.2,0,0,0-16-6.48,81.37,81.37,0,0,0-17.91-2h-3.93q-.08,7.8-.1,15.75t0,14.64q0,9.5,0,19.85t.1,23.78h3.87a83,83,0,0,0,17.88-1.87,48,48,0,0,0,14.77-5.68,37.06,37.06,0,0,0,12.53-12.29A31.94,31.94,0,0,0,595.21,491.53Z"/><path class="cls-3" d="M634.12,534.32h-8q0-3.87.1-13.81t.09-28.53q0-7.35-.06-19.29t-.13-24.79h8q-.06,9.24-.16,21.46t-.09,20q0,19.62.09,30.36T634.12,534.32Z"/><path class="cls-3" d="M705.37,510.89a20.18,20.18,0,0,1-3.07,11.33,24.19,24.19,0,0,1-8.3,7.71,37.54,37.54,0,0,1-11,4.19,60.3,60.3,0,0,1-13.12,1.36q-4,0-8.17-.26l-5.07-.32-.39-7c.65.09,2.25.25,4.81.48s5.67.36,9.32.36a54.32,54.32,0,0,0,9.75-1,29.6,29.6,0,0,0,8.58-2.78,17.55,17.55,0,0,0,6.33-5.35,13.26,13.26,0,0,0,2.13-7.68,14.81,14.81,0,0,0-2.36-8.1q-2.36-3.7-8.68-7.13a68.43,68.43,0,0,0-6.65-3.26,74.64,74.64,0,0,1-7.1-3.52q-7.29-3.93-10.68-8.65a18.5,18.5,0,0,1-3.39-11.1,19,19,0,0,1,2.53-9.9,24.34,24.34,0,0,1,6.52-7.2,29.91,29.91,0,0,1,10-4.61,47.51,47.51,0,0,1,12.5-1.58q3.89,0,7.89.22c2.67.15,4.18.25,4.52.29l.65,7c-.56-.09-2.11-.25-4.65-.49s-5.56-.35-9.06-.35a36.44,36.44,0,0,0-8.47,1,24.88,24.88,0,0,0-7.75,3.23,15.62,15.62,0,0,0-4.63,4.64,13.11,13.11,0,0,0,.29,14.27q2.26,3.29,8.67,6.71,2.38,1.29,6.14,3t7.17,3.58a30.9,30.9,0,0,1,11,9.13A19.79,19.79,0,0,1,705.37,510.89Z"/><path class="cls-3" d="M735.77,534.32h-8q0-3.87.09-13.81T728,492q0-7.35-.06-19.29t-.13-24.79h8q-.06,9.24-.16,21.46t-.1,20q0,19.62.1,30.36T735.77,534.32Z"/><path class="cls-3" d="M834.77,532.22l-7.46,3.71q-1.18-2.64-4.86-11.07t-9.91-22.23H772.4q-6.28,13.94-10.18,22.72t-4.67,10.52l-6.61-3.39q1.93-3.94,15-32.32t24.2-53.22h6.13q9.75,21.93,23.23,51.61T834.77,532.22Zm-25-35.85q-3.71-8.65-8.34-19t-8.79-19.63l-.2,0q-3.9,8.58-8.87,19.83t-8.36,18.74l0,.07h34.62Z"/><path class="cls-3" d="M904.47,528.83c0,.35-.14,1.15-.29,2.42s-.29,2.7-.42,4.29h-2.33a85.41,85.41,0,0,1-27.16-4A49.42,49.42,0,0,1,854.77,520a38.55,38.55,0,0,1-8.38-12.52,42.25,42.25,0,0,1-3.1-16.67,37.66,37.66,0,0,1,3.06-15.34,42.45,42.45,0,0,1,8-12.11q7.23-7.48,19.36-11.88a75.62,75.62,0,0,1,26-4.39h2.84c0,.6,0,1.56.13,2.87s.19,2.64.32,4h-2.13a74.63,74.63,0,0,0-17.52,2,52.9,52.9,0,0,0-14.56,5.66,35,35,0,0,0-12.61,12.27,32.38,32.38,0,0,0-4.62,17.12,34.34,34.34,0,0,0,4.26,17.34,33.05,33.05,0,0,0,12.07,12.11,52.12,52.12,0,0,0,16.1,6.49,81.57,81.57,0,0,0,17.65,1.91h1.2C903.3,528.9,903.86,528.88,904.47,528.83Z"/></g></svg>