<?xml version="1.0" encoding="utf-8"?>
<!-- Generator: Adobe Illustrator 25.3.1, SVG Export Plug-In . SVG Version: 6.00 Build 0)  -->
<svg version="1.1" id="Layer_1" xmlns="http://www.w3.org/2000/svg" xmlns:xlink="http://www.w3.org/1999/xlink" x="0px" y="0px"
	 viewBox="0 0 1257.4 1080" style="enable-background:new 0 0 1257.4 1080;" xml:space="preserve">
<style type="text/css">
	.st0{fill:#FFFFFF;}
</style>
<rect class="st0" width="1257.4" height="1080"/>
<path d="M1111.9,344.3c1.8-3.4,1.8-3.4,5.5-3c1,1.9,0.5,4,0.5,6s0.4,4.1-0.4,6.1c-3.7,0.6-3.7,0.6-5.8-2.8c-1.4,0-3-0.1-4.6-0.1
	c-80.3,0-160.6,0-240.8,0c-13-0.2-25.9,1.3-38.5,4.2c-6.1,1.5-11.9,3.6-17.6,6.3c-15.1,7.3-24.9,19.1-29.8,35.1
	c-2.4,7.5-3.6,15.3-3.8,23.1c-0.2,16.1-0.2,32.3,0,48.4c0.2,8.5,1.7,16.9,4.4,24.9c5,15.2,14.8,26.3,29.2,33.2
	c8.7,4,17.9,6.8,27.4,8.2c9.8,1.5,19.7,2.3,29.6,2.2c55.5,0,111,0,166.5,0c4.6,0,9.3,0.3,13.9,0.7c2.1,0.2,4.1,0.6,6.1,1.2
	c6,1.8,9.3,6,9.7,12.3c0.2,3.5,0.1,7,0.1,10.5c0,2.9,0.1,5.8,0,8.6c-0.2,5.8-2.8,9.7-8.4,11.5c-3.2,0.9-6.5,1.5-9.9,1.8
	c-2.2,0.2-4.5,0.2-6.7,0.2H780.5c-1.7,0-3.4-0.1-5.4-0.2v-5.2c0.9-0.2,1.8-0.4,2.7-0.5c1.6-0.1,3.2,0,4.8,0c84.9,0,169.8,0,254.7,0
	c4,0,8-0.5,11.9-0.8c1-0.1,1.9-0.3,2.8-0.6c4.1-1.2,5.5-2.9,5.5-7.3c0.1-5.3,0-10.5,0-15.8c0-0.8-0.1-1.6-0.2-2.4
	c-0.3-3.1-2.5-5.8-5.6-6.4c-2.2-0.6-4.4-0.9-6.6-1.1c-3.7-0.3-7.3-0.4-11-0.4c-56,0-112,0-167.9,0c-13.4,0.1-26.9-1.3-39.9-4.4
	c-5.4-1.3-10.7-3.1-15.9-5.3c-19.3-8.4-31.4-23-36.7-43.3c-2.3-8.8-3.4-17.9-3.3-27c0-15,0.1-30,0.3-45.1c0.2-7.7,1.5-15.3,3.8-22.6
	c5.5-18.4,16.9-31.6,34.3-39.6c8.3-3.8,17.1-6.4,26.1-7.9c11.2-1.9,22.5-2.8,33.9-2.7H1111.9z"/>
<path d="M533.5,401.6v5.2c-0.8,0.2-1.7,0.3-2.5,0.4c-1.6,0.1-3.2,0-4.8,0c-83.6,0-167.2,0-250.9,0c-3.7,0-7.4,0-11,0.2
	c-2.4,0.1-4.8,0.5-7.1,1.1c-3.8,1-5.3,2.9-5.3,6.9c-0.1,5.6-0.1,11.2,0,16.8c0.1,5.2,2.1,7.7,7.2,8.6c3.6,0.7,7.3,1,10.9,1.1
	c11.5,0.1,23,0,34.5,0c45.4,0,90.8,0,136.2,0c11.8-0.1,23.6,0.9,35.3,3c7.4,1.3,14.6,3.4,21.6,6.3c20.2,8.4,32.8,23.3,38.1,44.4
	c1.9,7.1,2.9,14.4,3,21.8c0.1,15.8,0.1,31.7,0,47.5c-0.2,9.1-1.7,18.2-4.6,26.8c-5.7,17.4-16.9,29.8-33.4,37.5
	c-9.2,4.1-18.9,7-28.9,8.4c-10.6,1.6-21.3,2.3-32,2.2c-79,0-158,0-237,0c-2,0-4.1-0.3-6.3,0.4c-1.9,4.7-4.6,8.6-10.2,10
	c-0.8-2.5-0.4-4.7-0.4-6.9s0.1-4.2,0.2-6.2c0-2.2,0-4.5,0-6.7c-0.1-2.1,0.1-4.3,0.7-6.3c5.6,1,8,4.9,9.9,9.7h244.6
	c13,0.1,25.9-1.2,38.5-3.9c5.3-1.2,10.5-2.8,15.5-4.8c18.4-7.7,29.9-21.3,34.6-40.7c1.9-7.8,2.9-15.7,2.9-23.7
	c0-13.1,0.1-26.2,0-39.3c0-9.9-1.5-19.8-4.5-29.3c-5.1-15.6-15.1-26.8-29.8-33.9c-7.8-3.6-16.1-6.2-24.6-7.6
	c-11.2-1.9-22.5-2.8-33.9-2.8c-56.1,0-112.2,0-168.4,0c-4.5,0-9,0.1-13.4-1c-1.2-0.3-2.5-0.6-3.7-1c-5.4-2-8.1-5.9-8.7-11.5
	c0-0.5-0.1-1-0.1-1.4c0-6.1,0.1-12.1,0-18.2c-0.1-5.1,3.1-9.7,8-11.3c2.4-0.8,4.9-1.4,7.4-1.6c4.6-0.4,9.3-0.6,13.9-0.6
	c84.1,0,168.2,0,252.3,0C529.4,401.1,531.3,400.8,533.5,401.6z"/>
<path d="M533.3,344.9c0.2,0.4,0.3,0.9,0.4,1.3c0.1,1.1,0,2.2,0,3.5c-0.9,0.3-1.9,0.5-2.8,0.6c-1.6,0.1-3.2,0-4.8,0H271.8
	c-11.4-0.1-22.7,1-33.8,3.3c-6.1,1.2-12.1,3.2-17.7,5.8c-2.5,1.2-4.8,2.5-7.1,3.9c-12.3,7.9-18.6,19.4-19.9,33.8
	c-0.1,1.6-0.2,3.2-0.2,4.8c0,13,0,25.9,0,38.8c0,5.4,0.7,10.9,2,16.1c2.9,12.3,10.7,22.9,21.5,29.4c7.6,4.7,15.9,7.5,24.5,9.3
	c10.8,2.2,21.8,3.2,32.9,3c55.5,0,111,0,166.5,0c6.2-0.1,12.4,0.6,18.5,1.9c3.4,0.7,6.8,2,9.8,3.7c7,4.1,10.8,10.3,11.5,18.3
	c0.1,1.1,0.1,2.2,0.1,3.3c0,10.1,0,20.1,0,30.2c0,2.2-0.2,4.5-0.6,6.7c-1.3,6.2-5.3,11.5-10.8,14.6c-4,2.3-8.5,3.8-13.1,4.5
	c-4.3,0.6-8.6,0.8-12.9,1.1c-1.4,0.1-2.9,0-4.3,0H194.4c-0.6-1.8-0.6-3.7-0.1-5.5c0.9-0.1,1.8-0.3,2.8-0.4c1.6-0.1,3.2,0,4.8,0
	c79.5,0,158.9,0,238.4,0c5.8,0.1,11.5-0.5,17.1-1.7c2-0.5,4-1.1,5.9-1.9c7.2-3.1,11-8.5,11.2-16.4c0.1-4.2,0-8.3,0-12.5
	c0-6.2-0.1-12.5,0-18.7c0.2-8.8-4.1-15.4-13.5-18.6c-6-2-12.2-2.4-18.5-2.6c-1.4-0.1-2.9,0-4.3,0H277.5c-9,0.1-17.9-0.3-26.8-1.3
	c-11.5-1.5-22.6-4.1-33-9.5c-18.1-9.3-27.8-24.4-30.1-44.4c-0.4-3.2-0.5-6.4-0.5-9.6c-0.1-12.3,0-24.6,0-36.9
	c-0.1-5.4,0.6-10.9,2-16.2c3-11.9,10.6-22.2,21-28.6c7.9-5,16.6-8.1,25.7-10.2c11.3-2.5,22.8-3.7,34.3-3.6
	c86.2-0.1,172.4-0.1,258.5,0C530.1,344.3,531.7,344,533.3,344.9z"/>
<path d="M775.1,639.7v-5.5c0.9-0.2,1.9-0.3,2.8-0.4c1.4-0.1,2.9,0,4.3,0c84.6,0,169.2,0,253.8,0c11.2,0.1,22.4-0.8,33.4-2.9
	c6.6-1.2,13-3.2,19.2-5.9c4.2-1.9,8.2-4.3,11.8-7.2c7.9-6.2,13.1-15.1,14.8-25c0.6-3.5,1-7,1-10.5c0.1-13.1,0.1-26.2,0-39.3
	c0-6.2-1-12.5-2.8-18.4c-3.2-10.7-10.1-19.9-19.5-25.9c-7.3-4.8-15.4-7.7-23.8-9.7c-11.1-2.5-22.4-3.6-33.8-3.5
	c-55.2-0.1-110.3-0.1-165.5,0c-6.1,0.2-12.2-0.3-18.2-1.3c-3.8-0.7-7.4-1.9-10.9-3.6c-7.2-3.7-11.5-9.5-12.6-17.5
	c-0.3-2.1-0.5-4.1-0.5-6.2c0-9.1,0-18.2,0-27.3c0-1.6,0.1-3.2,0.3-4.8c1.1-9.9,6.5-16.4,15.6-20c4.2-1.7,8.5-2.7,13-3
	c4.8-0.4,9.6-0.6,14.4-0.6c79.3,0,158.6,0,238,0c1.9,0,3.8-0.3,5.8,0.5c0.6,1.7,0.6,3.5,0,5.2c-0.8,0.2-1.5,0.3-2.3,0.4
	c-1.6,0.1-3.2,0-4.8,0c-78.8,0-157.7,0-236.5,0c-6.1,0-12.2-0.1-18.2,1.2c-2.8,0.6-5.6,1.4-8.2,2.5c-6.8,2.9-10.5,8.1-10.8,15.6
	c-0.1,2.9-0.1,5.8-0.1,8.6c0,6.9,0,13.7,0,20.6c0,1.6,0,3.2,0.1,4.8c0.5,7.2,4.1,12.3,10.7,15.2c5.2,2.4,10.7,3.2,16.3,3.5
	c3.2,0.2,6.4,0.2,9.6,0.2c55.3,0,110.7,0,166,0c12.8-0.1,25.6,1.4,38,4.7c7,1.8,13.6,4.6,19.8,8.2c14.3,8.6,22.6,21.3,25.8,37.5
	c0.9,5,1.3,10.1,1.2,15.3c0,11.8,0,23.7,0,35.5c0.1,5.8-0.6,11.5-2,17.1c-2.9,10.9-9.6,20.5-18.9,26.9c-7.6,5.3-16,8.6-24.9,10.9
	c-9.6,2.4-19.5,3.7-29.4,4c-5,0.2-9.9,0.2-14.9,0.2c-83.5,0-166.9,0-250.4,0L775.1,639.7z"/>
<path d="M686.7,576.9c3.2,0.2,6.4,0.3,9.5,0.2c3,0,6.1,0,9.1,0h37.9c3,0,6.1,0,9.1,0s6.3,0.1,9.7,0.1c0.5,1.7,0.5,3.6,0.1,5.3
	c-0.5,0.2-1,0.3-1.5,0.4c-26.1,0-52.1,0-78.2,0c-0.7-0.1-1.3-0.2-2-0.3c-0.2-0.8-0.3-1.6-0.3-2.3c-0.1-1.6,0-3.2,0-4.8V357.3
	c0-2-0.1-4.1-0.1-6.4c-1-0.2-2-0.3-3-0.4c-1.6-0.1-3.2,0-4.8,0H552.7c-1.9,0-3.8-0.1-5.7-0.1c-1.1-1.9-0.6-3.6-0.5-5.5
	c1-0.2,1.9-0.4,2.8-0.5c1.1-0.1,2.2,0,3.4,0h127.1c1.9,0,3.8,0.1,5.9,0.1c0.2,1,0.4,2,0.5,3c0.1,1.6,0,3.2,0,4.8
	c0,72.7,0,145.5,0,218.2C686.2,572.5,685.9,574.6,686.7,576.9z"/>
<path d="M623.2,639.2V453.9c0-15.3,0-30.6,0-45.9c-1.9-1.1-3.7-0.7-5.4-0.7c-13.6,0-27.2,0-40.8,0c-8.5,0-17,0-25.4,0
	c-1.6,0-3.1-0.1-4.8-0.2c-0.7-1.8-0.7-3.7-0.2-5.5c1.1-0.2,2.2-0.3,3.3-0.4c25.1,0,50.2,0,75.3,0c1.1,0,2.2,0.1,3.5,0.2
	c0.2,0.9,0.4,1.9,0.5,2.8c0.1,1.6,0,3.2,0,4.8c0,72.7,0,145.4,0,218.1c0,2,0.1,4.1,0.1,6.4c1.7,0.1,3.1,0.3,4.5,0.3
	c13,0,25.9,0,38.8,0h89.3c0.6,1.7,0.7,3.6,0.3,5.4c-1.7,0.9-3.5,0.5-5.2,0.5c-13,0-25.9,0-38.8,0c-29.6,0-59.1,0-88.7,0
	C627.5,639.7,625.6,640,623.2,639.2z"/>
<path d="M644.9,677.1c0.1,2.2,0.1,2.4-1.2,2.5s-2.6,0.1-3.8,0.1c-162.8,0-325.5,0-488.3,0c-1.4,0-2.9,0-4.3-0.2
	c-0.4-0.1-0.8-0.9-0.8-1.5c-0.1-0.3,0.4-0.8,0.7-1c0.4-0.2,0.9-0.3,1.4-0.2c1.4,0,2.9,0,4.3,0h485.9
	C640.8,676.7,642.9,676.4,644.9,677.1z"/>
<path d="M695.5,677.3c0.4-0.2,0.8-0.4,1.3-0.5c143.6,0,287.1,0,430.7,0c0.4,0.1,0.9,0.2,1.3,0.4c0.4,1.1,0.3,2-1,2.3
	c-0.5,0.1-1,0.1-1.4,0.1c-1.3,0-2.6,0-3.8,0c-140.2,0-280.4,0-420.6,0c-1.8,0-3.5,0-5.3-0.1C695.3,679.4,695.2,678.4,695.5,677.3z"
	/>
<path d="M865.8,711.7c-0.1,1.8-0.2,3.2-0.3,4.9c-1.8,0.1-3.4,0.2-5,0.2c-6.1,0-12.2,0-18.2,0c-1.6,0-3.2-0.3-4.9,1
	c-0.2,0.8-0.4,1.6-0.5,2.4c-0.1,3.3-0.1,6.7,0,10.1c0,2.5,0.7,3.2,3.1,3.3c3.2,0.1,6.4,0.1,9.6,0.1s6.7-0.1,10.2-0.1
	c0.1-1.5,0.3-2.8,0.3-4s-0.1-2.2-0.2-3.4c-1.9-1.1-3.8-0.6-5.7-0.7c-2.1-0.1-4.2,0-6.2,0c-1.9,0-3.8-0.1-5.6-0.1
	c-1-1.5-1-3.4-0.2-4.9c0.9-0.1,1.8-0.2,2.8-0.3c5.1,0,10.2,0,15.3,0c0.8,0,1.6,0,2.4,0.1c1.7,0.1,3,1.5,2.9,3.2
	c0.1,2.1,0.1,4.2,0,6.2c0,2.6,0,5.1,0,7.7c-0.1,0.4-0.2,0.8-0.3,1.2c-0.8,0.2-1.7,0.4-2.5,0.5c-7.7,0-15.3,0-23,0
	c-1,0-1.9-0.1-2.9-0.2c-3.7-0.8-5.6-2.8-5.7-6.6c-0.1-4.8-0.2-9.6,0-14.4c0.1-4,2.2-6.1,6.2-6.6c0.6-0.1,1.3-0.1,1.9-0.1
	c8,0,16,0,24,0C864.2,711.4,865,711.5,865.8,711.7z"/>
<path d="M515.7,717.6c-0.2,0.3-0.6,0.8-0.6,1.2c-0.1,4.1-0.2,8.3-0.1,12.4c0,1.5,0.9,2.2,2.5,2.4c0.8,0.1,1.6,0.1,2.4,0.1
	c5.1,0,10.2,0,15.3,0c1-0.1,1.9-0.2,2.9-0.3c0.5-2.4,0.5-4.9,0-7.4c-6-0.8-11.9,0-17.7-0.5c-0.8-1.4-0.9-3.2-0.2-4.7
	c0.5-0.2,1-0.3,1.5-0.4c5.9,0,11.8,0,17.7,0c0.6,0,1.3,0.1,1.9,0.2c1.3,0.1,2.4,1.2,2.4,2.6c0.3,5.3,0.2,10.6-0.1,15.9
	c-1.1,0.1-2,0.3-2.9,0.3c-7.3,0-14.7,0-22,0c-1.3,0-2.6-0.1-3.8-0.3c-3.3-0.7-4.9-2.6-5.4-5.9c-0.1-0.6-0.1-1.3-0.1-1.9
	c0-4-0.1-8,0-12c0.1-5.3,2.4-7.7,7.6-7.8c8.5-0.2,16.9,0,25.4,0c0.4,0.1,0.8,0.2,1.1,0.4c0.7,1.4,0.4,2.9,0.1,4.8
	c-1.5,0.1-2.9,0.2-4.3,0.3c-6.1,0-12.1,0-18.2,0C519.2,716.8,517.4,716.6,515.7,717.6z"/>
<path d="M870.8,739.3c-0.8-4.1-0.9-23.5-0.1-27.5c3.6-0.6,28.9-0.7,33.5-0.1c0.7,1.5,0.7,3.3,0,4.8c-1,0.1-2.1,0.3-3.2,0.3
	c-6.7,0-13.4,0-20.1,0c-1.3,0-2.6,0.1-3.8,0.2c-0.8,0-1.4,0.7-1.3,1.5c0,0.1,0,0.1,0,0.2c0,0.8,0.6,1.5,1.4,1.5c0,0,0.1,0,0.1,0
	c1.1,0.1,2.2,0.1,3.3,0.1c4.8,0,9.6,0,14.4,0c1.3,0,2.5,0.1,3.7,0.2c0.8,2.3,0.8,2.3,0.2,4.9c-3.7,0.5-7.5,0.2-11.3,0.2
	s-7.6-0.2-11.6,0.3c-0.1,1.4-0.2,2.4-0.2,3.5s0,2.2,0,3.1c1.1,1.5,2.5,1.2,3.7,1.2c6.7,0,13.4,0,20.1,0c1.6,0,3.1,0.1,4.7,0.2
	c1.1,1.7,0.8,3.2,0.4,5.1c-3.8,0.5-7.6,0.2-11.3,0.3s-7.3,0-11,0L870.8,739.3z"/>
<path d="M1038.6,711.5h5.1c0.2,0.9,0.4,1.8,0.5,2.8c0.1,4.3,0,8.6,0,12.9c0,1.1,0,2.2,0,3.3c0.1,2.4,0.7,3,3.2,3.2h0.5
	c3.7,0,7.3,0,11,0c0.6-0.1,1.3-0.2,1.9-0.4c0.7-2.4,0.3-4.8,0.4-7.2s0-4.8,0-7.2s-0.3-4.8,0.3-7.1c0.5-0.2,1-0.3,1.5-0.4
	c0.9,0,1.9,0,3,0c0.2,1,0.4,2,0.5,3c0,4.6,0,9.3,0,13.9c0,1.6,0.1,3.2,0.2,5c0.9,0.2,1.9,0.4,2.8,0.5c3.5,0,7,0.1,10.6,0
	c2.8-0.1,3.4-0.8,3.5-3.5c0.1-4.5,0-8.9,0-13.4v-4.6c2.6-0.8,2.6-0.8,5.4-0.3c0.1,0.7,0.2,1.5,0.2,2.2c0,5.6,0,11.2,0,16.8
	c0,1-0.1,1.9-0.2,2.8c-0.3,2.3-2,4.2-4.2,4.8c-1.5,0.4-3.1,0.7-4.7,0.7c-10.9,0.1-21.7,0.1-32.6,0c-1.4,0-2.9-0.2-4.3-0.5
	c-2.9-0.8-4.7-2.7-4.8-5.8C1038.4,726,1038.5,719,1038.6,711.5z"/>
<path d="M1000.1,711.5h33.6c1.2,1.5,0.8,3,0.5,4.5c-1.1,1.2-2.4,0.8-3.7,0.8c-6.7,0-13.4,0-20.1,0c-1.3,0-2.5,0.1-3.8,0.2
	c-0.7,0.1-1.2,0.8-1.1,1.5c0,0.1,0,0.2,0.1,0.3c0.2,0.6,0.6,1,1.2,1.2c1.1,0.2,2.2,0.2,3.3,0.2c5,0,9.9,0,14.9,0
	c1.2,0,2.5,0.2,4,0.3v4.6c-1.1,0.2-2.2,0.3-3.3,0.4c-5,0-9.9,0-14.9,0c-1.6,0-3.1,0.1-4.8,0.1c-0.9,2.6-0.6,4.9-0.4,7.6
	c1.1,0.2,2.2,0.4,3.3,0.4c6.7,0,13.4,0,20.1,0h4.5c1.6,1.6,1,3.2,1,5c-0.5,0.3-1.1,0.4-1.7,0.5c-10.4,0-20.8,0-31.2,0
	c-0.4-0.1-0.8-0.2-1.2-0.3c-0.9-4.4-0.3-9-0.4-13.5S999.8,716.4,1000.1,711.5z"/>
<path d="M251.8,739c0.1-1.8,0.1-3.2,0.2-5c1.6-0.1,3-0.3,4.4-0.3c5.6,0,11.2,0,16.8,0c1.3,0,2.5,0,3.8-0.1c1.9-0.2,2.5-0.9,2.6-2.8
	c0-0.8,0-1.6-0.1-2.4c-0.1-1-0.8-1.8-1.8-1.9c-1.3-0.2-2.5-0.3-3.8-0.3c-4,0-8,0-12,0c-1.8,0-3.5-0.1-5.2-0.4
	c-3.1-0.5-4.7-2.4-4.9-5.5c-0.1-1.1-0.1-2.2,0-3.3c0.1-3,1.5-4.7,4.5-5.3c0.8-0.2,1.6-0.2,2.4-0.2c8,0,16,0,23.9,0
	c0.4,0.1,0.8,0.2,1.2,0.3c0.6,1.4,0.7,2.9,0.1,4.3c-1.3,1.1-2.8,0.7-4.2,0.7c-5.8,0-11.5,0-17.2,0c-1.6,0-3.2-0.3-4.6,0.7
	c-0.1,2.4,0.1,3,1.7,3.1c1.3,0.1,2.6,0.1,3.8,0.1c4,0,8,0,12,0c1.1,0,2.2,0,3.4,0.1c4.3,0.5,6.3,2.5,6.7,6.7
	c0.1,1.8,0.1,3.5-0.1,5.3c-0.4,3.3-2,5.2-5.3,6c-1.1,0.2-2.2,0.4-3.3,0.4c-7.5,0-15,0-22.5,0C253.5,739.3,252.9,739.1,251.8,739z"/>
<path d="M752.1,711.6v4.8c-1.1,0.2-2.3,0.3-3.4,0.4c-5.9,0-11.8,0-17.7,0c-1.3,0-2.5,0-3.8,0.2c-0.8,0-1.4,0.7-1.4,1.5
	c0,0,0,0,0,0.1c-0.2,0.8,0.3,1.6,1.2,1.9c1.1,0.2,2.2,0.3,3.3,0.3c4,0,8,0,12,0c0.8,0,1.6,0,2.4,0c6.7,0.2,8.9,2.4,8.9,9
	c0,6.9-2.2,9.4-9,9.5c-7.3,0.1-14.7,0-22,0c-0.6,0-1.2-0.1-2-0.2c-0.7-1.6-0.4-3.1-0.2-5c1.3-0.1,2.5-0.3,3.7-0.3
	c5.8,0,11.5,0,17.3,0c1.1,0,2.2,0,3.3-0.1c2.6-0.2,3.2-1,3.2-3.7s-0.7-3.6-3.3-3.7c-4.2-0.1-8.3,0-12.5-0.1c-2.1,0-4.2-0.1-6.2-0.2
	c-4.2-0.5-5.8-2.2-5.8-6.6c0-0.8,0-1.6,0-2.4c0.1-3.1,1.5-4.7,4.4-5.3c0.9-0.2,1.9-0.3,2.9-0.2c7.5,0,15,0,22.5,0
	C750.7,711.4,751.4,711.5,752.1,711.6z"/>
<path d="M984.2,729.8c1,1.7,2.5,2.3,3.7,3.2s2.6,1.8,3.9,2.8s2.4,1.8,4.3,3.3c-2.7,0.4-5.5,0.4-8.3,0.2c-1.1-0.2-2.1-0.7-2.9-1.5
	c-2.6-1.9-5.1-3.8-7.7-5.7c-4.1-3.1-4.2-3.1-9.8-2.2c-1.2,2.8,0,5.9-0.8,8.9c-1.4,0.9-2.9,0.6-4.6,0.3c-0.7-2.2-0.3-4.5-0.4-6.6
	c-0.1-2.4,0-4.8,0-7.2c0-2.2,0-4.5,0-6.7c-0.1-2.3,0-4.6,0.3-6.8c0.8-0.2,1.6-0.3,2.4-0.3c7.7,0,15.3,0,23,0c7.4-0.1,9.2,3.7,9,9.5
	c0,0.8-0.1,1.6-0.2,2.4c-0.6,3.4-2.2,5-5.6,5.7c-1.4,0.3-2.8,0.3-4.3,0.5C985.6,729.4,985,729.6,984.2,729.8z M967.2,723.8
	c0.5,0.2,0.9,0.4,1.4,0.5c6,0,12.1,0.1,18.1,0.1c0.5,0,0.9-0.1,1.4-0.2c1.2-0.1,2.1-1,2.2-2.2c0.1-0.9,0.1-1.9,0-2.8
	c-0.1-1.2-1.1-2.1-2.2-2.1c-0.6-0.1-1.3-0.1-1.9-0.2c-5.6,0-11.1,0-16.7,0c-0.8,0.1-1.6,0.2-2.4,0.5
	C966.8,719.5,966.8,721.6,967.2,723.8L967.2,723.8z"/>
<path d="M655.1,711.8c-0.1,1.7-0.1,3.1-0.2,4.3c-1.8,1-3.4,0.7-5,0.7c-5.6,0-11.2,0-16.8,0c-1.4,0-2.9-0.3-4.4,0.8
	c0,0.7,0.1,1.4,0.2,2.1c0.4,0.5,0.9,0.8,1.5,0.9c1.1,0.1,2.2,0.2,3.3,0.2c4.2,0,8.3,0,12.5,0c1.4,0,2.9,0.1,4.3,0.3
	c2.8,0.3,5.1,2.4,5.5,5.2c0.5,2.5,0.5,5.2,0,7.7c-0.4,2.3-2,4.1-4.3,4.7c-1.2,0.4-2.5,0.6-3.8,0.6c-7.8,0-15.7,0-23.5,0
	c-1.5,0-2.7-1.3-2.7-2.8c0-1.1,0.7-2,1.7-2.5c8.7-0.7,17.5,0.3,26-0.5c0.4-0.5,0.7-1,0.9-1.5c0.8-4.3-0.1-5.6-4.5-5.7s-8.6,0-13,0
	c-1.9,0-3.8-0.1-5.7-0.5c-2.5-0.3-4.4-2.5-4.4-5c-0.1-1.4,0-2.9,0-4.3c-0.1-2.2,1.4-4.1,3.5-4.6c1.1-0.3,2.2-0.5,3.3-0.5
	c7.8,0,15.7,0,23.5,0C653.8,711.5,654.4,711.6,655.1,711.8z"/>
<path d="M408.8,739.2c-0.6-4.9-0.6-23.2,0-27.5c0.9-0.2,1.7-0.3,2.6-0.3c7.5,0,15,0,22.5,0c1.4,0,2.9,0.1,4.3,0.5
	c2.6,0.5,4.5,2.9,4.5,5.5c0.1,5.3,0.1,10.5,0,15.8c0,2.5-1.7,4.7-4.1,5.3c-0.9,0.4-1.8,0.6-2.8,0.7
	C426.9,739.2,417.9,739.2,408.8,739.2z M414.2,733.2c0.5,0.2,1.1,0.3,1.6,0.4c5.9,0,11.8,0,17.7,0c0.5,0,1,0,1.4-0.1
	c1.4-0.2,2.1-0.8,2.2-2.1c0.1-4.1,0.1-8.3,0-12.4c0-1-0.8-1.9-1.8-2c-0.8-0.2-1.6-0.2-2.4-0.2c-5.6,0-11.1,0-16.7,0
	c-0.6,0.1-1.2,0.2-1.7,0.3C413.7,720.8,413.6,727,414.2,733.2L414.2,733.2z"/>
<path d="M307.4,739.3c-2.9,0-5.8,0.1-8.6,0c-1.4,0-2.8-0.3-4.2-0.7c-2.6-0.6-4.4-3-4.4-5.6c-0.1-5.1-0.1-10.2,0-15.3
	c0.1-3.4,2.2-5.5,5.6-6.1c1.1-0.2,2.2-0.2,3.3-0.2c5.4,0,10.9,0,16.3,0c0.8,0,1.6,0,2.4,0.1c4.4,0.5,6.6,2.7,6.8,7.1s0,8.6,0.1,12.9
	c0.1,4.6-2.5,7.6-7.7,7.8C313.8,739.4,310.6,739.3,307.4,739.3L307.4,739.3z M307.2,733.7L307.2,733.7c3,0,6,0.1,9.1,0
	c1.8-0.1,2.6-0.9,2.6-2.7c0.1-3.5,0.1-7,0-10.5c0-2.8-0.7-3.5-3.3-3.5c-4.9-0.1-9.9-0.1-14.8-0.1c-0.8,0-1.6,0-2.4,0.1
	c-1.8,0.2-2.6,0.9-2.6,2.7c-0.1,3.7-0.1,7.3,0,11c0,2.2,0.7,3,2.8,3C301.5,733.8,304.3,733.7,307.2,733.7z"/>
<path d="M820.5,731c-3.9-0.7-18.2-0.8-22.8-0.2c-1.3,2.5-0.1,5.3-1,8c-1.4,0.8-2.9,0.5-4.6,0.3c-0.2-0.7-0.3-1.3-0.3-2
	c0-5.3,0-10.5,0-15.8c0-0.6,0-1.3,0.1-1.9c0.5-4.5,3.1-7.2,7.6-7.9c0.8-0.1,1.6-0.2,2.4-0.2h14.4c0.8,0,1.6,0,2.4,0.2
	c4,0.4,7.2,3.5,7.6,7.5c0.1,0.8,0.2,1.6,0.2,2.4c0,5.1,0,10.2,0,15.3c-0.1,0.8-0.2,1.6-0.4,2.4h-4.6
	C820.2,736.6,821.3,733.8,820.5,731z M820.7,724.8c0-1.8,0.1-3.4,0-4.9c-0.1-1.3-1.1-2.4-2.5-2.6c-0.6-0.2-1.3-0.3-1.9-0.3
	c-4.8,0-9.6-0.1-14.4,0c-3.7,0.1-4.7,1.2-4.8,5c0,0.9,0.1,1.8,0.3,2.6C801.3,725.2,815.2,725.3,820.7,724.8L820.7,724.8z"/>
<path d="M397.7,731.1c0.1-7,0.1-13,0.2-18.9c1.8-1.3,3.3-0.7,5-0.7c0.2,1,0.3,1.9,0.4,2.9c0,6.9,0,13.7,0,20.6
	c0,1.6,0.3,3.4-1.5,4.2c-1.9,0.9-3.3-0.4-4.7-1.5c-6.2-5-12.4-10-18.7-15c-1.1-0.9-2.2-1.6-3.7-2.7c-0.8,1.9-0.5,3.4-0.6,5
	s0,3.2,0,4.8c0,1.4,0,2.9,0,4.3c0,1.6-0.1,3.2-0.2,4.7c-1.6,0.7-3.4,0.8-5,0.2c-0.1-0.8-0.2-1.5-0.3-2.3c0-7.2,0-14.4,0-21.6
	c0-1.4-0.2-3,1.4-3.8c1.8-0.9,3,0.2,4.3,1.2l18.6,15C394.4,728.6,395.6,729.5,397.7,731.1z"/>
<path d="M957.1,712v3.9c-1.1,1.3-2.5,0.9-3.7,0.9c-6.2,0-12.5,0-18.7,0c-1.3,0-2.6,0-3.8,0.2c-1.3,0-2.4,1-2.4,2.4c0,0,0,0.1,0,0.1
	c-0.1,2.1-0.1,4.2-0.1,6.2c0,1.8,0,3.5,0.1,5.3s0.9,2.5,2.8,2.7c1.3,0.1,2.5,0.1,3.8,0.1h19.2c0.8,0,1.5,0.1,2.3,0.2
	c1.1,1.6,0.8,3.2,0.5,5c-0.9,0.2-1.8,0.3-2.7,0.4c-7.5,0-15,0-22.5,0c-1.1,0-2.2-0.1-3.3-0.3c-3.5-0.7-5.2-2.7-5.7-6.2
	c-0.1-1.3-0.1-2.6-0.1-3.8c0-3.5-0.1-7,0.1-10.5c0.2-4.5,2.4-6.9,6.9-7c8.8-0.2,17.5,0,26.3,0C956.3,711.5,956.6,711.7,957.1,712z"
	/>
<path d="M582.5,739.3l-4.8-0.2c-0.1-4.5-0.2-8.7-0.3-12.9c-3.6-0.9-16.2-1.1-22.7-0.5c-1.1,1-0.7,2.4-0.8,3.6
	c-0.1,2.9-0.1,5.8-0.1,8.6c0,0.3-0.2,0.6-0.5,1.1H549c-0.8-3.9-0.8-23.3,0-27.4c0.7-0.1,1.5-0.2,2.2-0.2c0.9,0,1.7,0.1,2.5,0.3
	c0.2,2.8,0.3,5.4,0.5,8c4,0.7,17.5,0.8,22.9,0.2c1.1-2.4-0.1-5.3,0.9-8c1.4-0.8,2.9-0.6,4.4-0.2
	C583.2,715.2,583.3,733.8,582.5,739.3z"/>
<path d="M358.4,711.5h4.8c0.3,0.9,0.4,1.8,0.5,2.7c0,5.6,0,11.2,0,16.7c0,0.6,0,1.3-0.1,1.9c-0.5,3.5-2.3,5.4-5.7,6.1
	c-1.1,0.2-2.2,0.3-3.3,0.3c-5.4,0-10.9,0-16.3,0c-0.6,0-1.3,0-1.9-0.1c-4.8-0.5-7-2.6-7-7.4c-0.1-6.2,0-12.4,0-18.7
	c0.1-0.5,0.2-1.1,0.4-1.6h4.9c0.2,1.1,0.3,2.1,0.4,3.2c0,4.6,0,9.2,0,13.9c0,1,0,1.9,0.1,2.9c0.1,1,0.8,1.8,1.8,2
	c0.8,0.1,1.6,0.2,2.4,0.2c4.8,0,9.6,0,14.4,0c0.8,0,1.6-0.1,2.4-0.2c1-0.1,1.8-0.9,1.9-1.9c0.1-1.1,0.2-2.2,0.1-3.3
	c0-4.8,0-9.6,0-14.3C358.2,713.3,358.3,712.7,358.4,711.5z"/>
<path d="M1130.7,338.5h19c0.4,0.7,0.7,1.4,0.9,2.2c0.1,4.3,0.1,8.6,0.1,12.9c0,2-0.9,2.8-3,2.9c-5.4,0.1-10.8,0-16.5,0
	c-1-3.1-0.5-6.1-0.5-9.1S1130.7,341.7,1130.7,338.5z"/>
<path d="M586.1,716.4v-4.3c0.4-0.2,0.8-0.6,1.2-0.6c1.6-0.1,3.2-0.1,4.8-0.2h27.8c0.8,1.6,0.8,3.4,0.2,5c-4.4,1.2-9.1-0.1-13.8,0.8
	c-0.8,3.8-0.3,7.5-0.4,11.1s-0.1,7-0.1,10.3c-1.8,1.2-3.3,0.5-5,0.6c-1-3.8-0.4-7.4-0.5-11.1s0-7,0-10.6
	C595.7,716,591,717.5,586.1,716.4z"/>
<path d="M173,650.8h-10.6c-0.3-0.6-0.5-1.2-0.6-1.8c0-7.8,0.1-15.6,0.2-23.4c0.1-0.7,0.2-1.4,0.3-2.1c3.7-0.5,7.4-0.4,11.1,0.1
	C173.3,632.7,173.6,641.5,173,650.8z"/>
<path d="M684.2,726.2l4.6,5.4c0.5-0.6,1-1.3,1.4-2c0.5-1.3,0.8-2.7,1.3-4.4l2.9-0.2c0.3,0.5,0.6,0.8,0.5,1c-0.8,2.9-1.6,5.8-2.5,9.2
	l2.7,3.5c-0.2,1.2-1.1,1.2-1.8,1.1c-1.5-0.3-3-0.8-5-1.5c-0.7,0.3-1.9,0.8-3.3,1.3c-2,0.7-4.1,0.8-6.1,0.2c-4-1-6.5-5.1-5.5-9.1
	c0.2-1,0.7-1.9,1.2-2.7c0.9-1.1,1.8-2.2,2.8-3.2c-0.5-1.2-0.9-2.4-1.2-3.6c-0.6-2.6,0.4-5.2,2.5-6.8c2.1-1.6,4.9-1.9,7.3-0.7
	c3.3,1.4,4.1,6,1.8,9C686.8,724,685.5,725.1,684.2,726.2z M680.1,728c-1.6,0.6-2.6,2.2-2.5,3.9c0,1.1,0.4,2.2,1,3.1
	c1.6,2.2,4.4,2.1,7.7-0.1C684.6,732.2,682.5,729.9,680.1,728z M681.8,723c2.7-1.9,3-2.2,3.3-3.1c0.5-1.4-0.2-3-1.6-3.5
	c-1.3-0.4-2.6,0.3-3.1,1.6C679.7,719.9,680.3,721.4,681.8,723L681.8,723z"/>
<path d="M755.4,716.6c-0.1-1.3-0.3-2.1-0.3-2.8c0.1-0.7,0.2-1.4,0.3-2.1c5.8-0.7,11.5-0.2,17.2-0.3s11.1-0.1,16.5,0
	c0.8,1.6,0.9,3.5,0.2,5.2c-4.6,0.7-9.3-0.1-14,0.6c-0.6,4-0.2,7.7-0.3,11.3c-0.1,3.5,0.2,7-0.2,10.6h-4.7c-0.2-0.9-0.4-1.8-0.4-2.7
	c0-4.6,0-9.3,0-13.9v-5c-0.9-0.3-1.9-0.5-2.9-0.6c-2.5-0.1-5.1,0-7.7-0.1C758,716.8,756.9,716.7,755.4,716.6z"/>
<path d="M670.5,661.5c9.2-0.1,16.7,7.3,16.8,16.5c0,0.1,0,0.1,0,0.2c0,7.8-5.8,16.7-16.8,16.7c-10.9-0.1-16.5-8.8-16.6-16.4
	c-0.1-9.2,7.2-16.8,16.4-16.9C670.4,661.5,670.5,661.5,670.5,661.5z M684.4,678.3c0.1-7.6-5.9-13.8-13.5-13.9
	c-7.6-0.1-13.8,5.9-13.9,13.5c-0.1,7.6,5.9,13.8,13.5,13.9c0,0,0,0,0,0C678,691.8,684.2,685.8,684.4,678.3L684.4,678.3z"/>
<path d="M469.8,711.7c0.8-0.1,1.6-0.2,2.5-0.3c0.8,0,1.6,0.1,2.5,0.2c1,3.6,0.4,7.3,0.5,10.9s0,7,0,10.7c1,0.3,1.9,0.4,2.9,0.5
	c4.1,0,8.3,0,12.4,0c1.2,0,2.5,0.2,3.9,0.3v4.8c-4,0.8-8.1,0.3-12.2,0.4s-7.9,0-12,0c-1-3.2-0.5-6.2-0.6-9.2s0-6,0-9.1
	S469.8,715,469.8,711.7z"/>
<path d="M153,620.4h5.3c0.3,0.7,0.5,1.4,0.6,2.2c0,9.9-0.1,19.8-0.2,29.6c-0.1,0.5-0.2,1-0.4,1.5c-1.8,0.5-3.7,0.5-5.5,0
	C151.9,649.6,152.1,626.6,153,620.4z"/>
<path d="M182.4,620.3c0.8,4.5,0.7,28-0.1,33.4c-0.9,0.1-1.8,0.2-2.6,0.2c-1,0-2-0.1-3-0.3c-0.2-0.8-0.3-1.6-0.3-2.4
	c0.1-10.2,0.3-20.3,0.5-30.5C178.7,619.8,180.4,620.2,182.4,620.3z"/>
<path d="M499.1,711.7c1.4-0.6,3.1-0.6,4.5,0c0.7,4.3,0.7,23.5-0.1,27.3H499C498.2,734.6,498.3,715.3,499.1,711.7z"/>
<path d="M1122,338.6l4.3-0.2c0.9,3.6,1,13.6,0.1,17.7c-0.4,0.2-0.9,0.3-1.3,0.3c-3.2,0-3.8-0.4-3.8-3.4c-0.1-3.8-0.1-7.7,0-11.5
	C1121.4,340.5,1121.7,339.5,1122,338.6z"/>
<path d="M1154.2,351v-6.5c3.3-1,6.6-0.4,9.9-0.4c0.5,2.2,0.5,4.4,0.1,6.6c-0.8,0.1-1.6,0.2-2.4,0.3C1159.4,351,1157,351,1154.2,351z
	"/>
<path d="M1172.5,352.8l-4.2-1.7v-6.8c1-1.3,2.5-1.5,4.2-1.9c1.9,1.4,3.6,3.1,4.8,5.1C1176.3,349.7,1174.5,351,1172.5,352.8z"/>
<path d="M127.5,636.1c5.4-0.6,10.8-0.5,16.2,0.1c0.7,1.2,0.6,2.4-0.9,2.5c-4.7,0.2-9.5,0.3-14.2,0.2
	C127.1,638.9,127.1,637.6,127.5,636.1z"/>
<path d="M447,732.8h3.4c0.7,2.8,0,5.5,0.2,7.9c-1.2,1.3-2.2,1.2-3.5,0.2C446.8,738.2,446.7,735.5,447,732.8z"/>
<path d="M141.2,622.2l6.9,7.3l-1.4,1.7c-1.4,0-4.3-2.8-7.5-6.9L141.2,622.2z"/>
<path d="M140.9,652.5l-2.3-2.2l7.1-7.3l2.6,2L140.9,652.5z"/>
</svg>
