<svg id="Layer_1" data-name="Layer 1" xmlns="http://www.w3.org/2000/svg" viewBox="0 0 1257.37 1080"><path d="M1111.88,344.33c1.76-3.4,1.76-3.4,5.49-3,1,1.85.52,4,.53,6s.39,4.15-.4,6.11c-3.71.57-3.71.57-5.75-2.79-1.43-.05-3-.15-4.59-.15q-120.42,0-240.83,0a159.55,159.55,0,0,0-38.51,4.23,88.83,88.83,0,0,0-17.57,6.26c-15.1,7.32-24.93,19.1-29.76,35.1a82.66,82.66,0,0,0-3.79,23.11c-.17,16.14-.2,32.28,0,48.42a82.32,82.32,0,0,0,4.39,24.93q7.57,22.81,29.21,33.25A99.52,99.52,0,0,0,837.74,534a181.3,181.3,0,0,0,29.62,2.17q83.24,0,166.47,0c4.63,0,9.26.33,13.88.68a28.72,28.72,0,0,1,6.1,1.17c6,1.81,9.33,6.05,9.72,12.28.22,3.5.09,7,.1,10.54,0,2.88.07,5.76,0,8.63-.16,5.85-2.83,9.73-8.41,11.47a57.16,57.16,0,0,1-9.86,1.84,53.4,53.4,0,0,1-6.7.16H780.54c-1.72,0-3.44-.12-5.37-.19v-5.19a19.48,19.48,0,0,1,2.71-.48c1.59-.08,3.19,0,4.79,0q127.37,0,254.74,0c4,0,8-.47,11.94-.77a13.51,13.51,0,0,0,2.81-.59c4.14-1.25,5.47-2.91,5.54-7.26.08-5.27,0-10.55,0-15.82a17.36,17.36,0,0,0-.18-2.39,7.22,7.22,0,0,0-5.62-6.44,37.92,37.92,0,0,0-6.6-1.11c-3.66-.26-7.35-.36-11-.36q-84,0-167.91,0a166.89,166.89,0,0,1-39.94-4.41,99.39,99.39,0,0,1-15.88-5.32c-19.34-8.43-31.44-23-36.74-43.31a107.4,107.4,0,0,1-3.32-27.05q-.06-22.53.35-45.06a84.5,84.5,0,0,1,3.84-22.62q8.21-27.59,34.33-39.65A103.84,103.84,0,0,1,835.1,347a197.45,197.45,0,0,1,33.9-2.67h242.88Z"/><path d="M533.45,401.61v5.17a22.28,22.28,0,0,1-2.52.37c-1.6.06-3.2,0-4.8,0q-125.43,0-250.87,0c-3.67,0-7.35,0-11,.25a38.58,38.58,0,0,0-7.09,1.09c-3.81,1-5.28,2.93-5.33,6.88-.07,5.59-.09,11.19,0,16.78.09,5.17,2.08,7.66,7.21,8.6A65.83,65.83,0,0,0,270,441.85c11.51.13,23,0,34.53,0q68.12,0,136.23,0a193.3,193.3,0,0,1,35.3,2.95,106.12,106.12,0,0,1,21.58,6.3c20.18,8.38,32.8,23.26,38.11,44.38a91.2,91.2,0,0,1,3,21.79c.08,15.83.14,31.65,0,47.47a89.56,89.56,0,0,1-4.58,26.83c-5.67,17.36-16.86,29.81-33.37,37.55a107.86,107.86,0,0,1-28.88,8.42,200.53,200.53,0,0,1-32,2.17q-118.47,0-237,0c-2,0-4.14-.31-6.29.39-1.88,4.68-4.63,8.56-10.24,10-.8-2.5-.4-4.72-.44-6.88s.13-4.15.16-6.23c0-2.24,0-4.48,0-6.71a18.1,18.1,0,0,1,.69-6.31c5.55,1,8,4.93,9.9,9.74H441.3a174,174,0,0,0,38.55-3.89A93.51,93.51,0,0,0,495.36,625c18.43-7.69,29.92-21.31,34.64-40.66a101,101,0,0,0,2.93-23.73c0-13.1.08-26.21,0-39.31A95.93,95.93,0,0,0,528.43,492c-5.06-15.59-15.06-26.83-29.84-33.86a96.75,96.75,0,0,0-24.65-7.6,192.34,192.34,0,0,0-33.88-2.76q-84.19,0-168.37,0c-4.48,0-9,.07-13.36-1a35.09,35.09,0,0,1-3.68-1c-5.38-2-8.15-5.9-8.71-11.51q-.06-.72-.06-1.44c0-6.07.12-12.15,0-18.22a11.49,11.49,0,0,1,8-11.28,35.58,35.58,0,0,1,7.45-1.64c4.61-.4,9.26-.61,13.89-.61q126.15,0,252.31,0C529.37,401.08,531.31,400.79,533.45,401.61Z"/><path d="M533.26,344.9a5.48,5.48,0,0,1,.39,1.31c.06,1.1,0,2.2,0,3.54a18,18,0,0,1-2.82.65c-1.59.1-3.19,0-4.79,0H271.83A156.8,156.8,0,0,0,238,353.66a79.88,79.88,0,0,0-17.72,5.78,66.75,66.75,0,0,0-7.14,3.91c-12.27,7.93-18.65,19.37-19.87,33.82-.13,1.59-.17,3.19-.18,4.78q0,19.43,0,38.84a65.49,65.49,0,0,0,2,16.13,46.71,46.71,0,0,0,21.54,29.35c7.57,4.69,15.87,7.49,24.51,9.34a156.24,156.24,0,0,0,32.87,3q83.24,0,166.45,0A84.51,84.51,0,0,1,459,500.5a34,34,0,0,1,9.81,3.74c7,4.1,10.75,10.26,11.52,18.29.11,1.11.11,2.23.11,3.35,0,10.07,0,20.14,0,30.21a30.33,30.33,0,0,1-.64,6.66A22.11,22.11,0,0,1,469,577.34a35.88,35.88,0,0,1-13.07,4.47c-4.26.63-8.58.81-12.88,1.13-1.43.11-2.88,0-4.32,0H194.44a9.54,9.54,0,0,1-.14-5.52c.92-.12,1.84-.33,2.76-.36,1.59-.06,3.19,0,4.79,0q119.21,0,238.4,0a73.48,73.48,0,0,0,17.13-1.73,37.11,37.11,0,0,0,5.92-1.9c7.16-3.07,11-8.52,11.17-16.36.1-4.15,0-8.31,0-12.47,0-6.23-.09-12.46,0-18.7.17-8.75-4.06-15.44-13.55-18.62-6-2-12.21-2.37-18.45-2.62-1.44-.06-2.88,0-4.32,0H277.5a206.93,206.93,0,0,1-26.8-1.33c-11.47-1.5-22.61-4.15-33-9.5-18.11-9.34-27.76-24.41-30.15-44.38a82.7,82.7,0,0,1-.52-9.57c-.06-12.31,0-24.61,0-36.92A61.89,61.89,0,0,1,189,386.81,47.41,47.41,0,0,1,210,358.17c7.91-5,16.61-8.11,25.7-10.19A153.84,153.84,0,0,1,270,344.37q129.27-.12,258.54,0C530.09,344.34,531.73,344,533.26,344.9Z"/><path d="M775.14,639.74v-5.53a28.53,28.53,0,0,1,2.83-.39c1.44-.07,2.88,0,4.32,0q126.9,0,253.79,0a172.19,172.19,0,0,0,33.38-2.89,88.14,88.14,0,0,0,19.19-5.93,53.74,53.74,0,0,0,11.84-7.21,40.59,40.59,0,0,0,14.81-25,60.33,60.33,0,0,0,1-10.47c.12-13.11.07-26.22,0-39.32a63.61,63.61,0,0,0-2.79-18.42,46.33,46.33,0,0,0-19.51-25.86c-7.31-4.8-15.39-7.71-23.84-9.7a146.66,146.66,0,0,0-33.79-3.5q-82.76-.08-165.52,0a94.38,94.38,0,0,1-18.15-1.28,40.9,40.9,0,0,1-10.89-3.56c-7.19-3.69-11.48-9.5-12.63-17.53a46,46,0,0,1-.47-6.2q-.07-13.67,0-27.33a47.73,47.73,0,0,1,.3-4.78c1.07-9.89,6.53-16.4,15.6-20a43.79,43.79,0,0,1,13-3c4.78-.38,9.58-.64,14.37-.65q119,0,237.95,0c1.89,0,3.83-.33,5.8.51a8.08,8.08,0,0,1,0,5.21,21.52,21.52,0,0,1-2.33.35c-1.6.06-3.2,0-4.79,0q-118.26,0-236.52,0c-6.07,0-12.18-.15-18.15,1.2a46.43,46.43,0,0,0-8.22,2.49c-6.77,2.93-10.5,8.14-10.81,15.6-.12,2.87-.1,5.75-.11,8.63q0,10.31,0,20.62c0,1.6,0,3.2.12,4.79.46,7.23,4.11,12.26,10.66,15.23,5.18,2.35,10.71,3.17,16.31,3.53,3.19.2,6.39.17,9.59.17q83,0,166,0a144.38,144.38,0,0,1,38,4.66,77.68,77.68,0,0,1,19.84,8.25c14.3,8.58,22.63,21.25,25.75,37.52a81.36,81.36,0,0,1,1.24,15.26c0,11.83,0,23.66,0,35.49a64.39,64.39,0,0,1-2,17.08,47.06,47.06,0,0,1-18.89,26.88c-7.55,5.33-16,8.64-24.89,10.88a139.5,139.5,0,0,1-29.4,4c-5,.16-9.91.21-14.87.21q-125.2,0-250.42,0Z"/><path d="M686.69,576.86a95.21,95.21,0,0,0,9.54.19c3,0,6.08,0,9.12,0h37.89c3,0,6.08,0,9.12,0s6.33.07,9.66.1a10.81,10.81,0,0,1,.14,5.34,6.93,6.93,0,0,1-1.51.41q-39.1,0-78.2,0a14.23,14.23,0,0,1-2-.31,21.24,21.24,0,0,1-.35-2.35c-.06-1.6,0-3.2,0-4.8V357.29c0-2.05-.08-4.1-.12-6.4a29.61,29.61,0,0,0-3-.42c-1.6-.07-3.2,0-4.8,0H552.7c-1.9,0-3.8-.07-5.7-.11-1.13-1.88-.58-3.59-.54-5.49,1-.18,1.94-.41,2.84-.48,1.12-.08,2.24,0,3.36,0H679.79c1.89,0,3.78.07,5.86.11a28.24,28.24,0,0,1,.49,3c.08,1.6,0,3.2,0,4.8q0,109.1,0,218.19C686.19,572.49,685.91,574.57,686.69,576.86Z"/><path d="M623.22,639.17V453.85q0-23,0-45.93c-1.92-1.11-3.71-.72-5.4-.72-13.59,0-27.18,0-40.76,0q-12.72,0-25.42,0c-1.57,0-3.14-.12-4.77-.18a8.82,8.82,0,0,1-.23-5.51,26.78,26.78,0,0,1,3.26-.39q37.65,0,75.29,0c1.09,0,2.19.15,3.52.25a26.24,26.24,0,0,1,.45,2.84c.08,1.6,0,3.2,0,4.8q0,109,0,218.1c0,2,.07,4.1.12,6.43,1.7.11,3.08.28,4.47.29q19.43,0,38.84,0h89.29a9.92,9.92,0,0,1,.28,5.37c-1.73.93-3.52.55-5.23.55-13,0-25.9,0-38.84,0q-44.36,0-88.72,0C627.52,639.73,625.6,640,623.22,639.17Z"/><path d="M644.91,677.11c.12,2.23.06,2.41-1.18,2.49s-2.56.08-3.83.08q-244.15,0-488.29,0a26.58,26.58,0,0,1-4.29-.24c-.37-.06-.75-.91-.84-1.45-.06-.3.38-.83.73-1a3,3,0,0,1,1.39-.23c1.44,0,2.88,0,4.32,0H638.81C640.85,676.71,642.94,676.39,644.91,677.11Z"/><path d="M695.46,677.3a3.73,3.73,0,0,1,1.26-.48q215.35,0,430.71,0a3.94,3.94,0,0,1,1.26.44c.37,1.13.26,2-1,2.33a6.19,6.19,0,0,1-1.43.11c-1.28,0-2.56,0-3.84,0q-210.32,0-420.64,0c-1.76,0-3.52,0-5.27-.14C695.28,679.42,695.22,678.41,695.46,677.3Z"/><path d="M865.75,711.74c-.12,1.78-.22,3.16-.33,4.86-1.83.09-3.39.22-4.95.22-6.08,0-12.15,0-18.23,0-1.57,0-3.21-.26-4.93,1a12.12,12.12,0,0,0-.45,2.44c-.06,3.35-.08,6.71,0,10.06,0,2.54.66,3.21,3.08,3.3,3.19.12,6.39.07,9.59.06s6.66-.06,10.25-.09c.14-1.54.31-2.76.34-4s-.09-2.2-.15-3.38c-1.89-1.06-3.84-.58-5.7-.65-2.07-.08-4.16,0-6.23,0-1.9,0-3.8-.06-5.63-.1a4.68,4.68,0,0,1-.16-4.91,25.22,25.22,0,0,1,2.77-.27c5.11,0,10.23,0,15.35,0a14.61,14.61,0,0,1,2.39.11,3.09,3.09,0,0,1,2.9,3.23c.1,2.07.06,4.15.05,6.23,0,2.56,0,5.11-.05,7.67a7.11,7.11,0,0,1-.3,1.23,12.42,12.42,0,0,1-2.51.48c-7.67,0-15.35,0-23,0a14.4,14.4,0,0,1-2.86-.23c-3.74-.75-5.63-2.79-5.73-6.57-.14-4.79-.15-9.59,0-14.38.12-4,2.2-6.08,6.19-6.62a13.51,13.51,0,0,1,1.91-.12q12,0,24,0A19.65,19.65,0,0,1,865.75,711.74Z"/><path d="M515.73,717.6c-.18.35-.59.77-.6,1.19-.1,4.14-.18,8.28-.13,12.42,0,1.49.9,2.21,2.46,2.41a18.87,18.87,0,0,0,2.38.11c5.11,0,10.22,0,15.33,0a27.91,27.91,0,0,0,2.89-.35,19.09,19.09,0,0,0,0-7.38c-6-.85-11.86,0-17.73-.55a5,5,0,0,1-.18-4.66,6.07,6.07,0,0,1,1.48-.41q8.85-.06,17.71,0a10,10,0,0,1,1.9.17,2.63,2.63,0,0,1,2.41,2.56,139.26,139.26,0,0,1-.14,15.93c-1.08.11-2,.29-2.91.29q-11,0-22,0a18,18,0,0,1-3.81-.32c-3.29-.74-4.93-2.57-5.43-5.87a12.17,12.17,0,0,1-.1-1.91c0-4-.1-8,0-12,.14-5.3,2.35-7.69,7.6-7.79,8.45-.15,16.91,0,25.37,0a4.4,4.4,0,0,1,1.12.38c.69,1.38.37,2.89.07,4.75-1.51.09-2.9.25-4.29.26-6.07,0-12.13,0-18.2,0C519.21,716.85,517.42,716.59,515.73,717.6Z"/><path d="M870.85,739.27c-.85-4.11-.86-23.52-.09-27.45,3.6-.63,28.89-.69,33.49-.06a5.48,5.48,0,0,1,0,4.76c-1,.1-2.1.29-3.17.3-6.71,0-13.43,0-20.14,0a34.89,34.89,0,0,0-3.82.18,1.42,1.42,0,0,0-1.31,1.67,1.46,1.46,0,0,0,1.49,1.51c1.11.1,2.23.1,3.35.11,4.8,0,9.59,0,14.38,0,1.26,0,2.52.11,3.69.16.78,2.34.79,2.34.2,4.88-3.71.5-7.54.15-11.34.25s-7.6-.25-11.63.31c-.09,1.36-.19,2.44-.23,3.52s0,2.23,0,3.06c1.11,1.55,2.48,1.22,3.71,1.22,6.71,0,13.43,0,20.14,0,1.57,0,3.13.11,4.66.17,1.07,1.69.82,3.22.4,5.11-3.75.54-7.56.2-11.34.26s-7.35,0-11,0Z"/><path d="M1038.6,711.49h5.14a16.36,16.36,0,0,1,.51,2.76c.06,4.31,0,8.62,0,12.94,0,1.12,0,2.24,0,3.35.13,2.4.71,3,3.24,3.16l.48,0c3.67,0,7.35,0,11,0a9.71,9.71,0,0,0,1.89-.4c.74-2.44.33-4.84.4-7.2s0-4.8,0-7.19-.27-4.75.31-7.1a8.59,8.59,0,0,1,1.52-.41c.93,0,1.87,0,3,0a21.18,21.18,0,0,1,.47,3c0,4.63,0,9.26,0,13.89,0,1.58.1,3.15.17,5a20.21,20.21,0,0,0,2.82.45c3.52,0,7,.08,10.55,0,2.76-.09,3.43-.75,3.48-3.45.08-4.47,0-8.94,0-13.41v-4.62c2.59-.82,2.59-.82,5.43-.27a19.14,19.14,0,0,1,.22,2.23q0,8.39,0,16.78a14.31,14.31,0,0,1-.24,2.85,5.67,5.67,0,0,1-4.19,4.76,19.31,19.31,0,0,1-4.7.71q-16.29.09-32.59,0a16.91,16.91,0,0,1-4.26-.52c-2.92-.78-4.72-2.73-4.82-5.81C1038.42,726,1038.5,719,1038.6,711.49Z"/><path d="M1000.09,711.52h33.61c1.18,1.47.83,3,.46,4.46-1.1,1.16-2.45.83-3.69.83-6.71,0-13.42,0-20.13,0a27,27,0,0,0-3.81.24,1.3,1.3,0,0,0-1,1.8,2,2,0,0,0,1.16,1.23,16.79,16.79,0,0,0,3.33.19c5,0,9.9,0,14.86,0,1.25,0,2.49.18,4,.29v4.58a27.9,27.9,0,0,1-3.28.4c-4.95,0-9.9,0-14.86,0-1.57,0-3.14.06-4.76.09-.93,2.62-.6,4.94-.38,7.58a27.55,27.55,0,0,0,3.29.43c6.71,0,13.42,0,20.13,0h4.51c1.62,1.62,1,3.23,1,5a5.84,5.84,0,0,1-1.69.54q-15.59,0-31.15,0a5.64,5.64,0,0,1-1.23-.35c-.86-4.39-.3-9-.38-13.54S999.83,716.44,1000.09,711.52Z"/><path d="M251.8,739c.08-1.84.14-3.24.22-5,1.6-.1,3-.26,4.39-.27,5.59,0,11.17,0,16.76,0,1.27,0,2.55,0,3.82-.11,1.85-.18,2.51-.91,2.61-2.76a15.87,15.87,0,0,0-.06-2.39,2.07,2.07,0,0,0-1.83-1.93,24.13,24.13,0,0,0-3.79-.32c-4,0-8,0-12,0a32.66,32.66,0,0,1-5.24-.37c-3.15-.54-4.69-2.37-4.88-5.55a31.19,31.19,0,0,1,0-3.35c.15-3,1.53-4.67,4.48-5.32a11.24,11.24,0,0,1,2.38-.24q12,0,23.93,0a5.06,5.06,0,0,1,1.17.35,5.46,5.46,0,0,1,.14,4.31c-1.33,1.07-2.82.73-4.22.74-5.75,0-11.49,0-17.24,0-1.56,0-3.21-.35-4.62.7-.12,2.39.15,3,1.66,3.14a37.6,37.6,0,0,0,3.83.12c4,0,8,0,12,0a31.16,31.16,0,0,1,3.35.12c4.27.47,6.33,2.51,6.66,6.72a28.88,28.88,0,0,1-.06,5.26c-.36,3.34-2,5.17-5.28,6a14.66,14.66,0,0,1-3.31.36c-7.5,0-15,0-22.5,0C253.54,739.27,252.92,739.12,251.8,739Z"/><path d="M752.12,711.64v4.75a31.74,31.74,0,0,1-3.42.42c-5.91,0-11.83,0-17.74,0-1.27,0-2.55,0-3.82.17a1.47,1.47,0,0,0-1.39,1.61,1.63,1.63,0,0,0,1.15,1.86,15.32,15.32,0,0,0,3.32.32c4,0,8,0,12,0,.8,0,1.6,0,2.4,0,6.73.19,8.9,2.38,8.94,9,.05,6.92-2.21,9.36-9,9.45-7.35.09-14.7,0-22,0-.62,0-1.24-.12-2-.2-.73-1.58-.39-3.11-.17-5,1.26-.13,2.48-.34,3.71-.35,5.75,0,11.5,0,17.26,0,1.12,0,2.24,0,3.35-.06,2.57-.19,3.22-1,3.22-3.69s-.69-3.59-3.27-3.69c-4.15-.14-8.31,0-12.47-.09a61.48,61.48,0,0,1-6.22-.25c-4.25-.48-5.75-2.25-5.85-6.61,0-.79,0-1.6,0-2.39.14-3.06,1.48-4.7,4.44-5.35a13.65,13.65,0,0,1,2.86-.25q11.26,0,22.53,0A23.09,23.09,0,0,1,752.12,711.64Z"/><path d="M984.17,729.77c1,1.69,2.51,2.32,3.74,3.23s2.63,1.81,3.91,2.75,2.44,1.85,4.33,3.29a37.19,37.19,0,0,1-8.29.15,6.57,6.57,0,0,1-2.91-1.48c-2.59-1.86-5.1-3.83-7.65-5.74-4.09-3.07-4.22-3.1-9.84-2.17-1.19,2.8,0,5.92-.85,8.94-1.39.92-2.91.58-4.63.29-.74-2.23-.34-4.46-.4-6.64-.07-2.39,0-4.79,0-7.18,0-2.23,0-4.47,0-6.7a32.44,32.44,0,0,1,.32-6.82,20.49,20.49,0,0,1,2.38-.33c7.65,0,15.31,0,23,0,7.4-.06,9.16,3.67,9,9.47a17.1,17.1,0,0,1-.19,2.38c-.61,3.39-2.15,5-5.56,5.69-1.4.28-2.85.29-4.27.46C985.6,729.4,985,729.58,984.17,729.77Zm-17-6a6.43,6.43,0,0,0,1.42.46q9.06.06,18.12.08a11.27,11.27,0,0,0,1.41-.16,2.33,2.33,0,0,0,2.19-2.15,11.73,11.73,0,0,0,0-2.84,2.3,2.3,0,0,0-2.22-2.11,15.06,15.06,0,0,0-1.89-.16c-5.57,0-11.13,0-16.69,0a13,13,0,0,0-2.36.48A18.47,18.47,0,0,0,967.21,723.73Z"/><path d="M655.06,711.83c-.08,1.67-.14,3.07-.2,4.31-1.78,1-3.41.67-5,.68-5.59,0-11.19,0-16.78,0-1.41,0-2.9-.3-4.37.83a6.19,6.19,0,0,0,.25,2.07,2.22,2.22,0,0,0,1.54.91,21.8,21.8,0,0,0,3.34.15c4.15,0,8.31,0,12.46,0a25.61,25.61,0,0,1,4.3.26,6.1,6.1,0,0,1,5.45,5.25A20.29,20.29,0,0,1,656,734a5.73,5.73,0,0,1-4.28,4.69,14.08,14.08,0,0,1-3.75.62c-7.83,0-15.66,0-23.49,0a2.75,2.75,0,0,1-1-5.28c8.74-.65,17.52.26,26-.51a6.42,6.42,0,0,0,.9-1.54c.83-4.33-.14-5.6-4.47-5.67s-8.63,0-13,0a33.1,33.1,0,0,1-5.72-.45,5,5,0,0,1-4.37-5c-.12-1.43,0-2.87,0-4.31a4.56,4.56,0,0,1,3.49-4.6,10.19,10.19,0,0,1,3.29-.51c7.83,0,15.67,0,23.5,0A12.18,12.18,0,0,1,655.06,711.83Z"/><path d="M408.76,739.22c-.64-4.92-.62-23.22,0-27.54a21.25,21.25,0,0,1,2.63-.32q11.27,0,22.54,0a16,16,0,0,1,4.26.51,5.67,5.67,0,0,1,4.52,5.53q.21,7.9,0,15.82a5.55,5.55,0,0,1-4.12,5.32,8.86,8.86,0,0,1-2.78.65C426.88,739.24,417.94,739.22,408.76,739.22Zm5.43-6a7.64,7.64,0,0,0,1.6.41q8.83,0,17.66,0a8.54,8.54,0,0,0,1.43-.13c1.36-.22,2.15-.84,2.17-2.11.08-4.13.06-8.27,0-12.4a2,2,0,0,0-1.76-2,12.53,12.53,0,0,0-2.36-.25q-8.35,0-16.71,0a10.33,10.33,0,0,0-1.74.31C413.73,720.81,413.61,727,414.19,733.27Z"/><path d="M307.39,739.29c-2.88,0-5.75.07-8.62,0a16.73,16.73,0,0,1-4.22-.66,5.67,5.67,0,0,1-4.37-5.62c-.1-5.1-.15-10.21,0-15.31.12-3.44,2.2-5.52,5.63-6.12a20.67,20.67,0,0,1,3.34-.21c5.42,0,10.85,0,16.27,0,.8,0,1.6,0,2.39.09,4.43.46,6.65,2.68,6.78,7.12s0,8.61.06,12.92c.11,4.64-2.5,7.59-7.7,7.77-3.19.12-6.38,0-9.57,0Zm-.19-5.61v0c3,0,6,.08,9.06,0,1.84-.07,2.6-.88,2.65-2.69.09-3.5.1-7,0-10.49,0-2.75-.66-3.48-3.33-3.54-4.92-.13-9.85-.07-14.78-.07a18.94,18.94,0,0,0-2.38.09c-1.83.22-2.58.91-2.63,2.73-.08,3.65-.09,7.31,0,11,0,2.2.72,3,2.81,3C301.48,733.77,304.34,733.68,307.2,733.68Z"/><path d="M820.48,731c-3.94-.67-18.15-.75-22.77-.15-1.33,2.46-.06,5.3-1,8-1.4.83-2.91.49-4.61.29a11.54,11.54,0,0,1-.35-2c0-5.26,0-10.53,0-15.8a17.65,17.65,0,0,1,.11-1.92c.48-4.52,3.09-7.23,7.61-7.89a18.93,18.93,0,0,1,2.39-.15h14.37a15.82,15.82,0,0,1,2.39.15A8.4,8.4,0,0,1,826.2,719a14.62,14.62,0,0,1,.16,2.39q0,7.67,0,15.33a17.49,17.49,0,0,1-.38,2.43H821.4C820.15,736.61,821.27,733.81,820.48,731Zm.19-6.25c0-1.8.12-3.38,0-4.93a2.9,2.9,0,0,0-2.45-2.6,9.4,9.4,0,0,0-1.89-.29c-4.78,0-9.58-.12-14.36,0-3.74.11-4.65,1.18-4.8,5a16.86,16.86,0,0,0,.26,2.63C801.29,725.23,815.25,725.32,820.67,724.7Z"/><path d="M397.74,731.08c.06-7,.12-13.05.18-18.86,1.76-1.35,3.33-.71,5.05-.73a22.17,22.17,0,0,1,.41,2.9c0,6.86,0,13.73,0,20.6,0,1.57.28,3.39-1.47,4.24-1.91.93-3.3-.39-4.69-1.51q-9.32-7.53-18.66-15c-1.08-.86-2.23-1.64-3.67-2.7-.83,1.86-.53,3.44-.57,5s0,3.19,0,4.79c0,1.44,0,2.88,0,4.31,0,1.58-.11,3.15-.17,4.69a7.08,7.08,0,0,1-5,.24,18.19,18.19,0,0,1-.3-2.29q0-10.78,0-21.56c0-1.42-.21-3,1.41-3.77,1.78-.86,3.05.23,4.3,1.24l18.65,15C394.38,728.6,395.65,729.51,397.74,731.08Z"/><path d="M957.11,712v3.9c-1.14,1.28-2.49.93-3.71.94-6.22,0-12.45,0-18.67,0a30.35,30.35,0,0,0-3.82.16,2.37,2.37,0,0,0-2.38,2.5c-.12,2.07-.08,4.15-.09,6.22,0,1.76,0,3.52.07,5.26s.88,2.5,2.75,2.66c1.27.12,2.55.09,3.83.1h19.15c.78,0,1.55.11,2.32.17,1.11,1.62.77,3.18.51,5a18.43,18.43,0,0,1-2.68.4q-11.25,0-22.5,0a16.92,16.92,0,0,1-3.34-.27c-3.46-.72-5.23-2.66-5.65-6.19a34.86,34.86,0,0,1-.1-3.83c0-3.51-.12-7,.06-10.53.22-4.46,2.43-6.89,6.87-7,8.77-.19,17.55,0,26.33,0C956.34,711.47,956.62,711.73,957.11,712Z"/><path d="M582.5,739.31l-4.8-.21c-.1-4.46-.19-8.71-.29-12.86-3.58-.93-16.17-1.14-22.65-.47-1.09,1-.74,2.36-.78,3.59-.07,2.87-.07,5.75-.13,8.62,0,.28-.24.56-.49,1.08H549c-.77-3.94-.78-23.34,0-27.43a17.47,17.47,0,0,1,2.23-.25,21.41,21.41,0,0,1,2.55.28c.16,2.79.31,5.43.46,8,4,.69,17.51.78,22.89.18,1.11-2.43-.07-5.26.91-8,1.4-.82,2.92-.58,4.43-.24C583.17,715.15,583.28,733.84,582.5,739.31Z"/><path d="M358.41,711.52h4.8a15.88,15.88,0,0,1,.53,2.72c.05,5.58,0,11.16,0,16.74a15.18,15.18,0,0,1-.07,1.91c-.47,3.48-2.26,5.44-5.73,6.14a17.67,17.67,0,0,1-3.33.26c-5.43,0-10.85,0-16.27,0-.64,0-1.28,0-1.91-.06-4.75-.49-6.95-2.64-7-7.37-.13-6.22,0-12.44,0-18.65a7.62,7.62,0,0,1,.4-1.59h4.85a25.82,25.82,0,0,1,.42,3.22c.05,4.62,0,9.24,0,13.87a27.24,27.24,0,0,0,.1,2.86,2.09,2.09,0,0,0,1.8,1.95,13.49,13.49,0,0,0,2.38.2q7.17,0,14.35,0a14.72,14.72,0,0,0,2.38-.21,2.15,2.15,0,0,0,1.86-1.9,21.91,21.91,0,0,0,.15-3.34c0-4.78,0-9.57,0-14.35C358.16,713.3,358.29,712.68,358.41,711.52Z"/><path d="M1130.7,338.51h19a7.11,7.11,0,0,1,.89,2.19c.09,4.31.14,8.61.06,12.92,0,2-.9,2.83-3,2.86-5.4.06-10.81,0-16.46,0-1-3.13-.48-6.15-.54-9.1S1130.66,341.73,1130.7,338.51Z"/><path d="M586.07,716.36V712.1c.41-.22.8-.59,1.22-.61,1.59-.11,3.19-.14,4.78-.15h27.85a6.29,6.29,0,0,1,.2,5c-4.44,1.21-9.12-.09-13.76.84-.82,3.78-.29,7.45-.4,11.07s-.07,7-.09,10.35c-1.76,1.18-3.32.52-5,.57-1-3.76-.37-7.43-.49-11.06s0-7,0-10.63C595.65,716.05,591,717.53,586.07,716.36Z"/><path d="M173,650.84H162.35a6.59,6.59,0,0,1-.57-1.79q0-11.7.18-23.4a14,14,0,0,1,.33-2.1,38.89,38.89,0,0,1,11.13.13C173.3,632.69,173.57,641.54,173,650.84Z"/><path d="M684.25,726.23l4.63,5.39a10.83,10.83,0,0,0,1.38-2c.5-1.34.83-2.74,1.3-4.37l2.93-.25c.27.49.58.8.53,1-.77,2.89-1.58,5.77-2.53,9.19l2.73,3.54c-.19,1.16-1.08,1.22-1.8,1.06-1.5-.33-2.95-.85-5-1.49-.65.26-1.94.82-3.26,1.32a9.59,9.59,0,0,1-6.1.22,7.55,7.55,0,0,1-4.29-11.8,35.14,35.14,0,0,1,2.82-3.24,27.14,27.14,0,0,1-1.23-3.62,6.41,6.41,0,0,1,2.5-6.77,6.94,6.94,0,0,1,7.26-.69c3.26,1.42,4.14,6,1.77,9A36.59,36.59,0,0,1,684.25,726.23ZM680.13,728a3.81,3.81,0,0,0-2.48,3.87,6,6,0,0,0,1,3.06c1.56,2.15,4.43,2.09,7.69-.1A30,30,0,0,0,680.13,728Zm1.67-5c2.72-1.88,3-2.23,3.35-3.13a2.81,2.81,0,0,0-1.61-3.52,2.49,2.49,0,0,0-3.07,1.61C679.72,719.89,680.3,721.4,681.8,723.08Z"/><path d="M755.38,716.62c-.13-1.28-.26-2.07-.27-2.85a17.55,17.55,0,0,1,.3-2.13c5.77-.66,11.49-.2,17.18-.28s11.11-.07,16.5,0a6.11,6.11,0,0,1,.21,5.17c-4.63.71-9.27-.13-14,.56-.56,4-.2,7.65-.3,11.29-.1,3.47.18,7-.21,10.64h-4.7a16.64,16.64,0,0,1-.43-2.65c-.05-4.63,0-9.26,0-13.89v-5a16.78,16.78,0,0,0-2.91-.63c-2.55-.09-5.11,0-7.66-.06C758,716.81,756.9,716.71,755.38,716.62Z"/><path d="M670.52,661.49a16.67,16.67,0,0,1,16.83,16.66c0,7.76-5.8,16.74-16.84,16.66-10.87-.08-16.51-8.84-16.59-16.43A16.66,16.66,0,0,1,670.52,661.49Zm13.84,16.82a13.73,13.73,0,1,0-13.9,13.51A13.87,13.87,0,0,0,684.36,678.31Z"/><path d="M469.79,711.65a23.71,23.71,0,0,1,2.46-.28c.79,0,1.57.12,2.52.2,1,3.63.37,7.29.49,10.9s0,7,0,10.7a18.72,18.72,0,0,0,2.9.54c4.14,0,8.29,0,12.44,0,1.23,0,2.47.2,3.88.32v4.83c-4,.84-8.13.27-12.19.37s-7.94,0-12,0c-1-3.19-.47-6.21-.56-9.18s0-6,0-9.08S469.76,715,469.79,711.65Z"/><path d="M153,620.4h5.3a9.18,9.18,0,0,1,.55,2.18q0,14.82-.18,29.64a6.69,6.69,0,0,1-.4,1.51,9.32,9.32,0,0,1-5.46,0C151.94,649.57,152.06,626.63,153,620.4Z"/><path d="M182.39,620.29c.8,4.55.71,28-.11,33.43a24.14,24.14,0,0,1-2.64.25,28.31,28.31,0,0,1-3-.26,15.41,15.41,0,0,1-.34-2.42q.21-15.24.48-30.53C178.71,619.8,180.44,620.21,182.39,620.29Z"/><path d="M499.06,711.71a6.13,6.13,0,0,1,4.5,0c.74,4.27.7,23.55-.07,27.29H499C498.25,734.58,498.3,715.33,499.06,711.71Z"/><path d="M1122,338.56l4.29-.21c.91,3.61,1,13.62.13,17.72a5.61,5.61,0,0,1-1.3.31c-3.24,0-3.76-.41-3.82-3.42q-.09-5.74,0-11.49A15.19,15.19,0,0,1,1122,338.56Z"/><path d="M1154.15,351v-6.46c3.34-.95,6.57-.36,9.95-.39a16.59,16.59,0,0,1,.07,6.58,19.74,19.74,0,0,1-2.42.29C1159.39,351,1157,351,1154.15,351Z"/><path d="M1172.49,352.81l-4.19-1.67v-6.81c1-1.28,2.53-1.54,4.19-1.9a18.35,18.35,0,0,1,4.83,5.1C1176.3,349.69,1174.47,351,1172.49,352.81Z"/><path d="M127.5,636.11a71.94,71.94,0,0,1,16.16.1c.66,1.17.58,2.4-.87,2.47-4.73.24-9.47.31-14.2.25C127.09,638.91,127.11,637.58,127.5,636.11Z"/><path d="M447,732.83h3.35c.72,2.83,0,5.49.23,7.87-1.19,1.3-2.18,1.16-3.52.19A38.31,38.31,0,0,1,447,732.83Z"/><path d="M141.16,622.16l6.85,7.33-1.43,1.65c-1.4.05-4.3-2.76-7.46-6.94Z"/><path d="M140.93,652.5l-2.29-2.18,7.11-7.27L148.3,645Z"/></svg>