<?xml version="1.0" encoding="utf-8"?>
<!-- Generator: Adobe Illustrator 25.3.1, SVG Export Plug-In . SVG Version: 6.00 Build 0)  -->
<svg version="1.1" id="Layer_1" xmlns="http://www.w3.org/2000/svg" xmlns:xlink="http://www.w3.org/1999/xlink" x="0px" y="0px"
	 viewBox="0 0 1000 720" style="enable-background:new 0 0 1000 720;" xml:space="preserve">
<style type="text/css">
	.st0{fill:#FFFFFF;stroke:#000000;stroke-miterlimit:10;}
	.st1{fill:#407C29;}
	.st2{font-family:'MyriadPro-Regular';}
	.st3{font-size:153.65px;}
	.st4{letter-spacing:11;}
	.st5{letter-spacing:9;}
	.st6{fill:#6FCE51;}
	.st7{font-size:72.17px;}
	.st8{letter-spacing:17;}
	.st9{letter-spacing:18;}
	.st10{fill:#FFCB24;}
</style>
<rect class="st0" width="1000" height="720"/>
<g id="Logo_v2">
	<g>
		<text transform="matrix(1 0 0 1 85.2 384.47)" class="st1 st2 st3 st4">S</text>
		<text transform="matrix(1 0 0 1 173.7 384.47)" class="st1 st2 st3 st5">a</text>
		<text transform="matrix(1 0 0 1 258.82 384.47)" class="st1 st2 st3 st4">v</text>
		<text transform="matrix(1 0 0 1 344.4 384.47)" class="st1 st2 st3 st4">anna</text>
	</g>
	<g>
		<text transform="matrix(1 0 0 1 79.5 476.6802)" class="st6 st2 st7 st8">A</text>
		<text transform="matrix(1 0 0 1 142.1431 476.6802)" class="st6 st2 st7 st9">GRICU</text>
		<text transform="matrix(1 0 0 1 431.1943 476.6802)" class="st6 st2 st7 st4">L</text>
		<text transform="matrix(1 0 0 1 478.4717 476.6802)" class="st6 st2 st7 st9">TURE</text>
	</g>
	<path class="st1" d="M769.7,325c0,8.6-0.9,17.1-2.7,25.5c-1.9,9.3-3,18.8-3.4,28.4c-1.2,27.7,1.7,37.3,6.8,52l0.2,0.5
		c4.5,12.9,19,24.6,25.1,29c7.7,5.6,22.9,15.2,39,16.7c0.4,0,0.8,0,1.2,0s0.8,0,1.2,0c16-1.5,31.3-11.1,38.9-16.7
		c6-4.4,20.6-16,25.1-29l0.2-0.5c5.1-14.7,8-24.4,6.8-52c-0.3-9.5-1.5-19-3.4-28.4c-1.8-8.4-2.7-17-2.7-25.5
		c-0.3-21.8,14.2-41.6,15.5-43.4c4.7-5.9,3.7-14.4-2.2-19.1c-2.4-1.9-5.3-2.9-8.4-2.9l0,0c-2.7,0-5.3,0.8-7.6,2.3
		c-9.8,6.9-18.2,15.5-24.7,25.6c-1.3-5.5-4.8-10.2-9.5-13.2c-0.8-6.2-4.3-11.6-9.7-14.8c-2.1-11-12.7-18.3-23.8-16.2
		c-8.2,1.6-14.6,7.9-16.1,16.1c-5.5,3.3-9.1,9-9.8,15.4c-4.3,3-7.4,7.5-8.7,12.6c-6.6-10.1-15.1-18.8-25-25.7
		c-6.3-4-14.7-2.1-18.7,4.3c-3.1,4.8-2.7,11.1,0.8,15.6C754.2,281.7,770,302.3,769.7,325z"/>
	<path class="st10" d="M842.2,263c0.1-3.7-2.8-6.8-6.5-6.9s-6.8,2.8-6.9,6.5s2.8,6.8,6.5,6.9c0.1,0,0.1,0,0.2,0
		C839.2,269.6,842.2,266.7,842.2,263L842.2,263z"/>
	<path class="st10" d="M826.2,292.6c0-4.5-3.7-8.2-8.2-8.2s-8.2,3.7-8.2,8.2s3.7,8.2,8.2,8.2S826.2,297.2,826.2,292.6L826.2,292.6z"
		/>
	<path class="st10" d="M843.7,293.2c0-4.5-3.7-8.2-8.2-8.2s-8.2,3.7-8.2,8.2s3.7,8.2,8.2,8.2S843.7,297.7,843.7,293.2L843.7,293.2z"
		/>
	<circle class="st10" cx="853.5" cy="292.6" r="8.2"/>
	<path class="st10" d="M864.9,313.9c0-5.1-4.1-9.2-9.1-9.2s-9.2,4.1-9.2,9.1s4.1,9.2,9.1,9.2l0,0C860.8,323,864.9,318.9,864.9,313.9
		z"/>
	<path class="st10" d="M844.6,313.9c0-5-4.1-9.1-9.1-9.1s-9.1,4.1-9.1,9.1s4.1,9.1,9.1,9.1S844.6,318.9,844.6,313.9z"/>
	<path class="st10" d="M824.9,313.9c0-5.1-4.1-9.2-9.1-9.2s-9.2,4.1-9.2,9.1c0,5.1,4.1,9.2,9.1,9.2l0,0
		C820.8,323,824.9,318.9,824.9,313.9z"/>
	<path class="st10" d="M865.6,336.1c0-5-4.1-9.1-9.1-9.1s-9.1,4.1-9.1,9.1s4.1,9.1,9.1,9.1S865.6,341.2,865.6,336.1L865.6,336.1z"/>
	<path class="st10" d="M844.6,336.1c0-5-4.1-9.1-9.1-9.1s-9.1,4.1-9.1,9.1s4.1,9.1,9.1,9.1S844.6,341.2,844.6,336.1L844.6,336.1z"/>
	<path class="st10" d="M824.2,336.1c0-5.1-4.1-9.1-9.2-9.1s-9.1,4.1-9.1,9.1s4.1,9.1,9.1,9.1l0,0
		C820.1,345.2,824.2,341.2,824.2,336.1L824.2,336.1z"/>
	<path class="st10" d="M865.6,357c0-5-4.1-9.1-9.1-9.1s-9.1,4.1-9.1,9.1s4.1,9.1,9.1,9.1S865.6,362,865.6,357L865.6,357z"/>
	<path class="st10" d="M844.4,357c0-5-4.1-9.1-9.1-9.1s-9.1,4.1-9.1,9.1s4.1,9.1,9.1,9.1C840.3,366.1,844.4,362,844.4,357L844.4,357
		z"/>
	<path class="st10" d="M824.2,357c0-5.1-4.1-9.2-9.1-9.2s-9.2,4.1-9.2,9.1s4.1,9.2,9.1,9.2l0,0C820.1,366.1,824.2,362,824.2,357
		L824.2,357z"/>
	<path class="st10" d="M865.3,379.1c0-5.1-4.1-9.2-9.1-9.2S847,374,847,379s4.1,9.2,9.1,9.2l0,0
		C861.3,388.2,865.3,384.1,865.3,379.1z"/>
	<path class="st10" d="M844.1,379.1c0-5-4.1-9.1-9.1-9.1s-9.1,4.1-9.1,9.1s4.1,9.1,9.1,9.1S844.1,384.1,844.1,379.1z"/>
	<path class="st10" d="M823.9,379.1c0-5.1-4.1-9.2-9.1-9.2s-9.2,4.1-9.2,9.1s4.1,9.2,9.1,9.2l0,0
		C819.8,388.2,823.9,384.1,823.9,379.1z"/>
	<path class="st10" d="M852.5,416.6c0-3.8-3.1-6.9-6.8-6.9s-6.9,3.1-6.9,6.8c0,3.8,3.1,6.9,6.8,6.9l0,0
		C849.5,423.4,852.5,420.3,852.5,416.6z"/>
	<path class="st10" d="M833.2,416.6c0-3.8-3.1-6.9-6.8-6.9s-6.9,3.1-6.9,6.8c0,3.8,3.1,6.9,6.8,6.9l0,0
		C830.1,423.4,833.2,420.3,833.2,416.6z"/>
	<path class="st10" d="M843,430.2c0-3.8-3.1-6.9-6.9-6.9c-3.8,0-6.8,3.1-6.8,6.9s3.1,6.9,6.9,6.9l0,0C839.9,437.1,843,434,843,430.2
		z"/>
	<path class="st10" d="M843.8,400.3c0-4.6-3.7-8.3-8.3-8.3s-8.3,3.7-8.3,8.3c0,4.6,3.7,8.3,8.3,8.3S843.8,404.9,843.8,400.3
		L843.8,400.3z"/>
	<path class="st10" d="M862.2,400.3c0-4.6-3.7-8.3-8.3-8.3s-8.3,3.7-8.3,8.3c0,4.6,3.7,8.3,8.3,8.3
		C858.5,408.6,862.2,404.9,862.2,400.3z"/>
	<path class="st10" d="M826.1,399.6c0-4.6-3.7-8.3-8.3-8.3s-8.3,3.7-8.3,8.3c0,4.6,3.7,8.3,8.3,8.3l0,0
		C822.4,407.9,826.1,404.2,826.1,399.6L826.1,399.6z"/>
	<path class="st10" d="M851.7,276.8c0-3.8-3-6.8-6.8-6.8s-6.8,3-6.8,6.8s3,6.8,6.8,6.8l0,0C848.7,283.6,851.7,280.5,851.7,276.8z"/>
	<path class="st10" d="M832.8,276.8c0-3.8-3-6.8-6.8-6.8s-6.8,3-6.8,6.8s3,6.8,6.8,6.8l0,0C829.7,283.6,832.8,280.5,832.8,276.8z"/>
	<path class="st6" d="M888.4,325.2c-0.4-28,18.5-52,18.5-52s-28.1,17.7-32.4,53s0,44.4-4.9,69.6c-5,25.4-10.8,38.6-33.8,49.4
		c-23-10.8-28.8-24-33.8-49.4c-4.9-25.1-0.6-34.3-4.9-69.6s-32.4-53-32.4-53s18.9,24,18.5,52c-0.4,26.5-4.9,27.5-6,54.3
		s1.7,34.5,6.2,47.5s32,34.7,52.4,36.6c20.4-1.9,47.9-23.6,52.4-36.6s7.3-20.7,6.2-47.5S888.8,351.7,888.4,325.2z"/>
</g>
</svg>
