<?xml version="1.0" encoding="utf-8"?>
<!-- Generator: Adobe Illustrator 25.3.1, SVG Export Plug-In . SVG Version: 6.00 Build 0)  -->
<svg version="1.1" xmlns="http://www.w3.org/2000/svg" xmlns:xlink="http://www.w3.org/1999/xlink" x="0px" y="0px"
	 viewBox="0 0 1000 720" style="enable-background:new 0 0 1000 720;" xml:space="preserve">
<style type="text/css">
	.st0{fill:#FFFFFF;stroke:#000000;stroke-miterlimit:10;}
	.st1{fill:#FBC02E;}
	.st2{font-family:'MyriadPro-Regular';}
	.st3{font-size:90.125px;}
	.st4{letter-spacing:25;}
	.st5{letter-spacing:26;}
	.st6{letter-spacing:18;}
	.st7{fill:#5B2B1D;}
	.st8{fill-rule:evenodd;clip-rule:evenodd;fill:#FBC02E;}
</style>
<g id="Layer_1">
	<rect class="st0" width="1000" height="720"/>
	<g id="Layer_7">
		<g>
			<text transform="matrix(1 0 0 1 99.5 477.3799)" class="st1 st2 st3 st4">A</text>
			<text transform="matrix(1 0 0 1 180.6162 477.3799)" class="st1 st2 st3 st5">GRICU</text>
			<text transform="matrix(1 0 0 1 555.9839 477.3799)" class="st1 st2 st3 st6">L</text>
			<text transform="matrix(1 0 0 1 617.9062 477.3799)" class="st1 st2 st3 st5">TURE</text>
		</g>
		<g>
			<g>
				<path class="st7" d="M104.4,341.9c9.6,5.6,20.4,8.5,31.5,8.5c18.1,0,28.6-9,28.6-22.1c0-11.9-7.3-19-25.8-25.5
					c-22.3-7.7-36.2-18.8-36.2-36.8c0-20.1,17.7-35.1,44.3-35.1c13.8,0,24.2,3.1,30.1,6.3l-4.9,13.6c-4.3-2.5-13.4-6.1-25.8-6.1
					c-18.7,0-25.8,10.6-25.8,19.4c0,12.1,8.3,18,27.2,24.9c23.2,8.4,34.7,19,34.7,38c0,20-15.4,37.4-47.7,37.4
					c-13.2,0-27.6-3.8-34.9-8.4L104.4,341.9z"/>
				<path class="st7" d="M282.9,340c-0.1,7.4,0.4,14.9,1.4,22.3h-16l-1.4-11.7h-0.6c-5.5,7.3-16.1,13.8-30.1,13.8
					c-19.9,0-30.1-13.2-30.1-26.7c0-22.5,21.1-34.7,59.1-34.5v-1.9c0-7.5-2.2-21.5-22.3-21.3c-9.3,0-18.9,2.5-25.8,6.9l-4.1-11.3
					c8.1-4.8,20.1-8.1,32.5-8.1c30.1,0,37.4,19.4,37.4,37.8L282.9,340z M265.6,314.9c-19.5-0.4-41.6,2.9-41.6,20.9
					c0,11.1,7.7,16.1,16.7,16.1c13,0,21.3-7.7,24.2-15.5c0.5-1.7,0.8-3.5,0.8-5.4L265.6,314.9L265.6,314.9z"/>
			</g>
			<g>
				<path class="st7" d="M571.4,340c-0.1,7.4,0.4,14.9,1.4,22.3h-16l-1.4-11.7h-0.6c-5.5,7.3-16,13.8-30.1,13.8
					c-19.9,0-30.1-13.2-30.1-26.7c0-22.5,21.1-34.7,59.1-34.5v-1.9c0-7.5-2.2-21.5-22.3-21.3c-9.3,0-18.9,2.5-25.8,6.9l-4.1-11.3
					c8.1-4.8,20.1-8.1,32.5-8.1c30.1,0,37.4,19.4,37.4,37.8L571.4,340z M554.1,314.8c-19.5-0.4-41.6,2.9-41.6,20.9
					c0,11.1,7.7,16.1,16.7,16.1c13,0,21.3-7.7,24.2-15.5c0.5-1.7,0.8-3.5,0.8-5.4v-16.1H554.1z"/>
				<path class="st7" d="M597.3,294.5c0-9.8-0.2-17.5-0.8-25.1h15.8l1,15.4h0.4c4.9-8.6,16.2-17.3,32.5-17.3
					c13.6,0,34.7,7.7,34.7,39.5v55.3H663v-53.5c0-15-5.9-27.4-22.8-27.4c-10.9,0.1-20.5,7-24,17.3c-0.9,2.5-1.3,5.2-1.2,7.9v55.8
					h-17.8L597.3,294.5L597.3,294.5z"/>
				<path class="st7" d="M705.6,294.5c0-9.8-0.2-17.5-0.8-25.1h15.8l1,15.4h0.4c4.9-8.6,16.2-17.3,32.5-17.3
					c13.6,0,34.7,7.7,34.7,39.5v55.3h-17.9v-53.5c0-15-5.9-27.4-22.8-27.4c-10.9,0.1-20.5,7-24,17.3c-0.9,2.5-1.3,5.2-1.2,7.9v55.8
					h-17.8L705.6,294.5L705.6,294.5z"/>
				<path class="st7" d="M889.8,340c-0.1,7.4,0.4,14.9,1.4,22.3h-16l-1.4-11.7h-0.6c-5.5,7.3-16,13.8-30.1,13.8
					c-19.9,0-30.1-13.2-30.1-26.7c0-22.5,21.1-34.7,59.1-34.5v-1.9c0-7.5-2.2-21.5-22.3-21.3c-9.3,0-18.9,2.5-25.8,6.9l-4.1-11.3
					c8.1-4.8,20.1-8.1,32.5-8.1c30.1,0,37.4,19.4,37.4,37.8L889.8,340z M872.5,314.9c-19.5-0.4-41.6,2.9-41.6,20.9
					c0,11.1,7.7,16.1,16.7,16.1c13,0,21.3-7.7,24.2-15.5c0.5-1.7,0.8-3.5,0.8-5.4v-16.1H872.5z"/>
			</g>
			<path class="st1" d="M435.1,287.4c-4.1-10.5-20.7-10-11.6-38.4C427.9,256.3,444.3,259,435.1,287.4z"/>
			<path class="st1" d="M428.4,307.6c-4-10.5-20.6-10.1-11.5-38.4C421.3,276.5,437.8,279.2,428.4,307.6z"/>
			<path class="st1" d="M421.5,327.8c-3.9-10.7-20.4-10.4-11.1-38.4C414.7,296.6,431.3,299.5,421.5,327.8z"/>
			<path class="st1" d="M413.9,347.6c-1.5-5.4-6.6-8.2-9.9-13.1s-4.9-11.4-0.2-25.2c2.2,3.6,7.3,6.2,10.7,11.4
				S419.6,333.8,413.9,347.6z"/>
			<path class="st1" d="M435.1,287.4c9.5-6.1,22.7,4,31.9-24.4C459.1,266.3,444.3,259,435.1,287.4z"/>
			<path class="st1" d="M428.4,307.6c9.5-6,22.8,4.1,32-24.3C452.5,286.6,437.8,279.2,428.4,307.6z"/>
			<path class="st1" d="M421.5,327.8c9.5-5.8,22.8,4.5,32.3-24.1C445.9,306.9,431.3,299.5,421.5,327.8z"/>
			<path class="st1" d="M413.9,347.6c5-2.6,10.6-1.3,16.4-2.8s11.8-6.3,16.8-20.7c-4,1.6-9.6,0.5-15.5,2.5S419.6,333.8,413.9,347.6z
				"/>
			<path class="st8" d="M440.4,271c-8.4-10.1,1.5-34.9,12.1-37.7C459.5,241.8,453.1,267.6,440.4,271z"/>
			<path class="st7" d="M470.7,260.1c0,0-1.6,5.1-8,24.9c-3.2,10-6.5,19.9-8.9,27.4l-4.2,12.6c-7.7,22.3-18.3,23.5-26.3,23.8
				c-2.5,0-5,0.4-7.4,1.2c0,0-5.1,13.1-5.5,14s-0.9,2.1-1.6,3.6c-1.7,3.7-3.6,7.3-5.7,10.8c-2.2,3.5-4.6,6.8-7.4,9.9
				c-1.2,1.2-2.1,2.3-2.9,3l-1.2,1c-1.1,1.1-2.9,1.2-4,0.1l-0.1-0.1c-0.9-1.3-0.7-3,0.5-4l1.1-0.9c0.7-0.6,1.5-1.6,2.6-2.7
				c2.5-2.8,4.8-5.8,6.8-9.1c2-3.3,3.8-6.7,5.4-10.2c0.7-1.4,1.2-2.6,1.6-3.5s5.5-14,5.5-14c-1.1-2.2-2.6-4.2-4.4-5.9
				c-5.6-5.9-12.5-12.4-5.3-33.4c0,0,1.6-4.9,4.1-12.1s5.6-17.2,8.8-27c6.4-19.8,7.9-24.5,7.9-24.5c0.3-1.5,1.8-2.4,3.2-2.1
				s2.4,1.8,2.1,3.2c0,0.2-0.1,0.3-0.2,0.5l-0.5,1.8c1,1.1,2.1,2.1,3.3,3.1c1.8,1.4,3.5,3,5,4.8c0.3-2.2,0.8-4.4,1.5-6.5
				c2.4-7.6,7.6-15.9,14-18.6l0.6-1.6c0.3-1.5,1.8-2.4,3.2-2.1s2.4,1.8,2.1,3.2c0,0.2-0.1,0.4-0.2,0.6l-0.6,1.6
				c3.6,6,3,15.7,0.5,23.3c-0.7,2.1-1.5,4.2-2.6,6.2c2.2-0.5,4.5-0.8,6.8-1c1.5-0.1,3-0.3,4.5-0.6l0.7-2.2c0.3-1.5,1.8-2.4,3.2-2.1
				c1.5,0.3,2.4,1.8,2.1,3.2C470.8,259.9,470.8,260,470.7,260.1L470.7,260.1z M419.8,276.5l-1.7-1.5c-3.4,13.9,1.3,18.1,6.2,22.7
				c1.1,1,2.2,2,3.2,3.2C430.9,285.9,425,280.9,419.8,276.5z M411.6,295.1c-3.4,13.8,1.2,18,6,22.6c1.1,1,2.2,2.1,3.2,3.2
				c3.6-14.9-2.3-19.9-7.5-24.4L411.6,295.1z M449.5,307.6l-2.2,0.2c-6.9,0.5-14.5,1.1-20.8,15.1c1.5-0.3,3-0.4,4.5-0.6
				C437.5,321.7,443.9,321,449.5,307.6L449.5,307.6z M456.1,287.3l-2.2,0.2c-6.8,0.5-14.5,1.2-20.6,15.2c1.5-0.3,3-0.5,4.5-0.6
				C444.3,301.3,450.6,300.6,456.1,287.3L456.1,287.3z M439.8,282.5c1.5-0.3,3-0.5,4.5-0.7c6.6-0.8,13-1.5,18.3-14.8l-2.2,0.2
				C453.5,267.8,445.9,268.4,439.8,282.5L439.8,282.5z M441.6,251.3c-2.1,6.5-2.1,12.4,0,16.2c3.9-1.9,7.3-6.6,9.4-13.2
				s2.3-13.5,0.4-17.4C447.6,239,443.7,244.7,441.6,251.3L441.6,251.3z M424.6,254.8c-3.4,13.9,1.3,18.2,6.2,22.7
				c1.1,1,2.2,2,3.2,3.1c3.3-15-2.6-20-7.8-24.4L424.6,254.8z M413.4,340.8c4.1-14.7-1.8-19.8-6.9-24.3l-1.7-1.4
				c-3.6,13.5,0.9,17.7,5.5,22.5C411.4,338.6,412.5,339.6,413.4,340.8L413.4,340.8z M442.5,328.1l-2.2,0.2
				c-6.9,0.4-14.4,1-21.3,14.8c1.5-0.2,3-0.3,4.5-0.4C430.2,342.2,436.7,341.6,442.5,328.1L442.5,328.1z"/>
			<path class="st1" d="M343.8,287.4c4.1-10.5,20.8-10,11.6-38.4C351,256.3,334.6,259,343.8,287.4z"/>
			<path class="st1" d="M350.5,307.6c4-10.5,20.6-10.1,11.5-38.4C357.6,276.5,341.1,279.2,350.5,307.6z"/>
			<path class="st1" d="M357.4,327.8c3.9-10.7,20.4-10.4,11.1-38.4C364.2,296.6,347.6,299.5,357.4,327.8z"/>
			<path class="st1" d="M365,347.6c1.5-5.4,6.6-8.2,9.9-13.1s4.9-11.4,0.2-25.2c-2.2,3.6-7.3,6.2-10.7,11.4S359.3,333.8,365,347.6z"
				/>
			<path class="st1" d="M343.8,287.4c-9.5-6.1-22.7,4-31.9-24.4C319.8,266.3,334.6,259,343.8,287.4z"/>
			<path class="st1" d="M350.5,307.6c-9.5-6-22.8,4.1-32-24.3C326.4,286.6,341.1,279.2,350.5,307.6z"/>
			<path class="st1" d="M357.4,327.8c-9.5-5.8-22.8,4.5-32.3-24.1C333,306.9,347.6,299.5,357.4,327.8z"/>
			<path class="st1" d="M365,347.6c-5-2.6-10.6-1.3-16.4-2.8s-11.8-6.3-16.7-20.7c4,1.6,9.6,0.5,15.5,2.5S359.3,333.8,365,347.6z"/>
			<path class="st8" d="M338.5,271c8.4-10.1-1.5-34.9-12.1-37.7C319.4,241.8,325.8,267.6,338.5,271z"/>
			<path class="st7" d="M309.9,256.4c1.5-0.4,3.1,0.5,3.5,2.1l0,0l0.7,2.2c1.5,0.3,3,0.5,4.5,0.6c2.3,0.1,4.6,0.5,6.8,1
				c-1-2-1.9-4-2.6-6.2c-2.4-7.6-3.1-17.3,0.5-23.3l-0.6-1.6c-0.6-1.4-0.1-3,1.3-3.6s3-0.1,3.6,1.3c0.1,0.2,0.2,0.4,0.2,0.7l0.6,1.6
				c6.4,2.7,11.6,11,14,18.6c0.7,2.1,1.2,4.3,1.5,6.5c1.5-1.7,3.2-3.3,5-4.8c1.2-1,2.3-2,3.3-3.1l-0.5-1.8c-0.6-1.4,0-3,1.4-3.6
				s3,0,3.6,1.4c0.1,0.2,0.1,0.3,0.2,0.5c0,0,1.5,4.7,7.9,24.5l8.8,27l4.1,12.1c7.2,21,0.3,27.4-5.3,33.4c-1.8,1.7-3.3,3.7-4.4,5.9
				c0,0,5.1,13.1,5.5,14s0.9,2.1,1.6,3.5c1.6,3.5,3.4,6.9,5.4,10.2c2,3.2,4.3,6.3,6.8,9.1c1.1,1.1,1.9,2.1,2.6,2.7l1.1,0.9
				c1.2,1,1.4,2.7,0.5,4c-1,1.1-2.8,1.2-4,0.2l-0.1-0.1l-1.2-1c-0.7-0.7-1.7-1.7-2.9-3c-2.8-3.1-5.3-6.4-7.4-9.9s-4-7.1-5.7-10.8
				c-0.7-1.5-1.3-2.7-1.7-3.6s-5.5-14-5.5-14c-2.4-0.8-4.9-1.2-7.4-1.2c-8-0.3-18.6-1.5-26.3-23.8c0,0-1.7-5-4.2-12.5
				s-5.7-17.4-8.9-27.4c-6.4-19.8-8-24.9-8-24.9C307.7,258.6,308.4,257,309.9,256.4z M351.4,300.9c1-1.1,2.1-2.1,3.2-3.2
				c4.9-4.5,9.5-8.8,6.2-22.7c-0.5,0.5-1.1,1-1.7,1.5C353.9,280.9,348,285.9,351.4,300.9z M365.7,296.6c-5.2,4.4-11.1,9.5-7.5,24.4
				c1-1.1,2.1-2.2,3.2-3.2c4.8-4.6,9.4-8.9,6-22.6L365.7,296.6z M348,322.4c1.5,0.1,3,0.3,4.5,0.6c-6.4-14-13.9-14.6-20.8-15.1
				l-2.2-0.2C335,321,341.4,321.7,348,322.4z M341.2,302.1c1.5,0.2,3,0.3,4.5,0.6c-6.1-14.1-13.8-14.7-20.6-15.2l-2.2-0.2
				C328.3,300.6,334.6,301.3,341.2,302.1L341.2,302.1z M318.5,267.2l-2.2-0.2c5.4,13.3,11.7,14,18.3,14.8c1.5,0.2,3,0.4,4.5,0.7
				C333,268.4,325.4,267.8,318.5,267.2L318.5,267.2z M327.5,236.9c-1.8,3.9-1.7,10.8,0.5,17.4c2.2,6.6,5.5,11.3,9.4,13.2
				c2-3.8,2-9.6,0-16.2S331.3,239,327.5,236.9L327.5,236.9z M352.5,256.2c-5.2,4.4-11.1,9.4-7.8,24.4c1-1.1,2.1-2.1,3.2-3.1
				c4.9-4.5,9.6-8.8,6.2-22.7L352.5,256.2z M368.4,337.5c4.7-4.8,9.1-9,5.5-22.5l-1.7,1.5c-5.1,4.5-11,9.7-6.9,24.3
				C366.4,339.6,367.5,338.6,368.4,337.5L368.4,337.5z M355.3,342.6c1.5,0.1,3,0.2,4.5,0.4c-6.9-13.8-14.4-14.4-21.3-14.8l-2.2-0.2
				C342.2,341.6,348.7,342.2,355.3,342.6L355.3,342.6z"/>
		</g>
	</g>
</g>
<g id="Layer_2">
</g>
</svg>
