<?xml version="1.0" encoding="utf-8"?>
<!-- Generator: Adobe Illustrator 25.3.1, SVG Export Plug-In . SVG Version: 6.00 Build 0)  -->
<svg version="1.1" id="Layer_1" xmlns="http://www.w3.org/2000/svg" xmlns:xlink="http://www.w3.org/1999/xlink" x="0px" y="0px"
	 viewBox="0 0 1000 1000" style="enable-background:new 0 0 1000 1000;" xml:space="preserve">
<style type="text/css">
	.st0{fill:#FFFFFF;stroke:#000000;stroke-width:1.1785;stroke-miterlimit:10;}
	.st1{fill:none;}
	.st2{fill:url(#SVGID_1_);}
	.st3{font-family:'Herculanum';}
	.st4{font-size:109.71px;}
	.st5{fill:#231F20;}
</style>
<rect class="st0" width="1000" height="1000"/>
<rect class="st1" width="1000" height="1000"/>
<linearGradient id="SVGID_1_" gradientUnits="userSpaceOnUse" x1="372.077" y1="567.05" x2="624.3313" y2="567.05" gradientTransform="matrix(1 0 0 -1 0 1002)">
	<stop  offset="0" style="stop-color:#8B6A29"/>
	<stop  offset="0.46" style="stop-color:#FDCA0B"/>
	<stop  offset="0.78" style="stop-color:#E0AF0C"/>
	<stop  offset="1" style="stop-color:#5A3312"/>
</linearGradient>
<path class="st2" d="M495.1,303.7c-16.4,2.2-28.9,11.7-38.1,29.1c-3.5,6.7-5.1,13.2-4.6,19.4s3.2,12.3,7.8,18.1
	c5.6,6.9,10.6,12.7,15.3,17.9c2.6,2.8,2.7,5.1,0.3,7.8c-6.1,7.2-12.4,14.7-18.6,22.4c-0.9,1.3-2.3,2.2-4,2.3
	c-1.3-0.1-2.5-0.6-3.5-1.4l-2-1.4c-3.7-2.9-7.7-5.5-11.9-7.6l-1-0.5c-6.3-3-12.9-6.2-19.5-7.3c-1.2-0.2-2.5-0.3-3.7-0.3
	c-7.2,0-14,3.5-22.1,11.2c-7.4,7-12.9,15.8-15.8,25.6c-3,10.4-2.2,21.6,2.4,31.4c3.2,7.1,8.1,13.2,14.3,17.9
	c6.1,4.7,13.6,7.3,21.2,7.4c8.3,0,16.5-3.1,24.5-9.2c4.2-3.2,7.5-7.3,11.1-11.6c2.3-2.9,4.8-5.8,7.4-8.4c1.6-1.6,3.2-3.2,5-5.1
	l1.2-1.2l1.2,1.2c3,3,6,6,9,8.9c2.7,2.6,5.2,5.1,7.4,7.3l0.9,0.9l-0.7,1.1c-1.6,2.6-3.2,5-4.7,7.5c-3.2,4.8-6.2,9.8-8.9,15
	c-5.2,10.5-6,22.5-2.4,33.6c3.4,11,11.2,20.2,21.5,25.5c8.4,4.3,16.6,6.4,24.3,6.4c8.5,0,16.8-2.7,23.7-7.7
	c7.5-5.2,13.3-14.6,15.8-25.7s1.5-22.6-2.7-31.8c-5.7-12.5-15.6-21.2-23.5-27.4c-0.9-0.7-1.8-1.5-2.8-2.3l-1.6-1.3l-1.2-1.1l1.1-1.2
	l11.8-14l7.7-9l1.1-1.2l1.2,1.1c0.8,0.7,1.6,1.3,2.3,2c1.6,1.4,3.2,2.7,4.8,4c11.3,8.6,21.8,13,33,13.9c1.2,0.1,2.3,0.1,3.5,0.1
	c13.8,0,26.8-6.8,34.6-18.3c7.8-11.3,9.3-25.8,4.1-38.5c-4.4-11.4-12.5-20.9-23-27.1c-5.2-3.3-11.2-5.1-17.4-5.2
	c-8.7,0-16.8,4.1-23.7,11.8c-3.6,4.1-7.3,8-11.2,12.1c-1.8,1.9-3.6,3.8-5.4,5.8l-1,1l-1.2-0.8l-18.7-13.4l-1.3-0.9l0.9-1.3
	c1.9-2.9,3.9-5.6,5.7-8.2c3.9-5.3,7.6-10.9,10.9-16.6c4.2-7.6,6.4-15,6.6-22c0.1-7.8-2.2-15.4-6.7-21.7
	c-8.8-12.8-20.3-19.4-34.3-19.4v-0.8l0,0v0.8C499.4,303.2,497.2,303.4,495.1,303.7z M459.7,424.1l10.9-12.9l11.6-13.7l1.1-1.3
	l1.3,1.2l10.4,10.1l1.1,1.1l-1,1.2c-0.9,1-1.7,2-2.6,3c-1.9,2.2-3.9,4.5-5.7,6.8c-3.2,4.1-6.4,8.4-9.2,12.4
	c-0.5,0.7-2.1,2.9-4.6,2.9c-1.4-0.1-2.7-0.6-3.8-1.6c-1.9-1.6-4-3-6.1-4.6c-1-0.7-2-1.5-3.1-2.2l-1.4-1L459.7,424.1z M496.8,417.1
	l2.7-3.2l1.1-1.2l1.2,1.1l15.4,13l2.4,2l1.2,1l-1,1.2l-11.9,14l-9,10.6l-1,1.3l-1.2-1.1l-17.8-15.1l-1.2-1l1.1-1.2L496.8,417.1z
	 M477.9,472.2c-2.1-2.1-4.2-4.1-6.3-6.1c-2.5-2.3-5-4.6-7.4-6.8c-11.1-10.3-22.5-21-35.9-28.8c-3.6-2.2-7.7-3.5-11.9-3.6
	c-5.6,0-10.8,2.8-15.4,8.4c-7.4,8.8-7.8,20.1-1.1,28.6c3.6,4.6,8.4,7.1,13.6,7.1c4.5-0.1,8.8-1.9,12.1-5.1
	c4.1-3.9,7.9-8.1,11.9-12.5c1.8-2,3.7-4.1,5.6-6.2l1-1.1l1.2,0.9l9.4,7l1.9,1.4l1.4,1l-1.1,1.3c-1.5,1.8-2.9,3.6-4.3,5.3
	c-2.9,4-6.2,7.6-9.8,11c-7.1,6.2-13.2,10.3-19.2,12.9c-4.4,1.9-9.1,2.9-13.9,2.9c-18.8-0.1-34-15.4-34-34.2c0-1.3,0.1-2.5,0.2-3.8
	c1.8-17.2,10.6-30.8,26.3-40.3c4-2.5,8.6-3.8,13.3-3.9c6.1,0,12.6,2.3,20.2,7.2c10.3,6.6,20,13.7,27.4,19.2
	c6.9,5.2,13.7,10.6,20.3,16l7,5.6c0.9,0.7,1.8,1.5,2.6,2.4c0.5,0.5,0.9,0.9,1.5,1.5l1.1,1.1l-1,1.2l-5.2,6.1l-6.2,7.3l-1.1,1.3
	l-1.3-1.2L477.9,472.2z M439.5,442.2l-1.3,1.5c-1.5,1.7-2.9,3.5-4.2,5.1c-3,3.8-6.3,7.5-9.7,11c-2.8,2.7-6.7,4.3-9.6,5.1
	c-1.2,0.3-2.5,0.5-3.8,0.5c-4.2,0-7.9-2-10.9-5.7c-3.9-4.9-1.9-10.1-0.1-13.6c4-7.9,10.9-12.4,18.8-12.4c3.6,0,7.1,0.9,10.3,2.5
	c1.9,0.9,3.6,1.9,5.7,3.1c1,0.6,2,1.2,3.1,1.8L439.5,442.2z M562.7,391c3.9-3.9,9.1-6.4,14.6-7c1.6-0.1,3.2-0.2,4.8-0.2
	c14,0,25.4,5.9,32.9,17.1c8.2,12.3,8.3,25.9,0.5,39.4c-7.5,12.9-19,19.6-33.4,19.6h-0.4c-14-0.1-27-5.5-40.7-17.1l-1.3-1l1.1-1.2
	l0.7-0.9l11.9-14.1l0.9-1.1l1.2,0.8c2,1.3,4,2.6,5.9,3.9c4,2.8,8.2,5.4,12.6,7.6c3,1.5,6.3,2.4,9.7,2.4c5.9,0,11.3-3.2,14.1-8.3
	c2.8-4.7,4-10.2,3.2-15.7c-0.9-5-3.7-9.5-7.9-12.4c-3-2.2-6.6-3.3-10.3-3.3c-3.6,0.1-7,0.9-10.2,2.5c-9.9,4.4-17,12.1-23.2,19.8
	c-20,24.7-35.2,43.6-49.1,61.5c-5.7,7.2-10.8,14.8-15.3,22.7c-3.8,6.8-3.7,15.4,0.2,23.1c4,8,11.3,13.3,19.4,14.3
	c0.7,0.1,1.4,0.1,2.2,0.1c6.7,0,12.4-4.1,15.7-11.3c5-11.1,3.1-22.3-5.4-30.8c-2.8-2.7-5.8-5.3-8.9-7.7c-1.5-1.2-3-2.4-4.5-3.7
	l-1.2-1l0.9-1.2l3.8-5.1l5.2-7l0.8-1.1l1.2,0.6c9.1,4.5,15.5,11.3,21.2,18c7,8.2,10.8,16.5,11.4,24.9c0.6,8.4-2.1,17.2-8.1,26.1
	c-3.9,5.5-9.1,9.9-15.3,12.7c-5.7,2.6-12,4-18.2,4c-8.6,0-17.4-2.6-26-7.7c-7-4.3-12.1-11.2-14-19.2c-2.1-8.4-1.5-17.3,1.5-25.5
	c3.2-8.7,9-15.6,14.5-22.2c1.3-1.6,2.7-3.2,4-4.8c13.1-16.4,26.4-32.2,37.8-45.5C536.8,419.9,549.4,405.3,562.7,391z M557.6,421.5
	l1.2-1.4c7.1-7.9,13.7-12.2,21.4-14.1c1.9-0.5,3.8-0.8,5.7-0.8c3.6-0.1,7.1,1.5,9.3,4.5c3.3,4.4,3.3,9.6,0,15.9
	c-2.8,5.2-7,7.9-12.3,7.9c-0.5,0-1,0-1.5-0.1c-8.5-0.8-15.1-5.5-22-10.6l-0.4-0.3L557.6,421.5z M519.4,509.8
	c4.4,6.7,2.8,16.1-3.8,22.3c-3.3,3.2-7.8,5-12.4,5.1c-3.1,0-6.1-0.9-8.7-2.5c-8.6-5.5-11.2-12.5-7.7-20.8c2.1-4.7,4.6-9.3,7.3-13.7
	c1.2-2,2.4-4,3.6-6.1l0.8-1.4l1.4,0.8C509.4,498.6,515.3,503.5,519.4,509.8L519.4,509.8z M503.2,308.8c12.3,0,23.1,5.7,31.3,16.4
	c7.4,9.6,7.3,21.1-0.1,34.3c-3.9,6.6-8.2,12.9-13,19c-2,2.8-4.1,5.6-6.2,8.5l-1,1.5l-1.4-1.1l-11.5-9.7l-1.2-1l0.9-1.2
	c1.5-2,3-3.9,4.4-5.8c3.2-4,6.3-8.2,9.1-12.5c6-9.7,4.3-20.4-4.5-27.3c-2.9-2.3-6.5-3.6-10.2-3.5c-5.5,0-11.1,2.7-15.4,7.3
	c-10.1,10.8-9.3,23.8,2.2,34.6c9.7,9.2,20.3,17.9,30.4,26.3c4.4,3.7,9,7.5,13.5,11.3l3.1,2.6l1.7,1.5l1.2,1.1l-1.1,1.2l-4.7,5.6
	l-6.5,7.7l-1.1,1.2l-1.2-1c-1.2-1-2.4-2-3.5-2.9c-2.5-2.1-5.1-4.2-7.5-6.4l-2.4-2.2c-12.5-11.5-25.4-23.5-37.9-35.4
	c-2.5-2.5-4.8-5.2-6.9-8.1c-1-1.3-2-2.7-3.1-4c-6.7-8.1-7.5-17.3-2.2-27.1c8.9-16.6,20.3-26.2,34.8-29.3
	C496.7,309.3,499.9,308.9,503.2,308.8L503.2,308.8z M496.3,370.8l-1.2,1.4l-1.3-1.3c-1-1-1.8-2-2.6-2.9c-1.6-1.8-3-3.4-4.5-4.8
	c-4-3.9-6-8-5.8-12.2c0.2-5.1,3.4-10.1,9.8-15.4c2.2-1.8,4.9-3,7.7-3.5c1-0.2,2.1-0.3,3.1-0.3c4.8,0,9,2.2,12.1,6.4
	c3,4,2.6,8.8-1.2,13.6c-3.5,4.5-7.2,8.8-11.1,13.4C499.6,367,498,368.9,496.3,370.8L496.3,370.8z"/>
<text transform="matrix(1 0 0 1 206.35 682.03)" class="st3 st4">AFRODISIAC</text>
<text transform="matrix(1 0 0 1 206.35 682.03)" class="st5 st3 st4">AFRODISIAC</text>
</svg>
