<?xml version="1.0" encoding="utf-8"?>
<!-- Generator: Adobe Illustrator 25.3.1, SVG Export Plug-In . SVG Version: 6.00 Build 0)  -->
<svg version="1.1" id="Layer_1" xmlns="http://www.w3.org/2000/svg" xmlns:xlink="http://www.w3.org/1999/xlink" x="0px" y="0px"
	 viewBox="0 0 1000 1000" style="enable-background:new 0 0 1000 1000;" xml:space="preserve">
<style type="text/css">
	.st0{fill:#FFFFFF;stroke:#000000;stroke-width:1.1785;stroke-miterlimit:10;}
	.st1{fill:#231F20;}
</style>
<rect class="st0" width="1000" height="1000"/>
<polygon class="st1" points="515.8,456.5 418.9,529.5 269.6,642 307.1,525.1 219.5,456.9 329,456.7 360.6,358 394.1,456.6 "/>
<path class="st1" d="M439.1,545.3h-2.4c-2.4-0.1-4.8,0.2-7.1,0.8c-1.8,0.6-3.4,1.5-4.7,2.8c-1.1,1.1-2,2.6-2.4,4.1
	c-0.6,1.9-0.9,3.9-0.8,5.8v2.1H438v5.7h-16.4c0,10.4,0,20.1,0.1,29c0,8.9,0.1,13.6,0.1,14.2h-7.6c0-0.5,0-5,0.1-13.6
	s0.1-18.4,0.1-29.6h-9.5V561h9.5v-2.3c0-2.6,0.3-5.1,1.1-7.6c0.8-2.4,2.2-4.5,3.9-6.3c1.8-1.8,4-3.2,6.4-4.1
	c3.2-1.1,6.5-1.7,9.8-1.6h2.6L439.1,545.3z"/>
<path class="st1" d="M475.7,566.7c-2.8,0.7-5.5,1.6-8.1,2.7c-3.6,1.3-7.9,3.1-12.6,5.4c0,0.4,0,2,0,4.8s0,5.6,0,8
	c0,3.8,0,8.3,0.1,13.5s0.1,8.1,0.1,8.7h-7.6c0-0.5,0-2.3,0.1-5.4s0.1-8.3,0.1-15.7c0-3,0-7.2,0-12.5s-0.1-10.4-0.1-15.2h7.5v7.3l0,0
	c3.5-2,7.1-3.8,10.8-5.4c2.8-1.2,5.6-2.3,8.5-3.1L475.7,566.7z"/>
<path class="st1" d="M528.4,585.5c0,3.7-0.7,7.3-2,10.7c-1.3,3.3-3.2,6.3-5.8,8.7c-2,2-4.4,3.5-7.1,4.6c-2.8,1.1-5.8,1.6-8.8,1.6
	c-3,0-5.9-0.5-8.7-1.6c-2.7-1-5.2-2.6-7.2-4.6c-2.5-2.4-4.4-5.4-5.7-8.7c-1.3-3.5-2-7.2-2-10.9c0-3.5,0.5-6.9,1.7-10.2
	c1.2-3.1,3-6,5.3-8.4c2.1-2.2,4.7-4,7.5-5.2c2.9-1.2,6-1.8,9.1-1.8c3.1,0,6.2,0.5,9.1,1.7c2.8,1.1,5.2,2.8,7.3,5
	c2.4,2.4,4.2,5.4,5.5,8.6C527.8,578.4,528.4,581.9,528.4,585.5z M520.7,585.8c0-3-0.5-6-1.5-8.8c-0.9-2.7-2.5-5.2-4.6-7.2
	c-1.3-1.2-2.8-2.2-4.5-2.8c-1.7-0.7-3.5-1-5.4-1c-4-0.2-7.8,1.4-10.4,4.4c-1.8,1.9-3.2,4.2-4,6.7c-1,2.7-1.5,5.5-1.5,8.4
	c0,3.1,0.5,6.1,1.5,9c1,2.7,2.6,5.2,4.8,7.1c1.3,1.1,2.7,2,4.3,2.6c3.5,1.2,7.4,1.2,10.9-0.2c1.7-0.7,3.3-1.7,4.6-3.1
	c1.9-1.9,3.3-4.2,4.2-6.8C520.2,591.4,520.7,588.6,520.7,585.8L520.7,585.8z"/>
<path class="st1" d="M578.8,610.6h-1.8h-2.5c-4.8,0.1-9.5-0.2-14.3-0.8c-3.5-0.5-6.9-1.6-10.1-3.2c-3.9-1.8-7.3-4.6-9.8-8.2
	c-2.2-3.4-3.4-7.3-3.3-11.4c-0.1-4.6,1.2-9.1,3.7-13c2.6-3.9,6.4-7,10.7-8.8c3-1.4,6.2-2.4,9.4-2.9c3.4-0.7,6.9-1,10.4-1l-0.2-22.2
	h7.6c0,0.7,0,5.2-0.1,13.5c-0.1,8.3-0.1,16.8-0.1,25.4c0,6.8,0,12.9,0.1,18.4S578.7,606.6,578.8,610.6z M571.3,576.7v-8.9
	c-3.1,0-6.1,0.3-9.1,0.8c-2.5,0.4-5,1.2-7.3,2.2c-3.1,1.3-5.7,3.5-7.5,6.3c-1.8,2.9-2.7,6.2-2.7,9.7c-0.1,3,0.8,6,2.6,8.5
	c1.7,2.4,3.8,4.3,6.4,5.6c2.4,1.2,4.9,2.1,7.5,2.7c2.9,0.6,5.8,0.9,8.8,0.9h1.2c0-0.3,0-2.7,0-7.2S571.2,586,571.3,576.7z"/>
<path class="st1" d="M605,551.7h-8.5v-8.3h8.5V551.7z M604.6,609.9H597c0-0.5,0.1-3.7,0.1-9.5s0.1-10.6,0.1-14.4c0-3.3,0-7,0-10.9
	s-0.1-8.6-0.2-14h7.6c-0.1,4.7-0.1,9-0.2,13c0,4-0.1,7.6-0.1,10.8c0,7.5,0,13.5,0.1,18S604.6,609.7,604.6,609.9L604.6,609.9z"/>
<path class="st1" d="M649.3,595.7c0,2.2-0.6,4.5-1.7,6.4c-1.1,1.8-2.7,3.4-4.5,4.5c-2.2,1.3-4.5,2.2-7,2.8c-2.9,0.7-5.9,1-8.9,0.9
	c-1.6,0-3.2-0.1-4.9-0.2s-2.7-0.2-2.9-0.3l-0.3-6.3c0.3,0,1.4,0.1,3.3,0.3s3.9,0.2,5.8,0.2c1.5,0,2.9-0.1,4.3-0.3
	c1.5-0.1,3-0.5,4.4-1.1c1.4-0.6,2.6-1.5,3.6-2.6c0.8-1.1,1.2-2.4,1.2-3.7c0.1-1.2-0.3-2.3-1-3.2c-0.8-0.9-1.7-1.7-2.8-2.4
	c-1.7-1.1-3.4-2-5.3-2.8c-1.9-0.8-3.8-1.8-5.6-2.8c-2-1.2-3.7-2.8-4.9-4.7c-1.2-1.9-1.8-4.1-1.7-6.3c0-2.3,0.7-4.5,2-6.4
	c1.3-1.9,3.1-3.5,5.2-4.6c2-1.1,4.1-1.7,6.3-2c2.2-0.3,4.5-0.5,6.7-0.5c2,0,3.6,0,4.8,0.1l2.2,0.1l0.5,6.4c-0.2,0-1.2-0.1-3-0.2
	s-3.7-0.2-5.8-0.2c-1.4,0-2.8,0.1-4.2,0.4c-1.2,0.2-2.3,0.6-3.4,1.1c-1.2,0.5-2.3,1.4-3,2.5c-0.6,0.9-0.9,1.9-0.9,2.9
	c0,1.2,0.4,2.4,1.3,3.3c0.9,0.9,1.9,1.7,3,2.4c1.3,0.8,3.1,1.7,5.4,2.8c1.7,0.8,3.4,1.6,5,2.6c2,1.2,3.8,2.8,5.2,4.7
	C648.8,591.4,649.4,593.5,649.3,595.7z"/>
<path class="st1" d="M671.5,551.7H663v-8.3h8.5L671.5,551.7z M671.1,609.9h-7.6c0-0.5,0.1-3.7,0.1-9.5s0.1-10.6,0.1-14.4
	c0-3.3,0-7,0-10.9s-0.1-8.6-0.2-14h7.6c-0.1,4.7-0.1,9-0.2,13c0,4-0.1,7.6-0.1,10.8c0,7.5,0,13.5,0.1,18
	C671.1,607.3,671.1,609.7,671.1,609.9z"/>
<path class="st1" d="M722.7,582.4c0,8,0,14.5,0,19.5c0,5,0,7.7,0,8.1c-0.3,0-1.8,0.2-4.5,0.4s-6.1,0.3-10.3,0.3
	c-2.7,0-5.4-0.2-8-0.7c-2.4-0.4-4.7-1.1-6.9-2.1c-2.5-1.1-4.6-2.8-6.2-4.9c-1.6-2.1-2.5-4.8-2.4-7.4c-0.1-2.9,1-5.7,2.8-7.9
	c2.1-2.4,4.8-4.3,7.8-5.4c2.7-1,5.5-1.8,8.4-2.3c3.9-0.8,7.9-1.3,11.9-1.6c-0.1-2.2-0.7-4.3-1.9-6.2c-1.1-1.7-2.8-3-4.7-3.7
	c-1.5-0.6-3.1-1-4.8-1.2c-2-0.3-4-0.4-6.1-0.4c-1.5,0-2.7,0-3.7,0.1l-4.1,0.2l0.8-6.4c0.5,0,1.4-0.1,2.9-0.2s3.4-0.1,5.9-0.1
	c3.4,0,6.8,0.4,10.2,1.2c2.7,0.7,5.3,2,7.4,3.8c1.9,1.7,3.3,3.8,4.2,6.2C722.3,574.1,722.7,577.7,722.7,582.4z M715.4,594v-4.1
	c0-1.7,0-3.6,0-5.8c-1.4,0.1-3.9,0.3-7.4,0.8c-3,0.4-6,1.1-8.9,2.2c-1.8,0.7-3.4,1.7-4.8,3c-1.4,1.3-2.1,3.1-2.1,5
	c-0.1,1.9,0.5,3.8,1.8,5.3c1.3,1.4,3,2.5,4.9,3.1c1.7,0.6,3.4,1,5.2,1.2c2,0.3,4,0.4,6,0.4c0.6,0,1.4,0,2.4,0l2.9-0.1
	c0-0.2,0-1.3,0-3.2C715.3,599.8,715.3,597.3,715.4,594z"/>
<path class="st1" d="M772.2,603.6l-0.6,6.5h-2.7c-3.9,0-7.8-0.4-11.6-1.2c-3.4-0.7-6.6-1.9-9.7-3.5c-3.7-2-6.9-4.9-9.1-8.4
	c-2.2-3.5-3.3-7.6-3.3-11.7c0-3.8,1-7.4,3-10.6c2-3.2,4.6-5.9,7.8-7.9c3.2-2,6.7-3.4,10.4-4.3c4.1-1,8.3-1.5,12.5-1.5h2l0.4,6.5
	h-1.5c-3.1,0-6.1,0.2-9.1,0.7c-2.5,0.4-5,1.2-7.4,2.1c-3.1,1.2-5.7,3.3-7.6,6.1c-1.8,2.6-2.8,5.7-2.8,8.9c-0.1,3.4,0.8,6.7,2.6,9.5
	c1.8,2.6,4.2,4.6,7,5.9c2.4,1.1,5,1.9,7.6,2.4c3,0.5,6,0.7,9,0.7H772.2L772.2,603.6z"/>
</svg>
