<?xml version="1.0" encoding="utf-8"?>
<!-- Generator: Adobe Illustrator 25.3.1, SVG Export Plug-In . SVG Version: 6.00 Build 0)  -->
<svg version="1.1" id="Layer_1" xmlns="http://www.w3.org/2000/svg" xmlns:xlink="http://www.w3.org/1999/xlink" x="0px" y="0px"
	 viewBox="0 0 1000 1000" style="enable-background:new 0 0 1000 1000;" xml:space="preserve">
<style type="text/css">
	.st0{fill:#FFFFFF;stroke:#000000;stroke-width:1.1785;stroke-miterlimit:10;}
	.st1{fill:none;}
	.st2{fill:none;stroke:#231F20;stroke-width:3;stroke-miterlimit:10;}
	.st3{fill:#231F20;}
</style>
<rect class="st0" width="1000" height="1000"/>
<g id="Layer_1_1_">
	<rect class="st1" width="1000" height="1000"/>
</g>
<g id="Layer_2_1_">
	<path class="st2" d="M447.1,537.3L447.1,537.3c-21.3,0-38.5-17.2-38.5-38.5v0v-2.3c0-21.3,17.2-38.5,38.5-38.5h0l0,0
		c21.3,0,38.5,17.2,38.5,38.5v0v2.3C485.6,520.1,468.4,537.3,447.1,537.3L447.1,537.3z M447.6,454.1h-0.5
		c-23.4,0-42.3,19.5-42.3,43.6l0,0c0,0.4,0,0.9,0,1.3 M404.8,499l0.8,7.3c3.9,20,21,35,41.5,35l0,0h1.1 M448.3,541.2l7.6-0.9
		c16.8-3.8,29.6-17.2,32.8-34 M488.6,506.3l0.8-7c0-0.5,0-1,0-1.6l0,0c0-21-14.4-38.5-33.6-42.6 M449.2,453.9
		c4.5-1.1,7.6-5.1,7.5-9.7l0,0c0.1-5.4-4.2-9.8-9.6-9.9l0,0c-5.4,0.1-9.7,4.5-9.6,9.9l0,0c-0.1,5.4,4.2,9.8,9.6,9.9c0,0,0,0,0,0l0,0
		C447.8,454.1,448.5,454.1,449.2,453.9 M455.6,455c3.2-2.7,5-6.6,5-10.8l0,0c0.1-7.5-5.9-13.8-13.5-13.9c0,0,0,0,0,0l0,0
		c-7.5,0.1-13.6,6.3-13.5,13.9c0,0,0,0,0,0l0,0c0,4.2,1.9,8.1,5.1,10.8 M446.4,458c0.2,0,0.5,0,0.7,0l0,0c3.1,0,6.1-1.1,8.5-3.1
		 M456.8,551.4v-0.6c0-5.3-4.3-9.6-9.6-9.6l0,0c-5.3,0-9.6,4.3-9.6,9.6v0.6c0,5.3,4.3,9.6,9.6,9.6l0,0
		C452.4,561,456.7,556.7,456.8,551.4L456.8,551.4z M438.8,540.2c-3.3,2.7-5.1,6.7-5.1,10.9l0,0c-0.1,7.5,5.9,13.8,13.4,13.9
		c0,0,0,0,0.1,0l0,0c7.5-0.1,13.6-6.3,13.5-13.9c0,0,0,0,0,0l0,0c0.1-7.5-5.9-13.8-13.5-13.9l0,0c-0.2,0-0.5,0-0.7,0 M508.7,498
		v-0.6c0-5.3-4.3-9.6-9.6-9.6l0,0c-5.3,0-9.6,4.3-9.6,9.6c0,0,0,0,0,0v0.6c0,5.3,4.3,9.6,9.6,9.6c0,0,0,0,0,0l0,0
		C504.4,507.6,508.7,503.3,508.7,498z M485.7,496.2c-0.1,0.5-0.1,1-0.1,1.5l0,0c-0.1,7.5,5.9,13.8,13.5,13.9c0,0,0,0,0,0l0,0
		c7.5-0.1,13.6-6.3,13.5-13.9l0,0c0.1-7.5-5.9-13.8-13.5-13.9l0,0c-4.1,0-8,1.9-10.5,5.1 M404.8,498v-0.6c0-5.3-4.3-9.6-9.6-9.6l0,0
		c-5.3,0-9.6,4.3-9.6,9.6v0.6c0,5.3,4.3,9.6,9.6,9.6c0,0,0,0,0,0l0,0C400.5,507.6,404.8,503.3,404.8,498
		C404.8,498,404.8,498,404.8,498z M405.7,489c-2.5-3.3-6.4-5.2-10.5-5.2l0,0c-7.5,0.1-13.6,6.3-13.5,13.9l0,0
		c-0.1,7.5,5.9,13.8,13.5,13.9l0,0c7.5-0.1,13.6-6.3,13.5-13.9l0,0c0-0.6,0-1.2-0.1-1.7"/>
	<path class="st3" d="M244.6,526.8l-6.1,3c-0.7-1.4-2-4.3-4-8.8c-2-4.5-4.7-10.3-8.1-17.7h-32.9c-3.4,7.4-6.2,13.4-8.4,18
		c-2.1,4.6-3.4,7.4-3.8,8.4l-5.4-2.7c1.1-2.1,5.2-10.6,12.3-25.7c7.1-15,13.7-29.1,19.8-42.2h5c5.3,11.6,11.7,25.3,19,41
		L244.6,526.8z M224.1,498.4c-2-4.6-4.3-9.6-6.8-15.1s-5-10.7-7.2-15.6h-0.2c-2.1,4.5-4.6,9.8-7.3,15.8c-2.7,6-5,10.9-6.9,14.9v0
		L224.1,498.4L224.1,498.4z"/>
	<path class="st3" d="M298.2,465.3c-0.6,0-2.8,0-6.6,0s-8.5,0-14.1,0h-7.8c-2.7,0-4.8,0-6.2,0c0,3.9,0,8.5-0.1,13.9
		c-0.1,5.4-0.1,9.8-0.1,13.2h4.3h6.3c5.5,0,10.8,0,15.6-0.1l8.1,0v5.3c-0.6,0-3.7,0-9.3,0s-10.6,0-15,0h-5.8h-4.4
		c0,6,0,11.9,0.1,17.6c0.1,5.7,0.1,10.1,0.1,13.4h-6.6c0-2,0.1-5.7,0.1-11s0.1-12.8,0.1-22.6c0-3.9,0-9-0.1-15.3
		c0-6.3-0.1-12.8-0.1-19.5c2.5,0,5.5,0,9,0.1c3.5,0,7.3,0,11.2,0c5.9,0,10.7,0,14.6,0l6.6-0.1L298.2,465.3z"/>
	<path class="st3" d="M368.6,525.7l-4.9,4c-0.8-0.9-3.5-4-8.2-9.3c-4.7-5.4-11.4-13.2-20.2-23.5l0.1-0.5c1.9-0.6,3.8-1.3,5.5-2.3
		c2-1,3.8-2.3,5.5-3.9c1.3-1.3,2.5-2.8,3.3-4.4c1-2.1,1.4-4.4,1.4-6.7c0.1-2.7-0.7-5.3-2.2-7.5c-1.5-2.1-3.6-3.8-6-4.8
		c-2.1-0.9-4.4-1.4-6.7-1.7c-2.4-0.3-4.8-0.4-7.2-0.4c-1.3,0-2.5,0-3.7,0s-1.9,0-2.3,0c-0.1,6.4-0.1,12.4-0.1,18s0,9.4,0,11.4
		c0,4.7,0,11,0.1,19.1c0.1,8.1,0.1,13.1,0.1,15.1h-6.5c0-2,0-6,0.1-11.9c0.1-5.9,0.1-13.2,0.1-22c0-1.7,0-4.9,0-9.5
		c0-4.6-0.1-13-0.2-25.2c0.4,0,2,0,5.1-0.1s5.9-0.1,8.5-0.1c2.9,0,5.9,0.2,8.8,0.6c2.8,0.4,5.5,1.1,8.1,2.2c3.2,1.3,6,3.5,8,6.4
		c2,2.8,3.1,6.3,3,9.7c0.2,4.5-1.4,8.9-4.4,12.2c-2.7,2.9-5.8,5.3-9.4,7v0.3c4.6,5.5,9.7,11.4,15.4,17.6
		C365.1,521.9,368.2,525.3,368.6,525.7z"/>
	<path class="st3" d="M582.1,493.3c0.1,5.5-1.3,10.9-4.1,15.7c-2.8,4.6-6.7,8.4-11.3,11.2c-4.1,2.5-8.6,4.4-13.3,5.6
		c-5.4,1.3-10.9,1.9-16.4,1.8c-1.9,0-4,0-6.1-0.1c-2.2-0.1-3.5-0.1-4.1-0.1c0-0.9,0-4.6,0.1-11.3c0.1-6.7,0.1-14.3,0.1-22.7
		c0-5,0-10.5,0-16.7s-0.1-12.1-0.2-18c0.6,0,2,0,4.1,0l4.4,0c6.2-0.1,12.4,0.6,18.4,2c5,1.2,9.8,3.2,14.2,6
		c4.5,2.8,8.2,6.7,10.8,11.4C581,482.7,582.2,488,582.1,493.3z M575.6,493.3c0.1-4.5-1-9-3-13c-2.2-4.1-5.5-7.5-9.5-9.9
		c-3.9-2.4-8.2-4.2-12.7-5.1c-4.7-1-9.4-1.6-14.2-1.6h-3.1c0,4.1,0,8.3-0.1,12.5s-0.1,8.1,0,11.6c0,5,0,10.3,0,15.8s0,11.8,0.1,18.9
		h3.1c4.8,0,9.5-0.5,14.2-1.5c4.1-0.8,8.1-2.4,11.7-4.5c4.1-2.4,7.5-5.8,10-9.8C574.5,502.6,575.7,498,575.6,493.3L575.6,493.3z"/>
	<path class="st3" d="M606.5,527.3h-6.4c0-2,0-5.7,0.1-11s0.1-12.8,0.1-22.7c0-3.9,0-9,0-15.3s-0.1-12.9-0.1-19.7h6.4
		c0,4.9,0,10.6-0.1,17s-0.1,11.8-0.1,15.9c0,10.4,0,18.4,0.1,24.1C606.5,521.3,606.5,525.2,606.5,527.3z"/>
	<path class="st3" d="M663.2,508.6c0.1,3.2-0.8,6.3-2.4,9c-1.7,2.5-3.9,4.6-6.6,6.1c-2.7,1.6-5.7,2.7-8.7,3.3
		c-3.4,0.7-6.9,1.1-10.4,1.1c-2.1,0-4.3-0.1-6.5-0.2l-4-0.3l-0.3-5.5c0.5,0.1,1.8,0.2,3.8,0.4s4.5,0.3,7.4,0.3
		c2.6,0,5.2-0.3,7.7-0.8c2.4-0.4,4.7-1.1,6.8-2.2c2-1,3.7-2.5,5-4.3c1.2-1.8,1.8-3.9,1.7-6.1c0-2.3-0.6-4.5-1.9-6.4
		c-1.2-2-3.5-3.9-6.9-5.7c-1.7-1-3.5-1.8-5.3-2.6c-1.9-0.8-3.8-1.8-5.6-2.8c-3.3-1.6-6.2-4-8.5-6.9c-1.8-2.6-2.8-5.7-2.7-8.8
		c-0.1-2.8,0.6-5.5,2-7.9c1.3-2.2,3.1-4.2,5.2-5.7c2.4-1.7,5.1-2.9,7.9-3.7c3.2-0.9,6.6-1.3,9.9-1.3c2.1,0,4.1,0.1,6.3,0.2
		s3.3,0.2,3.6,0.2l0.5,5.6c-0.4-0.1-1.7-0.2-3.7-0.4s-4.4-0.3-7.2-0.3c-2.3,0-4.5,0.3-6.7,0.8c-2.2,0.5-4.3,1.4-6.2,2.6
		c-1.5,1-2.7,2.2-3.7,3.7c-2.2,3.5-2.1,7.9,0.2,11.3c1.2,1.7,3.5,3.5,6.9,5.3c1.3,0.7,2.9,1.5,4.9,2.4s3.9,1.9,5.7,2.8
		c3.5,1.7,6.5,4.2,8.8,7.3C662.2,502.1,663.2,505.3,663.2,508.6z"/>
	<path class="st3" d="M687.3,527.3h-6.4c0-2,0-5.7,0.1-11s0.1-12.8,0.1-22.7c0-3.9,0-9,0-15.3s-0.1-12.9-0.1-19.7h6.4
		c0,4.9,0,10.6-0.1,17c-0.1,6.5-0.1,11.8-0.1,15.9c0,10.4,0,18.4,0.1,24.1C687.2,521.3,687.3,525.2,687.3,527.3z"/>
	<path class="st3" d="M766,525.6l-6,2.9c-0.6-1.4-1.9-4.3-3.9-8.8s-4.6-10.3-7.9-17.7h-31.9c-3.3,7.4-6,13.4-8.1,18.1
		c-2.1,4.7-3.3,7.4-3.7,8.3l-5.2-2.7c1-2.1,5-10.6,11.9-25.7c6.9-15,13.3-29.1,19.2-42.3h4.9c5.2,11.6,11.3,25.3,18.5,41L766,525.6z
		 M746.1,497.1c-2-4.6-4.2-9.6-6.6-15.1l-7-15.6h-0.2c-2.1,4.5-4.4,9.8-7,15.8c-2.6,6-4.8,10.9-6.7,14.9v0L746.1,497.1L746.1,497.1z
		"/>
	<path class="st3" d="M821.3,522.9c0,0.3-0.1,0.9-0.2,1.9s-0.2,2.1-0.3,3.4h-1.8c-7.3,0.1-14.6-0.9-21.6-3.2
		c-5.8-1.8-11.1-4.9-15.5-9.2c-2.9-2.8-5.1-6.2-6.7-10c-1.7-4.2-2.6-8.7-2.5-13.2c0-4.2,0.8-8.3,2.4-12.2c1.5-3.6,3.7-6.8,6.3-9.6
		c4.3-4.3,9.6-7.5,15.4-9.4c6.6-2.4,13.6-3.5,20.6-3.5h2.3c0,0.5,0,1.2,0.1,2.3s0.2,2.1,0.3,3.1h-1.7c-4.7,0-9.4,0.5-13.9,1.6
		c-4.1,0.9-8,2.4-11.6,4.5c-4.1,2.3-7.6,5.7-10,9.8c-2.5,4.1-3.7,8.8-3.7,13.6c-0.1,4.8,1.1,9.6,3.4,13.8c2.3,4,5.6,7.3,9.6,9.6
		c3.9,2.4,8.3,4.2,12.8,5.2c4.6,1,9.3,1.6,14,1.6h1C820.4,523,820.8,522.9,821.3,522.9z"/>
</g>
</svg>
