<?xml version="1.0" encoding="utf-8"?>
<!-- Generator: Adobe Illustrator 25.3.1, SVG Export Plug-In . SVG Version: 6.00 Build 0)  -->
<svg version="1.1" id="Layer_1" xmlns="http://www.w3.org/2000/svg" xmlns:xlink="http://www.w3.org/1999/xlink" x="0px" y="0px"
	 viewBox="0 0 1000 1000" style="enable-background:new 0 0 1000 1000;" xml:space="preserve">
<style type="text/css">
	.st0{fill:#FFFFFF;stroke:#000000;stroke-width:1.1785;stroke-miterlimit:10;}
	.st1{fill:#231F20;}
</style>
<rect class="st0" width="1000" height="1000"/>
<g id="Layer_2_1_">
	<path class="st1" d="M462.9,501.9c-0.1-0.3-0.2-0.5-0.5-0.7c-0.4-0.3-0.7-0.6-1.1-0.9c-1.1-0.8-2.2-1.5-3.3-2.1
		c-1.2-0.7-2.4-1.3-3.3-1.7s-1.5-0.7-1.5-0.7s1.4-0.5,3.2-1.4h-9.2c-0.9,0.5-1.5,0.8-1.7,0.9s0.6,0.8,2.2,1.8l2.7,1.8l1.6,1.1
		l1.6,1.2c1.1,0.8,2.1,1.6,3.1,2.5s1.9,1.6,2.7,2.3s1.4,1.3,1.9,1.7l0.7,0.7l0.1-0.2c0-0.1,0.1-0.4,0.2-0.6c0.1-0.5,0.3-1.2,0.4-2
		c0.1-0.4,0.1-0.8,0.2-1.1s0.1-0.7,0.1-1.1C462.9,503,462.9,502.4,462.9,501.9z"/>
	<path class="st1" d="M462.8,490c0.2-0.7,0.2-1.4,0.2-2.1c0-0.9-0.2-1.9-0.3-2.9c-0.1-0.5-0.1-1-0.2-1.4l-0.2-1.2l-0.2-1.1
		c-1.8,2.3-3.8,4.5-6,6.5c-0.8,0.7-1.6,1.4-2.4,2.1s-1.6,1.3-2.4,1.9c-1.6,1.2-3,2.1-4.1,2.7h9.2c1.4-0.7,2.8-1.5,4.1-2.4
		c0.6-0.4,1.1-0.8,1.6-1.2C462.4,490.7,462.6,490.4,462.8,490z"/>
	<path class="st1" d="M455.8,524.9c-0.1-0.2-0.5-0.2-1.1-0.2s-1.5,0.1-2.5,0.3l-3.4,0.4c-1.2,0.1-2.6,0.3-3.9,0.4l-1,0.1l-1,0
		l-1.9,0.1h-1.8h-1.6c-1,0-1.9,0-2.6-0.1c-0.4,0-0.9,0-1.3,0c-0.4,0.1-0.3,1.3,0,3.2s0.7,4.4,1,7c0.1,1.3,0.3,2.6,0.4,3.8
		s0.2,2.4,0.4,3.4c0.2,2,0.5,3.4,1,3.3c1.1-0.2,2.1-0.8,2.9-1.5c0.8-0.7,1.3-1.6,1.6-2.6c0-0.8-0.1-1.6-0.2-2.4
		c-0.1-0.5-0.2-1.2-0.4-1.8l-0.2-0.9c-0.1-0.3-0.2-0.6-0.3-0.9c-0.7-2.5-1.5-4.6-1.5-4.6h1l2.7,0.2l0.9,0.1h0.9l2,0.1l2.1,0.2
		l2.1,0.2c0.4,0,1-0.4,1.6-1.1c0.7-0.8,1.3-1.7,1.9-2.6c0.6-1,1.1-2,1.5-2.7c0.2-0.4,0.3-0.7,0.4-0.9L455.8,524.9z"/>
	<path class="st1" d="M421.3,553.8c0.1-0.3-1-1.2-2.5-2.2l-0.6-0.4l-0.7-0.5l-1.4-1c-1-0.7-2-1.3-3-2.1l-1.5-1.1
		c-0.5-0.3-1-0.7-1.4-1.1l-2.5-1.9c-1.5-1.2-2.5-2-2.9-1.9s-1,1.1-1.9,2.8l-0.3,0.6l-0.4,0.7l-0.8,1.4c-0.6,1-1.2,2.1-1.8,3.1
		l-1.9,3.1l-1.7,2.8c-1,1.7-1.7,2.9-1.5,3.2c0.3,0.4,0.8,0.8,1.4,0.9c0.7,0.3,1.5,0.5,2.3,0.5c0.8,0.1,1.6,0.1,2.3,0
		c0.5,0,1-0.2,1.4-0.5c0.7-1.7,1.3-3.5,1.6-5.3c0.6-2.4,1.2-4.8,1.9-5.2c0.3-0.2,0.9,0.2,1.5,0.9s1.5,1.7,2.4,2.8
		c0.8,1,1.7,1.9,2.6,2.8c0.8,0.7,1.5,1.2,1.9,1.1s1-0.3,1.8-0.5c0.4-0.1,0.8-0.2,1.2-0.4s0.8-0.3,1.2-0.5
		C419.7,555.2,421.1,554.3,421.3,553.8z"/>
	<path class="st1" d="M377,555.6c0.2-0.3,0-1.6-0.3-3.4c-0.2-0.9-0.4-2-0.6-3.1s-0.4-2.2-0.6-3.4c-0.4-2.3-0.7-4.6-0.9-6.3
		c-0.1-0.9-0.2-1.6-0.3-2.1s-0.2-0.9-0.4-1s-0.5,0-1.1,0.2l-1,0.4l-1.2,0.5c-0.9,0.3-2,0.8-3.1,1.2s-2.4,0.8-3.6,1.2
		s-2.5,0.8-3.7,1.1s-2.3,0.7-3.3,0.9c-1.9,0.5-3.2,1-3.2,1.4c0.2,0.6,0.5,1.1,0.9,1.5c0.3,0.3,0.6,0.6,0.9,0.9
		c0.7,0.6,1.4,1.1,2.1,1.6c0.3,0.2,0.7,0.4,1.1,0.5c0.5,0.3,1.1,0.3,1.6,0.2c0.4-0.2,1.1-0.5,2-1s2-1.1,3-1.7s1.9-1.2,2.6-1.7
		l1.1-0.8c0.5-0.1,0.8,0.5,1,1.4c0.1,1.2,0.2,2.3,0.2,3.5c0,1.3,0.1,2.7,0.2,3.8c0,0.8,0.2,1.5,0.7,2.2c0.4,0.3,0.9,0.6,1.4,0.8
		c0.6,0.3,1.2,0.6,1.8,0.8c0.5,0.2,1.1,0.4,1.7,0.4C376.4,555.9,376.7,555.8,377,555.6z"/>
	<path class="st1" d="M341.7,527.9c0.5,0.1,1.2-1.2,2-3l1.3-3.1c0.2-0.6,0.5-1.1,0.7-1.7l0.4-0.9l0.4-0.9l0.8-1.7
		c0.3-0.6,0.5-1.1,0.8-1.6c0.5-1.1,1.1-2,1.5-2.8c0.6-0.9,1.1-1.9,1.5-2.9c-0.8-0.4-1.7-0.7-2.5-0.9c-0.8-0.2-1.6-0.5-2.6-0.8
		s-1.9-0.7-3-1c-0.5-0.2-1-0.4-1.5-0.6l-1.5-0.6c-1-0.4-1.9-0.8-2.8-1.2c-1.7-0.8-2.9-1.4-3.4-1.5s-0.7,0.1-0.8,0.7
		c-0.1,0.7-0.1,1.4,0,2.2c0.1,0.8,0.3,1.7,0.6,2.5c0.2,0.6,0.4,1.1,0.8,1.6c0.5,0.4,1.1,0.7,1.7,0.9c0.9,0.3,1.9,0.6,2.8,0.8
		c1,0.2,1.9,0.4,2.6,0.6l0.8,0.1h0.3c0,0-0.4,0.5-0.9,1.3c-0.2,0.4-0.5,0.8-0.9,1.4l-0.5,0.8c-0.2,0.3-0.3,0.6-0.5,0.8
		c-0.6,1.1-1.1,2.3-1.6,3.5c-0.3,0.7-0.5,1.5-0.5,2.3c0.3,1.2,0.7,2.4,1.2,3.5c0.1,0.2,0.1,0.3,0.2,0.5s0.2,0.3,0.3,0.4
		c0.2,0.3,0.4,0.5,0.6,0.8C340.7,527.4,341.2,527.7,341.7,527.9z"/>
	<path class="st1" d="M350.3,484.2l-1.2,0.5c-0.6,0.2-1.4,0.5-2.3,0.9c-2.1,0.9-4.2,1.9-6.2,3.1c-2.1,1.2-4.1,2.5-6,3.9
		c-1.6,1.2-2.9,2.1-3.2,2.3s0.6,1.1,2.3,2.3c0.9,0.7,1.9,1.3,2.9,1.8c1.1,0.6,2.3,1.2,3.5,1.8c2.2,1,4.5,1.9,6.9,2.6
		c1,0.3,1.7,0.5,2.3,0.6l0.9,0.2c0,0-0.1-1-0.2-2.1c-0.1-0.5-0.1-1.1-0.2-1.6c-0.1-0.4-0.1-0.8-0.3-1.1c-0.5-0.4-1.1-0.7-1.8-0.9
		c-1-0.4-2.3-0.8-3.5-1.3c-2.5-0.9-5-1.9-5-1.9l1.4-0.6c0.9-0.4,2-0.9,3.2-1.4l1.8-0.8l1.6-0.7c0.7-0.3,1.3-0.6,1.9-1.1
		c0.4-1.1,0.7-2.3,0.8-3.6c0.1-0.7,0.2-1.4,0.3-1.9c0-0.2,0.1-0.5,0.1-0.6L350.3,484.2z"/>
	<path class="st1" d="M354.3,516.2c-0.3,0-1.1,1-2.1,2.6c-0.5,0.8-1,1.8-1.5,2.9c-0.3,0.5-0.5,1.1-0.8,1.7s-0.5,1.2-0.7,1.8
		s-0.4,1.3-0.6,1.9s-0.4,1.3-0.5,1.9s-0.3,1.2-0.4,1.8l-0.2,0.9l-0.1,0.8c-0.3,1.4-0.4,2.9-0.4,4.4c0,0.2,0.4,0.5,1.1,0.6
		c0.4,0.1,0.7,0.2,1.1,0.2l0.7,0.1h0.8c1.2,0,2.3,0,3.5-0.1c1.3-0.1,2.6-0.3,3.9-0.6c0.3-0.1,0.6-0.1,1-0.2l1-0.2
		c0.6-0.2,1.2-0.3,1.8-0.5s1.1-0.4,1.6-0.6s1-0.4,1.5-0.6c1.8-0.8,2.9-1.5,2.8-1.9c-0.2-0.8-0.8-1.5-1.5-2c-0.3-0.3-0.7-0.5-1.1-0.6
		c-0.4-0.1-0.7-0.2-1.1-0.2c-0.7,0-3.2,1-5.6,1.6c-1.2,0.3-2.4,0.7-3.3,0.9l-1.5,0.3c0,0,0-0.4,0.2-1s0.3-1.6,0.6-2.6
		c0.3-1.2,0.7-2.4,1.2-3.5c0.5-1.3,1.1-2.5,1.9-3.6c0.4-0.6-0.5-2.2-1.3-3.6c-0.2-0.4-0.4-0.7-0.6-1l-0.3-0.5l-0.2-0.4
		C354.5,516.5,354.3,516.2,354.3,516.2z"/>
	<path class="st1" d="M377.9,540.9c-0.3,0.2-0.2,1.4,0.1,3.2c0.4,2.2,1.1,4.4,1.9,6.5c0.5,1.1,1,2.3,1.6,3.4
		c0.3,0.6,0.6,1.1,0.9,1.6s0.6,1,0.9,1.4s0.6,0.8,0.9,1.2c0.2,0.3,0.5,0.6,0.8,0.9c0.3,0.4,0.7,0.7,1.1,0.9c0.5,0,0.9-0.2,1.3-0.5
		c0.7-0.5,1.4-1,2.1-1.5c1.8-1.6,3.4-3.3,4.8-5.2c0.8-1,1.4-2,2-3c0.6-0.9,1.1-1.8,1.5-2.8c0.8-1.7,1.2-2.9,1-3.3
		c-0.3-0.7-1.6-1.1-2.8-1.4s-2.4-0.2-2.7,0.2s-1.2,2.8-2.2,5c-0.5,1-1,2-1.6,3c-0.5,0.8-1,1.4-1.4,1.5s-0.8-0.5-1.2-1.4
		c-0.5-1.1-0.8-2.3-1.1-3.4c-0.3-1.3-0.6-2.6-0.9-3.6c-0.1-0.4-0.2-0.8-0.4-1.2c-0.1-0.3-0.3-0.5-0.4-0.6c-0.3-0.1-0.8-0.2-1.4-0.4
		s-1.2-0.4-1.9-0.5c-0.6-0.2-1.2-0.3-1.8-0.4C378.7,540.6,378.3,540.7,377.9,540.9z"/>
	<path class="st1" d="M412.5,541.9c0,0.4,0.8,1.3,2.1,2.6c0.3,0.3,0.7,0.7,1,1c0.4,0.3,0.8,0.7,1.2,1c0.9,0.7,1.8,1.4,2.8,2
		s2,1.3,3,1.8c0.5,0.3,1,0.5,1.5,0.8l0.7,0.3c0.2,0.1,0.5,0.2,0.7,0.3c1.8,0.7,3.1,1.1,3.5,0.9s0.9-1.7,1.4-3.8
		c0.2-1.1,0.4-2.3,0.6-3.5c0-0.3,0.1-0.6,0.1-1l0.1-1c0-0.7,0.1-1.3,0.1-2s0-1.3,0-1.9s-0.1-1.3-0.1-1.9c-0.1-1.1-0.2-2.2-0.4-3.2
		c-0.4-1.9-0.8-3.1-1.2-3.2c-0.5,0-0.9,0.1-1.3,0.4c-0.6,0.3-1.1,0.6-1.6,1l-0.4,0.3l-0.4,0.3c-0.2,0.2-0.4,0.4-0.6,0.7
		c-0.3,0.3-0.5,0.8-0.5,1.2c0.1,0.7,0.6,3.1,0.9,5.4c0.1,1.1,0.3,2.2,0.3,3l0.1,1.3c-0.2,0.5-0.9,0.5-1.8,0.1c-1-0.5-2-1.1-2.9-1.9
		c-0.5-0.4-1-0.8-1.5-1.2l-1.4-0.9c-0.8-0.7-1.5-1.1-1.8-1c-0.9,0.1-1.8,0.3-2.6,0.7C413.2,540.9,412.5,541.3,412.5,541.9z"/>
	<path class="st1" d="M439.3,520.4c0.2,0.4,1.5,0.7,3.4,0.6c1.1,0,2.2-0.2,3.3-0.3c1.2-0.2,2.4-0.5,3.7-0.8s2.5-0.8,3.7-1.2
		c0.6-0.2,1.1-0.5,1.7-0.7s1-0.5,1.5-0.7s0.9-0.5,1.3-0.7s0.7-0.4,1-0.6c0.3-0.2,0.6-0.4,0.9-0.7c0-0.1-0.1-0.4-0.3-0.9
		c-0.1-0.2-0.3-0.5-0.5-0.8l-0.6-1c-1.2-1.7-2.4-3.3-3.8-4.8c-0.8-0.8-1.5-1.6-2.3-2.3s-1.5-1.4-2.2-2s-1.3-1-1.8-1.4
		c-0.3-0.3-0.7-0.5-1.1-0.7c-0.3-0.2-0.7-0.1-0.9,0.2c0,0-0.1,0.1-0.1,0.1c-0.3,0.5-0.5,1-0.6,1.5c-0.1,0.3-0.1,0.7-0.1,1
		c0,0.3-0.1,0.6-0.1,0.9c0,0.5,0,0.9,0.1,1.4c0.3,0.5,0.7,0.9,1.1,1.3c0.6,0.6,1.3,1.3,2,1.9l1,1l0.9,0.8l0.8,0.8L450,513
		c-0.4,0.1-0.9,0.3-1.5,0.5l-1.8,0.5l-1.8,0.5l-1.6,0.4c-0.7,0.1-1.3,0.4-1.9,0.8c-0.2,0.2-0.5,0.6-0.8,1c-0.1,0.2-0.3,0.4-0.4,0.6
		l-0.4,0.7c-0.3,0.4-0.5,0.9-0.6,1.3c-0.1,0.2-0.1,0.4-0.1,0.6C439.2,520.1,439.2,520.2,439.3,520.4z"/>
	<path class="st1" d="M332.1,485.3c0.2-0.1,0.6-0.4,1.2-0.8s1.4-0.8,2.3-1.3c2.1-1.1,4.3-2.1,6.5-3c2.2-0.8,4.4-1.5,6.6-2
		c0.9-0.2,1.7-0.4,2.3-0.5c0.4-0.1,0.8-0.1,1.2-0.2c0.4,0-0.3-1-1.4-2.5c-0.6-0.8-1.2-1.6-1.9-2.6s-1.5-2.1-2.2-3.2
		s-1.5-2.2-2.1-3.4s-1.2-2.1-1.7-3.1s-0.9-1.7-1.2-2.2l-0.4-0.9l-0.1,0.2c-0.1,0.2-0.2,0.3-0.4,0.5l-1.1,1.7c-0.2,0.3-0.4,0.6-0.6,1
		s-0.4,0.7-0.5,1c-0.2,0.5-0.4,1-0.6,1.5c0.1,0.7,0.5,1.4,1,2c0.7,1.1,1.5,2.1,2.4,3.1c0.9,1,1.9,2,2.6,2.7s1.2,1.1,1.2,1.1
		s-0.6,0-1.6,0.1s-2.2,0.2-3.5,0.4c-1.3,0.2-2.5,0.5-3.8,0.8c-0.8,0.2-1.6,0.5-2.2,1.1c-0.8,1.5-1.3,3.1-1.6,4.7
		c-0.2,1-0.3,1.9-0.4,2.6c-0.1,0.3-0.1,0.6-0.1,0.8L332.1,485.3z"/>
	<path class="st1" d="M352.5,446.3c0,0.2,0.4,0.3,0.9,0.5s1.4,0.4,2.4,0.6l3.4,0.7c1.2,0.3,2.5,0.6,3.8,1c2.6,0.7,5,1.5,7,2.3
		s3.3,1.3,3.6,1.4c0.2,0,0.4-0.2,0.5-0.8c0.2-0.7,0.4-1.5,0.5-2.2l0.3-1.5c0.1-0.5,0.2-1.1,0.3-1.7s0.2-1.2,0.4-1.8s0.2-1.3,0.4-1.9
		c0.3-1.3,0.6-2.6,0.9-3.8s0.6-2.3,0.8-3.3c0.5-2,0.6-3.4,0.2-3.5c-2.2-0.3-4.3,0.7-5.6,2.4c-0.3,0.8-0.5,1.5-0.6,2.3
		c-0.2,1.1-0.3,2.4-0.4,3.7c-0.2,2.6-0.1,4.9-0.1,4.9l-3.5-1.5c-1-0.5-2.2-0.9-3.5-1.5s-2.6-1.2-3.9-1.8c-0.4-0.2-1,0-1.9,0.5
		c-0.5,0.2-0.9,0.5-1.3,0.8c-0.5,0.3-0.9,0.7-1.4,1s-0.9,0.7-1.2,1.1s-0.8,0.7-1,1l-0.4,0.4l-0.3,0.3L352.5,446.3z"/>
	<path class="st1" d="M394.7,430.7c-0.2,0.3,0.5,1.4,1.6,3l0.9,1.2c0.3,0.4,0.7,0.9,1,1.4c0.7,1,1.4,2,2.1,3s1.4,2,2,3
		c0.3,0.5,0.6,1,0.9,1.4l0.8,1.3c0.2,0.4,0.5,0.7,0.7,1.1s0.4,0.6,0.6,0.9c0.4,0.5,0.6,0.8,0.8,0.8s0.5-0.2,1-0.5s1-0.8,1.7-1.5
		c1.4-1.2,3.2-2.8,5.1-4.4c0.9-0.8,1.9-1.5,2.8-2.3s1.8-1.4,2.5-2c1.5-1.2,2.5-2.1,2.5-2.5c-0.1-0.8-1.5-1.9-3-2.6s-3.1-1.1-3.7-0.7
		c-1.2,1.4-2.4,2.9-3.3,4.5c-0.7,1-1.4,2-2,2.8c-0.4,0.6-0.9,1.1-1.5,1.4c-0.4,0.1-0.8-0.5-1.2-1.4c-0.2-0.5-0.4-1-0.6-1.6l-0.7-1.8
		c-0.5-1.2-1-2.4-1.5-3.5c-0.5-1-1-1.6-1.4-1.6s-1.1-0.1-1.8-0.1s-1.7,0-2.5,0c-0.4,0-0.8,0.1-1.3,0.1c-0.4,0-0.7,0.1-1.1,0.2
		C395.5,430.1,395,430.3,394.7,430.7z"/>
	<path class="st1" d="M437,443.7c-0.3,0.2-0.6,1.5-0.9,3.3c-0.1,0.9-0.3,1.9-0.5,3.1l-0.3,1.7c-0.1,0.6-0.2,1.1-0.3,1.7
		c-0.2,1.2-0.4,2.3-0.6,3.4c-0.1,0.5-0.2,1-0.3,1.5s-0.2,0.9-0.3,1.4c-0.2,0.9-0.3,1.6-0.4,2.1s-0.1,0.9,0,1s0.5,0.2,1.1,0.2h1.1
		h1.3h1.6c0.6,0,1.1,0,1.8,0c1.2,0,2.5,0,3.8,0s2.6,0.1,3.9,0.2l0.9,0l0.9,0.1l1.6,0.1c2,0.1,3.4,0.1,3.5-0.3c0-0.6-0.1-1.2-0.4-1.7
		c-0.1-0.4-0.3-0.8-0.5-1.1c-0.2-0.4-0.5-0.8-0.7-1.2c-1-1.5-2.3-2.8-3.1-2.7c-0.4,0-1.2,0.1-2.2,0.3s-2.2,0.4-3.4,0.6
		s-2.2,0.5-3,0.7l-1.3,0.4c-1.1-0.2-0.3-2.5,0.5-5c0.4-1.2,0.8-2.6,1.1-3.6c0.3-0.7,0.3-1.5,0.1-2.3c-0.3-0.4-0.6-0.9-1-1.2
		c-0.4-0.5-0.9-0.9-1.4-1.3c-0.2-0.2-0.5-0.4-0.7-0.6c-0.2-0.2-0.4-0.3-0.7-0.4C437.8,443.7,437.4,443.6,437,443.7z"/>
	<path class="st1" d="M445.2,488.4c0.3,0.1,1.4-0.5,2.9-1.8c0.7-0.6,1.5-1.4,2.4-2.2c0.4-0.4,0.9-0.9,1.3-1.4s0.8-1,1.3-1.5
		s0.8-1,1.2-1.6s0.8-1.1,1.1-1.6s0.7-1.1,1-1.6s0.6-1,0.9-1.5c0.8-1.3,1.4-2.6,1.9-4c0-0.2-0.2-0.6-0.8-0.9c-0.3-0.2-0.7-0.4-1-0.6
		c-0.4-0.2-0.9-0.4-1.3-0.6c-1.1-0.4-2.2-0.8-3.3-1.1c-1.3-0.3-2.6-0.6-3.9-0.8c-1.3-0.2-2.5-0.3-3.8-0.4c-1.1,0-2.2,0-3.3,0.1
		c-1.9,0.2-3.2,0.5-3.3,0.9c0,0.4,0,0.8,0.2,1.2c0.1,0.4,0.3,0.8,0.6,1.2c0.2,0.4,0.5,0.7,0.9,0.9c0.3,0.3,0.6,0.4,1,0.5
		c0.7,0.1,1.5,0.2,2.2,0.2l1.7,0.1l1.9,0.1c1.2,0.1,2.5,0.1,3.4,0.2l1.5,0.1c0,0-0.2,0.4-0.5,0.9c-0.2,0.3-0.4,0.6-0.6,1
		s-0.5,0.8-0.8,1.3c-0.7,1-1.5,2-2.3,2.9c-0.9,1-1.9,1.9-3,2.8c-0.2,0.1-0.3,0.3-0.3,0.6c0,0.1,0,0.3,0,0.4c0,0.2,0,0.3,0,0.5
		c0,0.4,0.1,0.8,0.1,1.1c0.1,0.4,0.2,0.8,0.2,1.2s0.2,0.8,0.2,1.2s0.2,0.7,0.2,1C445.1,488,445.2,488.4,445.2,488.4z"/>
	<path class="st1" d="M431.2,457.3c0.3-0.1,0.7-1.3,1-3.1c0.1-0.5,0.1-1,0.2-1.5c0-0.3,0-0.5,0.1-0.8s0-0.5,0-0.8
		c0-1.1,0.1-2.4,0-3.7s-0.2-2.5-0.4-3.7c-0.1-0.6-0.2-1.2-0.3-1.8s-0.2-1.1-0.4-1.6s-0.3-1-0.4-1.4s-0.3-0.8-0.4-1.1
		c-0.2-0.5-0.4-0.9-0.8-1.2c-0.4-0.1-0.9-0.1-1.4,0c-0.8,0.2-1.7,0.4-2.5,0.8c-0.5,0.2-1,0.4-1.5,0.6s-1,0.5-1.6,0.8
		c-1.1,0.6-2.1,1.2-3.2,1.9c-1.9,1.2-3.7,2.7-5.3,4.2c-1.3,1.3-2.1,2.4-2.1,2.7c0.1,0.4,0.4,0.9,0.7,1.1c0.2,0.2,0.4,0.4,0.7,0.5
		c0.2,0.2,0.5,0.4,0.8,0.5c0.5,0.3,1,0.5,1.5,0.7c0.4,0.2,0.8,0.2,1.1,0c0.5-0.5,1-0.9,1.4-1.5c0.7-0.7,1.5-1.6,2.3-2.5
		c1.7-1.7,3.5-3.3,4.4-3.3c0.4,0,0.6,0.7,0.7,1.7c0.1,1.2,0,2.4-0.1,3.6c-0.1,1.3-0.3,2.6-0.4,3.6c0,0.4,0,0.9,0,1.3
		c0,0.3,0.1,0.6,0.2,0.7s0.7,0.5,1.1,0.8s1,0.8,1.6,1.1l0.4,0.3l0.4,0.2c0.2,0.2,0.5,0.3,0.8,0.4
		C430.3,457.2,430.8,457.3,431.2,457.3z"/>
	<path class="st1" d="M399,444.8c-0.1-1.1-0.5-2.2-1.1-3.2c-0.4-0.9-0.9-1.8-1.5-2.6c-0.6-0.9-1.2-1.9-1.9-2.9s-1.5-1.9-2.2-2.7
		c-0.4-0.4-0.8-0.8-1.1-1.2s-0.7-0.7-1.1-1c-1.4-1.3-2.6-2.1-3-2s-1.4,1.3-2.6,3.1c-0.6,0.9-1.1,2-1.7,3.1c-0.1,0.3-0.3,0.6-0.4,0.9
		s-0.3,0.6-0.4,0.9c-0.2,0.6-0.5,1.2-0.7,1.8s-0.4,1.2-0.6,1.8s-0.4,1.2-0.5,1.8c-0.3,1.1-0.5,2.1-0.7,3.2c-0.3,1.9-0.2,3.2,0,3.4
		c0.4,0.2,0.9,0.2,1.4,0.1c0.6-0.1,1.2-0.2,1.8-0.5c0.2,0,0.3-0.1,0.5-0.2l0.4-0.2c0.3-0.1,0.5-0.3,0.8-0.4c0.4-0.2,0.7-0.6,0.9-1
		c0.1-0.7,0.5-3.1,1-5.4c0.2-1.1,0.5-2.2,0.7-3s0.4-1.3,0.4-1.3c0.4-0.4,1-0.2,1.7,0.5c0.8,0.8,1.5,1.8,2.1,2.7
		c0.4,0.5,0.7,1.1,1,1.6l0.9,1.5c0.5,0.9,1,1.5,1.3,1.6c0.2,0,0.3,0.1,0.5,0.1l0.7,0.1c0.5,0.1,1,0.1,1.5,0.1c0.4,0,0.9,0,1.3-0.1
		C398.6,445.3,398.9,445.1,399,444.8z"/>
	<path class="st1" d="M366.5,456.1c0-0.2-0.3-0.5-0.9-0.8c-0.3-0.2-0.7-0.3-1-0.5c-0.4-0.1-0.8-0.3-1.2-0.4c-1-0.3-2.1-0.6-3.2-0.8
		c-1.2-0.2-2.5-0.3-3.8-0.4c-1.3-0.1-2.6-0.1-3.9-0.1c-0.3,0-0.6,0-0.9,0l-0.9,0.1l-1.7,0.2l-1.4,0.2l-1.1,0.2
		c-0.4,0.1-0.7,0.2-1.1,0.4c-0.1,0.3-0.1,0.6,0,0.9c0,0.2,0.1,0.6,0.2,0.9s0.2,0.7,0.3,1.1c0.5,2,1.2,3.9,2,5.8c0.4,1,0.9,2,1.4,3
		s1,1.8,1.4,2.6c0.6,1,1.3,2,2,2.9c0.6,0.7,1.4-0.2,2.1-1.2c0.2-0.3,0.3-0.6,0.5-0.9s0.3-0.6,0.4-0.9c0.2-0.4,0.3-0.9,0.4-1.3
		c-0.1-0.6-0.3-1.1-0.6-1.6c-0.4-0.7-0.8-1.6-1.3-2.5l-0.6-1.3c-0.2-0.4-0.4-0.8-0.5-1.1l-0.5-1h1.5c0.9,0,2.1,0.1,3.4,0.2l1.8,0.1
		l1.7,0.1c0.7,0.1,1.3,0.1,2-0.1c0.4-0.2,0.7-0.4,1.1-0.6c0.4-0.3,0.8-0.6,1.2-0.9C365.9,457.8,366.4,457,366.5,456.1z"/>
	<path d="M53.2,510.2c-1.1,0-2.2,0.2-3.3,0.5c-0.8,0.3-1.4,0.7-2,1.4c-0.6,0.8-1,1.7-1.3,2.7c-0.6,1.8-1.4,3.5-2.2,5.2l-3,6
		c-1,2-1.9,3.8-2.7,5.5c-0.6,1.2-1.1,2.5-1.5,3.8c-0.1,1.1-0.5,2.2-1.1,3.2c-0.4,0.5-1,0.8-1.7,0.9c-1,0.1-2.1,0.2-3.4,0.4
		s-2.6,0.3-3.8,0.4s-2.3,0.2-3.3,0.2s-1.5,0.1-1.7,0.1c-0.5,0-0.9-0.3-1.1-0.8c-0.2-0.5-0.4-1-0.4-1.5c-0.1-0.9,0.1-1.8,0.4-2.7
		c0.3-0.5,0.8-0.8,1.4-0.9c1.6-0.4,3-1.1,4.3-2.1c1.8-1.4,3.1-3.3,3.7-5.4c0.7-1.7,1.5-3.4,2.5-5l5.4-9.9c2.1-3.9,4.4-8.1,6.8-12.6
		c2.4-4.5,4.7-9,6.7-13.3c2-4.3,3.7-8.4,5.1-12.1c1.1-2.8,1.8-5.8,2-8.9c0-0.4-0.1-0.8-0.3-1.2c-0.2-0.5-0.4-1.1-0.6-1.8l-0.6-1.8
		c-0.2-0.4-0.3-0.8-0.3-1.2c0.1-0.6,0.4-1.2,0.9-1.6c0.7-0.6,1.4-1.2,2.2-1.6c0.8-0.5,1.7-0.9,2.6-1.3c0.6-0.3,1.3-0.4,2-0.5
		c0.6,0,1.5,0.6,2.7,1.8c1.2,1.2,2.2,2.7,2.9,4.2c3.2,6.9,6.7,14.2,10.3,22s8.2,16.5,13.6,26.1c3.4,6,6.3,10.8,8.7,14.3
		c2.3,3.5,4.2,6.2,5.7,8.1c1.4,1.9,2.4,3.1,3.1,3.8s0.9,1.2,0.9,1.4c0.1,0.9-0.3,1.7-1.1,2.1c-0.7,0.3-1.5,0.5-2.2,0.5
		c-0.6,0-1.4,0-2.4-0.1s-2.2-0.2-3.3-0.4s-2.2-0.4-3.2-0.6c-0.8-0.1-1.5-0.3-2.2-0.6c-0.9-0.2-1.7-0.9-2.2-1.8
		c-0.6-1.1-1.1-2.2-1.4-3.4c-0.3-0.9-0.9-2.3-1.8-4.4s-1.9-4.1-2.9-6.3c-1.1-2.1-2.1-4-3-5.7s-1.7-2.6-2.2-2.8
		c-1.6-0.6-3.2-1-4.9-1.2c-2.3-0.3-4.8-0.6-7.4-0.8s-5.3-0.3-7.9-0.4s-4.6-0.1-6-0.1C56.5,510.1,54.6,510.2,53.2,510.2z M69.9,481.4
		c-0.9-1.6-1.6-3.3-2.2-5.1c-0.3-1.2-0.8-1.8-1.5-1.8c-0.3,0-0.6,0.2-0.8,0.6c-0.3,0.5-0.5,1.1-0.7,1.6c-0.2,0.7-0.4,1.3-0.6,2
		c-0.2,0.6-0.4,1.3-0.7,1.9l-7.4,15.2c-1,2.2-1.8,3.8-2.3,4.6c-0.4,0.6-0.6,1.3-0.7,2.1c0,0.7,0.8,1,2.4,1h25.9L69.9,481.4z"/>
	<path d="M168.4,541.2c-0.1,1.6-0.3,3.3-0.6,4.9c-0.2,1.5-0.6,2.9-1.1,4.3c-0.4,1.2-1,1.9-1.6,1.9c-0.6,0-1.2-0.1-1.7-0.4
		c-0.7-0.2-1.3-0.5-1.9-0.9c-0.5-0.4-1-0.8-1.5-1.2c-0.4-0.3-0.6-0.8-0.6-1.4c0-1,0-2,0.1-3.2s0.2-3,0.3-5.3s0.2-5.5,0.3-9.6
		s0.1-9.4,0.1-16.1c0-1.3-0.1-2.6-0.3-3.9c-0.2-0.9-0.4-1.7-0.7-2.6c-0.3-0.8-0.5-1.5-0.7-2.2c-0.2-0.8-0.3-1.7-0.3-2.5
		c0-1.5,0.2-2.9,0.6-4.3c0.4-1.4,0.7-2.9,0.6-4.4c0-0.6-0.1-1.7-0.2-3.4s-0.3-3.5-0.4-5.6s-0.3-4.1-0.5-6.3s-0.3-3.9-0.4-5.4
		c-1.1-1.5-2-3.2-2.9-4.9c-0.7-1.2-1-2.6-1.1-4c0.1-0.8,0.4-1.5,0.9-2.1c0.7-1,1.4-1.9,2.3-2.6c0.9-0.8,1.8-1.6,2.8-2.2
		c0.7-0.5,1.5-0.9,2.4-0.9c1.4,0,2.7,0.1,4.1,0.4c2.1,0.3,4.2,0.4,6.4,0.4c3.1,0,6.3-0.1,9.9-0.2c3.5-0.1,6.9-0.3,10.1-0.4
		c3.2-0.1,6.1-0.3,8.6-0.4c2.5-0.1,4.3-0.2,5.4-0.2c0.4,0,0.7,0.1,1,0.3c0.4,0.2,0.6,0.7,0.6,1.1c0,0.4-0.1,0.9-0.3,1.3
		c-0.2,0.6-0.5,1.1-0.9,1.6c-0.3,0.5-0.7,1-1.1,1.5c-0.4,0.4-0.8,0.7-1.4,0.8c-2.2,0.4-4.9,0.7-8,1.1l-9.6,1l-9.1,0.9
		c-2.8,0.3-5,0.6-6.7,0.9c-0.4,0.1-0.8,0.3-1.1,0.7c-0.4,1-0.6,2-0.6,3c-0.3,2.8-0.4,6-0.5,9.7s-0.1,7.4-0.1,11.1
		c0,1.2,0,2.5,0.1,3.6s0.1,2.4,0.1,3.6h11.3c4.4,0,8.8-0.2,13.2-0.8c3.1-0.5,6.1-0.7,9.2-0.8c1.8,0,2.7,0.9,2.7,2.6
		c0.1,1.3-0.3,2.5-1,3.6c-0.6,0.8-1.5,1.3-2.4,1.3c-1.6,0-4,0.1-7.1,0.4s-6.4,0.5-9.7,0.9s-6.6,0.7-9.7,1.1s-5.5,0.7-7.1,1v29.9
		C168.5,538.4,168.5,539.6,168.4,541.2z"/>
	<path d="M289.8,457.6c3,3.9,4.5,8.8,4.4,13.7c0,2.8-0.3,5.6-1.1,8.2c-0.6,2.2-1.6,4.3-2.8,6.3c-1,1.6-2.3,3.1-3.7,4.4
		c-1.2,1-2.5,1.9-3.9,2.6l-10.2,4.6v0.3c0.9,0.2,1.8,0.4,2.7,0.7c0.8,0.3,1.5,0.9,2,1.6c4,5,7.9,9.4,11.7,13.3
		c3.8,3.9,7.1,7.2,10.1,10c3,2.8,5.3,5,7.2,6.6c1.8,1.6,2.7,2.6,2.7,3c0,0.6-0.1,1.2-0.4,1.8c-0.4,0.7-0.9,1.4-1.5,1.9
		c-0.9,0.8-1.5,1.5-1.9,1.9c-0.4,0.4-0.9,0.6-1.4,0.6h-2.3c-0.7,0-1.4-0.1-2.1-0.4c-0.8-0.4-1.5-1-2.1-1.8c-1.3-1.6-2.9-3.6-4.8-5.9
		s-4.5-5.3-7.8-8.9l-15.5-16.8c-0.8-0.9-1.8-1.6-2.9-2.1c-1.1-0.3-2.2-0.5-3.4-0.5c-0.1,1.5-0.2,3.2-0.2,5s-0.1,3.9-0.1,6.3v23.3
		c0,0.7-0.2,1.5-0.6,2.1c-0.5,0.7-1.3,1-2.1,0.9c-0.9,0-1.8-0.2-2.7-0.4c-1.2-0.3-2.3-0.7-3.4-1.1c-1.1-0.4-2.1-1-3-1.7
		c-0.7-0.4-1.2-1.1-1.3-1.9c0.1-0.7,0.4-1.3,0.8-1.9c0.5-0.8,1.2-1.7,1.9-2.7c0.3-0.5,0.6-2.1,0.8-4.8s0.4-5.8,0.6-9.2
		s0.3-6.8,0.4-10.2s0.1-5.9,0.1-7.6v-7.6c0-4-0.1-7.8-0.2-11.5c-0.1-3.7-0.4-6.8-0.6-9.4c0-0.6-0.3-1.2-0.8-1.5
		c-0.4-0.2-0.9-0.5-1.3-0.6c-0.5-0.2-0.9-0.5-1.2-0.9c-0.4-0.6-0.6-1.3-0.6-2.1c-0.1-1.5,0.6-2.9,1.9-3.7c2.3-1.7,4.8-3.1,7.4-4.4
		c2.4-1.1,4.8-2.1,7.3-2.9c2-0.7,4.1-1.2,6.2-1.6c1.4-0.3,2.9-0.5,4.4-0.5C282.5,452,286.9,453.9,289.8,457.6z M265.5,494.4
		c1.2-0.3,2.3-0.8,3.4-1.4c2.2-1.1,4.3-2.5,6.3-4.1c2.3-1.9,4.4-4.1,6-6.6c1.8-2.7,2.7-5.8,2.6-9c0-4.8-1-8.1-2.9-10.1
		c-1.8-1.9-4.3-3-6.9-2.9c-1.8,0-3.5,0.4-5.2,1.1c-1.7,0.7-3.2,1.9-4.3,3.4c-0.4,1.2-0.6,2.5-0.7,3.7c-0.2,1.6-0.4,3.5-0.5,5.6
		c-0.1,2.1-0.3,4.3-0.4,6.5c-0.1,2.3-0.1,4.4-0.1,6.4v6.2C263.2,494,264.1,494.4,265.5,494.4L265.5,494.4z"/>
	<path d="M503.1,541.7c-0.9-0.1-1.7-0.3-2.5-0.4l-8-1c-1.2-0.1-2.4-0.4-3.5-0.8c-0.7-0.3-1.1-0.9-1.1-1.6c0-0.7,0.2-1.3,0.6-1.8
		c0.4-0.4,0.9-0.9,1.4-1.5c0.6-0.7,1.1-1.5,1.5-2.4c0.6-1.4,0.8-2.9,0.9-4.4c0.3-5.7,0.5-11.6,0.7-17.6c0.2-6,0.3-11.6,0.3-16.8
		c0-2.1-0.1-4.4-0.2-6.8c-0.1-2.4-0.3-4.9-0.6-7.2c-0.2-2.4-0.5-4.6-0.8-6.7s-0.6-3.7-0.9-5.1c-0.1-0.7-0.5-1.3-1.2-1.5
		c-0.6-0.2-1.2-0.3-1.9-0.4c-0.6-0.1-1.2-0.3-1.7-0.5c-0.5-0.2-0.8-0.9-0.8-1.9c-0.1-1.1,0.3-2.1,1.1-2.8c1.5-0.9,3.1-1.5,4.8-1.9
		l10-2.9c2.1-0.6,3.8-1,5.1-1.2c1-0.2,2-0.3,2.9-0.4c0.3,0,1.4,0.1,3.4,0.3c2.4,0.3,4.9,0.8,7.2,1.4c3.1,0.9,6.2,2,9.1,3.4
		c3.3,1.5,6.4,3.6,9,6.1c2.8,2.8,5.2,6,6.8,9.7c1.9,4.4,2.9,9.2,2.7,14c0,5-0.1,9.3-0.4,13.1c-0.2,3.4-0.7,6.8-1.5,10.1
		c-0.7,2.8-1.6,5.5-2.8,8.1c-1.2,2.5-2.6,5-4.3,7.2c-1.2,1.6-2.7,3-4.4,4.1c-2,1.3-4,2.5-6.2,3.5c-2.2,1.1-4.6,2-6.9,2.9
		s-4.6,1.6-6.7,2.2s-3.8,1-5.4,1.4c-1,0.3-2.1,0.4-3.1,0.5C504.9,542,504,541.9,503.1,541.7z M502.2,515.8c0,3.5-0.1,6.7-0.1,9.7
		c0,3.6,0.4,5.9,1.1,6.9c1,1,2.3,1.6,3.7,1.4c4.1,0,8.3-0.5,12.2-1.7c3.7-1.2,7-3.4,9.5-6.3c3-3.6,5.1-7.9,6.2-12.5
		c1.5-5.2,2.2-12,2.2-20.2c0-6-1-11-3.2-15c-1.8-3.7-4.3-6.9-7.4-9.7c-2.5-2.2-5.3-4-8.4-5.2c-2-0.9-4-1.4-6.2-1.6
		c-1.8,0-3.6,0.3-5.3,0.9c-1.6,0.5-3.2,1.2-4.6,2.1v40.5C502.3,508.8,502.2,512.3,502.2,515.8L502.2,515.8z"/>
	<path d="M592.3,484.2c-0.1-2.9-0.2-5.5-0.2-8c0-1.1,0-2.2-0.2-3.4c-0.1-0.9-0.4-1.7-1-2.4c-0.8-0.8-1.4-1.8-1.9-2.8
		c-0.3-0.7-0.5-1.5-0.5-2.4c0.2-0.9,0.6-1.8,1.3-2.4c0.9-1.1,1.9-2.1,3-3c1.1-0.9,2.3-1.8,3.5-2.5c0.8-0.6,1.8-0.9,2.8-1.1
		c1.3,0.1,2.5,0.5,3.6,1.2c1.3,0.8,2,1.5,2,2.1c0,1.2-0.2,2.4-0.7,3.5c-0.5,1.4-0.7,2.8-0.8,4.2c-0.4,4.2-0.7,11.2-0.9,21.1
		c-0.2,9.9-0.4,23.4-0.3,40.5c0,5.7-0.4,9.5-1.1,11.4c-0.7,1.9-1.9,2.8-3.5,2.8c-0.6,0-1.2-0.1-1.8-0.4c-0.7-0.4-1.1-1-1.4-1.8
		c-0.5-1.4-0.8-2.9-0.9-4.4c-0.2-2-0.4-4.7-0.5-8.2s-0.2-7.9-0.2-13.2s-0.1-11.7-0.1-19.2C592.6,491,592.5,487.1,592.3,484.2z"/>
	<path d="M646.4,532.3c0.3-0.4,0.8-0.6,1.4-0.6c1.7,0.1,3.3,0.6,4.7,1.4c2.1,1,4.4,1.4,6.7,1.4c2.4,0.1,4.7-0.9,6.2-2.7
		c1.5-1.6,2.3-3.6,2.4-5.8c-0.1-2.3-0.5-4.6-1.4-6.7c-0.9-2.6-2-5.3-3.4-8.2c-1.3-2.9-2.8-5.9-4.4-9s-3-6.1-4.4-9s-2.5-5.6-3.4-8.2
		c-0.8-2.1-1.3-4.3-1.4-6.6c0.2-2.4,0.9-4.8,1.9-6.9c1.4-3.2,3.1-6.2,5.2-9.1c2.1-3,4.6-5.7,7.5-8c2.5-2.1,5.6-3.3,8.8-3.4
		c0.7,0,1.7,0.1,2.9,0.2c1.3,0.1,2.5,0.4,3.8,0.7c1.1,0.3,2.2,0.7,3.3,1.3c0.8,0.3,1.4,1.1,1.4,1.9c0,1.9-0.4,3.1-1.1,3.7
		c-0.7,0.6-2.4,0.9-5.1,1c-6.3,0.2-10.8,1.6-13.6,4.4c-2.7,2.6-4.2,6.3-4.2,10.1c0.2,3.3,1,6.4,2.4,9.4c1.6,3.8,3.4,7.8,5.4,12.2
		c2,4.3,3.8,8.8,5.4,13.5c1.6,4.2,2.4,8.7,2.4,13.3c-0.1,1.6-0.4,3.2-0.7,4.7c-0.5,2.6-1.4,5-2.7,7.4c-1.3,2.6-3.1,4.9-5.2,6.8
		c-2.3,2.1-5.3,3.1-8.4,3c-1.1,0-2.2-0.2-3.3-0.4c-1.3-0.3-2.7-0.7-3.9-1.2c-1.2-0.4-2.3-0.9-3.4-1.5c-0.7-0.3-1.4-0.8-1.8-1.5
		c-0.3-0.9-0.5-1.7-0.7-2.5c-0.2-0.9-0.3-1.8-0.3-2.7C645.7,533.7,645.9,532.9,646.4,532.3z"/>
	<path d="M729.2,484.2c-0.1-2.9-0.2-5.5-0.2-8c0-1.3,0-2.5-0.1-3.4c-0.1-0.9-0.4-1.7-1-2.4c-0.8-0.8-1.5-1.8-1.9-2.8
		c-0.3-0.7-0.5-1.5-0.5-2.4c0.2-0.9,0.6-1.8,1.3-2.4c0.9-1.1,1.9-2.1,3-3c1.1-0.9,2.3-1.8,3.5-2.5c0.8-0.6,1.8-1,2.8-1.1
		c1.3,0.1,2.5,0.5,3.6,1.2c1.3,0.8,2,1.5,2,2.1c0,1.2-0.2,2.4-0.6,3.5c-0.5,1.4-0.7,2.8-0.8,4.2c-0.4,4.2-0.7,11.2-0.9,21.1
		c-0.2,9.9-0.3,23.4-0.3,40.6c0,5.7-0.4,9.5-1.1,11.4c-0.7,1.9-1.9,2.8-3.5,2.8c-0.6,0-1.2-0.1-1.8-0.4c-0.7-0.4-1.1-1-1.4-1.8
		c-0.5-1.4-0.8-2.9-0.9-4.4c-0.2-2-0.4-4.7-0.5-8.2s-0.2-7.9-0.2-13.2s-0.1-11.7-0.1-19.2C729.5,491,729.4,487.1,729.2,484.2z"/>
	<path d="M814.9,510.2c-1.1,0-2.2,0.2-3.3,0.5c-0.8,0.3-1.4,0.7-1.9,1.4c-0.6,0.8-1,1.7-1.3,2.7c-0.6,1.8-1.4,3.5-2.2,5.2l-3,6
		c-1,2-1.9,3.8-2.7,5.5c-0.6,1.2-1.1,2.5-1.5,3.8c-0.1,1.1-0.5,2.2-1.1,3.2c-0.4,0.5-1,0.8-1.6,0.9c-1,0.1-2.1,0.2-3.4,0.4
		s-2.6,0.3-3.8,0.4s-2.3,0.2-3.3,0.2s-1.5,0.1-1.7,0.1c-0.5,0-0.9-0.3-1.1-0.8c-0.2-0.5-0.4-1-0.4-1.5c-0.1-0.9,0.1-1.8,0.4-2.7
		c0.3-0.5,0.8-0.8,1.4-0.9c1.6-0.4,3-1.1,4.4-2.1c1.7-1.4,3-3.2,3.7-5.4c0.7-1.8,1.5-3.5,2.5-5.1l5.4-9.9c2.1-3.9,4.4-8.1,6.8-12.6
		c2.4-4.5,4.7-9,6.7-13.3c2.1-4.3,3.7-8.4,5.1-12.1c1.1-2.8,1.8-5.8,2-8.9c0-0.4-0.1-0.8-0.3-1.2c-0.2-0.5-0.4-1.1-0.7-1.8l-0.6-1.8
		c-0.2-0.4-0.3-0.8-0.3-1.2c0.1-0.6,0.4-1.2,0.9-1.6c0.7-0.6,1.4-1.2,2.2-1.6c0.8-0.5,1.7-0.9,2.6-1.3c0.6-0.3,1.3-0.4,2-0.5
		c0.6,0,1.5,0.6,2.7,1.8c1.2,1.2,2.2,2.7,2.9,4.2c3.2,6.9,6.7,14.2,10.3,22.1c3.6,7.8,8.2,16.5,13.6,26.1c3.4,6,6.3,10.8,8.7,14.3
		c2.3,3.5,4.2,6.2,5.7,8.1c1.4,1.9,2.5,3.1,3.1,3.8c0.6,0.7,0.9,1.2,0.9,1.4c0.1,0.8-0.3,1.7-1.1,2.1c-0.7,0.3-1.5,0.5-2.2,0.5
		c-0.6,0-1.4,0-2.4-0.1s-2.1-0.2-3.3-0.4s-2.2-0.4-3.2-0.6c-0.8-0.1-1.5-0.3-2.2-0.6c-0.9-0.3-1.7-0.9-2.1-1.7
		c-0.6-1.1-1.1-2.2-1.4-3.4c-0.3-0.9-0.9-2.3-1.8-4.4s-1.9-4.1-3-6.3c-1-2.1-2-4-3-5.7s-1.7-2.6-2.2-2.8c-1.6-0.6-3.2-1-4.9-1.2
		c-2.3-0.3-4.8-0.6-7.5-0.8s-5.3-0.3-7.9-0.4s-4.6-0.1-6-0.1C818.2,510.1,816.3,510.2,814.9,510.2z M831.6,481.4
		c-0.9-1.6-1.6-3.3-2.2-5.1c-0.3-1.2-0.8-1.8-1.5-1.8c-0.3,0-0.5,0.2-0.8,0.6c-0.3,0.5-0.5,1.1-0.7,1.6c-0.2,0.7-0.5,1.3-0.7,2
		c-0.2,0.6-0.4,1.3-0.7,1.9l-7.5,15.2c-1.1,2.2-1.8,3.8-2.3,4.6c-0.4,0.6-0.6,1.3-0.7,2.1c0,0.7,0.8,1,2.4,1h25.9L831.6,481.4z"/>
	<path d="M918,487.8c1.4-4.7,3.5-9.2,6.2-13.2c2.4-3.5,5.4-6.5,8.8-9c3.2-2.3,6.6-4.1,10.2-5.5c3.3-1.3,6.8-2.3,10.4-2.9
		c3-0.5,6-0.8,9.1-0.8c4,0,7.1,0.8,9.3,2.3s3.3,3,3.3,4.4c-0.1,0.8-0.4,1.5-0.9,2.1c-0.6,0.9-1.3,1.7-2.1,2.4
		c-0.8,0.7-1.6,1.4-2.6,1.9c-0.7,0.4-1.4,0.7-2.2,0.8c-0.7-0.1-1.3-0.4-1.7-1c-0.5-0.7-1.2-1.4-1.9-2.2c-0.8-0.9-1.7-1.6-2.7-2.2
		c-1.2-0.7-2.5-1-3.9-1c-4.1-0.1-8.2,0.7-12,2.4c-3.2,1.5-6.2,3.5-8.7,6c-2.4,2.4-4.4,5.2-5.9,8.2c-1.5,2.9-2.7,5.9-3.6,9
		c-0.8,2.7-1.4,5.5-1.8,8.2c-0.3,2-0.5,4-0.5,5.9c0.1,3.2,0.7,6.4,1.8,9.4c1.2,3.5,2.9,6.8,5.1,9.8c2.2,3,4.9,5.6,8,7.7
		c3,2,6.6,3.1,10.2,3.1c3.2,0,6.4-0.6,9.4-1.8c2.6-1.1,5.1-2.4,7.4-4c2.1-1.5,4-2.8,5.5-4c1.5-1.2,2.7-1.8,3.6-1.8
		c0.8,0,1.6,0.3,2.2,0.9c0.5,0.6,0.8,1.4,0.8,2.2c-0.1,0.7-0.5,1.4-0.9,1.9c-0.8,1.1-1.6,2.1-2.6,3.1c-1.1,1.1-2.3,2.3-3.7,3.5
		c-1.4,1.2-2.9,2.2-4.5,3.1c-1.2,0.7-2.5,1.2-3.9,1.6c-1.7,0.6-3.5,1-5.3,1.4c-1.9,0.4-3.9,0.7-6,0.9c-2,0.2-4,0.4-6,0.4
		c-3.2-0.1-6.3-0.7-9.3-1.7c-3.7-1.2-7.1-3.2-10-5.8c-3.4-3-6.1-6.7-8-10.7c-2.2-4.4-3.2-9.9-3.2-16.5
		C915.6,499.9,916.3,493.7,918,487.8z"/>
</g>
</svg>
