<?xml version="1.0" standalone="no"?>
<!DOCTYPE svg PUBLIC "-//W3C//DTD SVG 20010904//EN"
 "http://www.w3.org/TR/2001/REC-SVG-20010904/DTD/svg10.dtd">
<svg version="1.0" xmlns="http://www.w3.org/2000/svg"
 width="2334.000000pt" height="2334.000000pt" viewBox="0 0 2334.000000 2334.000000"
 preserveAspectRatio="xMidYMid meet">
<metadata>
Created by potrace 1.11, written by Peter Selinger 2001-2013
</metadata>
<g transform="translate(0.000000,2334.000000) scale(0.100000,-0.100000)"
fill="#000000" stroke="none">
<path d="M7245 17693 c-457 -36 -722 -78 -1070 -168 -1658 -429 -2829 -1568
-3437 -3345 -186 -544 -298 -1123 -355 -1830 -24 -304 -24 -1096 0 -1400 81
-1010 278 -1771 657 -2547 303 -621 684 -1127 1170 -1556 712 -628 1613 -1026
2622 -1161 308 -41 462 -50 838 -50 910 2 1617 101 2385 334 260 79 583 198
788 290 l47 21 0 2829 0 2830 -1660 0 -1660 0 0 -640 0 -640 925 0 925 0 -2
-1712 -3 -1712 -110 -49 c-314 -141 -639 -219 -1090 -263 -229 -23 -850 -26
-1025 -6 -818 94 -1423 377 -1936 904 -622 640 -1002 1572 -1134 2787 -39 359
-45 496 -45 1036 0 542 5 664 46 1030 79 717 253 1324 543 1890 192 375 384
643 661 921 437 438 920 706 1548 859 327 80 582 108 962 108 784 -1 1475
-138 2143 -425 90 -39 164 -69 166 -67 12 17 305 1164 299 1170 -4 4 -78 39
-164 77 -630 281 -1297 430 -2149 482 -148 9 -785 11 -885 3z"/>
<path d="M13285 14953 c-357 -12 -1024 -55 -1145 -74 -59 -9 -108 -20 -224
-50 l-39 -11 6 -576 c21 -1856 19 -3053 -9 -4189 l-6 -253 1297 0 1298 0 -6
403 c-4 221 -10 916 -14 1545 l-6 1142 29 0 c45 0 286 -29 424 -51 445 -70
811 -171 1149 -317 344 -149 594 -315 831 -552 453 -453 652 -949 653 -1625 0
-227 -12 -333 -58 -517 -84 -329 -275 -658 -549 -945 -568 -595 -1455 -945
-2771 -1093 -401 -45 -551 -52 -1207 -57 -571 -5 -638 -7 -638 -21 0 -26 290
-2256 295 -2271 4 -11 124 -12 718 -8 688 5 787 8 1187 42 919 79 1798 274
2550 568 510 199 1062 505 1485 822 898 674 1454 1538 1639 2545 76 414 87
938 30 1385 -108 847 -451 1584 -1044 2241 -533 591 -1484 1185 -2377 1483
-920 308 -2271 475 -3498 434z"/>
</g>
</svg>
