<?xml version="1.0" encoding="utf-8"?>
<!-- Generator: Adobe Illustrator 25.3.1, SVG Export Plug-In . SVG Version: 6.00 Build 0)  -->
<svg version="1.1" id="Layer_1" xmlns="http://www.w3.org/2000/svg" xmlns:xlink="http://www.w3.org/1999/xlink" x="0px" y="0px"
	 viewBox="0 0 1000 1000" style="enable-background:new 0 0 1000 1000;" xml:space="preserve">
<style type="text/css">
	.st0{fill:#FFFFFF;stroke:#000000;stroke-width:1.1785;stroke-miterlimit:10;}
	.st1{fill:none;stroke:#231F20;stroke-width:3;stroke-miterlimit:10;}
	.st2{fill:#231F20;}
	.st3{font-family:'Herculanum';}
	.st4{font-size:105px;}
</style>
<rect class="st0" width="1000" height="1000"/>
<g id="Layer_2_1_">
	<path class="st1" d="M439.9,539.6L439.9,539.6c-21.3,0-38.5-17.2-38.5-38.5v0v-2.3c0-21.3,17.2-38.5,38.5-38.5h0l0,0
		c21.3,0,38.5,17.2,38.5,38.5v0v2.3C478.4,522.4,461.2,539.6,439.9,539.6L439.9,539.6z M448.7,457.4l-8.3-0.9h-0.5
		c-23.4,0-42.3,19.5-42.3,43.6l0,0c0,0.4,0,0.9,0,1.3 M397.6,501.3l0.8,7.3c3.9,19.9,21,35,41.5,35l0,0h1.1 M441,543.6l7.6-0.9
		c16.5-3.5,29.5-17,32.8-34 M481.4,508.7l0.8-7c0-0.5,0-1,0-1.6l0,0c0-21-14.4-38.5-33.6-42.6 M442,456.2c4.5-1.1,7.6-5.1,7.5-9.7
		l0,0c0.1-5.4-4.2-9.8-9.6-9.9l0,0c-5.4,0.1-9.7,4.5-9.6,9.9l0,0c-0.1,5.4,4.2,9.8,9.6,9.9c0,0,0,0,0,0l0,0
		C440.6,456.4,441.3,456.3,442,456.2 M448.4,457.3c3.2-2.7,5-6.6,5-10.8l0,0c0.1-7.5-5.9-13.8-13.5-13.9c0,0,0,0,0,0l0,0
		c-7.5,0.1-13.6,6.3-13.5,13.9c0,0,0,0,0,0l0,0c0,4.2,1.8,8.2,5.1,10.8 M439.2,460.3h0.7c3.1,0,6.1-1.1,8.5-3.1 M449.5,553.7v-0.6
		c0-5.3-4.3-9.6-9.6-9.6l0,0c-5.3,0-9.6,4.3-9.6,9.6v0.6c0,5.3,4.3,9.6,9.6,9.6l0,0C445.2,563.4,449.5,559.1,449.5,553.7
		L449.5,553.7z M431.5,542.6c-3.3,2.7-5.1,6.7-5.1,10.9l0,0c-0.1,7.5,5.9,13.8,13.5,13.9c0,0,0,0,0,0l0,0
		c7.5-0.1,13.6-6.3,13.5-13.9c0,0,0,0,0,0l0,0c0.1-7.5-5.9-13.8-13.5-13.9l0,0c-0.2,0-0.5,0-0.7,0 M501.4,500.2v-0.6
		c0-5.3-4.3-9.6-9.6-9.6c0,0,0,0,0,0l0,0c-5.3,0-9.6,4.3-9.6,9.6v0.6c0,5.3,4.3,9.6,9.6,9.6l0,0
		C497.1,509.9,501.4,505.6,501.4,500.2C501.5,500.3,501.5,500.3,501.4,500.2L501.4,500.2z M478.4,498.5c0,0.5-0.1,1-0.1,1.5l0,0
		c-0.1,7.5,5.9,13.8,13.5,13.9l0,0c7.5-0.1,13.6-6.3,13.5-13.8l0,0c0.1-7.5-5.9-13.8-13.5-13.9c0,0,0,0,0,0l0,0
		c-4.1,0-8,1.9-10.5,5.2 M397.6,500.3v-0.6c0-5.3-4.3-9.6-9.6-9.7c0,0,0,0,0,0l0,0c-5.3,0-9.6,4.3-9.6,9.6v0.6
		c0,5.3,4.3,9.6,9.6,9.6l0,0C393.3,509.9,397.6,505.6,397.6,500.3L397.6,500.3z M401.3,498.3l-2.8-6.9c-2.5-3.3-6.4-5.3-10.5-5.3
		l0,0c-7.5,0.1-13.6,6.3-13.5,13.8c0,0,0,0,0,0l0,0c-0.1,7.5,5.9,13.8,13.5,13.9c0,0,0,0,0,0l0,0c7.5-0.1,13.5-6.3,13.4-13.9l0,0
		C401.4,499.4,401.4,498.8,401.3,498.3"/>
	<text transform="matrix(1.03 0 0 1 175.6504 526.8799)" class="st2 st3 st4">AFR</text>
	<text transform="matrix(1 0 0 1 513.24 525.63)" class="st2 st3 st4">DISIAC</text>
</g>
</svg>
