<svg id="Layer_1" data-name="Layer 1" xmlns="http://www.w3.org/2000/svg" xmlns:xlink="http://www.w3.org/1999/xlink" viewBox="0 0 1000 1000"><defs><style>.cls-1{fill:url(#Gold1_2);}.cls-2{font-size:109.71px;font-family:Herculanum;}.cls-3{fill:url(#Gold1_2-2);}</style><linearGradient id="Gold1_2" x1="372.08" y1="434.99" x2="624.35" y2="434.99" gradientUnits="userSpaceOnUse"><stop offset="0" stop-color="#8b6a29"/><stop offset="0.46" stop-color="#fdca0b"/><stop offset="0.78" stop-color="#e0af0c"/><stop offset="1" stop-color="#5a3312"/></linearGradient><linearGradient id="Gold1_2-2" x1="207.56" y1="652.24" x2="788.6" y2="652.24" xlink:href="#Gold1_2"/></defs><rect width="1000" height="1000"/><path class="cls-1" d="M495.07,303.71c-16.44,2.23-28.91,11.74-38.1,29.07-3.55,6.69-5.09,13.21-4.57,19.38s3.16,12.34,7.84,18.14c5.56,6.87,10.57,12.73,15.33,17.91,2.58,2.79,2.67,5.06.34,7.81-6.11,7.18-12.36,14.73-18.59,22.43a5.29,5.29,0,0,1-3.95,2.33,6,6,0,0,1-3.47-1.37l-2-1.43A79.49,79.49,0,0,0,436,410.33l-1-.5c-6.32-3.05-12.86-6.2-19.52-7.32a22.19,22.19,0,0,0-3.7-.32c-7.23,0-14,3.47-22.1,11.25A57.79,57.79,0,0,0,373.86,439a44.64,44.64,0,0,0,2.42,31.4,46.81,46.81,0,0,0,14.26,17.9,35.43,35.43,0,0,0,21.25,7.39c8.32,0,16.55-3.1,24.48-9.21,4.17-3.22,7.52-7.3,11.07-11.61a110.74,110.74,0,0,1,7.41-8.44c1.59-1.58,3.18-3.21,5-5.13l1.16-1.21,1.18,1.18c3,2.95,6.05,6,9,8.91,2.69,2.64,5.24,5.14,7.44,7.33l.91.91-.67,1.1c-1.57,2.57-3.16,5.05-4.69,7.45a162.38,162.38,0,0,0-8.89,15,44.61,44.61,0,0,0-2.43,33.6,43,43,0,0,0,21.46,25.51c8.42,4.26,16.6,6.42,24.32,6.42a41.07,41.07,0,0,0,23.74-7.67c7.55-5.24,13.31-14.6,15.78-25.67s1.46-22.58-2.73-31.75c-5.71-12.5-15.57-21.19-23.53-27.37-.92-.71-1.78-1.46-2.78-2.32l-1.57-1.34-1.25-1.06,1.06-1.24,11.84-14,7.65-9.05,1.06-1.25,1.24,1.06c.8.67,1.57,1.34,2.33,2,1.62,1.41,3.15,2.73,4.76,4,11.28,8.58,21.77,13,33,13.87,1.16.1,2.32.14,3.47.14a41.72,41.72,0,0,0,34.56-18.29,40.71,40.71,0,0,0,4.14-38.45A54.33,54.33,0,0,0,598.28,382a33.75,33.75,0,0,0-17.42-5.25c-8.65,0-16.84,4.08-23.67,11.81-3.6,4.07-7.27,8-11.15,12.11-1.76,1.88-3.58,3.82-5.41,5.79l-1,1.05-1.17-.83-18.7-13.35-1.3-.93.9-1.32c1.93-2.85,3.87-5.57,5.74-8.21A172.68,172.68,0,0,0,536,366.28c4.21-7.65,6.43-15,6.61-22a36.34,36.34,0,0,0-6.73-21.71c-8.77-12.84-20.32-19.35-34.33-19.35v-.82h0v.82A48.59,48.59,0,0,0,495.07,303.71ZM459.72,424.1l10.89-12.88,11.58-13.7,1.13-1.34,1.26,1.23,10.36,10.1,1.09,1.06-1,1.16c-.86,1-1.73,2-2.6,3-1.9,2.21-3.86,4.49-5.67,6.8-3.24,4.13-6.35,8.4-9.22,12.4-.52.72-2.1,2.92-4.59,2.92a6,6,0,0,1-3.76-1.56c-1.94-1.56-4-3-6.14-4.62-1-.72-2-1.46-3.07-2.25l-1.4-1Zm37.09-7,2.67-3.17,1.06-1.25,1.25,1.06,15.42,13,2.41,2.05,1.25,1.05-1,1.25L508,445.06l-9,10.64L498,457l-1.24-1.06-17.84-15.08-1.25-1.05,1.06-1.25ZM477.9,472.22c-2.15-2.12-4.19-4.12-6.32-6.08-2.48-2.26-5-4.59-7.37-6.84-11.07-10.34-22.51-21-35.88-28.77a23.93,23.93,0,0,0-11.87-3.65c-5.58,0-10.77,2.82-15.43,8.39-7.38,8.82-7.8,20.06-1.08,28.64,3.6,4.6,8.43,7.13,13.59,7.13a17.69,17.69,0,0,0,12.07-5.1c4.15-3.85,7.91-8.08,11.89-12.55,1.8-2,3.66-4.12,5.59-6.2l1-1.08,1.18.87,9.44,7,1.87,1.37,1.41,1-1.13,1.33c-1.51,1.78-2.93,3.59-4.31,5.34A80,80,0,0,1,442.78,474c-7.09,6.2-13.19,10.28-19.18,12.87a35.11,35.11,0,0,1-13.93,2.93,34.11,34.11,0,0,1-33.75-38c1.76-17.25,10.63-30.81,26.34-40.32a25.51,25.51,0,0,1,13.29-3.88c6.13,0,12.56,2.28,20.22,7.17,10.31,6.58,20,13.73,27.37,19.22,6.89,5.16,13.7,10.65,20.29,16l7,5.64A29.58,29.58,0,0,1,493,458c.46.46.94.94,1.49,1.47l1.1,1.06-1,1.17-5.16,6.11-6.17,7.29-1.13,1.34-1.26-1.22Zm-38.42-30.06-1.28,1.52c-1.47,1.74-2.88,3.45-4.24,5.11a146.33,146.33,0,0,1-9.66,11c-2.75,2.74-6.72,4.27-9.57,5.08a14.41,14.41,0,0,1-3.8.54c-4.16,0-7.91-2-10.85-5.66-3.85-4.85-1.92-10.08-.13-13.6,4-7.86,10.85-12.37,18.76-12.37a23.35,23.35,0,0,1,10.28,2.5c1.88.91,3.63,1.92,5.66,3.09,1,.57,2,1.16,3.1,1.77ZM562.68,391a24.7,24.7,0,0,1,14.62-7c1.61-.14,3.2-.21,4.75-.21,14,0,25.41,5.92,32.88,17.14,8.16,12.26,8.33,25.87.47,39.37-7.48,12.85-19,19.64-33.4,19.64h-.37c-14-.11-27-5.53-40.66-17.06l-1.26-1.05,1.06-1.25.72-.85,11.94-14.12.91-1.08,1.21.75c2,1.29,4,2.61,5.94,3.89a113.27,113.27,0,0,0,12.59,7.63,21.93,21.93,0,0,0,9.65,2.43,15.83,15.83,0,0,0,14.06-8.34,23.56,23.56,0,0,0,3.15-15.67A19,19,0,0,0,593,402.81a17.55,17.55,0,0,0-10.31-3.31A25.1,25.1,0,0,0,572.44,402c-9.88,4.44-17,12.15-23.2,19.81-20,24.69-35.15,43.65-49.11,61.49A177.8,177.8,0,0,0,484.79,506c-3.77,6.78-3.69,15.4.2,23.08,4.05,8,11.28,13.33,19.35,14.34a17.62,17.62,0,0,0,2.16.13c6.7,0,12.43-4.12,15.7-11.32,5-11.07,3.06-22.28-5.44-30.75a115.27,115.27,0,0,0-8.89-7.71c-1.46-1.19-3-2.41-4.48-3.69l-1.17-1,.92-1.23,3.81-5.1,5.2-6.95.81-1.08,1.21.59c9.12,4.45,15.47,11.34,21.19,18,7,8.17,10.84,16.55,11.43,24.9s-2.13,17.24-8.11,26.07A38.21,38.21,0,0,1,523.41,557a43.89,43.89,0,0,1-18.25,4c-8.62,0-17.36-2.58-26-7.66a31.06,31.06,0,0,1-14-19.21,42.81,42.81,0,0,1,1.55-25.45c3.23-8.72,8.95-15.6,14.49-22.25,1.31-1.58,2.68-3.22,4-4.84,13.06-16.37,26.44-32.19,37.81-45.5C536.81,419.88,549.36,405.29,562.68,391Zm-5.07,30.54,1.21-1.35c7.06-7.87,13.68-12.24,21.44-14.15a23.52,23.52,0,0,1,5.7-.81,11,11,0,0,1,9.26,4.46c3.33,4.43,3.32,9.63,0,15.91-2.75,5.19-7,7.93-12.33,7.93-.48,0-1,0-1.47-.07-8.55-.77-15.06-5.53-21.95-10.57l-.39-.29Zm-38.23,88.28c4.4,6.74,2.81,16.13-3.78,22.35a18.13,18.13,0,0,1-12.41,5.09,16.32,16.32,0,0,1-8.71-2.51c-8.65-5.47-11.23-12.49-7.68-20.85a115.53,115.53,0,0,1,7.31-13.7c1.18-2,2.4-4,3.56-6.14l.79-1.41,1.42.78C509.44,498.65,515.27,503.55,519.38,509.83Zm-16.2-201c12.27,0,23.11,5.67,31.34,16.39,7.36,9.58,7.32,21.11-.12,34.26a187.53,187.53,0,0,1-12.95,19c-2,2.75-4.14,5.6-6.18,8.48l-1,1.46-1.36-1.15-11.46-9.69-1.17-1,.92-1.23c1.47-2,3-3.92,4.43-5.8a150.07,150.07,0,0,0,9.06-12.52c6-9.68,4.26-20.41-4.51-27.33a16.33,16.33,0,0,0-10.2-3.54c-5.47,0-11.1,2.66-15.42,7.3-10.13,10.83-9.31,23.77,2.17,34.6,9.73,9.17,20.26,17.88,30.44,26.29,4.44,3.67,9,7.47,13.51,11.26l3.12,2.64,1.74,1.47,1.25,1.06-1.06,1.24L531,417.62l-6.5,7.68-1.06,1.25-1.24-1.05c-1.18-1-2.38-2-3.54-2.94-2.5-2.07-5.08-4.2-7.5-6.44l-2.4-2.22c-12.48-11.54-25.38-23.48-37.87-35.43a69.81,69.81,0,0,1-6.87-8.07c-1-1.31-2.05-2.67-3.11-3.95-6.73-8.15-7.48-17.27-2.21-27.11C467.6,322.77,479,313.17,493.49,310A45,45,0,0,1,503.18,308.87Zm-6.87,61.95-1.18,1.4-1.26-1.34c-.95-1-1.81-2-2.63-2.86-1.64-1.8-3.05-3.35-4.55-4.82-4-3.92-6-8-5.82-12.21.2-5.06,3.39-10.11,9.76-15.44A17.52,17.52,0,0,1,498.3,332a15.74,15.74,0,0,1,3.1-.31c4.77,0,9,2.21,12.11,6.4,3,4,2.58,8.84-1.17,13.65-3.54,4.54-7.23,8.83-11.13,13.37C499.61,367,498,368.87,496.31,370.82Z"/><text class="cls-2" transform="translate(206.35 682.03)">AFRODISIAC</text><path class="cls-3" d="M232.3,658.93a8.76,8.76,0,0,0-2.52.39,3.08,3.08,0,0,0-1.48,1,6.72,6.72,0,0,0-1,2,32.24,32.24,0,0,1-1.7,4q-1.16,2.29-2.3,4.61t-2.09,4.22a14.49,14.49,0,0,0-1.15,2.91,6.11,6.11,0,0,1-.82,2.47,2,2,0,0,1-1.27.71l-2.57.27c-1,.11-2,.21-2.91.28s-1.8.13-2.53.16l-1.31.06a.87.87,0,0,1-.82-.61,2.66,2.66,0,0,1-.28-1.15,4.73,4.73,0,0,1,.28-2,1.6,1.6,0,0,1,1-.71,11,11,0,0,0,3.34-1.59,8.2,8.2,0,0,0,2.8-4.12,30.69,30.69,0,0,1,1.92-3.89c1.13-2.09,2.51-4.61,4.12-7.57s3.34-6.18,5.21-9.66,3.58-6.87,5.15-10.2,2.87-6.42,3.9-9.27a21.6,21.6,0,0,0,1.53-6.8,3.18,3.18,0,0,0-.21-.94c-.15-.4-.32-.86-.5-1.37l-.49-1.37a2.85,2.85,0,0,1-.22-.93,1.76,1.76,0,0,1,.71-1.21,10.72,10.72,0,0,1,1.7-1.26,13.06,13.06,0,0,1,2-1,4.7,4.7,0,0,1,1.53-.38c.44,0,1.12.46,2,1.37a11,11,0,0,1,2.25,3.24q3.74,7.89,7.9,16.89t10.42,20q4,6.91,6.64,11c1.79,2.71,3.24,4.77,4.34,6.2s1.88,2.4,2.35,2.91.72.88.72,1.1a1.58,1.58,0,0,1-.83,1.59,4,4,0,0,1-1.7.38c-.43,0-1.06,0-1.86-.11s-1.65-.18-2.52-.33-1.7-.29-2.47-.44a8.91,8.91,0,0,1-1.7-.44,2.55,2.55,0,0,1-1.65-1.37,12.92,12.92,0,0,1-1.1-2.58c-.22-.65-.67-1.77-1.37-3.34s-1.44-3.17-2.25-4.77-1.57-3.06-2.3-4.34-1.28-2-1.65-2.14a13.78,13.78,0,0,0-3.73-.93c-1.75-.26-3.66-.46-5.7-.6s-4.06-.24-6-.28-3.51,0-4.6,0C234.77,658.88,233.36,658.9,232.3,658.93Zm12.78-22.11a23.35,23.35,0,0,1-1.7-3.89c-.25-.91-.64-1.37-1.15-1.37-.22,0-.42.16-.6.49a7.72,7.72,0,0,0-.55,1.26c-.19.52-.35,1-.5,1.54a7.84,7.84,0,0,1-.54,1.43l-5.71,11.63c-.8,1.68-1.39,2.87-1.75,3.56a3.85,3.85,0,0,0-.55,1.59c0,.51.62.77,1.86.77h19.86Z"/><path class="cls-3" d="M301.91,682.68a34,34,0,0,1-.43,3.74,21.57,21.57,0,0,1-.83,3.29c-.33.95-.75,1.42-1.26,1.42a4.12,4.12,0,0,1-1.32-.27,6.5,6.5,0,0,1-1.42-.71,7.93,7.93,0,0,1-1.15-.94,1.46,1.46,0,0,1-.5-1c0-.73,0-1.55.11-2.47s.15-2.27.22-4.06.15-4.24.22-7.35.11-7.22.11-12.34a15.46,15.46,0,0,0-.22-3,13.41,13.41,0,0,0-.55-2c-.22-.58-.4-1.15-.55-1.7a7.8,7.8,0,0,1-.22-1.92,10.69,10.69,0,0,1,.5-3.29,11,11,0,0,0,.49-3.4c0-.44-.05-1.3-.16-2.58s-.22-2.7-.33-4.28-.24-3.18-.39-4.83-.25-3-.32-4.11a25.06,25.06,0,0,1-2.2-3.73,7.57,7.57,0,0,1-.88-3.07,3.24,3.24,0,0,1,.72-1.59,12,12,0,0,1,1.75-2,14.89,14.89,0,0,1,2.14-1.7,3.6,3.6,0,0,1,1.87-.72,20,20,0,0,1,3.12.28,33.4,33.4,0,0,0,4.89.27q3.51,0,7.57-.16l7.73-.33q3.67-.17,6.58-.33c1.94-.11,3.31-.17,4.12-.17a1.9,1.9,0,0,1,.77.22.89.89,0,0,1,.43.88,3,3,0,0,1-.27,1,7.56,7.56,0,0,1-.66,1.26,6.25,6.25,0,0,1-.88,1.1,2,2,0,0,1-1,.6c-1.68.29-3.73.57-6.14.82l-7.35.77q-3.74.39-7,.71t-5.1.66a1.21,1.21,0,0,0-.82.55,7.07,7.07,0,0,0-.5,2.31q-.33,3.18-.38,7.4t-.06,8.5c0,1,0,1.89.06,2.8s0,1.85,0,2.8h8.67a76.58,76.58,0,0,0,10.15-.6,56.06,56.06,0,0,1,7.08-.61c1.38,0,2.08.66,2.08,2a4.38,4.38,0,0,1-.77,2.74,2.28,2.28,0,0,1-1.86,1q-1.87,0-5.43.27t-7.46.66q-3.9.39-7.47.82c-2.37.3-4.18.55-5.43.77v22.93C302,680.53,302,681.44,301.91,682.68Z"/><path class="cls-3" d="M381.84,618.61a16.57,16.57,0,0,1,3.35,10.53,22.22,22.22,0,0,1-.83,6.31,18.21,18.21,0,0,1-2.14,4.83,15.45,15.45,0,0,1-2.85,3.35,13.21,13.21,0,0,1-3,2l-7.79,3.51v.22a12.42,12.42,0,0,1,2.08.55,3.4,3.4,0,0,1,1.54,1.21q4.61,5.7,8.94,10.15t7.74,7.62c2.26,2.12,4.09,3.81,5.48,5s2.09,2,2.09,2.3a3.32,3.32,0,0,1-.28,1.37,5.45,5.45,0,0,1-1.15,1.48c-.66.66-1.15,1.14-1.48,1.43a1.57,1.57,0,0,1-1,.44h-1.76a4.5,4.5,0,0,1-1.59-.27,4.19,4.19,0,0,1-1.59-1.38c-1-1.24-2.25-2.74-3.68-4.49s-3.42-4-6-6.81L366.1,655.15a5.45,5.45,0,0,0-2.25-1.59,8,8,0,0,0-2.58-.39c-.08,1.17-.13,2.45-.17,3.84s-.05,3-.05,4.83v17.88a3,3,0,0,1-.44,1.59A1.77,1.77,0,0,1,359,682a9.12,9.12,0,0,1-2.08-.33,17.66,17.66,0,0,1-2.63-.88,12,12,0,0,1-2.31-1.26,1.93,1.93,0,0,1-1-1.48,2.8,2.8,0,0,1,.6-1.43c.4-.58.89-1.28,1.48-2.08a13.12,13.12,0,0,0,.6-3.68q.27-3.12.44-7.08c.11-2.63.2-5.22.28-7.79s.11-4.49.11-5.81v-5.82q0-4.6-.17-8.83c-.11-2.81-.27-5.21-.49-7.18a1.46,1.46,0,0,0-.61-1.16c-.32-.18-.65-.34-1-.49a2.75,2.75,0,0,1-.94-.71,2.38,2.38,0,0,1-.43-1.59,3.26,3.26,0,0,1,1.42-2.86,34.72,34.72,0,0,1,5.71-3.34,51.84,51.84,0,0,1,5.59-2.25,33.21,33.21,0,0,1,4.78-1.26,19.84,19.84,0,0,1,3.34-.39Q378.49,614.33,381.84,618.61Zm-18.6,28.2a13.14,13.14,0,0,0,2.58-1.1,26.94,26.94,0,0,0,4.83-3.13,22,22,0,0,0,4.61-5,12,12,0,0,0,2-6.86c0-3.66-.73-6.23-2.2-7.73a7.09,7.09,0,0,0-5.26-2.25,10.21,10.21,0,0,0-3.95.87,7.45,7.45,0,0,0-3.3,2.64,15.57,15.57,0,0,0-.54,2.85c-.15,1.24-.28,2.67-.39,4.28s-.2,3.27-.27,5-.11,3.35-.11,4.88v4.72C361.49,646.52,362.15,646.81,363.24,646.81Z"/><path class="cls-3" d="M410.64,641.1a30.57,30.57,0,0,1,4.94-10.2,26.34,26.34,0,0,1,8.72-7.52,26.63,26.63,0,0,1,12.89-2.9,20.77,20.77,0,0,1,8.34,1.7,18.39,18.39,0,0,1,6.91,5.26,26.71,26.71,0,0,1,4.72,9.11,43.58,43.58,0,0,1,1.75,13.11,34.21,34.21,0,0,1-2.25,12.84,28.12,28.12,0,0,1-6,9.38,25.68,25.68,0,0,1-18.43,7.73,21.12,21.12,0,0,1-8.23-1.75,22.16,22.16,0,0,1-7.46-5.21,27.13,27.13,0,0,1-5.37-8.62,31.7,31.7,0,0,1-2.09-12A41.11,41.11,0,0,1,410.64,641.1ZM417.77,656a26,26,0,0,0,2.8,7.41,21,21,0,0,0,5.54,6.42,14.17,14.17,0,0,0,9,2.74,17.54,17.54,0,0,0,5.15-.88,14,14,0,0,0,5.43-3.29,18.2,18.2,0,0,0,4.28-6.64,29.25,29.25,0,0,0,1.7-10.8,39.11,39.11,0,0,0-1.42-11.41,21.77,21.77,0,0,0-3.73-7.41,14,14,0,0,0-5.27-4.06,15.55,15.55,0,0,0-6.14-1.26,15.31,15.31,0,0,0-7.68,1.92,17.77,17.77,0,0,0-5.71,5.1,23.27,23.27,0,0,0-3.51,7.46,32.87,32.87,0,0,0-1.21,9A30.77,30.77,0,0,0,417.77,656Z"/><path class="cls-3" d="M492.43,683.07l-1.92-.28-6.14-.76a9.42,9.42,0,0,1-2.69-.61,1.29,1.29,0,0,1-.82-1.26,1.85,1.85,0,0,1,.49-1.37c.33-.33.69-.71,1.1-1.15a7.29,7.29,0,0,0,1.15-1.87,9.84,9.84,0,0,0,.66-3.4q.33-6.58.55-13.49T485,646c0-1.61,0-3.35-.16-5.21s-.26-3.71-.44-5.54-.38-3.53-.6-5.1-.44-2.87-.66-3.9c-.15-.66-.46-1-.93-1.15s-1-.2-1.43-.27a5.48,5.48,0,0,1-1.32-.39c-.4-.18-.6-.67-.6-1.48a2.51,2.51,0,0,1,.82-2.14,15.08,15.08,0,0,1,3.68-1.48l7.68-2.2c1.61-.43,2.91-.74,3.89-.93a13.73,13.73,0,0,1,2.25-.27c.22,0,1.1.07,2.64.22a33.14,33.14,0,0,1,5.54,1.1,45.64,45.64,0,0,1,7,2.57,25,25,0,0,1,6.86,4.67,24.09,24.09,0,0,1,5.21,7.4,25,25,0,0,1,2.09,10.7q0,5.7-.33,10a49.67,49.67,0,0,1-1.15,7.73,32.92,32.92,0,0,1-2.14,6.2,35.53,35.53,0,0,1-3.29,5.54,14,14,0,0,1-3.35,3.13,32.84,32.84,0,0,1-4.72,2.69q-2.58,1.2-5.32,2.19t-5.1,1.65c-1.58.44-3,.78-4.12,1a14.11,14.11,0,0,1-2.41.38A13.73,13.73,0,0,1,492.43,683.07Zm-.66-19.86c0,2.67,0,5.14,0,7.41q0,4.17.88,5.26a3.43,3.43,0,0,0,2.85,1.1,31.36,31.36,0,0,0,9.38-1.32,15.73,15.73,0,0,0,7.29-4.82,24.43,24.43,0,0,0,4.78-9.55,58.52,58.52,0,0,0,1.7-15.47,24.63,24.63,0,0,0-2.42-11.52,25,25,0,0,0-5.65-7.41,21.84,21.84,0,0,0-6.41-4,15.34,15.34,0,0,0-4.72-1.21,13,13,0,0,0-4.06.72,13.81,13.81,0,0,0-3.51,1.59v31Q491.83,659.21,491.77,663.21Z"/><path class="cls-3" d="M554.2,639c-.11-2.2-.16-4.24-.16-6.15,0-1,0-1.88-.11-2.57a3.25,3.25,0,0,0-.77-1.81,7.81,7.81,0,0,1-1.48-2.14,4.69,4.69,0,0,1-.39-1.81,3.54,3.54,0,0,1,1-1.87,17.84,17.84,0,0,1,2.3-2.3,22.23,22.23,0,0,1,2.69-1.92,4.68,4.68,0,0,1,2.14-.83,5.44,5.44,0,0,1,2.74.94c1,.62,1.54,1.15,1.54,1.59a7.9,7.9,0,0,1-.49,2.69,11.39,11.39,0,0,0-.61,3.23q-.44,4.83-.71,16.19t-.27,31.1q0,6.58-.83,8.72a2.81,2.81,0,0,1-2.69,2.14,3.32,3.32,0,0,1-1.37-.27,2.4,2.4,0,0,1-1-1.37,14.43,14.43,0,0,1-.71-3.35c-.19-1.5-.31-3.58-.39-6.26s-.12-6-.16-10.09-.06-9-.06-14.75Q554.36,642.31,554.2,639Z"/><path class="cls-3" d="M585.58,675.83a1.46,1.46,0,0,1,1-.5,8.33,8.33,0,0,1,3.62,1,11.54,11.54,0,0,0,5.16,1,6.1,6.1,0,0,0,4.77-2A6.53,6.53,0,0,0,602,671a16,16,0,0,0-1-5.16q-1.05-3-2.58-6.31c-1-2.23-2.14-4.53-3.35-6.91s-2.32-4.68-3.34-6.91-1.89-4.34-2.58-6.31a15.58,15.58,0,0,1-1-5.05,14.85,14.85,0,0,1,1.48-5.32,38.05,38.05,0,0,1,4-7,29,29,0,0,1,5.7-6.09,10.77,10.77,0,0,1,6.75-2.58,22.49,22.49,0,0,1,2.25.17,19.14,19.14,0,0,1,2.91.55,11.13,11.13,0,0,1,2.52,1,1.73,1.73,0,0,1,1.1,1.48c0,1.46-.28,2.41-.83,2.85s-1.84.7-3.89.77q-7.25.23-10.42,3.34a10.41,10.41,0,0,0-3.19,7.74,19,19,0,0,0,1.87,7.19q1.86,4.32,4.11,9.32t4.12,10.31a30.76,30.76,0,0,1,1.86,10.15,23,23,0,0,1-.55,3.62,21.56,21.56,0,0,1-2,5.65,18.38,18.38,0,0,1-4,5.21A9,9,0,0,1,595.4,685a12.6,12.6,0,0,1-2.53-.33,21.15,21.15,0,0,1-3-.88,22.17,22.17,0,0,1-2.64-1.15,2.9,2.9,0,0,1-1.37-1.15c-.22-.66-.4-1.3-.55-1.92a9.22,9.22,0,0,1-.22-2A2.35,2.35,0,0,1,585.58,675.83Z"/><path class="cls-3" d="M633.41,639c-.11-2.2-.16-4.24-.16-6.15,0-1,0-1.88-.11-2.57a3.25,3.25,0,0,0-.77-1.81,7.81,7.81,0,0,1-1.48-2.14,4.69,4.69,0,0,1-.39-1.81,3.54,3.54,0,0,1,1-1.87,17.32,17.32,0,0,1,2.31-2.3,21.39,21.39,0,0,1,2.68-1.92,4.72,4.72,0,0,1,2.14-.83,5.5,5.5,0,0,1,2.75.94q1.53.93,1.53,1.59a7.9,7.9,0,0,1-.49,2.69,11.4,11.4,0,0,0-.6,3.23q-.45,4.83-.72,16.19t-.27,31.1q0,6.58-.83,8.72a2.8,2.8,0,0,1-2.68,2.14,3.36,3.36,0,0,1-1.38-.27,2.4,2.4,0,0,1-1-1.37,14.43,14.43,0,0,1-.71-3.35c-.18-1.5-.31-3.58-.38-6.26s-.13-6-.17-10.09,0-9,0-14.75Q633.58,642.31,633.41,639Z"/><path class="cls-3" d="M681.36,658.93a8.84,8.84,0,0,0-2.53.39,3.12,3.12,0,0,0-1.48,1,7,7,0,0,0-1,2,30.75,30.75,0,0,1-1.7,4l-2.3,4.61c-.77,1.53-1.46,2.94-2.09,4.22a15.14,15.14,0,0,0-1.15,2.91,6,6,0,0,1-.82,2.47,1.93,1.93,0,0,1-1.26.71l-2.58.27c-1,.11-2,.21-2.91.28s-1.79.13-2.52.16l-1.32.06a.88.88,0,0,1-.82-.61,2.79,2.79,0,0,1-.27-1.15,4.94,4.94,0,0,1,.27-2,1.63,1.63,0,0,1,1-.71,11.06,11.06,0,0,0,3.35-1.59,8.33,8.33,0,0,0,2.8-4.12,27.94,27.94,0,0,1,1.92-3.89l4.11-7.57q2.42-4.44,5.21-9.66c1.87-3.47,3.58-6.87,5.16-10.2s2.87-6.42,3.89-9.27a21.39,21.39,0,0,0,1.54-6.8,3,3,0,0,0-.22-.94c-.15-.4-.31-.86-.49-1.37s-.35-1-.5-1.37a3.14,3.14,0,0,1-.22-.93,1.78,1.78,0,0,1,.72-1.21,10.28,10.28,0,0,1,1.7-1.26,13,13,0,0,1,2-1,4.75,4.75,0,0,1,1.54-.38c.44,0,1.11.46,2,1.37a11.44,11.44,0,0,1,2.25,3.24q3.72,7.89,7.9,16.89t10.42,20q3.94,6.91,6.64,11c1.79,2.71,3.23,4.77,4.33,6.2s1.88,2.4,2.36,2.91.71.88.71,1.1a1.58,1.58,0,0,1-.82,1.59,4.08,4.08,0,0,1-1.7.38c-.44,0-1.06,0-1.87-.11s-1.64-.18-2.52-.33-1.7-.29-2.47-.44a9.12,9.12,0,0,1-1.7-.44,2.52,2.52,0,0,1-1.64-1.37,12.37,12.37,0,0,1-1.1-2.58c-.22-.65-.68-1.77-1.37-3.34s-1.45-3.17-2.25-4.77-1.58-3.06-2.31-4.34a5.64,5.64,0,0,0-1.64-2.14,13.89,13.89,0,0,0-3.73-.93q-2.64-.39-5.71-.6t-6-.28c-2,0-3.51,0-4.61,0C683.82,658.88,682.42,658.9,681.36,658.93Zm12.78-22.11a21.75,21.75,0,0,1-1.7-3.89c-.26-.91-.64-1.37-1.15-1.37-.22,0-.43.16-.61.49a8.69,8.69,0,0,0-.55,1.26c-.18.52-.34,1-.49,1.54a8.66,8.66,0,0,1-.55,1.43l-5.7,11.63c-.81,1.68-1.39,2.87-1.76,3.56a3.85,3.85,0,0,0-.55,1.59c0,.51.62.77,1.87.77h19.86Z"/><path class="cls-3" d="M741.81,641.76a35.75,35.75,0,0,1,4.77-10.15,28.31,28.31,0,0,1,6.75-6.91,36.71,36.71,0,0,1,7.84-4.28,37.51,37.51,0,0,1,8-2.19,46.31,46.31,0,0,1,7-.61c3.08,0,5.45.59,7.13,1.76s2.53,2.3,2.53,3.4a2.93,2.93,0,0,1-.66,1.59,12,12,0,0,1-1.59,1.81,10.22,10.22,0,0,1-2,1.48,3.58,3.58,0,0,1-1.7.61,1.68,1.68,0,0,1-1.26-.77c-.4-.51-.88-1.08-1.42-1.7a9.58,9.58,0,0,0-2-1.7,5.47,5.47,0,0,0-3-.77,21.51,21.51,0,0,0-9.16,1.81,23.28,23.28,0,0,0-6.69,4.61,24.16,24.16,0,0,0-4.55,6.31A41.21,41.21,0,0,0,749,643a44.63,44.63,0,0,0-1.37,6.31,38,38,0,0,0-.38,4.55,22.33,22.33,0,0,0,1.37,7.19,28.43,28.43,0,0,0,3.9,7.51,23.24,23.24,0,0,0,6.08,5.87,14,14,0,0,0,7.85,2.36,18.36,18.36,0,0,0,7.19-1.37,33.14,33.14,0,0,0,5.7-3.07c1.65-1.14,3-2.16,4.22-3.08a5.24,5.24,0,0,1,2.75-1.37,2.19,2.19,0,0,1,1.7.66,2.36,2.36,0,0,1,.6,1.65,3.45,3.45,0,0,1-.71,1.48,20.44,20.44,0,0,1-2,2.36c-.84.87-1.79,1.77-2.85,2.69a18.18,18.18,0,0,1-3.46,2.35,14.18,14.18,0,0,1-3,1.27,35.77,35.77,0,0,1-4.06,1c-1.46.29-3,.53-4.61.71a41.51,41.51,0,0,1-4.6.28,23.44,23.44,0,0,1-7.13-1.32,22.27,22.27,0,0,1-7.68-4.44,25.07,25.07,0,0,1-6.09-8.23A28.93,28.93,0,0,1,740,655.7,47.82,47.82,0,0,1,741.81,641.76Z"/></svg>