<svg xmlns="http://www.w3.org/2000/svg" xmlns:xlink="http://www.w3.org/1999/xlink" width="490" height="490" viewBox="0 0 490 490"><defs><style>.cls-1,.cls-2{fill:#101010;}.cls-2{stroke-miterlimit:10;stroke-width:9.33px;stroke:url(#New_Gradient_Swatch);}</style><linearGradient id="New_Gradient_Swatch" x1="230" y1="55.33" x2="230" y2="435.38" gradientUnits="userSpaceOnUse"><stop offset="0.6" stop-color="#00df19"/><stop offset="0.62" stop-color="#1ac538"/><stop offset="0.66" stop-color="#568b7e"/><stop offset="0.69" stop-color="#855cb6"/><stop offset="0.72" stop-color="#a73bdd"/><stop offset="0.75" stop-color="#bb27f6"/><stop offset="0.76" stop-color="#c31fff"/></linearGradient></defs><g id="Layer_2" data-name="Layer 2"><g id="Layer_1-2" data-name="Layer 1"><circle class="cls-1" cx="245" cy="245" r="245"/><path class="cls-2" d="M259.24,60q28.49,0,51.23,5.13a155.12,155.12,0,0,1,41.23,15.4l-13,49.05a138.43,138.43,0,0,0-36-14,166,166,0,0,0-37.49-4.28,107.3,107.3,0,0,0-39.73,7.41,85.37,85.37,0,0,0-33,23.67Q178.27,158.67,170,184.05t-8.25,61.88q0,64.45,25.24,98.67t72.22,34.22q29.47,0,46-7.42V282.22H251.33V230H363.19V409a218.16,218.16,0,0,1-45.48,15.69q-25.48,6-58.47,6a169.09,169.09,0,0,1-63.73-12,144.16,144.16,0,0,1-51.72-35.36q-22-23.38-34.49-57.89T96.81,245.93q0-45,12.49-79.85t34.24-58.46A140.18,140.18,0,0,1,195,72Q224.76,60,259.24,60Z"/></g></g></svg>