<svg xmlns="http://www.w3.org/2000/svg" xmlns:xlink="http://www.w3.org/1999/xlink" width="337.66" height="465.43" viewBox="0 0 337.66 465.43"><defs><style>.cls-1{stroke-miterlimit:10;stroke-width:11.43px;stroke:url(#New_Gradient_Swatch);}</style><linearGradient id="New_Gradient_Swatch" x1="168.83" x2="168.83" y2="465.43" gradientUnits="userSpaceOnUse"><stop offset="0.6" stop-color="#00df19"/><stop offset="0.62" stop-color="#1ac538"/><stop offset="0.66" stop-color="#568b7e"/><stop offset="0.69" stop-color="#855cb6"/><stop offset="0.72" stop-color="#a73bdd"/><stop offset="0.75" stop-color="#bb27f6"/><stop offset="0.76" stop-color="#c31fff"/></linearGradient></defs><g id="Layer_2" data-name="Layer 2"><g id="Layer_1-2" data-name="Layer 1"><path class="cls-1" d="M204.64,5.71q34.89,0,62.73,6.29a189.33,189.33,0,0,1,50.5,18.86L302,90.93a169.76,169.76,0,0,0-44.07-17.12A203.26,203.26,0,0,0,212,68.58a131.12,131.12,0,0,0-48.66,9.08q-22.95,9.07-40.4,29t-27.54,51q-10.09,31.08-10.1,75.78,0,78.95,30.91,120.84t88.45,41.9q36.11,0,56.31-9.08V277.86H195v-64H332V433.17q-24.49,11.9-55.7,19.21t-71.61,7.33q-41.64,0-78-14.66a176.35,176.35,0,0,1-63.35-43.31Q36.31,373.1,21,330.85T5.71,233.41q0-55.17,15.31-97.78T62.94,64A171.67,171.67,0,0,1,126,20.38Q162.39,5.71,204.64,5.71Z"/></g></g></svg>