<?xml version="1.0" encoding="utf-8"?>
<!-- Generator: Adobe Illustrator 25.3.1, SVG Export Plug-In . SVG Version: 6.00 Build 0)  -->
<svg version="1.1" id="Layer_1" xmlns="http://www.w3.org/2000/svg" xmlns:xlink="http://www.w3.org/1999/xlink" x="0px" y="0px"
	 viewBox="0 0 1000 720" style="enable-background:new 0 0 1000 720;" xml:space="preserve">
<style type="text/css">
	.st0{fill:#FFFFFF;stroke:#000000;stroke-miterlimit:10;}
	.st1{fill:#407C29;}
	.st2{fill:#FFCB24;}
	.st3{fill:#6FCE51;}
	.st4{font-family:'MyriadPro-Regular';}
	.st5{font-size:93.954px;}
	.st6{letter-spacing:25;}
	.st7{letter-spacing:27;}
	.st8{letter-spacing:18;}
</style>
<rect class="st0" width="1000" height="720"/>
<g id="Logo_v1">
	<g>
		<path class="st1" d="M329.1,276.3c0,6.3-0.6,12.6-1.9,18.7c-1.4,6.9-2.2,13.8-2.5,20.8c-0.9,20.3,1.2,27.4,5,38.2l0.1,0.4
			c3.3,9.5,14,18,18.4,21.2c5.6,4.1,16.8,11.1,28.6,12.2c0.3,0,0.6,0,0.9,0s0.6,0,0.9,0c11.8-1.1,22.9-8.1,28.6-12.2
			c4.4-3.2,15.1-11.8,18.4-21.2l0.1-0.4c3.8-10.8,5.8-17.9,5-38.2c-0.3-7-1.1-14-2.5-20.8c-1.3-6.2-2-12.4-2-18.7
			c-0.2-16,10.4-30.5,11.4-31.8c3.4-4.3,2.6-10.6-1.7-14c-1.7-1.4-3.9-2.1-6.1-2.1l0,0c-2,0-3.9,0.6-5.5,1.7
			c-7.2,5-13.4,11.4-18.1,18.8c-1-4-3.5-7.5-7-9.7c-0.6-4.5-3.2-8.5-7.1-10.9c-1.5-8.1-9.3-13.4-17.4-11.9
			c-6,1.1-10.7,5.8-11.9,11.8c-4,2.4-6.7,6.6-7.2,11.3c-3.2,2.2-5.5,5.5-6.4,9.3c-4.8-7.4-11-13.8-18.3-18.8
			c-4.7-2.8-10.9-1.3-13.7,3.5c-2.1,3.5-1.8,7.8,0.6,11.1C317.8,244.5,329.3,259.6,329.1,276.3z"/>
		<path class="st2" d="M382.3,230.8c0.1-2.7-2.1-5-4.8-5.1c-2.7-0.1-5,2.1-5.1,4.8s2.1,5,4.8,5.1h0.1
			C380.1,235.6,382.3,233.5,382.3,230.8L382.3,230.8z"/>
		<path class="st2" d="M370.6,252.5c0-3.3-2.7-6-6-6s-6,2.7-6,6s2.7,6,6,6S370.6,255.8,370.6,252.5L370.6,252.5z"/>
		<path class="st2" d="M383.4,252.9c0-3.3-2.7-6-6-6s-6,2.7-6,6c0,3.3,2.7,6,6,6l0,0C380.7,258.9,383.4,256.3,383.4,252.9z"/>
		<ellipse class="st2" cx="390.6" cy="252.5" rx="6" ry="6"/>
		<path class="st2" d="M399,268.1c0-3.7-3-6.7-6.7-6.7s-6.7,3-6.7,6.7s3,6.7,6.7,6.7l0,0C396,274.8,399,271.8,399,268.1L399,268.1z"
			/>
		<path class="st2" d="M384.1,268.1c0-3.7-3-6.7-6.7-6.7s-6.7,3-6.7,6.7s3,6.7,6.7,6.7l0,0C381.1,274.8,384.1,271.8,384.1,268.1
			L384.1,268.1z"/>
		<path class="st2" d="M369.6,268.1c0-3.7-3-6.7-6.7-6.7s-6.7,3-6.7,6.7s3,6.7,6.7,6.7l0,0C366.6,274.8,369.6,271.8,369.6,268.1z"/>
		<path class="st2" d="M399.5,284.4c0-3.7-3-6.7-6.7-6.7s-6.7,3-6.7,6.7s3,6.7,6.7,6.7l0,0C396.5,291.1,399.5,288.1,399.5,284.4z"/>
		<path class="st2" d="M384.1,284.4c0-3.7-3-6.7-6.7-6.7s-6.7,3-6.7,6.7s3,6.7,6.7,6.7l0,0C381.1,291.1,384.1,288.1,384.1,284.4z"/>
		<path class="st2" d="M369.1,284.4c0-3.7-3-6.7-6.7-6.7s-6.7,3-6.7,6.7s3,6.7,6.7,6.7l0,0C366.1,291.1,369.1,288.1,369.1,284.4z"/>
		<path class="st2" d="M399.5,299.8c0-3.7-3-6.7-6.7-6.7s-6.7,3-6.7,6.7s3,6.7,6.7,6.7l0,0C396.5,306.5,399.5,303.5,399.5,299.8
			L399.5,299.8z"/>
		<path class="st2" d="M383.9,299.8c0-3.7-3-6.7-6.7-6.7s-6.7,3-6.7,6.7s3,6.7,6.7,6.7l0,0C380.9,306.5,383.9,303.5,383.9,299.8
			L383.9,299.8z"/>
		<path class="st2" d="M369.1,299.8c0-3.7-3-6.7-6.7-6.7s-6.7,3-6.7,6.7s3,6.7,6.7,6.7l0,0C366.1,306.5,369.1,303.5,369.1,299.8z"/>
		<path class="st2" d="M399.3,315.9c0-3.7-3-6.7-6.7-6.7s-6.7,3-6.7,6.7s3,6.7,6.7,6.7l0,0C396.3,322.6,399.3,319.6,399.3,315.9
			L399.3,315.9z"/>
		<path class="st2" d="M383.7,315.9c0-3.7-3-6.7-6.7-6.7s-6.7,3-6.7,6.7s3,6.7,6.7,6.7l0,0C380.7,322.6,383.7,319.6,383.7,315.9
			L383.7,315.9z"/>
		<path class="st2" d="M368.9,315.9c0-3.7-3-6.7-6.7-6.7s-6.7,3-6.7,6.7s3,6.7,6.7,6.7l0,0C365.9,322.6,368.9,319.6,368.9,315.9z"/>
		<path class="st2" d="M389.9,343.4c0-2.8-2.2-5-5-5s-5,2.2-5,5s2.2,5,5,5S389.9,346.2,389.9,343.4z"/>
		<path class="st2" d="M375.7,343.4c0-2.8-2.2-5-5-5s-5,2.2-5,5s2.2,5,5,5S375.7,346.2,375.7,343.4z"/>
		<path class="st2" d="M382.9,353.5c0-2.8-2.2-5-5-5s-5,2.2-5,5s2.2,5,5,5S382.9,356.2,382.9,353.5z"/>
		<path class="st2" d="M383.4,331.5c0-3.3-2.7-6.1-6.1-6.1s-6.1,2.7-6.1,6.1c0,3.3,2.7,6.1,6.1,6.1l0,0
			C380.7,337.5,383.4,334.8,383.4,331.5z"/>
		<path class="st2" d="M397,331.5c0-3.3-2.7-6.1-6.1-6.1s-6.1,2.7-6.1,6.1c0,3.3,2.7,6.1,6.1,6.1l0,0
			C394.3,337.5,397,334.8,397,331.5z"/>
		<path class="st2" d="M370.5,331c0-3.3-2.7-6.1-6.1-6.1s-6.1,2.7-6.1,6.1c0,3.3,2.7,6.1,6.1,6.1l0,0
			C367.8,337.1,370.5,334.3,370.5,331z"/>
		<path class="st2" d="M389.3,240.9c0-2.8-2.2-5-5-5s-5,2.2-5,5s2.2,5,5,5S389.3,243.7,389.3,240.9z"/>
		<path class="st2" d="M375.4,240.9c0-2.8-2.2-5-5-5s-5,2.2-5,5s2.2,5,5,5S375.4,243.7,375.4,240.9z"/>
		<path class="st3" d="M416.2,276.4c-0.3-20.5,13.5-38.2,13.5-38.2s-20.6,13-23.8,38.9s0,32.6-3.6,51c-3.6,18.6-7.9,28.4-24.8,36.2
			c-16.9-7.9-21.1-17.6-24.8-36.2c-3.6-18.4-0.4-25.2-3.6-51s-23.8-38.9-23.8-38.9s13.8,17.6,13.5,38.2c-0.3,19.4-3.6,20.2-4.4,39.8
			s1.2,25.3,4.5,34.8s23.5,25.4,38.5,26.8c15-1.4,35.1-17.3,38.5-26.8s5.4-15.2,4.5-34.8S416.5,295.8,416.2,276.4z"/>
		<path class="st1" d="M87.6,346.4c10,5.8,21.3,8.8,32.8,8.8c18.8,0,29.9-9.4,29.9-23c0-12.4-7.6-19.8-26.9-26.6
			c-23.3-8-37.7-19.6-37.7-38.4c0-21,18.4-36.6,46.2-36.6c14.4,0,25.2,3.2,31.3,6.6l-5.1,14.2c-4.4-2.6-14-6.4-26.9-6.4
			c-19.5,0-26.9,11-26.9,20.2c0,12.6,8.7,18.8,28.4,26c24.1,8.8,36.2,19.8,36.2,39.6c0,20.8-16.1,39-49.8,39
			c-13.8,0-28.8-4-36.4-8.8L87.6,346.4z"/>
		<path class="st1" d="M281,344.4c-0.1,7.8,0.4,15.5,1.5,23.2h-16.7l-1.5-12.2h-0.6c-5.7,7.6-16.7,14.4-31.3,14.4
			c-20.7,0-31.3-13.8-31.3-27.8c0-23.4,22-36.2,61.6-36v-2c0-7.8-2.3-22.4-23.3-22.2c-9.7,0-19.7,2.6-26.9,7.2l-4.2-11.8
			c8.5-5,21-8.4,33.9-8.4c31.3,0,39,20.2,39,39.4L281,344.4z M263,318.2c-20.3-0.4-43.4,3-43.4,21.8c0,11.6,8.1,16.8,17.4,16.8
			c13.6,0,22.2-8,25.2-16.2c0.6-1.8,0.8-3.7,0.8-5.6V318.2z"/>
		<path class="st1" d="M552.5,344.4c-0.1,7.8,0.4,15.5,1.5,23.2h-16.7l-1.5-12.2h-0.6c-5.7,7.6-16.7,14.4-31.3,14.4
			c-20.8,0-31.3-13.8-31.3-27.8c0-23.4,22-36.2,61.6-36v-2c0-7.8-2.3-22.4-23.3-22.2c-9.7,0-19.7,2.6-26.9,7.2l-4.2-11.8
			c8.5-5,21-8.4,33.9-8.4c31.3,0,39,20.2,39,39.4L552.5,344.4z M534.5,318.2c-20.3-0.4-43.4,3-43.4,21.8c0,11.6,8,16.8,17.4,16.8
			c13.5,0,22.2-8,25.2-16.2c0.6-1.8,0.8-3.7,0.8-5.6V318.2z"/>
		<path class="st1" d="M586.9,297c0-10.2-0.2-18.2-0.8-26.2h16.5l1.1,16h0.4c5.1-9,16.9-18,33.9-18c14.2,0,36.2,8,36.2,41.2v57.6
			h-18.6v-55.8c0-15.6-6.1-28.6-23.7-28.6c-11.3,0.1-21.3,7.3-25,18c-0.9,2.6-1.3,5.4-1.3,8.2v58.2H587L586.9,297L586.9,297z"/>
		<path class="st1" d="M707,297c0-10.2-0.2-18.2-0.8-26.2h16.5l1.1,16h0.4c5.1-9,16.9-18,33.9-18c14.2,0,36.2,8,36.2,41.2v57.6
			h-18.6v-55.8c0-15.6-6.1-28.6-23.7-28.6c-11.3,0.1-21.3,7.3-25,18c-0.9,2.6-1.3,5.4-1.3,8.2v58.2H707V297z"/>
		<path class="st1" d="M906.4,344.4c-0.1,7.8,0.4,15.5,1.5,23.2h-16.7l-1.5-12.2H889c-5.7,7.6-16.7,14.4-31.3,14.4
			c-20.8,0-31.3-13.8-31.3-27.8c0-23.4,22-36.2,61.6-36v-2c0-7.8-2.3-22.4-23.3-22.2c-9.7,0-19.7,2.6-26.9,7.2l-4.2-11.8
			c8.5-5,21-8.4,33.9-8.4c31.3,0,39,20.2,39,39.4L906.4,344.4z M888.4,318.2c-20.4-0.4-43.4,3-43.4,21.8c0,11.6,8,16.8,17.4,16.8
			c13.6,0,22.2-8,25.2-16.2c0.6-1.8,0.9-3.7,0.8-5.6V318.2z"/>
	</g>
	<g>
		<text transform="matrix(1 0 0 1 79.5898 487.2598)" class="st3 st4 st5 st6">A</text>
		<text transform="matrix(1 0 0 1 164.71 487.2598)" class="st3 st4 st5 st7">GRICU</text>
		<text transform="matrix(1 0 0 1 558.8311 487.2598)" class="st3 st4 st5 st8">L</text>
		<text transform="matrix(1 0 0 1 623.938 487.2598)" class="st3 st4 st5 st7">TURE</text>
	</g>
</g>
</svg>
