<?xml version="1.0" encoding="utf-8"?>
<!-- Generator: Adobe Illustrator 25.3.1, SVG Export Plug-In . SVG Version: 6.00 Build 0)  -->
<svg version="1.1" id="Layer_1" xmlns="http://www.w3.org/2000/svg" xmlns:xlink="http://www.w3.org/1999/xlink" x="0px" y="0px"
	 viewBox="0 0 1000 720" style="enable-background:new 0 0 1000 720;" xml:space="preserve">
<style type="text/css">
	.st0{fill:#FFFFFF;stroke:#000000;stroke-miterlimit:10;}
	.st1{fill:#6FCE51;}
	.st2{font-family:'MyriadPro-Regular';}
	.st3{font-size:84.504px;}
	.st4{letter-spacing:23;}
	.st5{letter-spacing:24;}
	.st6{letter-spacing:17;}
	.st7{fill:#407C29;}
	.st8{fill:#FBC02E;}
	.st9{fill-rule:evenodd;clip-rule:evenodd;fill:#FBC02E;}
</style>
<rect class="st0" width="1000" height="720"/>
<g id="Layer_7">
	<g>
		<text transform="matrix(1 0 0 1 124.5 470.0498)" class="st1 st2 st3 st4">A</text>
		<text transform="matrix(1 0 0 1 200.5479 470.0498)" class="st1 st2 st3 st5">GRICU</text>
		<text transform="matrix(1 0 0 1 552.4941 470.0498)" class="st1 st2 st3 st6">L</text>
		<text transform="matrix(1 0 0 1 610.5449 470.0498)" class="st1 st2 st3 st5">TURE</text>
	</g>
	<g>
		<path class="st7" d="M129.1,343c9,5.2,19.1,7.9,29.5,7.9c16.9,0,26.9-8.5,26.9-20.7c0-11.1-6.9-17.8-24.2-23.9
			c-20.9-7.2-33.9-17.6-33.9-34.5c0-18.9,16.6-32.9,41.5-32.9c12.9,0,22.7,2.9,28.2,5.9l-4.6,12.8c-4-2.3-12.6-5.8-24.2-5.8
			c-17.5,0-24.2,9.9-24.2,18.2c0,11.3,7.8,16.9,25.5,23.4c21.7,7.9,32.6,17.8,32.6,35.6c0,18.7-14.5,35.1-44.8,35.1
			c-12.4,0-25.9-3.6-32.8-7.9L129.1,343z"/>
		<path class="st7" d="M296.4,341.2c-0.1,7,0.4,14,1.3,20.9h-15l-1.3-11h-0.6c-5.1,6.8-15,13-28.2,13c-18.7,0-28.2-12.4-28.2-25
			c0-21,19.8-32.6,55.4-32.4v-1.8c0-7-2.1-20.1-21-20c-8.8,0-17.7,2.3-24.2,6.5l-3.8-10.6c7.6-4.5,18.9-7.5,30.5-7.5
			c28.2,0,35,18.2,35,35.4L296.4,341.2z M280.3,317.7c-18.3-0.4-39,2.7-39,19.6c0,10.4,7.2,15.1,15.6,15.1c12.2,0,20-7.2,22.7-14.6
			c0.5-1.6,0.8-3.3,0.8-5L280.3,317.7z"/>
		<path class="st7" d="M566.9,341.2c-0.1,7,0.4,14,1.3,20.9h-15l-1.3-11h-0.6c-5.1,6.8-15,13-28.2,13c-18.7,0-28.2-12.4-28.2-25
			c0-21,19.8-32.6,55.4-32.4v-1.8c0-7-2.1-20.1-21-20c-8.8,0-17.7,2.3-24.2,6.5l-3.8-10.6c7.6-4.5,18.9-7.5,30.5-7.5
			c28.2,0,35,18.2,35,35.4L566.9,341.2z M550.7,317.7c-18.3-0.4-39,2.7-39,19.6c0,10.4,7.2,15.1,15.6,15.1c12.2,0,20-7.2,22.7-14.6
			c0.5-1.6,0.8-3.3,0.8-5L550.7,317.7z"/>
		<path class="st7" d="M591.3,298.6c0-9.2-0.2-16.4-0.8-23.6h14.8l1,14.4h0.4c4.6-8.1,15.2-16.2,30.5-16.2c12.8,0,32.6,7.2,32.6,37
			V362H653v-50.1c0-14-5.5-25.7-21.3-25.7c-10.2,0.1-19.2,6.6-22.5,16.2c-0.8,2.4-1.2,4.9-1.1,7.4v52.4h-16.8L591.3,298.6
			L591.3,298.6z"/>
		<path class="st7" d="M692.8,298.6c0-9.2-0.2-16.4-0.8-23.6h14.8l1,14.4h0.4c4.6-8.1,15.2-16.2,30.5-16.2c12.8,0,32.6,7.2,32.6,37
			V362h-16.8v-50.1c0-14-5.5-25.7-21.3-25.7c-10.2,0.1-19.2,6.6-22.5,16.2c-0.8,2.4-1.2,4.9-1.1,7.4v52.4h-16.8L692.8,298.6
			L692.8,298.6z"/>
		<path class="st7" d="M865.5,341.2c-0.1,7,0.4,14,1.3,20.9h-15l-1.3-11h-0.6c-5.1,6.8-15,13-28.2,13c-18.7,0-28.2-12.4-28.2-25
			c0-21,19.8-32.6,55.4-32.4v-1.8c0-7-2.1-20.1-21-20c-8.8,0-17.7,2.3-24.2,6.5l-3.8-10.6c7.6-4.5,18.8-7.5,30.5-7.5
			c28.2,0,35,18.2,35,35.4L865.5,341.2z M849.3,317.7c-18.3-0.4-39,2.7-39,19.6c0,10.4,7.2,15.1,15.6,15.1c12.2,0,20-7.2,22.7-14.6
			c0.5-1.6,0.8-3.3,0.8-5L849.3,317.7z"/>
		<path class="st8" d="M439.1,292c-3.9-9.9-19.5-9.4-10.9-36C432.4,262.8,447.7,265.3,439.1,292z"/>
		<path class="st8" d="M432.9,310.9c-3.8-9.9-19.4-9.5-10.8-36C426.2,281.7,441.7,284.3,432.9,310.9z"/>
		<path class="st8" d="M426.4,329.8c-3.6-10-19.1-9.7-10.4-36C420,300.6,435.6,303.2,426.4,329.8z"/>
		<path class="st8" d="M419.3,348.4c-1.5-5-6.2-7.7-9.3-12.2s-4.6-10.7-0.2-23.6c2,3.4,6.9,5.8,10.1,10.6S424.6,335.4,419.3,348.4z"
			/>
		<path class="st8" d="M469,269.1c-8.6,26.6-21,17.1-29.9,22.9C447.7,265.3,461.6,272.2,469,269.1z"/>
		<path class="st8" d="M462.9,288.1c-8.6,26.7-21.1,17.2-30,22.8C441.7,284.3,455.5,291.2,462.9,288.1z"/>
		<path class="st8" d="M456.7,307.1c-8.9,26.8-21.3,17.2-30.3,22.6C435.6,303.3,449.2,310.2,456.7,307.1z"/>
		<path class="st8" d="M450.3,326.3c-4.6,13.5-10.3,17.9-15.7,19.4s-10.6,0.2-15.3,2.7c5.3-12.9,10.9-17.8,16.5-19.7
			S446.6,327.9,450.3,326.3z"/>
		<path class="st9" d="M444.1,276.6c-7.9-9.5,1.5-32.7,11.4-35.4C462,249.2,456,273.4,444.1,276.6z"/>
		<path class="st7" d="M455.5,241.2c-9.9,2.6-19.2,25.8-11.4,35.3C456,273.4,462,249.2,455.5,241.2z M445.2,258.1
			c2-6.2,5.7-11.5,9.2-13.5c1.7,3.6,1.6,10.1-0.4,16.3s-5.2,10.6-8.8,12.4C443.2,269.7,443.2,264.2,445.2,258.1z M469,269.1
			c-7.4,3.1-21.3-3.8-29.9,22.9C448,286.2,460.4,295.7,469,269.1z M447.7,286.7c-1.4,0.2-2.8,0.3-4.2,0.6
			c5.7-13.2,12.9-13.8,19.3-14.3l2.1-0.2C459.9,285.2,454,286,447.7,286.7z M432.9,310.9c8.9-5.6,21.3,3.9,30-22.8
			C455.5,291.2,441.7,284.3,432.9,310.9L432.9,310.9z M456.7,292l2.1-0.2c-5.1,12.5-11,13.2-17.2,13.9c-1.4,0.1-2.8,0.3-4.2,0.6
			C443.1,293.1,450.3,292.5,456.7,292z M419.3,348.4c4.7-2.5,9.9-1.2,15.3-2.7s11.1-5.9,15.7-19.4c-3.7,1.5-9,0.5-14.5,2.4
			S424.6,335.5,419.3,348.4L419.3,348.4z M446.1,330.1c-5.5,12.6-11.6,13.2-17.9,13.6c-1.4,0.1-2.8,0.2-4.2,0.4
			c6.5-13,13.5-13.5,20-13.9L446.1,330.1z M426.4,329.8c9-5.5,21.4,4.2,30.3-22.6C449.2,310.2,435.6,303.3,426.4,329.8L426.4,329.8z
			 M450.5,311.1l2.1-0.2c-5.2,12.5-11.2,13.2-17.4,13.8c-1.4,0.1-2.8,0.3-4.2,0.5C437,312.1,444,311.6,450.5,311.1L450.5,311.1z
			 M439.1,292c8.6-26.7-6.7-29.2-10.9-36C419.7,282.5,435.3,282.1,439.1,292z M429.3,261.4l1.6,1.4c4.9,4.2,10.4,8.8,7.3,22.9
			c-1-1.1-2-2-3-3C430.6,278.4,426.2,274.4,429.3,261.4L429.3,261.4z M422.1,275c-8.6,26.5,7,26.1,10.8,36
			C441.7,284.3,426.2,281.7,422.1,275L422.1,275z M432,304.6c-1-1.1-2-2-3-3c-4.6-4.3-9-8.3-5.8-21.3l1.6,1.4
			C429.7,285.9,435.2,290.5,432,304.6L432,304.6z M416,293.8c-8.7,26.2,6.8,26,10.4,36C435.6,303.2,420,300.6,416,293.8z
			 M425.7,323.4c-1-1.1-2-2-3-3c-4.5-4.3-8.8-8.3-5.6-21.2l1.6,1.4C423.5,304.7,429,309.5,425.7,323.4L425.7,323.4z M419.8,323.1
			c-3.2-4.9-8-7.3-10.1-10.6c-4.4,12.9-2.9,19.1,0.2,23.6s7.9,7.2,9.3,12.2C424.6,335.4,422.9,328,419.8,323.1L419.8,323.1z
			 M418.8,342c-0.9-1.1-1.9-2.1-2.9-3.1c-4.4-4.5-8.5-8.5-5.2-21.1l1.6,1.4C417.1,323.4,422.7,328.2,418.8,342L418.8,342z
			 M396.3,391c-0.6,0-1.1-0.2-1.6-0.5C395.2,390.9,395.8,391,396.3,391L396.3,391z"/>
		<path class="st8" d="M353.6,292c-8.6-26.7,6.7-29.2,10.9-36C373,282.5,357.4,282.1,353.6,292z"/>
		<path class="st8" d="M359.8,310.9c-8.8-26.6,6.6-29.2,10.8-36C379.2,301.4,363.6,301,359.8,310.9z"/>
		<path class="st8" d="M366.3,329.8c-9.2-26.5,6.4-29.2,10.5-36C385.4,320,369.9,319.8,366.3,329.8z"/>
		<path class="st8" d="M382.7,336.1c-3.1,4.5-7.8,7.2-9.3,12.2c-5.4-13-3.7-20.4-0.6-25.2s8-7.3,10.1-10.6
			C387.4,325.4,385.8,331.6,382.7,336.1z"/>
		<path class="st8" d="M353.6,292c-8.9-5.7-21.3,3.7-29.9-22.9C331.1,272.2,345,265.3,353.6,292z"/>
		<path class="st8" d="M359.8,310.9c-8.9-5.6-21.3,3.9-30-22.8C337.2,291.2,351,284.3,359.8,310.9z"/>
		<path class="st8" d="M366.3,329.8c-8.9-5.5-21.4,4.2-30.3-22.6C343.5,310.2,357.1,303.3,366.3,329.8z"/>
		<path class="st8" d="M373.5,348.4c-4.7-2.5-9.9-1.2-15.3-2.7s-11.1-5.9-15.7-19.4c3.7,1.5,9,0.5,14.5,2.4S368.1,335.5,373.5,348.4
			z"/>
		<path class="st9" d="M348.6,276.6c-11.9-3.2-17.9-27.4-11.4-35.4C347.2,243.9,356.5,267.1,348.6,276.6z"/>
		<path class="st7" d="M396.4,391c0.6,0,1.2-0.2,1.6-0.6C397.5,390.8,396.9,391,396.4,391z M372.9,323.1c-3.1,4.8-4.8,12.2,0.6,25.2
			c1.5-5,6.2-7.7,9.3-12.2s4.6-10.7,0.2-23.6C380.9,315.9,376.1,318.3,372.9,323.1L372.9,323.1z M376.7,338.9c-1,1-2,2-2.9,3.1
			c-3.8-13.8,1.7-18.6,6.5-22.8l1.6-1.4C385.2,330.4,381.1,334.4,376.7,338.9L376.7,338.9z M376.7,293.8c-4.1,6.8-19.6,9.4-10.5,36
			C369.9,319.8,385.4,320,376.7,293.8L376.7,293.8z M367,323.4c-3.4-13.9,2.2-18.7,7-22.8l1.6-1.4c3.2,12.9-1.1,16.9-5.6,21.2
			C369,321.4,368,322.3,367,323.4z M370.6,274.9c-4.1,6.8-19.6,9.3-10.8,36C363.6,301,379.2,301.4,370.6,274.9L370.6,274.9z
			 M360.6,304.5c-3.1-14,2.3-18.7,7.2-22.9l1.6-1.4c3.1,13-1.2,17-5.8,21.3C362.6,302.5,361.6,303.5,360.6,304.5L360.6,304.5z
			 M357,328.7c-5.5-1.9-10.8-0.9-14.5-2.4c4.6,13.5,10.3,17.9,15.7,19.4s10.6,0.2,15.3,2.7C368.1,335.5,362.5,330.6,357,328.7z
			 M364.5,343.7c-6.3-0.4-12.4-1-17.9-13.6l2.1,0.1c6.5,0.4,13.5,0.9,20,13.9C367.2,343.9,365.8,343.8,364.5,343.7L364.5,343.7z
			 M364.5,256c-4.2,6.8-19.5,9.3-10.9,36C357.4,282.1,373,282.5,364.5,256L364.5,256z M354.5,285.6c-3.1-14,2.4-18.7,7.3-22.9
			l1.6-1.4c3.1,13.1-1.2,17-5.9,21.3C356.5,283.6,355.5,284.5,354.5,285.6L354.5,285.6z M366.3,329.8c-9.2-26.4-22.8-19.6-30.3-22.6
			C344.9,334,357.3,324.3,366.3,329.8L366.3,329.8z M342.2,311.1c6.5,0.5,13.5,1.1,19.5,14.2c-1.4-0.3-2.8-0.4-4.2-0.5
			c-6.2-0.6-12.2-1.3-17.4-13.8L342.2,311.1z M348.7,276.6c7.9-9.5-1.5-32.7-11.4-35.4C330.7,249.2,336.7,273.4,348.7,276.6
			L348.7,276.6z M338.4,244.6c3.5,1.9,7.2,7.2,9.2,13.5c2,6.3,2,11.6,0,15.2c-3.6-1.7-6.8-6.2-8.8-12.4S336.6,248.2,338.4,244.6
			L338.4,244.6z M359.9,310.9c-8.8-26.6-22.6-19.7-30-22.8C338.5,314.8,350.9,305.3,359.9,310.9L359.9,310.9z M336,292
			c6.4,0.5,13.6,1.1,19.3,14.3c-1.4-0.3-2.8-0.5-4.2-0.6c-6.2-0.7-12.1-1.4-17.2-13.9L336,292z M353.6,291.9
			c-8.6-26.7-22.5-19.8-29.9-22.9C332.3,295.7,344.7,286.2,353.6,291.9L353.6,291.9z M329.9,273c6.4,0.5,13.6,1.1,19.3,14.3
			c-1.4-0.3-2.8-0.5-4.2-0.6c-6.2-0.7-12.1-1.5-17.2-13.9L329.9,273z"/>
		<path class="st7" d="M471,262.9c-1.4-0.4-2.9,0.5-3.3,1.9l-0.6,2c-1.4,0.3-2.8,0.5-4.2,0.5c-2.2,0.1-4.3,0.4-6.4,0.9
			c1-1.9,1.8-3.8,2.4-5.8c2.3-7.1,2.9-16.2-0.5-21.8l0.6-1.5c0.6-1.3,0.1-2.8-1.2-3.4s-2.8-0.1-3.4,1.2c-0.1,0.2-0.2,0.4-0.2,0.6
			l-0.6,1.5c-6,2.6-10.8,10.3-13.1,17.4c-0.6,2-1.1,4-1.4,6.1c-1.4-1.6-3-3.1-4.7-4.5c-1.1-0.9-2.2-1.9-3.1-2.9l0.5-1.7
			c0.6-1.3,0-2.8-1.3-3.4c-1.3-0.6-2.8,0-3.4,1.3c-0.1,0.2-0.1,0.3-0.2,0.5c0,0-1.4,4.4-7.4,23l-8.2,25.3
			c-2.3,6.8-3.8,11.4-3.8,11.4c-6.8,19.7-0.3,25.7,5,31.3c1.7,1.6,3.1,3.5,4.1,5.6c0,0-4.8,12.3-5.1,13.1s-0.8,2-1.5,3.3
			c-1.5,3.3-3.2,6.5-5.1,9.6c-1.9,3-4,5.9-6.4,8.5c-0.8,0.8-1.5,1.5-2,2.1c-0.5-0.5-1.2-1.3-2-2.1c-2.4-2.6-4.5-5.5-6.4-8.5
			c-1.9-3.1-3.6-6.3-5.1-9.6c-0.7-1.3-1.2-2.5-1.5-3.3s-5.1-13.1-5.1-13.1c1-2.1,2.3-4,4-5.5c5.2-5.6,11.7-11.6,5-31.3
			c0,0-1.5-4.5-3.8-11.4s-5.3-16.1-8.3-25.3c-6-18.6-7.4-23-7.4-23c-0.3-1.4-1.6-2.3-3-2s-2.3,1.6-2,3c0,0.2,0.1,0.4,0.2,0.6
			l0.5,1.7c-1,1-2,2-3.1,2.9c-1.7,1.4-3.2,2.9-4.7,4.5c-0.3-2.1-0.8-4.1-1.4-6.1c-2.3-7.1-7.2-14.9-13.1-17.4l-0.6-1.5
			c-0.3-1.4-1.6-2.3-3-2.1s-2.3,1.6-2.1,3c0,0.2,0.1,0.4,0.2,0.6l0.6,1.5c-3.4,5.6-2.8,14.7-0.5,21.8c0.6,2,1.4,3.9,2.4,5.8
			c-2.1-0.5-4.2-0.8-6.4-0.9c-1.4-0.1-2.8-0.2-4.2-0.5l-0.6-2c-0.3-1.4-1.6-2.3-3-2.1s-2.3,1.6-2.1,3c0,0.2,0.1,0.4,0.2,0.6
			c0,0,1.5,4.8,7.5,23.4c3,9.3,6.1,18.7,8.4,25.7l3.9,11.7c7.2,20.9,17.2,22,24.6,22.3c2.4,0,4.7,0.4,7,1.1c0,0,4.8,12.3,5.1,13.1
			s0.9,2,1.5,3.4c1.6,3.5,3.4,6.8,5.3,10.1c2,3.3,4.4,6.4,7,9.3c1.1,1.1,2,2.1,2.7,2.8l1.1,1c0.1,0.1,0.2,0.2,0.3,0.2
			c0.5,0.3,1,0.5,1.6,0.5s1.2-0.2,1.6-0.6c0.1-0.1,0.2-0.1,0.3-0.2l1.1-1c0.7-0.6,1.6-1.6,2.7-2.8c2.6-2.9,5-6,7-9.3
			s3.7-6.6,5.3-10.1c0.7-1.4,1.2-2.6,1.5-3.4s5.1-13.1,5.1-13.1c2.3-0.7,4.6-1.1,7-1.1c7.5-0.3,17.4-1.4,24.6-22.3l4-11.8l8.1-25.7
			c6-18.6,7.5-23.4,7.5-23.4C473,265,472.4,263.4,471,262.9z M337.2,241.2c9.9,2.6,19.2,25.8,11.4,35.3
			C336.7,273.4,330.7,249.2,337.2,241.2z M323.7,269.1c7.4,3.1,21.3-3.8,29.9,22.9c-8.6-26.7,6.7-29.2,10.9-36
			c8.5,26.6-7.1,26.1-10.9,36C344.7,286.2,332.3,295.7,323.7,269.1L323.7,269.1z M359.8,310.9c-8.8-26.6,6.6-29.2,10.8-36
			C379.2,301.4,363.6,301,359.8,310.9c-8.9-5.6-21.3,3.9-30-22.8C337.2,291.2,351,284.3,359.8,310.9L359.8,310.9z M336,307.1
			c7.4,3.1,21.1-3.8,30.3,22.6c-9.2-26.5,6.4-29.2,10.5-36c8.7,26.2-6.8,26-10.5,36C357.3,324.3,344.9,334,336,307.1z M358.1,345.7
			c-5.4-1.5-11.1-5.9-15.7-19.4c3.7,1.5,9,0.5,14.5,2.4s11.1,6.8,16.5,19.7c-5.4-13-3.7-20.4-0.6-25.2s8-7.3,10.1-10.6
			c4.4,12.9,2.9,19.1-0.2,23.6s-7.8,7.2-9.3,12.2C368.7,345.9,363.5,347.2,358.1,345.7L358.1,345.7z M455.5,241.2
			c6.5,7.9,0.5,32.2-11.4,35.4C436.2,267.1,445.5,243.9,455.5,241.2L455.5,241.2z M434.6,345.7c-5.4,1.5-10.6,0.2-15.3,2.7
			c-1.5-5-6.2-7.7-9.3-12.2s-4.6-10.7-0.2-23.6c2,3.4,6.9,5.8,10.1,10.6s4.8,12.2-0.6,25.2c5.3-12.9,10.9-17.8,16.5-19.7
			s10.8-0.9,14.5-2.4C445.7,339.8,440,344.2,434.6,345.7z M426.4,329.7c-3.6-10-19.1-9.7-10.4-36
			C420.1,300.5,435.6,303.2,426.4,329.7c9.2-26.4,22.8-19.6,30.3-22.6C447.8,334,435.4,324.3,426.4,329.7L426.4,329.7z M432.9,310.9
			c-3.8-9.9-19.4-9.5-10.8-36C426.2,281.6,441.7,284.2,432.9,310.9c8.8-26.6,22.6-19.7,30-22.8C454.2,314.8,441.8,305.3,432.9,310.9
			L432.9,310.9z M439.1,292c-3.9-9.9-19.5-9.4-10.9-36C432.4,262.8,447.7,265.3,439.1,292c8.6-26.7,22.5-19.8,29.9-22.9
			C460.4,295.7,448,286.2,439.1,292z"/>
	</g>
</g>
</svg>
