<?xml version="1.0" encoding="utf-8"?>
<!-- Generator: Adobe Illustrator 25.3.1, SVG Export Plug-In . SVG Version: 6.00 Build 0)  -->
<svg version="1.1" id="Layer_1" xmlns="http://www.w3.org/2000/svg" xmlns:xlink="http://www.w3.org/1999/xlink" x="0px" y="0px"
	 viewBox="0 0 1000 720" style="enable-background:new 0 0 1000 720;" xml:space="preserve">
<style type="text/css">
	.st0{fill:#FFFFFF;stroke:#000000;stroke-miterlimit:10;}
	.st1{fill:#FBC02E;}
	.st2{fill-rule:evenodd;clip-rule:evenodd;fill:#FBC02E;}
	.st3{fill:#5B2B1D;}
	.st4{font-family:'MyriadPro-Regular';}
	.st5{font-size:129.76px;}
	.st6{letter-spacing:9;}
	.st7{letter-spacing:8;}
	.st8{fill:#CC9200;}
	.st9{font-family:'MyriadPro-Light';}
	.st10{font-size:60.949px;}
	.st11{letter-spacing:19;}
	.st12{letter-spacing:14;}
</style>
<rect class="st0" width="1000" height="720"/>
<g id="Layer_6">
	<path class="st1" d="M851,330.4c-5.3-13.6-27-13-15.1-49.9C841.7,290,863,293.4,851,330.4z"/>
	<path class="st1" d="M842.4,356.7c-5.2-13.7-26.8-13.2-14.9-49.8C833.2,316.2,854.5,319.8,842.4,356.7z"/>
	<path class="st1" d="M833.4,382.8c-5-13.8-26.5-13.5-14.5-49.8C824.6,342.4,846.2,346.1,833.4,382.8z"/>
	<path class="st1" d="M823.5,408.6c-2-7-8.6-10.7-12.9-17s-6.4-14.8-0.3-32.8c2.8,4.7,9.5,8,13.9,14.8S830.9,390.6,823.5,408.6z"/>
	<path class="st1" d="M851,330.4c12.3-7.9,29.5,5.2,41.4-31.7C882.2,303,863,293.4,851,330.4z"/>
	<path class="st1" d="M842.4,356.7c12.3-7.8,29.6,5.4,41.5-31.6C873.7,329.3,854.5,319.8,842.4,356.7z"/>
	<path class="st1" d="M833.4,382.8c12.4-7.6,29.7,5.8,41.9-31.3C865,355.7,846.1,346.2,833.4,382.8z"/>
	<path class="st1" d="M823.5,408.6c6.5-3.4,13.7-1.7,21.2-3.7s15.4-8.1,21.8-26.9c-5.2,2.1-12.5,0.7-20.2,3.3
		S830.9,390.7,823.5,408.6z"/>
	<path class="st2" d="M857.9,309.1c-10.9-13.2,2-45.4,15.8-49C882.7,271.1,874.4,304.7,857.9,309.1z"/>
	<path class="st3" d="M897.3,294.9c0,0-2.1,6.6-10.4,32.4c-4.2,12.9-8.4,25.9-11.6,35.6l-5.5,16.3c-10,29-23.8,30.5-34.2,30.9
		c-3.6,0.2-6.8,0.4-9.7,1.5c0,0-6.6,17.1-7.1,18.2s-1.2,2.8-2.2,4.7c-2.2,4.8-4.7,9.5-7.4,14c-2.8,4.6-6,8.9-9.7,12.9
		c-1.5,1.6-2.8,3-3.7,3.8l-1.5,1.3c-1.8,1.5-4.2,1.5-5.3-0.1c-1.2-1.6-0.9-3.9,0.7-5.2l1.4-1.2c0.9-0.8,2-2,3.4-3.5
		c3.3-3.6,6.3-7.6,8.8-11.8c2.6-4.3,4.9-8.7,7-13.3c0.9-1.9,1.6-3.4,2.1-4.6s7.1-18.2,7.1-18.2c-1.2-2.8-3.2-5.1-5.7-7.7
		c-7.2-7.7-16.3-16.1-6.9-43.4l5.3-15.8l11.4-35.1c8.3-25.7,10.2-31.8,10.2-31.8c0.4-1.9,2.3-3.1,4.2-2.7s3.1,2.3,2.7,4.2
		c-0.1,0.2-0.1,0.5-0.2,0.7l-0.7,2.3c1.3,1.4,2.8,2.8,4.3,4c2.3,1.9,4.5,4,6.5,6.2c0.4-2.9,1.1-5.7,2-8.4
		c3.2-9.8,9.9-20.6,18.2-24.2l0.8-2c0.4-1.9,2.3-3.1,4.2-2.7s3.1,2.3,2.7,4.2c-0.1,0.3-0.1,0.5-0.2,0.7l-0.8,2
		c4.6,7.7,3.8,20.4,0.7,30.2c-0.9,2.8-2,5.4-3.3,8c2.9-0.6,5.9-1.1,8.9-1.2c2-0.1,3.9-0.4,5.9-0.7l0.9-2.8c0.4-1.9,2.3-3.1,4.2-2.7
		s3.1,2.3,2.7,4.2C897.5,294.5,897.4,294.7,897.3,294.9L897.3,294.9z M831.2,316.2l-2.2-1.9c-4.4,18,1.7,23.6,8,29.5
		c1.4,1.3,2.9,2.6,4.2,4.1C845.6,328.4,838,322,831.2,316.2z M820.5,340.4c-4.5,17.9,1.5,23.4,7.8,29.4c1.4,1.3,2.8,2.7,4.1,4.2
		c4.7-19.3-3-25.9-9.7-31.6L820.5,340.4z M869.7,356.6l-2.9,0.2c-9,0.7-18.8,1.5-27.1,19.6c1.9-0.4,3.9-0.5,5.8-0.8
		C854.2,374.9,862.5,374,869.7,356.6L869.7,356.6z M878.3,330.2l-2.9,0.3c-8.9,0.7-18.8,1.5-26.8,19.8c1.9-0.4,3.9-0.6,5.8-0.8
		C863,348.5,871.2,347.5,878.3,330.2L878.3,330.2z M857.2,324c1.9-0.4,3.9-0.6,5.8-0.9c8.6-1,16.8-2,23.8-19.2l-2.9,0.3
		C875,304.9,865.1,305.7,857.2,324z M859.4,283.5c-2.7,8.5-2.7,16.1-0.1,21c5-2.4,9.5-8.6,12.2-17.1s2.9-17.6,0.6-22.6
		C867.3,267.5,862.2,274.9,859.4,283.5L859.4,283.5z M837.4,288c-4.4,18.1,1.7,23.6,8.1,29.5c1.4,1.3,2.9,2.6,4.2,4.1
		c4.3-19.5-3.3-25.9-10.1-31.7L837.4,288z M822.9,399.8c5.3-19.1-2.4-25.8-9-31.6l-2.2-1.9c-4.6,17.5,1.1,23,7.2,29.2
		C820.3,396.9,821.7,398.2,822.9,399.8z M860.7,383.2l-2.9,0.2c-9,0.5-18.7,1.2-27.7,19.2c2-0.3,3.9-0.4,5.8-0.5
		C844.7,401.6,853.1,400.8,860.7,383.2L860.7,383.2z"/>
	<path class="st1" d="M732.5,330.4c5.3-13.6,27-13,15.1-49.9C741.8,290,720.5,293.4,732.5,330.4z"/>
	<path class="st1" d="M741.1,356.7c5.2-13.7,26.8-13.2,15-49.8C750.3,316.2,728.9,319.8,741.1,356.7z"/>
	<path class="st1" d="M750.1,382.8c5-13.8,26.5-13.5,14.5-49.8C758.9,342.4,737.3,346.1,750.1,382.8z"/>
	<path class="st1" d="M760,408.6c2-7,8.6-10.7,12.9-17s6.4-14.8,0.3-32.8c-2.8,4.7-9.5,8-13.9,14.8S752.6,390.6,760,408.6z"/>
	<path class="st1" d="M732.5,330.4c-12.3-7.9-29.5,5.2-41.4-31.7C701.3,303,720.5,293.4,732.5,330.4z"/>
	<path class="st1" d="M741.1,356.7c-12.3-7.8-29.6,5.4-41.5-31.6C709.8,329.3,729,319.8,741.1,356.7z"/>
	<path class="st1" d="M750.1,382.8c-12.4-7.6-29.6,5.8-41.9-31.3C718.5,355.7,737.4,346.2,750.1,382.8z"/>
	<path class="st1" d="M760,408.6c-6.5-3.4-13.7-1.7-21.2-3.7s-15.4-8.1-21.8-26.9c5.2,2.1,12.5,0.7,20.2,3.3S752.6,390.7,760,408.6z
		"/>
	<path class="st2" d="M725.6,309.1c10.9-13.2-2-45.4-15.8-49C700.8,271.1,709.1,304.7,725.6,309.1z"/>
	<path class="st3" d="M688.3,290.1c2-0.5,4,0.7,4.6,2.7l0.9,2.8c1.9,0.4,3.9,0.6,5.9,0.7c3,0.2,6,0.6,8.9,1.2
		c-1.3-2.6-2.4-5.2-3.3-8c-3.2-9.8-4-22.5,0.7-30.2l-0.8-2c-0.8-1.8,0-3.9,1.8-4.7s3.9,0,4.7,1.8c0.1,0.2,0.2,0.5,0.2,0.7l0.8,2
		c8.3,3.6,15,14.3,18.2,24.2c0.9,2.8,1.6,5.6,2,8.4c2-2.2,4.2-4.3,6.5-6.2c1.5-1.2,3-2.6,4.3-4l-0.7-2.3c-0.8-1.8,0-3.9,1.8-4.7
		c1.8-0.8,3.9,0,4.7,1.8c0.1,0.2,0.2,0.5,0.2,0.7c0,0,1.9,6.1,10.2,31.8l11.4,35.1l5.3,15.7c9.4,27.3,0.4,35.6-6.9,43.4
		c-2.5,2.6-4.5,4.9-5.7,7.7c0,0,6.6,17.1,7.1,18.2s1.2,2.7,2.1,4.6c2.1,4.6,4.4,9,7,13.3c2.6,4.2,5.6,8.1,8.9,11.8
		c1.4,1.4,2.5,2.7,3.4,3.5l1.4,1.2c1.6,1.3,1.8,3.6,0.7,5.2c-1.2,1.5-3.6,1.6-5.3,0.1l-1.5-1.3c-1-0.9-2.2-2.2-3.7-3.8
		c-3.6-4-6.9-8.3-9.7-12.9c-2.7-4.5-5.2-9.2-7.4-14c-1-1.9-1.7-3.5-2.2-4.7s-7.1-18.2-7.1-18.2c-2.8-1.1-6-1.3-9.6-1.5
		c-10.4-0.4-24.2-1.9-34.2-30.9l-5.5-16.3c-3.2-9.7-7.4-22.6-11.6-35.6c-8.3-25.7-10.4-32.4-10.4-32.4
		C685.5,293,686.4,290.9,688.3,290.1z M742.3,347.9c1.3-1.5,2.8-2.8,4.2-4.1c6.4-5.9,12.4-11.5,8-29.5l-2.2,1.9
		C745.5,322,737.9,328.4,742.3,347.9L742.3,347.9z M760.8,342.4c-6.7,5.8-14.4,12.3-9.7,31.6c1.3-1.5,2.7-2.8,4.1-4.2
		c6.3-6,12.2-11.5,7.8-29.4L760.8,342.4z M737.9,375.8c1.9,0.2,3.9,0.4,5.8,0.8c-8.3-18.2-18.1-19-27.1-19.6l-2.9-0.2
		C721,374,729.3,374.9,737.9,375.8L737.9,375.8z M729.1,349.5c1.9,0.2,3.9,0.4,5.8,0.8c-8-18.3-17.9-19.1-26.8-19.8l-2.9-0.3
		C712.2,347.5,720.5,348.5,729.1,349.5L729.1,349.5z M699.6,304.2l-2.9-0.3c7,17.2,15.2,18.2,23.8,19.2c1.9,0.2,3.9,0.5,5.8,0.9
		C718.4,305.7,708.5,304.9,699.6,304.2L699.6,304.2z M711.3,264.8c-2.3,5-2.2,14,0.6,22.6s7.2,14.7,12.2,17.1
		c2.7-4.9,2.7-12.5-0.1-21S716.2,267.5,711.3,264.8L711.3,264.8z M743.8,289.9c-6.8,5.8-14.4,12.2-10.1,31.7
		c1.3-1.5,2.8-2.8,4.2-4.1c6.4-5.9,12.5-11.4,8.1-29.5C745.3,288.6,744.6,289.3,743.8,289.9L743.8,289.9z M764.5,395.5
		c6.1-6.2,11.8-11.7,7.2-29.2l-2.2,1.9c-6.6,5.9-14.3,12.5-9,31.6C761.8,398.2,763.2,396.9,764.5,395.5L764.5,395.5z M747.5,402.1
		c1.9,0.1,3.9,0.2,5.8,0.5c-9-18-18.7-18.6-27.7-19.2l-2.9-0.2C730.4,400.8,738.8,401.6,747.5,402.1L747.5,402.1z"/>
	<g>
		<text transform="matrix(1 0 0 1 107.31 375.65)" class="st3 st4 st5 st6">S</text>
		<text transform="matrix(1 0 0 1 182.05 375.65)" class="st3 st4 st5 st7">a</text>
		<text transform="matrix(1 0 0 1 253.93 375.65)" class="st3 st4 st5 st6">v</text>
		<text transform="matrix(1 0 0 1 326.21 375.65)" class="st3 st4 st5 st6">anna</text>
	</g>
	<g>
		<text transform="matrix(1 0 0 1 102.5 453.52)" class="st8 st9 st10 st11">A</text>
		<text transform="matrix(1 0 0 1 158.332 453.52)" class="st8 st9 st10 st11">GRICU</text>
		<text transform="matrix(1 0 0 1 416.52 453.52)" class="st8 st9 st10 st12">L</text>
		<text transform="matrix(1 0 0 1 459.8008 453.52)" class="st8 st9 st10 st11">TURE</text>
	</g>
</g>
</svg>
