<svg id="Layer_1" data-name="Layer 1" xmlns="http://www.w3.org/2000/svg" xmlns:xlink="http://www.w3.org/1999/xlink" viewBox="0 0 600 900"><defs><style>.cls-1,.cls-12,.cls-13,.cls-16{fill:none;}.cls-2{fill:#fff;}.cls-3{clip-path:url(#clip-path);}.cls-4{fill:#7f3604;}.cls-5{fill:#723507;}.cls-6{fill:#2cc0fe;}.cls-7{fill:#f0f1f1;}.cls-8{fill:#d0d2d3;}.cls-9{fill:#403f41;}.cls-10{fill:#221f1f;}.cls-11{fill:#f69322;}.cls-12,.cls-16{stroke:#00df19;}.cls-12,.cls-13,.cls-14,.cls-16{stroke-miterlimit:10;}.cls-12,.cls-13{stroke-width:1.13px;}.cls-13{stroke:#c31fff;}.cls-14{stroke-width:0.75px;stroke:url(#New_Gradient_Swatch_1);}.cls-15{fill:url(#linear-gradient);}.cls-16{stroke-width:0.19px;}.cls-17{fill:#d4dee3;}</style><clipPath id="clip-path"><rect class="cls-1" x="13.66" y="17" width="572.67" height="868"/></clipPath><linearGradient id="New_Gradient_Swatch_1" x1="254.97" y1="506.27" x2="254.97" y2="553.66" gradientUnits="userSpaceOnUse"><stop offset="0" stop-color="#00df19"/><stop offset="0.6" stop-color="#00df19"/><stop offset="0.62" stop-color="#1ac538"/><stop offset="0.66" stop-color="#558b7e"/><stop offset="0.69" stop-color="#855db5"/><stop offset="0.72" stop-color="#a73bdd"/><stop offset="0.75" stop-color="#bb27f6"/><stop offset="0.76" stop-color="#c31fff"/><stop offset="1" stop-color="#c31fff"/></linearGradient><linearGradient id="linear-gradient" x1="-2188.83" y1="-22.09" x2="-2187.37" y2="-22.09" gradientTransform="matrix(-15.37, 32.17, 32.17, 15.37, -32662.15, 71259.24)" gradientUnits="userSpaceOnUse"><stop offset="0" stop-color="#00df19"/><stop offset="0.6" stop-color="#00df19"/><stop offset="0.62" stop-color="#1ac538"/><stop offset="0.66" stop-color="#568b7e"/><stop offset="0.69" stop-color="#855cb6"/><stop offset="0.72" stop-color="#a73bdd"/><stop offset="0.75" stop-color="#bb27f6"/><stop offset="0.76" stop-color="#c31fff"/><stop offset="1" stop-color="#c31fff"/></linearGradient></defs><rect class="cls-2" x="13.5" y="15.5" width="573" height="875"/><g class="cls-3"><g class="cls-3"><path class="cls-4" d="M307.19,543.94s-18.21,13-5,35.89c9,15.63,16.95,27.74,22.59,34.92,4.79,6.08-13.4,32.41-13.4,32.41s-14.16,35.45-26.55,37.53c-26.3,4.38-71.69,5.12-71.69,5.12,3.93,5.21,44.66,59.67,70.49,41.27l42.41-15.18s9.4-.29,14.11-16.75c3.56-12.42,17-51.76,21.69-70.33,2.32-9.19,3.62-9.58-6.4-23.93-12.63-18.06-48.29-60.95-48.29-60.95"/><path class="cls-5" d="M334.16,596.64C317,581.89,270.37,548.3,270.37,548.3s-14.89,17.71,4.19,37.16c13,13.28,24,23.31,31.49,29,6.33,4.83-5.13,35.89-5.13,35.89a29.39,29.39,0,0,1-15.39,15.94c-25.17,11.24-50.87-9.78-50.87-9.78l-21,62c5.26,4.19,59.85,48,81,22.89l38.5-26.22s9.32-2.72,9.83-20.41c.39-13.33,3.8-56.14,3.74-75.92,0-9.79,1.17-10.52-12.51-22.25"/><path class="cls-6" d="M283.44,456.23c-3.44,13.09-.14,19.16-.24,29.93L230,461.28l-24.42,53.34c-8.43-8.53-12.62-19-21.18-23a8.63,8.63,0,0,0-.94-.41,26.71,26.71,0,0,0-34.66,13.63,27.23,27.23,0,0,0,13.08,36c13.73,3.68,19.65-.28,31.56.28l-24.95,54.5,53.47,25c.23-11.15-3.26-17.2.25-30.54a26.68,26.68,0,0,1,35.58-13.22,27.21,27.21,0,0,1,13.49,35,8.4,8.4,0,0,1-.4,1c-3.81,8.32-13.52,12.55-21.78,20.47l52.35,24.47,61.51-134.35-52.16-24.38c8.15-7.66,17.6-11.87,21.34-20.07a8.63,8.63,0,0,0,.41-.94A27.21,27.21,0,0,0,319,443a26.7,26.7,0,0,0-35.6,13.21"/><path class="cls-5" d="M231.64,609.28c-7.73-13.78-22.53-24.83-24.32-20.67S192.6,671.67,185,693.93c-4.28,12.47-19.32,57.21-19.32,57.21L142.71,778.4l59.78,51.35,20.39-24.23s31.3-17.71,41.06-27.1c11.53-11.1,73.46-66.27,73.46-66.27L234.63,686.09s4.73-63-3-76.81"/><polygon class="cls-7" points="119.38 774.95 203.57 849.63 221.87 827.54 137.68 752.86 119.38 774.95"/><polygon class="cls-8" points="161.59 812.32 203.46 849.46 221.76 827.38 179.89 790.23 161.59 812.32"/><polygon class="cls-9" points="119.31 767.55 20.28 885 180.93 885 211.23 849.06 119.31 767.55"/><path class="cls-7" d="M113.63,791.6a5.69,5.69,0,0,0-1.13,7.91,5.58,5.58,0,0,0,7.83,1.14,5.7,5.7,0,0,0,1.13-7.92,5.55,5.55,0,0,0-7.83-1.13"/><path class="cls-7" d="M101.35,806.44a5.68,5.68,0,0,0-1.13,7.9,5.56,5.56,0,0,0,7.84,1.13,5.69,5.69,0,0,0,1.11-7.9,5.54,5.54,0,0,0-7.82-1.13"/><path class="cls-7" d="M89.07,821.27a5.71,5.71,0,0,0-1.13,7.92,5.56,5.56,0,0,0,7.83,1.13,5.69,5.69,0,0,0,1.12-7.91,5.55,5.55,0,0,0-7.82-1.14"/><polygon class="cls-10" points="165.26 808.32 100.6 885 180.93 885 211.23 849.06 165.26 808.32"/><path class="cls-4" d="M317.73,190l-42.4,15.18s-9.4.28-14.12,16.75c-3.55,12.42-17,51.76-21.69,70.33-2.32,9.19-3.62,9.58,6.41,23.93,12.63,18.06,48.29,60.95,48.29,60.95s18.21-13,5-35.89c-9.05-15.64-17-27.74-22.6-34.92-4.79-6.08,13.41-32.41,13.41-32.41s14.15-35.45,26.54-37.53c26.31-4.38,71.7-5.12,71.7-5.12-3.93-5.22-44.66-59.67-70.5-41.27"/><path class="cls-5" d="M306.81,179.64l-38.5,26.21s-9.32,2.73-9.84,20.42c-.38,13.33-3.8,56.14-3.74,75.92,0,9.79-1.17,10.52,12.51,22.24C284.46,339.19,331,372.77,331,372.77s14.89-17.7-4.19-37.15c-13-13.28-24-23.32-31.48-29-6.34-4.83,5.12-35.89,5.12-35.89a29.42,29.42,0,0,1,15.4-16c25.16-11.23,50.87,9.79,50.87,9.79l21-62c-5.26-4.19-59.84-48-81-22.89"/><path class="cls-11" d="M431.8,304.67a7.9,7.9,0,0,0,.53-.88,27.28,27.28,0,0,0-8.66-36.55,26.67,26.67,0,0,0-37.05,8.22c-5.16,12.5-2.71,19-4.24,29.63L333,273.14l-31.35,49.51c-7.21-9.62-9.95-20.52-17.9-25.65a8,8,0,0,0-.88-.54,26.65,26.65,0,0,0-36.17,8.76,27.26,27.26,0,0,0,8.14,37.42c13.11,5.53,19.51,2.42,31.23,4.61l-32,50.57,49.62,32.09c1.73-11-.91-17.49,4.34-30.22a26.64,26.64,0,0,1,37-8.23A27.28,27.28,0,0,1,353.67,428a9.34,9.34,0,0,1-.53.88c-4.89,7.72-15.08,10.59-24.32,17.3l48.59,31.41,79-124.68L408,321.63c9.11-6.47,19-9.36,23.84-17"/><path class="cls-5" d="M378.53,115.56s-31.3,17.71-41.06,27.1C325.93,153.76,264,208.93,264,208.93L366.78,235s-4.73,63,3,76.81,22.53,24.83,24.31,20.67,14.72-83.06,22.36-105.33c4.29-12.46,19.33-57.2,19.33-57.2l22.93-27.26L398.91,91.33Z"/><polygon class="cls-8" points="379.54 93.54 463.73 168.22 482.02 146.13 397.84 71.45 379.54 93.54"/><polygon class="cls-7" points="379.64 93.7 421.52 130.85 439.81 108.76 397.94 71.62 379.64 93.7"/><polygon class="cls-10" points="482.09 153.53 588.19 27.7 588.19 17 436.57 17 390.18 72.02 482.09 153.53"/><path class="cls-7" d="M481.07,120.43a5.71,5.71,0,0,0-1.13,7.92,5.56,5.56,0,0,0,7.83,1.13,5.69,5.69,0,0,0,1.13-7.91,5.57,5.57,0,0,0-7.83-1.14"/><path class="cls-7" d="M493.35,105.6a5.69,5.69,0,0,0-1.11,7.91,5.54,5.54,0,0,0,7.82,1.13,5.68,5.68,0,0,0,1.12-7.9,5.56,5.56,0,0,0-7.83-1.14"/><path class="cls-7" d="M505.64,90.76a5.68,5.68,0,0,0-1.12,7.91,5.55,5.55,0,0,0,7.82,1.14,5.7,5.7,0,0,0,1.12-7.92,5.55,5.55,0,0,0-7.82-1.13"/><polygon class="cls-9" points="436.15 112.76 516.89 17 436.57 17 390.18 72.02 436.15 112.76"/><path class="cls-10" d="M383,377.47l4.8-8.41c.09-.15.17-.31.27-.45a.44.44,0,0,1,.63-.16c.9.51,1.79,1,2.68,1.56a.46.46,0,0,1,.18.64c-.07.16-.17.31-.25.46l-3.39,5.94c-.08.13-.16.26-.23.4a.7.7,0,0,0,.26,1c.23.15.49.29.73.43q2,1.15,3.94,2.3c.65.37,1,.3,1.34-.37,1.17-2,2.33-4.07,3.49-6.1.09-.16.17-.31.27-.46a.44.44,0,0,1,.67-.18c.88.5,1.75,1,2.62,1.53a.44.44,0,0,1,.16.68l-.23.4-9.61,16.82c-.5.87-.5.87-1.35.38-.66-.39-1.33-.77-2-1.17s-.57-.44-.25-1q1.49-2.62,3-5.24c.09-.16.18-.31.26-.47a.79.79,0,0,0-.34-1.22c-.68-.41-1.37-.8-2.05-1.2l-2.51-1.46c-.62-.36-.93-.28-1.29.36-1,1.8-2.07,3.61-3.1,5.41-.08.15-.17.31-.27.46a.44.44,0,0,1-.63.16c-.9-.51-1.79-1-2.68-1.56a.44.44,0,0,1-.18-.63,4.09,4.09,0,0,1,.25-.46l4.81-8.42"/><path class="cls-10" d="M346,352.58q1.65-2.88,3.29-5.76a5.06,5.06,0,0,1,.27-.46.54.54,0,0,1,.8-.21c.81.44,1.61.91,2.4,1.39.37.23.41.5.2.91-.08.16-.17.31-.26.46-2.1,3.67-4.19,7.35-6.29,11a3.66,3.66,0,0,0-.46,2.81,3.34,3.34,0,0,0,1.59,2.18,4.5,4.5,0,0,0,2.9.67,3.39,3.39,0,0,0,2.7-1.77q3.07-5.4,6.16-10.78l.26-.46c.4-.68.57-.73,1.26-.33s1.26.72,1.88,1.09.7.57.33,1.22l-3.17,5.54c-1.07,1.88-2.2,3.73-3.21,5.65a7.32,7.32,0,0,1-8.28,3.69,7.85,7.85,0,0,1-5.16-3.38,7.33,7.33,0,0,1-.33-8c1-1.84,2.08-3.66,3.12-5.48"/><path class="cls-10" d="M402.25,401a16.46,16.46,0,0,1-4.94-4.61,7.18,7.18,0,0,1-.74-1.33.73.73,0,0,1,.25-1,16.06,16.06,0,0,1,1.72-1,.58.58,0,0,1,.75.25c.2.26.38.54.56.82a12,12,0,0,0,4.08,3.79,6.86,6.86,0,0,0,1.88.78c1.57.36,2.5-.53,2.35-2.17a2.8,2.8,0,0,0-.68-1.56c-.55-.65-1.12-1.3-1.72-1.92a16.07,16.07,0,0,1-2.57-3.34,5.77,5.77,0,0,1,1.08-6.68,5.45,5.45,0,0,1,3.23-1.5,8.44,8.44,0,0,1,4.79.88,10.73,10.73,0,0,1,3.86,3.05,9.93,9.93,0,0,1,1.18,2.05c.33.75.17,1.07-.57,1.44-.51.26-1.05.46-1.56.69a.52.52,0,0,1-.7-.19l-.59-.79a8.87,8.87,0,0,0-3.41-2.85,3.39,3.39,0,0,0-2.5-.27,1.66,1.66,0,0,0-1.19,2.37,11.47,11.47,0,0,0,1.26,2.17c.89,1.23,1.86,2.41,2.79,3.61a5.39,5.39,0,0,1,1,2.34,5.25,5.25,0,0,1-4.84,6.35,8.59,8.59,0,0,1-4.81-1.37"/><path class="cls-10" d="M371.34,373.07l-3.89,6.8c-.37.65-.42.66-1.07.29l-2.39-1.4c-.67-.39-.69-.45-.3-1.13l7.57-13.25c.09-.15.18-.3.26-.46.35-.64.27-1-.36-1.38-1.06-.63-2.12-1.24-3.19-1.86l-.8-.47c-.4-.26-.44-.38-.21-.81.41-.73.82-1.46,1.25-2.19.22-.37.31-.39.69-.21l.4.23q6.4,3.75,12.83,7.48c.83.49.83.49.36,1.31l-.86,1.5c-.48.84-.48.84-1.35.34L377,365.93l-.34-.2c-.6-.33-.93-.24-1.31.37-.14.22-.26.46-.39.69l-3.59,6.28"/><path class="cls-10" d="M320.35,357.36c-.22.54-.41,1-.63,1.56l2.17,2.05,3.63,3.37a2.5,2.5,0,0,1,.27.29.5.5,0,0,1-.06.84c-.66.54-1.34,1.07-2,1.6-.31.25-.52.25-.87-.07-.7-.64-1.39-1.29-2.08-1.94l-2.39-2.28a2.58,2.58,0,0,1-.32-.34.47.47,0,0,1,0-.61.54.54,0,0,1,.72,0c.37.31.71.65,1.07,1l3.84,3.54,1.28-1c-.48-.46-.91-.88-1.36-1.3l-4.15-3.87a1.85,1.85,0,0,1-.45-.48.72.72,0,0,1,0-.54c.35-.9.73-1.79,1.1-2.69a4.66,4.66,0,0,1,.3-.73,4.36,4.36,0,0,0,.58-3.32c-.15-.67-.29-1.34-.49-2a11.15,11.15,0,0,1,13.33-14.12,11.23,11.23,0,0,1,8,13.66,10.84,10.84,0,0,1-8.53,8.14,12.23,12.23,0,0,0-2.43.83,3.19,3.19,0,0,0-1.39,1.18,2,2,0,0,1-.28.37c-.47.48-.95.46-1.49-.09.22-.28.32-.66.75-.75.1,0,.17-.19.25-.29a4.69,4.69,0,0,1,2.5-1.76c.69-.21,1.4-.37,2.1-.53a10.14,10.14,0,0,0,7.79-8.63,10.22,10.22,0,0,0-12.43-11.16,9.49,9.49,0,0,0-6.55,5.23,9.83,9.83,0,0,0-.6,7.86,19.78,19.78,0,0,1,.63,3.06,3.08,3.08,0,0,1-.5,2c-.67,1.16-.69,1.06.34,2l4.69,4.37a5,5,0,0,1,.54.58.49.49,0,0,1,0,.67c-.21.22-.45.12-.65,0a3.45,3.45,0,0,1-.51-.42l-5.31-4.86-.45-.38"/><path class="cls-10" d="M308.85,341.67c.45-.79.92-1.57,1.34-2.37a7,7,0,0,1,2-2.33c.74-.55,1.5-1.09,2.27-1.58,2.53-1.6,5.08-3.17,7.6-4.79a1.34,1.34,0,0,1,1.68-.05c.63.44,1.32.79,2,1.18a2,2,0,0,1,.38.26c.19.18.22.39,0,.56s-.37.24-.56.36c-3.48,2.14-7,4.29-10.45,6.42a3.92,3.92,0,0,0-1.41,1.45c-1,1.85-2.1,3.69-3.15,5.53a3.85,3.85,0,0,1-.24.4.56.56,0,0,1-.84.24c-.73-.41-1.45-.83-2.16-1.27-.41-.25-.45-.51-.17-1,.56-1,1.14-2,1.71-3"/><path class="cls-10" d="M314.48,331.61a5.68,5.68,0,0,1-.58.53c-.7.46-1.41.89-2.13,1.32-.56.33-.88.15-.87-.51q.09-4.41.19-8.83c0-.65.26-.78.83-.45.8.45,1.59.93,2.39,1.39a.89.89,0,0,1,.51.91c-.06,1.62-.11,3.23-.18,4.85a4.81,4.81,0,0,1-.16.79"/><path class="cls-10" d="M313.68,361.39l-.32-.14a.86.86,0,0,1-.58-.92c0-1.11-.07-2.21-.11-3.32a1.53,1.53,0,0,0-.09-.54c-.7,1-1.23,2.1-1.91,3.16-.33-.19-.63-.36-.95-.56l3.09-5.41.75.44c.25.14.19.37.2.59,0,1.06,0,2.13,0,3.19a2.66,2.66,0,0,0,.08.67c.78-.95,1.22-2.11,1.92-3.13l.94.55a46.72,46.72,0,0,1-3,5.42"/><path class="cls-10" d="M388.32,405.08a3.26,3.26,0,0,1-1.12-4.45,3.18,3.18,0,0,1,4.22-1.23,3.36,3.36,0,0,1,1.3,4.53,3.18,3.18,0,0,1-4.4,1.15M391,400.5a2,2,0,0,0-2.78.81,2,2,0,1,0,2.78-.81"/><path class="cls-10" d="M400.25,407.65c-.59,1.05-1.19,2.09-1.81,3.18l-.88-.51a45.14,45.14,0,0,1,3-5.37h.12c.69.2.87.66.84,1.35-.05,1,0,2,0,3a.82.82,0,0,0,.17.52l.9-1.58.91-1.59,1,.58-3.07,5.37a5,5,0,0,0-.47-.22.69.69,0,0,1-.43-.73c0-1.13-.07-2.26-.11-3.39,0-.19,0-.39-.05-.58l-.15,0"/><path class="cls-10" d="M350,375.38a20.69,20.69,0,0,1,2.06,1.22,2,2,0,0,1-.37,3.27,1.22,1.22,0,0,1-.36.14c-.32.05-.43.23-.45.55,0,.55-.11,1.1-.17,1.65,0,.21-.06.43-.1.71l-1-.57c.07-.77.15-1.58.23-2.42l-1-.57-1.1,1.92-.84-.49a48.55,48.55,0,0,1,3.05-5.41m.33,1.52c-.29.51-.53.94-.81,1.42.32.18.59.37.88.5a.81.81,0,0,0,1.07-.34.83.83,0,0,0-.25-1.06,10,10,0,0,0-.89-.52"/><path class="cls-10" d="M361.5,389.29l-1-.57c.09-.39.19-.8.29-1.2.2-.77.2-.77-.5-1.18-.23-.14-.46-.26-.68-.4a.53.53,0,0,0-.76.1c-.34.37-.7.72-1.08,1.09l-1-.58,4.48-4.57,1.89,1.11c-.54,2-1.09,4.07-1.67,6.2m-.22-3.52c.18-.7.36-1.33.51-2a.34.34,0,0,0-.11-.28.33.33,0,0,0-.29,0A10.94,10.94,0,0,0,360,385l1.3.76"/><path class="cls-10" d="M331,368.87l-1.11,1.93-1-.56,3-5.33a2.21,2.21,0,0,1,.41.14c.53.3,1.07.6,1.59.93a2,2,0,0,1-1.89,3.51c-.34-.16-.65-.37-1.08-.62m.61-1c.38.22.69.44,1,.59a.76.76,0,0,0,1-.36.78.78,0,0,0-.15-1,2.45,2.45,0,0,0-1.09-.58c-.26.46-.51.88-.78,1.37"/><path class="cls-10" d="M374.41,389.6l-.52.91-1.52-.88c-.94,1.48-1.7,3-2.61,4.46l-1.1-.64c.79-1.47,1.67-2.91,2.52-4.46l-1.5-1,.5-.86c1.41.74,2.78,1.6,4.23,2.44"/><path class="cls-10" d="M304.92,349.08l.91.54a48.7,48.7,0,0,1-3,5.41l-.92-.54a45.06,45.06,0,0,1,3.05-5.41"/><path class="cls-10" d="M342.05,370.72c.34.2.57.32.79.46a2.9,2.9,0,0,1,.22.19L340,376.74c-.18-.09-.34-.15-.49-.24l-.55-.37,3.1-5.41"/><path class="cls-10" d="M379,399.49c-.18-.09-.34-.16-.49-.25l-.43-.28a46.14,46.14,0,0,1,3-5.41l.93.54a50.34,50.34,0,0,1-3,5.4"/><path d="M248.29,496.16a21.55,21.55,0,0,1,4.11,2.52,14.89,14.89,0,0,1,2.86,3l-3.07,3.65a13.32,13.32,0,0,0-2.47-2.65,16,16,0,0,0-3-1.89,9.73,9.73,0,0,0-3.65-1,7.93,7.93,0,0,0-3.73.67,10.92,10.92,0,0,0-3.57,2.64,19,19,0,0,0-3.19,4.93q-2.59,5.5-1.85,9.44a7.93,7.93,0,0,0,4.71,5.85,10.48,10.48,0,0,0,4.17,1.24l3.59-7.58-4.59-2.22,2.11-4.47,9.47,4.58L243,530.14a19.7,19.7,0,0,1-4.47-.52,23.88,23.88,0,0,1-5.16-1.86,15.9,15.9,0,0,1-4.89-3.62,13.46,13.46,0,0,1-2.93-5.11,15.85,15.85,0,0,1-.58-6.34,22.36,22.36,0,0,1,2.16-7.29,22,22,0,0,1,4.27-6.29,15.7,15.7,0,0,1,5.24-3.59,13,13,0,0,1,5.77-.95,15.89,15.89,0,0,1,5.89,1.59"/><path class="cls-12" d="M248.29,496.16a21.55,21.55,0,0,1,4.11,2.52,14.89,14.89,0,0,1,2.86,3l-3.07,3.65a13.32,13.32,0,0,0-2.47-2.65,16,16,0,0,0-3-1.89,9.73,9.73,0,0,0-3.65-1,7.93,7.93,0,0,0-3.73.67,10.92,10.92,0,0,0-3.57,2.64,19,19,0,0,0-3.19,4.93q-2.59,5.5-1.85,9.44a7.93,7.93,0,0,0,4.71,5.85,10.48,10.48,0,0,0,4.17,1.24l3.59-7.58-4.59-2.22,2.11-4.47,9.47,4.58L243,530.14a19.7,19.7,0,0,1-4.47-.52,23.88,23.88,0,0,1-5.16-1.86,15.9,15.9,0,0,1-4.89-3.62,13.46,13.46,0,0,1-2.93-5.11,15.85,15.85,0,0,1-.58-6.34,22.36,22.36,0,0,1,2.16-7.29,22,22,0,0,1,4.27-6.29,15.7,15.7,0,0,1,5.24-3.59,13,13,0,0,1,5.77-.95A15.89,15.89,0,0,1,248.29,496.16Z"/><polygon points="288.4 522.79 286.58 526.63 275.97 521.51 272.59 528.67 282.33 533.37 280.53 537.17 270.79 532.47 265.87 542.87 261.04 540.54 272.96 515.34 288.4 522.79"/><polygon class="cls-12" points="288.4 522.79 286.58 526.63 275.97 521.51 272.59 528.67 282.33 533.37 280.53 537.17 270.79 532.47 265.87 542.87 261.04 540.54 272.96 515.34 288.4 522.79"/><polygon points="281.77 550.55 293.69 525.35 298.52 527.68 293.37 538.56 307.7 532.11 313.72 535.02 298.84 541.39 302.6 560.6 296.62 557.72 293.86 542.87 290.74 544.12 286.6 552.88 281.77 550.55"/><polygon class="cls-12" points="281.77 550.55 293.69 525.35 298.52 527.68 293.37 538.56 307.7 532.11 313.72 535.02 298.84 541.39 302.6 560.6 296.62 557.72 293.86 542.87 290.74 544.12 286.6 552.88 281.77 550.55"/><path d="M327.87,541.85a14.38,14.38,0,0,1,4.36,3.14,11.87,11.87,0,0,1,2.59,4.29,13.13,13.13,0,0,1,.57,5.22,17.12,17.12,0,0,1-1.7,5.92,16.47,16.47,0,0,1-3.47,5,12.57,12.57,0,0,1-4.42,2.77,12,12,0,0,1-5,.66,14.55,14.55,0,0,1-5.19-1.44,15.12,15.12,0,0,1-4.36-3.12,11.64,11.64,0,0,1-2.6-4.26,12.63,12.63,0,0,1-.59-5.19,17.17,17.17,0,0,1,1.7-5.93,16.55,16.55,0,0,1,3.48-5,12.62,12.62,0,0,1,4.44-2.81,11.77,11.77,0,0,1,5-.68,14.24,14.24,0,0,1,5.18,1.44m-13,9.47a14.31,14.31,0,0,0-1.36,4.28,9.15,9.15,0,0,0,.17,3.54,6.91,6.91,0,0,0,1.43,2.74,7.41,7.41,0,0,0,2.45,1.86,7.12,7.12,0,0,0,3,.75,6.44,6.44,0,0,0,2.95-.63,9,9,0,0,0,2.78-2.12,17.23,17.23,0,0,0,3.81-8.12,9,9,0,0,0-.15-3.58,6.52,6.52,0,0,0-1.44-2.73,7.78,7.78,0,0,0-2.45-1.84,7.12,7.12,0,0,0-3-.72,6.54,6.54,0,0,0-3,.65,9,9,0,0,0-2.79,2.16,15.15,15.15,0,0,0-2.42,3.76"/><path class="cls-12" d="M327.87,541.85a14.38,14.38,0,0,1,4.36,3.14,11.87,11.87,0,0,1,2.59,4.29,13.13,13.13,0,0,1,.57,5.22,17.12,17.12,0,0,1-1.7,5.92,16.47,16.47,0,0,1-3.47,5,12.57,12.57,0,0,1-4.42,2.77,12,12,0,0,1-5,.66,14.55,14.55,0,0,1-5.19-1.44,15.12,15.12,0,0,1-4.36-3.12,11.64,11.64,0,0,1-2.6-4.26,12.63,12.63,0,0,1-.59-5.19,17.17,17.17,0,0,1,1.7-5.93,16.55,16.55,0,0,1,3.48-5,12.62,12.62,0,0,1,4.44-2.81,11.77,11.77,0,0,1,5-.68A14.24,14.24,0,0,1,327.87,541.85Zm-13,9.47a14.31,14.31,0,0,0-1.36,4.28,9.15,9.15,0,0,0,.17,3.54,6.91,6.91,0,0,0,1.43,2.74,7.41,7.41,0,0,0,2.45,1.86,7.12,7.12,0,0,0,3,.75,6.44,6.44,0,0,0,2.95-.63,9,9,0,0,0,2.78-2.12,17.23,17.23,0,0,0,3.81-8.12,9,9,0,0,0-.15-3.58,6.52,6.52,0,0,0-1.44-2.73,7.78,7.78,0,0,0-2.45-1.84,7.12,7.12,0,0,0-3-.72,6.54,6.54,0,0,0-3,.65,9,9,0,0,0-2.79,2.16A15.15,15.15,0,0,0,314.83,551.32Z"/><path d="M307.08,576.08l.75-1.52c.28-.56.51-1,.71-1.46.26-.57.53-1.14.79-1.72s.51-1.11.74-1.58a8.69,8.69,0,0,1,.85.32c.49.2.9.38,1.22.54a16.73,16.73,0,0,1,3.45,2.17,8.88,8.88,0,0,1,2.26,3,5.84,5.84,0,0,1,0,5.22,5.51,5.51,0,0,1-2,2.37,6.75,6.75,0,0,1-3.11,1,10.33,10.33,0,0,1-3.16-.24,16.83,16.83,0,0,1-3.56-1.27l-.41-.21-.35-.17.86-2.66.32.15.44.21a14.55,14.55,0,0,0,2,.79,8.71,8.71,0,0,0,2.1.4,4.48,4.48,0,0,0,2.39-.45,3.37,3.37,0,0,0,1.54-1.56,3.76,3.76,0,0,0,.38-2.15,4.19,4.19,0,0,0-.74-1.84,7,7,0,0,0-1.14-1.18,9.3,9.3,0,0,0-1.47-1l-.57,1.22c-.33.7-.8,1.71-1.4,3Z"/><path class="cls-13" d="M307.08,576.08l.75-1.52c.28-.56.51-1,.71-1.46.26-.57.53-1.14.79-1.72s.51-1.11.74-1.58a8.69,8.69,0,0,1,.85.32c.49.2.9.38,1.22.54a16.73,16.73,0,0,1,3.45,2.17,8.88,8.88,0,0,1,2.26,3,5.84,5.84,0,0,1,0,5.22,5.51,5.51,0,0,1-2,2.37,6.75,6.75,0,0,1-3.11,1,10.33,10.33,0,0,1-3.16-.24,16.83,16.83,0,0,1-3.56-1.27l-.41-.21-.35-.17.86-2.66.32.15.44.21a14.55,14.55,0,0,0,2,.79,8.71,8.71,0,0,0,2.1.4,4.48,4.48,0,0,0,2.39-.45,3.37,3.37,0,0,0,1.54-1.56,3.76,3.76,0,0,0,.38-2.15,4.19,4.19,0,0,0-.74-1.84,7,7,0,0,0-1.14-1.18,9.3,9.3,0,0,0-1.47-1l-.57,1.22c-.33.7-.8,1.71-1.4,3Z"/><path d="M296.75,564.38l3.24.24c.07.44.23,1.23.49,2.38s.62,2.93,1.11,5.33l-.13.16a4.39,4.39,0,0,0-.92-.07,3.81,3.81,0,0,0-1.07.17,2.62,2.62,0,0,0-.84.47,2.48,2.48,0,0,0-.62.86,2,2,0,0,0-.18,1.13,1.85,1.85,0,0,0,.47,1,3.08,3.08,0,0,0,.73.62c.27.16.54.31.81.44l.37.18.17.08,1.06-2.2c.35-.75.67-1.42,1-2,.46-1,1-2.06,1.51-3.23l1.18-2.53,3,1.43-1,2.09q-.68,1.38-2,4.1c-.23.48-.55,1.17-1,2.07s-1,2.18-1.78,3.85l-1.09-.5-1.54-.72c-.89-.43-1.64-.83-2.27-1.2a8.26,8.26,0,0,1-1.67-1.27,4.16,4.16,0,0,1-1.27-2.12,3.33,3.33,0,0,1,.25-2.11,3.46,3.46,0,0,1,1.58-1.68,5.62,5.62,0,0,1,1.88-.61l0-.06q-.37-1.63-.84-3.36a23.54,23.54,0,0,1-.64-2.93"/><path class="cls-13" d="M296.75,564.38l3.24.24c.07.44.23,1.23.49,2.38s.62,2.93,1.11,5.33l-.13.16a4.39,4.39,0,0,0-.92-.07,3.81,3.81,0,0,0-1.07.17,2.62,2.62,0,0,0-.84.47,2.48,2.48,0,0,0-.62.86,2,2,0,0,0-.18,1.13,1.85,1.85,0,0,0,.47,1,3.08,3.08,0,0,0,.73.62c.27.16.54.31.81.44l.37.18.17.08,1.06-2.2c.35-.75.67-1.42,1-2,.46-1,1-2.06,1.51-3.23l1.18-2.53,3,1.43-1,2.09q-.68,1.38-2,4.1c-.23.48-.55,1.17-1,2.07s-1,2.18-1.78,3.85l-1.09-.5-1.54-.72c-.89-.43-1.64-.83-2.27-1.2a8.26,8.26,0,0,1-1.67-1.27,4.16,4.16,0,0,1-1.27-2.12,3.33,3.33,0,0,1,.25-2.11,3.46,3.46,0,0,1,1.58-1.68,5.62,5.62,0,0,1,1.88-.61l0-.06q-.37-1.63-.84-3.36A23.54,23.54,0,0,1,296.75,564.38Z"/><path d="M281.89,557.08l3.39.42c0,.23-.09.74-.16,1.53s-.15,1.7-.21,2.71l4.55,2.2c.76-.69,1.42-1.32,2-1.87s.92-.92,1.06-1.08l2.3,2.27-3.91,3.41-6.51,5.72-3-1.46q.18-4.38.35-8.95c.11-3,.17-4.68.19-4.9m2.82,6.88c-.06.73-.13,1.52-.21,2.39s-.15,1.73-.22,2.57l0,0,1.83-1.78c.73-.71,1.3-1.27,1.73-1.67h0L284.71,564Z"/><path class="cls-13" d="M281.89,557.08l3.39.42c0,.23-.09.74-.16,1.53s-.15,1.7-.21,2.71l4.55,2.2c.76-.69,1.42-1.32,2-1.87s.92-.92,1.06-1.08l2.3,2.27-3.91,3.41-6.51,5.72-3-1.46q.18-4.38.35-8.95C281.81,558.94,281.87,557.3,281.89,557.08Zm2.82,6.88c-.06.73-.13,1.52-.21,2.39s-.15,1.73-.22,2.57l0,0,1.83-1.78c.73-.71,1.3-1.27,1.73-1.67h0L284.71,564Z"/><path d="M267.59,558.89a4.23,4.23,0,0,1,1.88-2,4.91,4.91,0,0,1,2.79-.51,8.62,8.62,0,0,1,1.84.38,14.72,14.72,0,0,1,1.92.75l1.58-3.39,3,1.42c-.26.55-.63,1.3-1.08,2.24s-1.14,2.37-2,4.28l-1.17,2.49-1.44,3.11-1-.45-1-.47a23.23,23.23,0,0,1-3-1.64,7.59,7.59,0,0,1-1.7-1.56,4.53,4.53,0,0,1-1-2.24,4.1,4.1,0,0,1,.4-2.42m3.13,1.28a2.62,2.62,0,0,0-.26,1.37,2.34,2.34,0,0,0,.55,1.27,2.71,2.71,0,0,0,.77.7,9.61,9.61,0,0,0,1,.52l.13.07.14.06c0-.08.21-.43.5-1s.54-1.11.72-1.5l.65-1.36.41-.88-.15-.07-.13-.06a8.71,8.71,0,0,0-1-.39,3,3,0,0,0-1-.16,2.48,2.48,0,0,0-1.33.34,2.57,2.57,0,0,0-.95,1.14"/><path class="cls-13" d="M267.59,558.89a4.23,4.23,0,0,1,1.88-2,4.91,4.91,0,0,1,2.79-.51,8.62,8.62,0,0,1,1.84.38,14.72,14.72,0,0,1,1.92.75l1.58-3.39,3,1.42c-.26.55-.63,1.3-1.08,2.24s-1.14,2.37-2,4.28l-1.17,2.49-1.44,3.11-1-.45-1-.47a23.23,23.23,0,0,1-3-1.64,7.59,7.59,0,0,1-1.7-1.56,4.53,4.53,0,0,1-1-2.24A4.1,4.1,0,0,1,267.59,558.89Zm3.13,1.28a2.62,2.62,0,0,0-.26,1.37,2.34,2.34,0,0,0,.55,1.27,2.71,2.71,0,0,0,.77.7,9.61,9.61,0,0,0,1,.52l.13.07.14.06c0-.08.21-.43.5-1s.54-1.11.72-1.5l.65-1.36.41-.88-.15-.07-.13-.06a8.71,8.71,0,0,0-1-.39,3,3,0,0,0-1-.16,2.48,2.48,0,0,0-1.33.34A2.57,2.57,0,0,0,270.72,560.17Z"/><path d="M257.78,544.56l3,1.43-.83,1.73c-.4.82-.92,1.9-1.56,3.27.2.1.63.3,1.28.63l1.61.77,1.54.74,1.12.54q.9-1.9,1.47-3.15c.39-.83.68-1.45.87-1.88l3,1.43c-.21.43-.52,1.09-.95,2s-1.15,2.4-2.18,4.59c-.33.68-.72,1.52-1.17,2.5s-.93,2-1.42,3.07l-3-1.43c.41-.87.8-1.68,1.16-2.42s.72-1.48,1.06-2.2l-1-.49-1.65-.81-1.68-.81-1.21-.57c-.33.69-.67,1.43-1,2.21s-.74,1.6-1.14,2.43l-3-1.43c.5-1,1-2.09,1.57-3.24s1-2.09,1.34-2.82c.73-1.53,1.33-2.82,1.81-3.86s.82-1.77,1-2.19"/><path class="cls-13" d="M257.78,544.56l3,1.43-.83,1.73c-.4.82-.92,1.9-1.56,3.27.2.1.63.3,1.28.63l1.61.77,1.54.74,1.12.54q.9-1.9,1.47-3.15c.39-.83.68-1.45.87-1.88l3,1.43c-.21.43-.52,1.09-.95,2s-1.15,2.4-2.18,4.59c-.33.68-.72,1.52-1.17,2.5s-.93,2-1.42,3.07l-3-1.43c.41-.87.8-1.68,1.16-2.42s.72-1.48,1.06-2.2l-1-.49-1.65-.81-1.68-.81-1.21-.57c-.33.69-.67,1.43-1,2.21s-.74,1.6-1.14,2.43l-3-1.43c.5-1,1-2.09,1.57-3.24s1-2.09,1.34-2.82c.73-1.53,1.33-2.82,1.81-3.86S257.59,545,257.78,544.56Z"/><path d="M230.82,532.61l3.34.23a17.28,17.28,0,0,0,.25,2.16c.15,1,.36,2.38.64,4.16l0,0c1.25-.71,2.4-1.39,3.44-2a21.7,21.7,0,0,0,1.95-1.26l2.22,2.36c-.3.19-.94.57-1.94,1.13l-4.26,2.39,0,0c.17,1.33.38,2.69.62,4.1s.39,2.33.42,2.74l-3.3-.29a15.88,15.88,0,0,0-.25-2.16c-.16-1.05-.36-2.29-.59-3.71l-.05,0c-1.12.69-2.18,1.32-3.18,1.91s-1.61,1-1.83,1.14l-2.23-2.3c.26-.17,1-.61,2.28-1.29s2.46-1.37,3.63-2.08l0,0q-.42-2.43-.75-4.29c-.23-1.24-.38-2.21-.44-2.91"/><path class="cls-13" d="M230.82,532.61l3.34.23a17.28,17.28,0,0,0,.25,2.16c.15,1,.36,2.38.64,4.16l0,0c1.25-.71,2.4-1.39,3.44-2a21.7,21.7,0,0,0,1.95-1.26l2.22,2.36c-.3.19-.94.57-1.94,1.13l-4.26,2.39,0,0c.17,1.33.38,2.69.62,4.1s.39,2.33.42,2.74l-3.3-.29a15.88,15.88,0,0,0-.25-2.16c-.16-1.05-.36-2.29-.59-3.71l-.05,0c-1.12.69-2.18,1.32-3.18,1.91s-1.61,1-1.83,1.14l-2.23-2.3c.26-.17,1-.61,2.28-1.29s2.46-1.37,3.63-2.08l0,0q-.42-2.43-.75-4.29C231,534.28,230.88,533.31,230.82,532.61Z"/><path class="cls-14" d="M265,506.73l1.52.74-.81,3.72-.11.89-.62.65-.5.39-2.66,6.94s-.23,1.15-.34,2.05l-.6,1.29c-.37.77-2,3.75-2.69,5-1.25,2.4-4.88,9.66-4.88,9.66l-5.61,11.2c-1.35,2.19-2.46,3.87-2.46,3.87a1.18,1.18,0,0,1-.37.13,2.09,2.09,0,0,1-1.28-.61,1.69,1.69,0,0,1-.13-.38l1.44-4.37,5.1-11.44s3.27-7.59,4.11-10c.47-1.35,1.81-4.5,2.18-5.27l.61-1.29c.62-.64,1.36-1.55,1.36-1.55l3.67-6.45v-.63l.11-.9.62-.65Z"/><path class="cls-15" d="M265,506.73h0l1.52.74-.81,3.72-.11.89-.62.65-.5.39-2.66,6.94s-.23,1.15-.34,2.05l-.6,1.29c-.37.77-2,3.75-2.69,5-1.25,2.4-4.88,9.66-4.88,9.66l-5.61,11.2c-1.35,2.19-2.46,3.87-2.46,3.87a1.36,1.36,0,0,1-.37.13h0a2.09,2.09,0,0,1-1.28-.61,1.69,1.69,0,0,1-.13-.38l1.44-4.37,5.1-11.44s3.27-7.59,4.11-10c.47-1.35,1.81-4.5,2.18-5.27l.61-1.29c.62-.64,1.36-1.55,1.36-1.55l3.67-6.45v-.63l.11-.9.62-.65,2.35-3h0l-2.35,3-.62.65-.11.9v.63l-3.67,6.45s-.74.91-1.36,1.55l-.61,1.29c-.37.77-1.71,3.92-2.18,5.27-.84,2.44-4.11,10-4.11,10l-5.1,11.44-1.44,4.37a1.69,1.69,0,0,0,.13.38,2.09,2.09,0,0,0,1.28.61h0a1.36,1.36,0,0,0,.37-.13s1.11-1.68,2.46-3.87l5.61-11.2s3.63-7.26,4.88-9.66c.65-1.27,2.32-4.25,2.69-5l.6-1.29c.11-.9.34-2.05.34-2.05l2.66-6.94.5-.39.62-.65.11-.89.81-3.72-1.52-.74Z"/><path class="cls-16" d="M264.73,510.2a.43.43,0,0,1-.77-.37.43.43,0,1,1,.77.37Z"/><line class="cls-16" x1="265.72" y1="507.1" x2="264.53" y2="509.63"/></g></g><rect class="cls-17" x="-0.39" y="837.69" width="18.9" height="40.81"/><rect class="cls-17" x="-0.39" y="796.88" width="18.9" height="40.81"/><rect class="cls-17" x="-0.39" y="756.07" width="18.9" height="40.81"/><rect class="cls-17" x="-0.39" y="715.26" width="18.9" height="40.81"/><rect class="cls-17" x="-0.39" y="674.45" width="18.9" height="40.81"/><rect class="cls-17" x="-0.39" y="633.64" width="18.9" height="40.81"/><rect class="cls-17" x="-0.39" y="592.83" width="18.9" height="40.81"/><rect class="cls-17" x="-0.39" y="552.02" width="18.9" height="40.81"/><rect class="cls-17" x="-0.39" y="511.21" width="18.9" height="40.81"/><rect class="cls-17" x="-0.39" y="470.4" width="18.9" height="40.81"/><rect class="cls-17" x="-0.39" y="429.6" width="18.9" height="40.81"/><rect class="cls-17" x="-0.39" y="388.79" width="18.9" height="40.81"/><rect class="cls-17" x="-0.39" y="347.98" width="18.9" height="40.81"/><rect class="cls-17" x="-0.39" y="307.17" width="18.9" height="40.81"/><rect class="cls-17" x="-0.39" y="266.36" width="18.9" height="40.81"/><rect class="cls-17" x="-0.39" y="225.55" width="18.9" height="40.81"/><rect class="cls-17" x="-0.39" y="184.74" width="18.9" height="40.81"/><rect class="cls-17" x="-0.39" y="143.93" width="18.9" height="40.81"/><rect class="cls-17" x="-0.39" y="103.12" width="18.9" height="40.81"/><rect class="cls-17" x="-0.39" y="62.31" width="18.9" height="40.81"/><rect class="cls-17" x="-0.39" y="21.5" width="18.9" height="40.81"/><rect class="cls-17" x="21.55" y="-0.44" width="39.78" height="18.9"/><rect class="cls-17" x="61.33" y="-0.44" width="39.78" height="18.9"/><rect class="cls-17" x="101.11" y="-0.44" width="39.78" height="18.9"/><rect class="cls-17" x="140.9" y="-0.44" width="39.78" height="18.9"/><rect class="cls-17" x="180.68" y="-0.44" width="39.78" height="18.9"/><rect class="cls-17" x="220.46" y="-0.44" width="39.78" height="18.9"/><rect class="cls-17" x="260.24" y="-0.44" width="39.78" height="18.9"/><rect class="cls-17" x="300.02" y="-0.44" width="39.78" height="18.9"/><rect class="cls-17" x="339.81" y="-0.44" width="39.78" height="18.9"/><rect class="cls-17" x="379.59" y="-0.44" width="39.78" height="18.9"/><rect class="cls-17" x="419.37" y="-0.44" width="39.78" height="18.9"/><rect class="cls-17" x="459.15" y="-0.44" width="39.78" height="18.9"/><rect class="cls-17" x="498.94" y="-0.44" width="39.78" height="18.9"/><rect class="cls-17" x="538.72" y="-0.44" width="39.78" height="18.9"/><rect class="cls-17" x="581.54" y="21.5" width="18.9" height="40.81"/><rect class="cls-17" x="581.54" y="62.31" width="18.9" height="40.81"/><rect class="cls-17" x="581.54" y="103.12" width="18.9" height="40.81"/><rect class="cls-17" x="581.54" y="143.93" width="18.9" height="40.81"/><rect class="cls-17" x="581.54" y="184.74" width="18.9" height="40.81"/><rect class="cls-17" x="581.54" y="225.55" width="18.9" height="40.81"/><rect class="cls-17" x="581.54" y="266.36" width="18.9" height="40.81"/><rect class="cls-17" x="581.54" y="307.17" width="18.9" height="40.81"/><rect class="cls-17" x="581.54" y="347.98" width="18.9" height="40.81"/><rect class="cls-17" x="581.54" y="388.79" width="18.9" height="40.81"/><rect class="cls-17" x="581.54" y="429.6" width="18.9" height="40.81"/><rect class="cls-17" x="581.54" y="470.4" width="18.9" height="40.81"/><rect class="cls-17" x="581.54" y="511.21" width="18.9" height="40.81"/><rect class="cls-17" x="581.54" y="552.02" width="18.9" height="40.81"/><rect class="cls-17" x="581.54" y="592.83" width="18.9" height="40.81"/><rect class="cls-17" x="581.54" y="633.64" width="18.9" height="40.81"/><rect class="cls-17" x="581.54" y="674.45" width="18.9" height="40.81"/><rect class="cls-17" x="581.54" y="715.26" width="18.9" height="40.81"/><rect class="cls-17" x="581.54" y="756.07" width="18.9" height="40.81"/><rect class="cls-17" x="581.54" y="796.88" width="18.9" height="40.81"/><rect class="cls-17" x="581.54" y="837.69" width="18.9" height="40.81"/><rect class="cls-17" x="538.72" y="881.54" width="39.78" height="18.9"/><rect class="cls-17" x="498.94" y="881.54" width="39.78" height="18.9"/><rect class="cls-17" x="459.15" y="881.54" width="39.78" height="18.9"/><rect class="cls-17" x="419.37" y="881.54" width="39.78" height="18.9"/><rect class="cls-17" x="379.59" y="881.54" width="39.78" height="18.9"/><rect class="cls-17" x="339.81" y="881.54" width="39.78" height="18.9"/><rect class="cls-17" x="300.02" y="881.54" width="39.78" height="18.9"/><rect class="cls-17" x="260.24" y="881.54" width="39.78" height="18.9"/><rect class="cls-17" x="220.46" y="881.54" width="39.78" height="18.9"/><rect class="cls-17" x="180.68" y="881.54" width="39.78" height="18.9"/><rect class="cls-17" x="140.9" y="881.54" width="39.78" height="18.9"/><rect class="cls-17" x="101.11" y="881.54" width="39.78" height="18.9"/><rect class="cls-17" x="61.33" y="881.54" width="39.78" height="18.9"/><rect class="cls-17" x="21.55" y="881.54" width="39.78" height="18.9"/><polygon class="cls-17" points="21.55 18.46 21.55 -0.44 -0.39 21.5 18.51 21.5 21.55 18.46"/><polygon class="cls-17" points="581.54 21.5 600.44 21.5 578.5 -0.44 578.5 18.46 581.54 21.5"/><polygon class="cls-17" points="578.5 881.54 578.5 900.44 600.44 878.5 581.54 878.5 578.5 881.54"/><polygon class="cls-17" points="18.51 878.5 -0.39 878.5 21.55 900.44 21.55 881.54 18.51 878.5"/></svg>