<svg id="Layer_1" data-name="Layer 1" xmlns="http://www.w3.org/2000/svg" viewBox="0 0 1440 1080"><defs><style>.cls-1{fill:#fff;}</style></defs><rect class="cls-1" width="1440" height="1080"/><path d="M1203.2,344.33c1.75-3.4,1.75-3.4,5.48-3,1,1.85.52,4,.54,6s.38,4.15-.41,6.11c-3.7.57-3.7.57-5.75-2.79-1.43-.05-3-.15-4.59-.15q-120.4,0-240.82,0a159.63,159.63,0,0,0-38.52,4.23,88.52,88.52,0,0,0-17.56,6.26c-15.11,7.32-24.93,19.1-29.76,35.1a82.67,82.67,0,0,0-3.8,23.11c-.16,16.14-.19,32.28,0,48.42a82.33,82.33,0,0,0,4.4,24.93q7.56,22.81,29.21,33.25A99.32,99.32,0,0,0,929.06,534a181.22,181.22,0,0,0,29.62,2.17q83.24,0,166.46,0c4.63,0,9.27.33,13.89.68a28.84,28.84,0,0,1,6.1,1.17c5.94,1.81,9.33,6.05,9.71,12.28.22,3.5.09,7,.1,10.54,0,2.88.07,5.76,0,8.63-.17,5.85-2.84,9.73-8.41,11.47a57.34,57.34,0,0,1-9.86,1.84,53.56,53.56,0,0,1-6.71.16H871.85c-1.72,0-3.44-.12-5.37-.19v-5.19a19.75,19.75,0,0,1,2.71-.48c1.59-.08,3.2,0,4.79,0q127.38,0,254.74,0c4,0,8-.47,12-.77a13.56,13.56,0,0,0,2.8-.59c4.14-1.25,5.47-2.91,5.54-7.26.08-5.27,0-10.55,0-15.82a19.09,19.09,0,0,0-.19-2.39,7.2,7.2,0,0,0-5.62-6.44,37.76,37.76,0,0,0-6.6-1.11c-3.66-.26-7.34-.36-11-.36q-84,0-167.9,0a166.92,166.92,0,0,1-40-4.41,99,99,0,0,1-15.87-5.32c-19.35-8.43-31.44-23-36.75-43.31a107.86,107.86,0,0,1-3.32-27.05q-.06-22.53.35-45.06A84.9,84.9,0,0,1,866,394.47q8.21-27.59,34.33-39.65A104,104,0,0,1,926.41,347a197.53,197.53,0,0,1,33.9-2.67H1203.2Z"/><path d="M624.76,401.61v5.17a22.28,22.28,0,0,1-2.52.37c-1.59.06-3.19,0-4.79,0q-125.44,0-250.87,0c-3.68,0-7.36,0-11,.25a38.58,38.58,0,0,0-7.09,1.09c-3.81,1-5.27,2.93-5.32,6.88-.07,5.59-.1,11.19,0,16.78.1,5.17,2.09,7.66,7.21,8.6a65.93,65.93,0,0,0,10.95,1.06c11.51.13,23,0,34.53,0q68.12,0,136.23,0a193.41,193.41,0,0,1,35.31,2.95,106,106,0,0,1,21.57,6.3c20.18,8.38,32.81,23.26,38.11,44.38a91.2,91.2,0,0,1,3,21.79c.08,15.83.15,31.65,0,47.47a89.25,89.25,0,0,1-4.58,26.83c-5.67,17.36-16.85,29.81-33.37,37.55a107.75,107.75,0,0,1-28.88,8.42,200.48,200.48,0,0,1-32,2.17q-118.49,0-237,0c-2.06,0-4.15-.31-6.3.39-1.88,4.68-4.63,8.56-10.24,10-.79-2.5-.4-4.72-.44-6.88s.13-4.15.16-6.23c0-2.24,0-4.48,0-6.71a18.59,18.59,0,0,1,.69-6.31c5.55,1,8,4.93,9.91,9.74H532.61a174.17,174.17,0,0,0,38.56-3.89,93.7,93.7,0,0,0,15.5-4.92c18.43-7.69,29.92-21.31,34.64-40.66a101,101,0,0,0,2.93-23.73c0-13.1.08-26.21,0-39.31a96.25,96.25,0,0,0-4.5-29.26c-5.06-15.59-15.06-26.83-29.84-33.86a96.68,96.68,0,0,0-24.64-7.6,192.53,192.53,0,0,0-33.89-2.76q-84.18,0-168.37,0c-4.47,0-9,.07-13.36-1a35.09,35.09,0,0,1-3.68-1c-5.37-2-8.15-5.9-8.7-11.51a13.87,13.87,0,0,1-.06-1.44c0-6.07.11-12.15-.05-18.22a11.5,11.5,0,0,1,8-11.28,35.58,35.58,0,0,1,7.45-1.64c4.62-.4,9.26-.61,13.89-.61q126.15,0,252.31,0C620.69,401.08,622.62,400.79,624.76,401.61Z"/><path d="M624.57,344.9a5.06,5.06,0,0,1,.39,1.31c.06,1.1,0,2.2,0,3.54a17.94,17.94,0,0,1-2.81.65c-1.6.1-3.2,0-4.8,0H363.14a156.86,156.86,0,0,0-33.82,3.22,80.05,80.05,0,0,0-17.72,5.78,65.66,65.66,0,0,0-7.13,3.91c-12.27,7.93-18.66,19.37-19.88,33.82-.13,1.59-.17,3.19-.17,4.78q0,19.43,0,38.84a65.48,65.48,0,0,0,2,16.13,46.72,46.72,0,0,0,21.55,29.35,76.08,76.08,0,0,0,24.5,9.34,156.27,156.27,0,0,0,32.88,3q83.22,0,166.44,0a84.51,84.51,0,0,1,18.57,1.87,34,34,0,0,1,9.81,3.74c7,4.1,10.75,10.26,11.52,18.29.11,1.11.11,2.23.11,3.35,0,10.07,0,20.14,0,30.21a30.94,30.94,0,0,1-.63,6.66,22.13,22.13,0,0,1-10.8,14.59,35.88,35.88,0,0,1-13.07,4.47c-4.26.63-8.58.81-12.88,1.13-1.43.11-2.88,0-4.32,0H285.76a9.62,9.62,0,0,1-.15-5.52c.93-.12,1.84-.33,2.76-.36,1.6-.06,3.2,0,4.8,0q119.19,0,238.39,0a73.48,73.48,0,0,0,17.13-1.73,37.11,37.11,0,0,0,5.92-1.9c7.17-3.07,11-8.52,11.17-16.36.1-4.15,0-8.31,0-12.47,0-6.23-.1-12.46,0-18.7.16-8.75-4.06-15.44-13.56-18.62-6-2-12.21-2.37-18.45-2.62-1.43-.06-2.87,0-4.31,0H368.82A207,207,0,0,1,342,503.32c-11.47-1.5-22.6-4.15-33-9.5-18.1-9.34-27.75-24.41-30.15-44.38a85,85,0,0,1-.52-9.57c-.06-12.31,0-24.61,0-36.92a61.89,61.89,0,0,1,1.92-16.14,47.44,47.44,0,0,1,21.06-28.64c7.92-5,16.62-8.11,25.7-10.19a153.84,153.84,0,0,1,34.27-3.61q129.27-.12,258.54,0C621.4,344.34,623,344,624.57,344.9Z"/><path d="M866.45,639.74v-5.53c1-.15,1.92-.35,2.84-.39,1.43-.07,2.87,0,4.31,0q126.9,0,253.79,0a172.29,172.29,0,0,0,33.39-2.89A88.22,88.22,0,0,0,1180,625a53.51,53.51,0,0,0,11.84-7.21,40.61,40.61,0,0,0,14.82-25,61.32,61.32,0,0,0,1.05-10.47c.11-13.11.06-26.22,0-39.32a63.61,63.61,0,0,0-2.79-18.42,46.31,46.31,0,0,0-19.5-25.86c-7.31-4.8-15.4-7.71-23.85-9.7a146.6,146.6,0,0,0-33.79-3.5q-82.76-.08-165.51,0a94.32,94.32,0,0,1-18.15-1.28,40.85,40.85,0,0,1-10.9-3.56c-7.19-3.69-11.48-9.5-12.62-17.53a44.4,44.4,0,0,1-.48-6.2c-.05-9.11,0-18.22,0-27.33a47.73,47.73,0,0,1,.3-4.78c1.07-9.89,6.53-16.4,15.61-20a43.66,43.66,0,0,1,13-3c4.78-.38,9.58-.64,14.37-.65q119,0,237.95,0c1.89,0,3.84-.33,5.81.51a8.15,8.15,0,0,1,0,5.21,21.7,21.7,0,0,1-2.34.35c-1.59.06-3.19,0-4.79,0q-118.26,0-236.52,0c-6.07,0-12.17-.15-18.14,1.2a46.54,46.54,0,0,0-8.23,2.49c-6.76,2.93-10.5,8.14-10.81,15.6-.12,2.87-.1,5.75-.1,8.63q0,10.31,0,20.62c0,1.6,0,3.2.11,4.79.46,7.23,4.12,12.26,10.67,15.23,5.17,2.35,10.7,3.17,16.3,3.53,3.19.2,6.4.17,9.59.17q83,0,166,0a144.38,144.38,0,0,1,38,4.66,77.74,77.74,0,0,1,19.85,8.25c14.3,8.58,22.62,21.25,25.74,37.52a81.36,81.36,0,0,1,1.24,15.26q0,17.75,0,35.49a64.81,64.81,0,0,1-2,17.08,47.09,47.09,0,0,1-18.88,26.88c-7.56,5.33-16,8.64-24.9,10.88a139.4,139.4,0,0,1-29.39,4c-5,.16-9.92.21-14.87.21q-125.22,0-250.43,0Z"/><path d="M778,576.86a95.27,95.27,0,0,0,9.54.19c3,0,6.08,0,9.12,0h37.9c3,0,6.07,0,9.11,0s6.34.07,9.66.1a10.69,10.69,0,0,1,.14,5.34,6.93,6.93,0,0,1-1.51.41q-39.11,0-78.2,0a13.91,13.91,0,0,1-2-.31,21.35,21.35,0,0,1-.36-2.35c0-1.6,0-3.2,0-4.8q0-109.1,0-218.19c0-2.05-.07-4.1-.12-6.4a29.22,29.22,0,0,0-3-.42c-1.6-.07-3.2,0-4.8,0H644c-1.9,0-3.8-.07-5.69-.11-1.14-1.88-.58-3.59-.54-5.49,1-.18,1.93-.41,2.84-.48,1.11-.08,2.23,0,3.35,0H771.1c1.89,0,3.78.07,5.86.11a28.54,28.54,0,0,1,.5,3c.07,1.6,0,3.2,0,4.8q0,109.1,0,218.19C777.5,572.49,777.22,574.57,778,576.86Z"/><path d="M714.53,639.17V500.34q0-23.23,0-46.49,0-23,0-45.93c-1.92-1.11-3.71-.72-5.4-.72-13.59,0-27.18,0-40.76,0q-12.71,0-25.42,0c-1.57,0-3.14-.12-4.77-.18a8.74,8.74,0,0,1-.22-5.51,26.63,26.63,0,0,1,3.25-.39q37.65,0,75.29,0c1.1,0,2.19.15,3.52.25.17,1.05.41,1.94.46,2.84.07,1.6,0,3.2,0,4.8q0,109,0,218.1c0,2,.07,4.1.12,6.43,1.7.11,3.08.28,4.47.29q19.42,0,38.84,0h89.29a9.92,9.92,0,0,1,.28,5.37c-1.73.93-3.52.55-5.23.55-12.95,0-25.89,0-38.84,0q-44.35,0-88.72,0C718.83,639.73,716.91,640,714.53,639.17Z"/><path d="M736.23,677.11c.12,2.23.06,2.41-1.19,2.49s-2.55.08-3.83.08q-244.14,0-488.29,0a26.71,26.71,0,0,1-4.29-.24c-.37-.06-.74-.91-.84-1.45-.06-.3.38-.83.73-1a3.06,3.06,0,0,1,1.4-.23c1.43,0,2.87,0,4.31,0H730.12C732.17,676.71,734.26,676.39,736.23,677.11Z"/><path d="M786.77,677.3a3.73,3.73,0,0,1,1.26-.48q215.36,0,430.71,0a4.08,4.08,0,0,1,1.27.44c.36,1.13.25,2-1,2.33a6.14,6.14,0,0,1-1.43.11c-1.28,0-2.56,0-3.84,0q-210.32,0-420.64,0c-1.76,0-3.52,0-5.27-.14C786.6,679.42,786.53,678.41,786.77,677.3Z"/><path d="M957.06,711.74c-.12,1.78-.21,3.16-.33,4.86-1.82.09-3.38.22-5,.22-6.07,0-12.15,0-18.22,0-1.57,0-3.22-.26-4.94,1a13.71,13.71,0,0,0-.45,2.44c-.06,3.35-.08,6.71,0,10.06.06,2.54.66,3.21,3.08,3.3,3.19.12,6.39.07,9.59.06s6.66-.06,10.25-.09c.14-1.54.31-2.76.34-4s-.09-2.2-.15-3.38c-1.89-1.06-3.84-.58-5.7-.65-2.07-.08-4.15,0-6.23,0-1.9,0-3.79-.06-5.63-.1a4.68,4.68,0,0,1-.16-4.91,25.46,25.46,0,0,1,2.77-.27c5.12,0,10.23,0,15.35,0a14.61,14.61,0,0,1,2.39.11,3.09,3.09,0,0,1,2.9,3.23c.11,2.07.06,4.15.06,6.23,0,2.56,0,5.11-.06,7.67a7.87,7.87,0,0,1-.29,1.23,12.7,12.7,0,0,1-2.51.48c-7.68,0-15.35,0-23,0a14.4,14.4,0,0,1-2.86-.23c-3.74-.75-5.63-2.79-5.73-6.57-.14-4.79-.15-9.59,0-14.38.12-4,2.21-6.08,6.19-6.62a13.51,13.51,0,0,1,1.91-.12q12,0,24,0A19.38,19.38,0,0,1,957.06,711.74Z"/><path d="M607.05,717.6c-.19.35-.6.77-.61,1.19-.09,4.14-.18,8.28-.13,12.42,0,1.49.9,2.21,2.46,2.41a19,19,0,0,0,2.39.11c5.1,0,10.21,0,15.32,0a28.41,28.41,0,0,0,2.9-.35,19.09,19.09,0,0,0,0-7.38c-6-.85-11.85,0-17.73-.55a5,5,0,0,1-.17-4.66,6,6,0,0,1,1.47-.41q8.85-.06,17.71,0a10.2,10.2,0,0,1,1.91.17,2.65,2.65,0,0,1,2.41,2.56,141.63,141.63,0,0,1-.15,15.93c-1.07.11-2,.29-2.91.29q-11,0-22,0a17.85,17.85,0,0,1-3.8-.32c-3.3-.74-4.93-2.57-5.44-5.87a12.17,12.17,0,0,1-.1-1.91c0-4-.09-8,0-12,.14-5.3,2.35-7.69,7.6-7.79,8.45-.15,16.91,0,25.37,0a4.28,4.28,0,0,1,1.12.38c.69,1.38.37,2.89.07,4.75-1.5.09-2.9.25-4.29.26-6.07,0-12.13,0-18.2,0C610.53,716.85,608.74,716.59,607.05,717.6Z"/><path d="M962.16,739.27c-.85-4.11-.86-23.52-.09-27.45,3.6-.63,28.89-.69,33.49-.06a5.41,5.41,0,0,1,0,4.76c-1,.1-2.1.29-3.17.3-6.71,0-13.42,0-20.14,0a34.89,34.89,0,0,0-3.82.18,1.41,1.41,0,0,0-1.3,1.67,1.45,1.45,0,0,0,1.48,1.51c1.12.1,2.24.1,3.35.11,4.8,0,9.59,0,14.39,0,1.26,0,2.51.11,3.68.16.78,2.34.79,2.34.2,4.88-3.71.5-7.53.15-11.34.25s-7.59-.25-11.62.31c-.1,1.36-.2,2.44-.23,3.52s0,2.23,0,3.06c1.11,1.55,2.49,1.22,3.71,1.22,6.72,0,13.43,0,20.14,0,1.57,0,3.13.11,4.66.17,1.08,1.69.82,3.22.41,5.11-3.75.54-7.56.2-11.35.26s-7.35,0-11,0Z"/><path d="M1129.91,711.49h5.15a16.36,16.36,0,0,1,.51,2.76c0,4.31,0,8.62,0,12.94,0,1.12,0,2.24,0,3.35.13,2.4.72,3,3.24,3.16l.48,0c3.67,0,7.35,0,11,0a10,10,0,0,0,1.9-.4c.73-2.44.32-4.84.39-7.2s0-4.8,0-7.19-.28-4.75.3-7.1a8.82,8.82,0,0,1,1.52-.41c.93,0,1.87,0,3,0a19.79,19.79,0,0,1,.47,3c0,4.63,0,9.26,0,13.89,0,1.58.11,3.15.17,5a20.45,20.45,0,0,0,2.82.45c3.52,0,7,.08,10.55,0,2.77-.09,3.43-.75,3.48-3.45.09-4.47,0-8.94,0-13.41v-4.62c2.6-.82,2.6-.82,5.44-.27.07.69.21,1.46.22,2.23q0,8.39,0,16.78a14.3,14.3,0,0,1-.23,2.85,5.7,5.7,0,0,1-4.2,4.76,19.23,19.23,0,0,1-4.69.71q-16.31.09-32.6,0a16.83,16.83,0,0,1-4.25-.52c-2.93-.78-4.73-2.73-4.83-5.81C1129.73,726,1129.81,719,1129.91,711.49Z"/><path d="M1091.4,711.52H1125c1.18,1.47.83,3,.47,4.46-1.11,1.16-2.46.83-3.69.83-6.71,0-13.42,0-20.13,0a26.79,26.79,0,0,0-3.81.24,1.3,1.3,0,0,0-1,1.8,2,2,0,0,0,1.15,1.23,16.79,16.79,0,0,0,3.33.19c5,0,9.91,0,14.86,0,1.25,0,2.5.18,4,.29v4.58a28.32,28.32,0,0,1-3.29.4c-4.95,0-9.9,0-14.85,0-1.58,0-3.15.06-4.76.09-.94,2.62-.61,4.94-.39,7.58a27.82,27.82,0,0,0,3.29.43c6.71,0,13.42,0,20.13,0h4.51c1.62,1.62,1,3.23,1,5a5.75,5.75,0,0,1-1.69.54q-15.57,0-31.15,0a5.8,5.8,0,0,1-1.23-.35c-.86-4.39-.3-9-.38-13.54S1091.14,716.44,1091.4,711.52Z"/><path d="M343.11,739c.08-1.84.15-3.24.22-5,1.6-.1,3-.26,4.4-.27,5.58,0,11.17,0,16.75,0,1.28,0,2.56,0,3.82-.11,1.86-.18,2.51-.91,2.61-2.76a15.87,15.87,0,0,0-.06-2.39,2.07,2.07,0,0,0-1.83-1.93,23.93,23.93,0,0,0-3.79-.32c-4,0-8,0-12,0a32.74,32.74,0,0,1-5.24-.37c-3.14-.54-4.68-2.37-4.88-5.55a28.8,28.8,0,0,1,0-3.35c.15-3,1.52-4.67,4.48-5.32a11.08,11.08,0,0,1,2.37-.24q12,0,23.93,0a5.06,5.06,0,0,1,1.17.35,5.46,5.46,0,0,1,.15,4.31c-1.34,1.07-2.83.73-4.23.74-5.75,0-11.49,0-17.23,0-1.57,0-3.22-.35-4.62.7-.13,2.39.15,3,1.66,3.14a37.41,37.41,0,0,0,3.82.12c4,0,8,0,12,0A31,31,0,0,1,370,721c4.28.47,6.34,2.51,6.66,6.72a28.88,28.88,0,0,1-.06,5.26c-.36,3.34-2,5.17-5.27,6a14.75,14.75,0,0,1-3.32.36c-7.5,0-15,0-22.5,0C344.85,739.27,344.23,739.12,343.11,739Z"/><path d="M843.44,711.64v4.75a31.9,31.9,0,0,1-3.43.42c-5.91,0-11.82,0-17.74,0-1.27,0-2.55,0-3.82.17a1.47,1.47,0,0,0-1.39,1.61,1.64,1.64,0,0,0,1.15,1.86,15.38,15.38,0,0,0,3.32.32c4,0,8,0,12,0,.8,0,1.6,0,2.4,0,6.73.19,8.91,2.38,9,9,0,6.92-2.22,9.36-9,9.45-7.36.09-14.71,0-22.06,0-.62,0-1.24-.12-2-.2-.73-1.58-.39-3.11-.17-5,1.27-.13,2.49-.34,3.71-.35,5.75,0,11.51,0,17.26,0,1.12,0,2.24,0,3.35-.06,2.58-.19,3.22-1,3.22-3.69s-.69-3.59-3.27-3.69c-4.15-.14-8.31,0-12.46-.09a61.25,61.25,0,0,1-6.22-.25c-4.26-.48-5.76-2.25-5.86-6.61,0-.79,0-1.6,0-2.39.15-3.06,1.48-4.7,4.44-5.35a13.71,13.71,0,0,1,2.86-.25q11.26,0,22.54,0C841.75,711.36,842.37,711.51,843.44,711.64Z"/><path d="M1075.48,729.77c1,1.69,2.51,2.32,3.74,3.23s2.63,1.81,3.92,2.75,2.44,1.85,4.32,3.29a37.19,37.19,0,0,1-8.29.15,6.57,6.57,0,0,1-2.91-1.48c-2.59-1.86-5.1-3.83-7.65-5.74-4.09-3.07-4.21-3.1-9.83-2.17-1.2,2.8,0,5.92-.86,8.94-1.39.92-2.91.58-4.62.29-.75-2.23-.34-4.46-.41-6.64-.07-2.39,0-4.79,0-7.18,0-2.23,0-4.47,0-6.7a33.84,33.84,0,0,1,.32-6.82,20.49,20.49,0,0,1,2.38-.33c7.66,0,15.32,0,23,0,7.39-.06,9.15,3.67,9,9.47a15.7,15.7,0,0,1-.19,2.38c-.61,3.39-2.15,5-5.56,5.69-1.4.28-2.85.29-4.27.46C1076.91,729.4,1076.34,729.58,1075.48,729.77Zm-17-6a6.43,6.43,0,0,0,1.42.46q9.06.06,18.12.08a11.64,11.64,0,0,0,1.42-.16,2.33,2.33,0,0,0,2.18-2.15,11.73,11.73,0,0,0,0-2.84,2.3,2.3,0,0,0-2.22-2.11,15.06,15.06,0,0,0-1.89-.16c-5.56,0-11.13,0-16.69,0a12.75,12.75,0,0,0-2.35.48A18.47,18.47,0,0,0,1058.52,723.73Z"/><path d="M746.38,711.83c-.08,1.67-.15,3.07-.21,4.31-1.77,1-3.4.67-5,.68-5.59,0-11.18,0-16.78,0-1.4,0-2.89-.3-4.36.83a5.71,5.71,0,0,0,.25,2.07,2.18,2.18,0,0,0,1.53.91,21.8,21.8,0,0,0,3.34.15c4.16,0,8.31,0,12.47,0a25.74,25.74,0,0,1,4.3.26,6.1,6.1,0,0,1,5.44,5.25,20.08,20.08,0,0,1,0,7.61,5.73,5.73,0,0,1-4.27,4.69,14.15,14.15,0,0,1-3.76.62c-7.83,0-15.66,0-23.49,0a2.75,2.75,0,0,1-1-5.28c8.75-.65,17.52.26,26.05-.51a6.54,6.54,0,0,0,.91-1.54c.82-4.33-.15-5.6-4.48-5.67s-8.63,0-12.94,0a33.14,33.14,0,0,1-5.73-.45,5,5,0,0,1-4.37-5c-.11-1.43,0-2.87,0-4.31a4.56,4.56,0,0,1,3.48-4.6,10.21,10.21,0,0,1,3.3-.51c7.83,0,15.66,0,23.49,0A12.49,12.49,0,0,1,746.38,711.83Z"/><path d="M500.07,739.22c-.64-4.92-.61-23.22,0-27.54a21.09,21.09,0,0,1,2.62-.32q11.28,0,22.55,0a16,16,0,0,1,4.25.51A5.69,5.69,0,0,1,534,717.4q.19,7.9,0,15.82a5.56,5.56,0,0,1-4.13,5.32,8.86,8.86,0,0,1-2.78.65C518.2,739.24,509.26,739.22,500.07,739.22Zm5.43-6a7.8,7.8,0,0,0,1.6.41q8.83,0,17.67,0a8.52,8.52,0,0,0,1.42-.13c1.36-.22,2.15-.84,2.17-2.11.08-4.13.06-8.27,0-12.4a2,2,0,0,0-1.76-2,12.44,12.44,0,0,0-2.36-.25q-8.36,0-16.71,0a10.52,10.52,0,0,0-1.74.31C505,720.81,504.93,727,505.5,733.27Z"/><path d="M398.7,739.29c-2.87,0-5.75.07-8.62,0a16.8,16.8,0,0,1-4.22-.66A5.66,5.66,0,0,1,381.5,733c-.11-5.1-.16-10.21,0-15.31.11-3.44,2.19-5.52,5.63-6.12a20.55,20.55,0,0,1,3.33-.21c5.43,0,10.85,0,16.28,0,.79,0,1.6,0,2.39.09,4.42.46,6.64,2.68,6.78,7.12s-.05,8.61.05,12.92c.11,4.64-2.5,7.59-7.7,7.77-3.19.12-6.38,0-9.57,0Zm-.19-5.61v0c3,0,6.05.08,9.06,0,1.85-.07,2.61-.88,2.65-2.69.09-3.5.1-7,0-10.49-.05-2.75-.66-3.48-3.33-3.54-4.93-.13-9.86-.07-14.79-.07a18.94,18.94,0,0,0-2.38.09c-1.83.22-2.58.91-2.62,2.73-.09,3.65-.1,7.31,0,11,0,2.2.72,3,2.81,3C392.79,733.77,395.65,733.68,398.51,733.68Z"/><path d="M911.8,731c-3.95-.67-18.16-.75-22.78-.15-1.33,2.46-.06,5.3-1,8-1.4.83-2.91.49-4.61.29a13.88,13.88,0,0,1-.35-2c0-5.26,0-10.53,0-15.8a17.65,17.65,0,0,1,.11-1.92c.49-4.52,3.09-7.23,7.61-7.89a19.05,19.05,0,0,1,2.39-.15h14.38a16,16,0,0,1,2.39.15,8.4,8.4,0,0,1,7.58,7.46,13.59,13.59,0,0,1,.17,2.39c0,5.11,0,10.22,0,15.33a16.11,16.11,0,0,1-.38,2.43h-4.57C911.47,736.61,912.58,733.81,911.8,731Zm.18-6.25c0-1.8.12-3.38,0-4.93a2.9,2.9,0,0,0-2.46-2.6,9.3,9.3,0,0,0-1.88-.29c-4.79,0-9.58-.12-14.37,0-3.74.11-4.65,1.18-4.8,5a18.14,18.14,0,0,0,.27,2.63C892.6,725.23,906.56,725.32,912,724.7Z"/><path d="M489.05,731.08c.07-7,.12-13.05.18-18.86,1.76-1.35,3.33-.71,5-.73a20.59,20.59,0,0,1,.41,2.9c0,6.86,0,13.73,0,20.6,0,1.57.29,3.39-1.47,4.24-1.91.93-3.3-.39-4.69-1.51q-9.32-7.53-18.66-15c-1.08-.86-2.23-1.64-3.67-2.7-.82,1.86-.52,3.44-.57,5s0,3.19,0,4.79c0,1.44,0,2.88,0,4.31,0,1.58-.12,3.15-.18,4.69a7.06,7.06,0,0,1-5,.24,16.55,16.55,0,0,1-.31-2.29q0-10.78,0-21.56c0-1.42-.21-3,1.42-3.77s3,.23,4.29,1.24l18.65,15C485.69,728.6,487,729.51,489.05,731.08Z"/><path d="M1048.42,712v3.9c-1.14,1.28-2.49.93-3.71.94-6.22,0-12.45,0-18.67,0a30.43,30.43,0,0,0-3.82.16,2.37,2.37,0,0,0-2.38,2.5c-.12,2.07-.08,4.15-.09,6.22,0,1.76,0,3.52.08,5.26s.87,2.5,2.74,2.66c1.27.12,2.56.09,3.83.1h19.15c.78,0,1.56.11,2.32.17,1.12,1.62.77,3.18.51,5a18.22,18.22,0,0,1-2.68.4q-11.25,0-22.5,0a16.82,16.82,0,0,1-3.33-.27c-3.47-.72-5.24-2.66-5.66-6.19a32.55,32.55,0,0,1-.09-3.83c0-3.51-.13-7,0-10.53.22-4.46,2.43-6.89,6.88-7,8.77-.19,17.55,0,26.32,0C1047.65,711.47,1047.93,711.73,1048.42,712Z"/><path d="M673.81,739.31l-4.8-.21c-.1-4.46-.19-8.71-.28-12.86-3.59-.93-16.18-1.14-22.66-.47-1.09,1-.74,2.36-.77,3.59-.08,2.87-.07,5.75-.13,8.62,0,.28-.25.56-.49,1.08h-4.42c-.77-3.94-.78-23.34,0-27.43a17.63,17.63,0,0,1,2.24-.25,21.49,21.49,0,0,1,2.54.28c.16,2.79.32,5.43.46,8,4,.69,17.51.78,22.89.18,1.11-2.43-.07-5.26.91-8,1.41-.82,2.92-.58,4.43-.24C674.49,715.15,674.59,733.84,673.81,739.31Z"/><path d="M449.73,711.52h4.79a14.16,14.16,0,0,1,.53,2.72c.05,5.58,0,11.16,0,16.74a15.18,15.18,0,0,1-.07,1.91c-.46,3.48-2.25,5.44-5.73,6.14a17.61,17.61,0,0,1-3.33.26c-5.42,0-10.85,0-16.27,0-.64,0-1.28,0-1.91-.06-4.75-.49-6.95-2.64-7-7.37-.13-6.22,0-12.44,0-18.65a7.62,7.62,0,0,1,.4-1.59H426a27.8,27.8,0,0,1,.41,3.22c.05,4.62,0,9.24,0,13.87a27.24,27.24,0,0,0,.1,2.86,2.09,2.09,0,0,0,1.8,1.95,13.57,13.57,0,0,0,2.38.2q7.17,0,14.35,0a14.52,14.52,0,0,0,2.38-.21,2.14,2.14,0,0,0,1.86-1.9,21.91,21.91,0,0,0,.15-3.34c0-4.78,0-9.57,0-14.35C449.48,713.3,449.6,712.68,449.73,711.52Z"/><path d="M1222,338.51h19a6.87,6.87,0,0,1,.89,2.19c.1,4.31.14,8.61.06,12.92,0,2-.89,2.83-3,2.86-5.41.06-10.82,0-16.47,0-1-3.13-.47-6.15-.54-9.1S1222,341.73,1222,338.51Z"/><path d="M677.38,716.36V712.1c.41-.22.8-.59,1.22-.61,1.59-.11,3.19-.14,4.78-.15h27.85a6.25,6.25,0,0,1,.2,5c-4.44,1.21-9.12-.09-13.76.84-.82,3.78-.29,7.45-.4,11.07s-.07,7-.09,10.35c-1.76,1.18-3.31.52-5,.57-1-3.76-.37-7.43-.48-11.06s0-7,0-10.63C687,716.05,682.26,717.53,677.38,716.36Z"/><path d="M264.32,650.84H253.66a6.59,6.59,0,0,1-.57-1.79q0-11.7.18-23.4a15.48,15.48,0,0,1,.33-2.1,38.88,38.88,0,0,1,11.13.13C264.62,632.69,264.88,641.54,264.32,650.84Z"/><path d="M775.57,726.23l4.62,5.39a11,11,0,0,0,1.39-2c.49-1.34.82-2.74,1.29-4.37l2.93-.25c.27.49.59.8.53,1-.76,2.89-1.58,5.77-2.53,9.19l2.73,3.54c-.18,1.16-1.07,1.22-1.8,1.06-1.49-.33-3-.85-5.05-1.49-.65.26-1.94.82-3.25,1.32a9.62,9.62,0,0,1-6.11.22,7.55,7.55,0,0,1-4.29-11.8,36.72,36.72,0,0,1,2.82-3.24,30.33,30.33,0,0,1-1.23-3.62,6.42,6.42,0,0,1,2.5-6.77,6.94,6.94,0,0,1,7.26-.69c3.26,1.42,4.14,6,1.78,9A39,39,0,0,1,775.57,726.23ZM771.45,728a3.81,3.81,0,0,0-2.49,3.87,6,6,0,0,0,.95,3.06c1.56,2.15,4.43,2.09,7.7-.1A30.23,30.23,0,0,0,771.45,728Zm1.66-5c2.72-1.88,3-2.23,3.35-3.13a2.81,2.81,0,0,0-1.61-3.52,2.48,2.48,0,0,0-3.06,1.61C771,719.89,771.61,721.4,773.11,723.08Z"/><path d="M846.7,716.62c-.13-1.28-.27-2.07-.27-2.85a15.51,15.51,0,0,1,.29-2.13c5.78-.66,11.49-.2,17.18-.28s11.11-.07,16.5,0a6.08,6.08,0,0,1,.21,5.17c-4.63.71-9.27-.13-14,.56-.57,4-.2,7.65-.31,11.29-.09,3.47.18,7-.21,10.64h-4.69a16.65,16.65,0,0,1-.44-2.65c0-4.63,0-9.26,0-13.89v-5a16.49,16.49,0,0,0-2.9-.63c-2.56-.09-5.11,0-7.67-.06C849.31,716.81,848.22,716.71,846.7,716.62Z"/><path d="M761.83,661.49a16.66,16.66,0,0,1,16.83,16.66c0,7.76-5.8,16.74-16.84,16.66-10.86-.08-16.5-8.84-16.58-16.43A16.65,16.65,0,0,1,761.83,661.49Zm13.84,16.82a13.73,13.73,0,1,0-13.89,13.51A13.87,13.87,0,0,0,775.67,678.31Z"/><path d="M561.1,711.65a24,24,0,0,1,2.46-.28c.79,0,1.58.12,2.53.2,1,3.63.36,7.29.49,10.9s0,7,0,10.7a18.93,18.93,0,0,0,2.9.54c4.15,0,8.29,0,12.44,0,1.24,0,2.47.2,3.89.32v4.83c-4,.84-8.13.27-12.2.37s-7.94,0-12,0c-1-3.19-.47-6.21-.56-9.18s0-6,0-9.08S561.07,715,561.1,711.65Z"/><path d="M244.3,620.4h5.29a9.18,9.18,0,0,1,.55,2.18q0,14.82-.17,29.64a7.38,7.38,0,0,1-.41,1.51,9.32,9.32,0,0,1-5.46,0C243.26,649.57,243.37,626.63,244.3,620.4Z"/><path d="M273.7,620.29c.81,4.55.71,28-.11,33.43A24.14,24.14,0,0,1,271,654a28.54,28.54,0,0,1-3-.26,16.69,16.69,0,0,1-.34-2.42c.14-10.16.32-20.32.48-30.53C270,619.8,271.75,620.21,273.7,620.29Z"/><path d="M590.37,711.71a6.13,6.13,0,0,1,4.5,0c.74,4.27.7,23.55-.07,27.29h-4.48C589.56,734.58,589.62,715.33,590.37,711.71Z"/><path d="M1213.26,338.56l4.29-.21c.91,3.61,1,13.62.13,17.72a5.52,5.52,0,0,1-1.29.31c-3.25,0-3.77-.41-3.82-3.42-.07-3.83,0-7.66,0-11.49A14.39,14.39,0,0,1,1213.26,338.56Z"/><path d="M1245.46,351v-6.46c3.35-.95,6.57-.36,10-.39a16.78,16.78,0,0,1,.08,6.58,19.89,19.89,0,0,1-2.43.29C1250.7,351,1248.34,351,1245.46,351Z"/><path d="M1263.81,352.81l-4.2-1.67v-6.81c1-1.28,2.54-1.54,4.19-1.9a18.35,18.35,0,0,1,4.83,5.1C1267.61,349.69,1265.78,351,1263.81,352.81Z"/><path d="M218.81,636.11a71.94,71.94,0,0,1,16.16.1c.66,1.17.58,2.4-.87,2.47-4.73.24-9.47.31-14.2.25C218.4,638.91,218.43,637.58,218.81,636.11Z"/><path d="M538.31,732.83h3.35c.72,2.83,0,5.49.23,7.87-1.19,1.3-2.17,1.16-3.52.19A38.31,38.31,0,0,1,538.31,732.83Z"/><path d="M232.47,622.16l6.85,7.33-1.43,1.65c-1.39.05-4.3-2.76-7.45-6.94Z"/><path d="M232.25,652.5c-1-.91-1.5-1.42-2.29-2.18l7.1-7.27,2.55,1.92Z"/></svg>